<svg version="1.1" viewBox="0.0 0.0 614.0 349.0" fill="none" stroke="none" stroke-linecap="square" stroke-miterlimit="10" xmlns:xlink="http://www.w3.org/1999/xlink" xmlns="http://www.w3.org/2000/svg"><clipPath id="p.0"><path d="m0 0l614.0 0l0 349.0l-614.0 0l0 -349.0z" clip-rule="nonzero"/></clipPath><g clip-path="url(#p.0)"><path fill="#000000" fill-opacity="0.0" d="m0 0l614.0 0l0 349.0l-614.0 0z" fill-rule="evenodd"/><path fill="#000000" d="m-7.0 1.6745406l621.51184 0l0 351.937l-621.51184 0z" fill-rule="evenodd"/><path stroke="#000000" stroke-width="1.0" stroke-linejoin="round" stroke-linecap="butt" d="m-7.0 1.6745406l621.51184 0l0 351.937l-621.51184 0z" fill-rule="evenodd"/><path fill="#00153c" d="m479.4925 149.14174l0 0c0 -7.0332947 15.529022 -12.734909 34.68506 -12.734909c19.156006 0 34.684998 5.7016144 34.684998 12.734909l0 50.93962c0 7.0332947 -15.528992 12.734909 -34.684998 12.734909c-19.156036 0 -34.68506 -5.7016144 -34.68506 -12.734909z" fill-rule="evenodd"/><path fill="#000000" fill-opacity="0.0" d="m548.86255 149.14174l0 0c0 7.0332947 -15.528992 12.734909 -34.684998 12.734909c-19.156036 0 -34.68506 -5.7016144 -34.68506 -12.734909" fill-rule="evenodd"/><path fill="#000000" fill-opacity="0.0" d="m479.4925 149.14174l0 0c0 -7.0332947 15.529022 -12.734909 34.68506 -12.734909c19.156006 0 34.684998 5.7016144 34.684998 12.734909l0 50.93962c0 7.0332947 -15.528992 12.734909 -34.684998 12.734909c-19.156036 0 -34.68506 -5.7016144 -34.68506 -12.734909z" fill-rule="evenodd"/><path stroke="#5a8bff" stroke-width="1.0" stroke-linejoin="round" stroke-linecap="butt" d="m548.86255 149.14174l0 0c0 7.0332947 -15.528992 12.734909 -34.684998 12.734909c-19.156036 0 -34.68506 -5.7016144 -34.68506 -12.734909" fill-rule="evenodd"/><path stroke="#5a8bff" stroke-width="1.0" stroke-linejoin="round" stroke-linecap="butt" d="m479.4925 149.14174l0 0c0 -7.0332947 15.529022 -12.734909 34.68506 -12.734909c19.156006 0 34.684998 5.7016144 34.684998 12.734909l0 50.93962c0 7.0332947 -15.528992 12.734909 -34.684998 12.734909c-19.156036 0 -34.68506 -5.7016144 -34.68506 -12.734909z" fill-rule="evenodd"/><path fill="#ffffff" d="m508.71887 188.07088q-1.34375 0 -2.53125 -0.328125q-1.171875 -0.328125 -2.03125 -0.96875q-0.3125 -0.203125 -0.375 -0.484375q-0.046875 -0.28125 0.078125 -0.515625q0.125 -0.25 0.359375 -0.328125q0.25 -0.078125 0.5625 0.125q0.84375 0.609375 1.796875 0.875q0.953125 0.265625 2.140625 0.265625q1.6875 0 2.484375 -0.625q0.8125 -0.625 0.8125 -1.65625q0 -0.828125 -0.59375 -1.3125q-0.578125 -0.484375 -1.953125 -0.765625l-1.9375 -0.390625q-1.765625 -0.375 -2.640625 -1.21875q-0.859375 -0.84375 -0.859375 -2.265625q0 -1.171875 0.609375 -2.046875q0.609375 -0.875 1.6875 -1.359375q1.09375 -0.5 2.5 -0.5q1.171875 0 2.1875 0.328125q1.03125 0.328125 1.84375 0.984375q0.265625 0.203125 0.3125 0.484375q0.046875 0.265625 -0.09375 0.484375q-0.125 0.21875 -0.375 0.296875q-0.234375 0.0625 -0.5625 -0.140625q-0.75 -0.578125 -1.5625 -0.8125q-0.8125 -0.25 -1.765625 -0.25q-1.46875 0 -2.34375 0.6875q-0.875 0.671875 -0.875 1.78125q0 0.90625 0.546875 1.4375q0.546875 0.515625 1.796875 0.75l1.9375 0.40625q1.890625 0.390625 2.796875 1.1875q0.90625 0.796875 0.90625 2.15625q0 1.109375 -0.59375 1.953125q-0.59375 0.828125 -1.6875 1.296875q-1.078125 0.46875 -2.578125 0.46875zm11.051697 0q-1.109375 0 -2.1875 -0.3125q-1.078125 -0.328125 -1.890625 -0.9375q-0.296875 -0.234375 -0.34375 -0.5q-0.046875 -0.265625 0.078125 -0.484375q0.125 -0.234375 0.375 -0.296875q0.265625 -0.0625 0.59375 0.140625q0.8125 0.546875 1.625 0.796875q0.828125 0.234375 1.703125 0.234375q1.421875 0 2.171875 -0.625q0.765625 -0.625 0.765625 -1.84375q0 -1.15625 -0.765625 -1.75q-0.765625 -0.59375 -2.21875 -0.59375l-1.328125 0q-0.734375 0 -0.734375 -0.671875q0 -0.65625 0.734375 -0.65625l1.1875 0q1.28125 0 2.015625 -0.65625q0.734375 -0.671875 0.734375 -1.828125q0 -1.03125 -0.6875 -1.578125q-0.671875 -0.5625 -1.921875 -0.5625q-0.859375 0 -1.609375 0.25q-0.734375 0.234375 -1.453125 0.8125q-0.28125 0.203125 -0.53125 0.15625q-0.25 -0.0625 -0.390625 -0.28125q-0.140625 -0.21875 -0.09375 -0.5q0.046875 -0.28125 0.34375 -0.5q0.71875 -0.609375 1.71875 -0.953125q1.015625 -0.359375 2.109375 -0.359375q1.890625 0 2.96875 0.90625q1.078125 0.890625 1.078125 2.484375q0 1.09375 -0.5625 1.921875q-0.5625 0.828125 -1.546875 1.203125q1.171875 0.3125 1.828125 1.171875q0.65625 0.84375 0.65625 2.09375q0 1.703125 -1.1875 2.71875q-1.1875 1.0 -3.234375 1.0z" fill-rule="nonzero"/><path fill="#00153c" d="m243.92749 149.14226l0 0c0 -7.0334473 5.701721 -12.735168 12.735168 -12.735168l113.30133 0c3.3775635 0 6.616791 1.3417358 9.005096 3.7300415c2.3883057 2.3883057 3.7300415 5.627548 3.7300415 9.005127l0 50.939117c0 7.033432 -5.701721 12.735168 -12.735138 12.735168l-113.30133 0c-7.0334473 0 -12.735168 -5.7017365 -12.735168 -12.735168z" fill-rule="evenodd"/><path stroke="#5a8bff" stroke-width="1.0" stroke-linejoin="round" stroke-linecap="butt" d="m243.92749 149.14226l0 0c0 -7.0334473 5.701721 -12.735168 12.735168 -12.735168l113.30133 0c3.3775635 0 6.616791 1.3417358 9.005096 3.7300415c2.3883057 2.3883057 3.7300415 5.627548 3.7300415 9.005127l0 50.939117c0 7.033432 -5.701721 12.735168 -12.735138 12.735168l-113.30133 0c-7.0334473 0 -12.735168 -5.7017365 -12.735168 -12.735168z" fill-rule="evenodd"/><path fill="#ffffff" d="m291.10376 170.97182q-0.671875 0 -0.671875 -0.6875l0 -9.984375q0 -0.6875 0.65625 -0.6875q0.65625 0 0.65625 0.6875l0 9.515625l5.25 0q0.609375 0 0.609375 0.578125q0 0.578125 -0.609375 0.578125l-5.890625 0zm8.484894 -9.640625q-0.84375 0 -0.84375 -0.8125q0 -0.78125 0.84375 -0.78125q0.84375 0 0.84375 0.78125q0 0.8125 -0.84375 0.8125zm0 9.71875q-0.640625 0 -0.640625 -0.703125l0 -6.546875q0 -0.6875 0.640625 -0.6875q0.65625 0 0.65625 0.6875l0 6.546875q0 0.703125 -0.65625 0.703125zm5.9620056 0.03125q-0.5625 0 -0.828125 -0.625l-2.765625 -6.453125q-0.15625 -0.375 -0.015625 -0.640625q0.140625 -0.28125 0.578125 -0.28125q0.4375 0 0.65625 0.515625l2.40625 5.90625l2.453125 -5.90625q0.109375 -0.28125 0.25 -0.390625q0.140625 -0.125 0.421875 -0.125q0.359375 0 0.484375 0.28125q0.140625 0.265625 0 0.625l-2.8125 6.46875q-0.25 0.625 -0.828125 0.625zm8.737396 0.03125q-1.84375 0 -2.921875 -1.078125q-1.0625 -1.078125 -1.0625 -2.9375q0 -1.203125 0.484375 -2.109375q0.484375 -0.921875 1.3125 -1.421875q0.84375 -0.515625 1.953125 -0.515625q1.578125 0 2.46875 1.015625q0.90625 1.015625 0.90625 2.796875q0 0.5 -0.5625 0.5l-5.296875 0q0.0625 1.328125 0.765625 2.03125q0.703125 0.6875 1.953125 0.6875q0.53125 0 1.078125 -0.140625q0.546875 -0.140625 1.046875 -0.484375q0.375 -0.25 0.625 -0.09375q0.25 0.140625 0.25 0.4375q0.015625 0.296875 -0.328125 0.515625q-0.53125 0.390625 -1.265625 0.59375q-0.71875 0.203125 -1.40625 0.203125zm-0.203125 -7.09375q-1.109375 0 -1.75 0.6875q-0.640625 0.6875 -0.75 1.796875l4.71875 0q-0.046875 -1.171875 -0.625 -1.828125q-0.5625 -0.65625 -1.59375 -0.65625zm6.043274 7.0625q-0.65625 0 -0.65625 -0.6875l0 -10.140625q0 -0.671875 0.65625 -0.671875q0.65625 0 0.65625 0.671875l0 4.5625l0.03125 0l5.21875 -4.875q0.390625 -0.359375 0.796875 -0.359375q0.4375 0 0.515625 0.3125q0.09375 0.3125 -0.1875 0.578125l-5.078125 4.6875l5.328125 4.9375q0.359375 0.328125 0.21875 0.65625q-0.125 0.328125 -0.5625 0.328125q-0.234375 0 -0.40625 -0.109375q-0.15625 -0.09375 -0.375 -0.296875l-5.46875 -5.015625l-0.03125 0l0 4.734375q0 0.6875 -0.65625 0.6875zm10.004517 -9.75q-0.84375 0 -0.84375 -0.8125q0 -0.78125 0.84375 -0.78125q0.84375 0 0.84375 0.78125q0 0.8125 -0.84375 0.8125zm0 9.71875q-0.640625 0 -0.640625 -0.703125l0 -6.546875q0 -0.6875 0.640625 -0.6875q0.65625 0 0.65625 0.6875l0 6.546875q0 0.703125 -0.65625 0.703125zm6.1963806 0.0625q-1.390625 0 -2.078125 -0.71875q-0.6875 -0.734375 -0.6875 -2.109375l0 -4.078125l-1.0625 0q-0.5625 0 -0.5625 -0.515625q0 -0.5 0.5625 -0.5l1.0625 0l0 -1.828125q0 -0.65625 0.65625 -0.65625q0.640625 0 0.640625 0.65625l0 1.828125l2.015625 0q0.5625 0 0.5625 0.5q0 0.515625 -0.5625 0.515625l-2.015625 0l0 3.953125q0 0.90625 0.375 1.390625q0.390625 0.46875 1.265625 0.46875q0.296875 0 0.5 -0.0625q0.21875 -0.078125 0.375 -0.078125q0.140625 -0.015625 0.234375 0.109375q0.109375 0.109375 0.109375 0.375q0 0.1875 -0.078125 0.359375q-0.078125 0.15625 -0.25 0.21875q-0.1875 0.0625 -0.5 0.109375q-0.3125 0.0625 -0.5625 0.0625z" fill-rule="nonzero"/><path fill="#ffffff" d="m283.16812 190.08119q-0.65625 0 -0.65625 -0.6875l0 -10.03125q0 -0.671875 0.671875 -0.671875l3.796875 0q1.828125 0 2.78125 0.859375q0.96875 0.84375 0.96875 2.40625q0 1.25 -0.6875 2.046875q-0.671875 0.796875 -1.90625 1.046875q0.734375 0.25 1.25 1.234375l1.546875 2.875q0.171875 0.328125 0.0625 0.625q-0.109375 0.296875 -0.515625 0.296875q-0.265625 0 -0.453125 -0.109375q-0.171875 -0.125 -0.296875 -0.390625l-1.75 -3.21875q-0.359375 -0.6875 -0.84375 -0.921875q-0.484375 -0.234375 -1.265625 -0.234375l-2.046875 0l0 4.1875q0 0.6875 -0.65625 0.6875zm0.65625 -5.921875l2.953125 0q2.65625 0 2.65625 -2.203125q0 -2.171875 -2.65625 -2.171875l-2.953125 0l0 4.375zm12.54364 5.953125q-1.84375 0 -2.921875 -1.078125q-1.0625 -1.078125 -1.0625 -2.9375q0 -1.203125 0.484375 -2.109375q0.484375 -0.921875 1.3125 -1.421875q0.84375 -0.515625 1.953125 -0.515625q1.578125 0 2.46875 1.015625q0.90625 1.015625 0.90625 2.796875q0 0.5 -0.5625 0.5l-5.296875 0q0.0625 1.328125 0.765625 2.03125q0.703125 0.6875 1.953125 0.6875q0.53125 0 1.078125 -0.140625q0.546875 -0.140625 1.046875 -0.484375q0.375 -0.25 0.625 -0.09375q0.25 0.140625 0.25 0.4375q0.015625 0.296875 -0.328125 0.515625q-0.53125 0.390625 -1.265625 0.59375q-0.71875 0.203125 -1.40625 0.203125zm-0.203125 -7.09375q-1.109375 0 -1.75 0.6875q-0.640625 0.6875 -0.75 1.796875l4.71875 0q-0.046875 -1.171875 -0.625 -1.828125q-0.5625 -0.65625 -1.59375 -0.65625zm8.512024 7.09375q-1.171875 0 -2.03125 -0.5q-0.84375 -0.5 -1.296875 -1.421875q-0.453125 -0.921875 -0.453125 -2.15625q0 -1.859375 1.0 -2.921875q1.015625 -1.0625 2.78125 -1.0625q0.578125 0 1.203125 0.1875q0.625 0.1875 1.125 0.59375q0.28125 0.203125 0.234375 0.484375q-0.03125 0.28125 -0.265625 0.4375q-0.234375 0.140625 -0.546875 -0.0625q-0.421875 -0.328125 -0.859375 -0.453125q-0.421875 -0.125 -0.8125 -0.125q-1.21875 0 -1.875 0.765625q-0.65625 0.75 -0.65625 2.171875q0 1.390625 0.65625 2.203125q0.65625 0.8125 1.875 0.8125q0.390625 0 0.8125 -0.125q0.4375 -0.140625 0.859375 -0.453125q0.3125 -0.21875 0.53125 -0.0625q0.234375 0.15625 0.25 0.453125q0.03125 0.28125 -0.234375 0.453125q-0.515625 0.421875 -1.125 0.609375q-0.59375 0.171875 -1.171875 0.171875zm7.1855164 0q-1.140625 0 -1.984375 -0.484375q-0.828125 -0.5 -1.28125 -1.40625q-0.453125 -0.90625 -0.453125 -2.140625q0 -1.234375 0.453125 -2.125q0.453125 -0.90625 1.28125 -1.40625q0.84375 -0.5 1.984375 -0.5q1.109375 0 1.953125 0.5q0.84375 0.5 1.296875 1.40625q0.453125 0.890625 0.453125 2.125q0 1.234375 -0.453125 2.140625q-0.453125 0.90625 -1.296875 1.40625q-0.84375 0.484375 -1.953125 0.484375zm0 -1.03125q1.078125 0 1.734375 -0.78125q0.65625 -0.78125 0.65625 -2.21875q0 -1.453125 -0.65625 -2.21875q-0.65625 -0.765625 -1.734375 -0.765625q-1.109375 0 -1.765625 0.765625q-0.640625 0.765625 -0.640625 2.21875q0 1.4375 0.640625 2.21875q0.65625 0.78125 1.765625 0.78125zm6.3179016 1.0q-0.65625 0 -0.65625 -0.671875l0 -6.671875q0 -0.65625 0.625 -0.65625q0.640625 0 0.640625 0.65625l0 0.84375q0.3125 -0.734375 0.984375 -1.125q0.671875 -0.390625 1.609375 -0.421875q0.5 -0.046875 0.53125 0.515625q0.046875 0.5625 -0.5625 0.625l-0.265625 0.03125q-1.09375 0.09375 -1.671875 0.703125q-0.578125 0.59375 -0.578125 1.625l0 3.875q0 0.671875 -0.65625 0.671875zm7.928894 0.03125q-1.03125 0 -1.8125 -0.484375q-0.78125 -0.5 -1.203125 -1.40625q-0.421875 -0.90625 -0.421875 -2.140625q0 -1.25 0.421875 -2.140625q0.421875 -0.90625 1.203125 -1.390625q0.78125 -0.5 1.8125 -0.5q0.921875 0 1.609375 0.40625q0.703125 0.390625 1.03125 1.09375l0 -4.3125q0 -0.65625 0.65625 -0.65625q0.640625 0 0.640625 0.65625l0 10.171875q0 0.671875 -0.640625 0.671875q-0.640625 0 -0.640625 -0.671875l0 -0.828125q-0.34375 0.71875 -1.046875 1.125q-0.6875 0.40625 -1.609375 0.40625zm0.28125 -1.03125q1.078125 0 1.734375 -0.78125q0.65625 -0.78125 0.65625 -2.21875q0 -1.453125 -0.65625 -2.21875q-0.65625 -0.765625 -1.734375 -0.765625q-1.109375 0 -1.765625 0.765625q-0.640625 0.765625 -0.640625 2.21875q0 1.4375 0.640625 2.21875q0.65625 0.78125 1.765625 0.78125zm9.593628 1.03125q-1.84375 0 -2.921875 -1.078125q-1.0625 -1.078125 -1.0625 -2.9375q0 -1.203125 0.484375 -2.109375q0.484375 -0.921875 1.3125 -1.421875q0.84375 -0.515625 1.953125 -0.515625q1.578125 0 2.46875 1.015625q0.90625 1.015625 0.90625 2.796875q0 0.5 -0.5625 0.5l-5.296875 0q0.0625 1.328125 0.765625 2.03125q0.703125 0.6875 1.953125 0.6875q0.53125 0 1.078125 -0.140625q0.546875 -0.140625 1.046875 -0.484375q0.375 -0.25 0.625 -0.09375q0.25 0.140625 0.25 0.4375q0.015625 0.296875 -0.328125 0.515625q-0.53125 0.390625 -1.265625 0.59375q-0.71875 0.203125 -1.40625 0.203125zm-0.203125 -7.09375q-1.109375 0 -1.75 0.6875q-0.640625 0.6875 -0.75 1.796875l4.71875 0q-0.046875 -1.171875 -0.625 -1.828125q-0.5625 -0.65625 -1.59375 -0.65625zm5.871399 7.0625q-0.65625 0 -0.65625 -0.671875l0 -6.671875q0 -0.65625 0.625 -0.65625q0.640625 0 0.640625 0.65625l0 0.84375q0.3125 -0.734375 0.984375 -1.125q0.671875 -0.390625 1.609375 -0.421875q0.5 -0.046875 0.53125 0.515625q0.046875 0.5625 -0.5625 0.625l-0.265625 0.03125q-1.09375 0.09375 -1.671875 0.703125q-0.578125 0.59375 -0.578125 1.625l0 3.875q0 0.671875 -0.65625 0.671875z" fill-rule="nonzero"/><path fill="#00153c" d="m468.93405 54.646156l0 0c0 -6.1027946 4.947296 -11.050091 11.050079 -11.050091l68.388 0c2.930664 0 5.741333 1.1642036 7.8135986 3.236496c2.0723267 2.0722961 3.2365112 4.882927 3.2365112 7.813595l0 44.199036c0 6.102791 -4.9473267 11.050087 -11.05011 11.050087l-68.388 0c-6.102783 0 -11.050079 -4.947296 -11.050079 -11.050087z" fill-rule="evenodd"/><path stroke="#5a8bff" stroke-width="1.0" stroke-linejoin="round" stroke-linecap="butt" d="m468.93405 54.646156l0 0c0 -6.1027946 4.947296 -11.050091 11.050079 -11.050091l68.388 0c2.930664 0 5.741333 1.1642036 7.8135986 3.236496c2.0723267 2.0722961 3.2365112 4.882927 3.2365112 7.813595l0 44.199036c0 6.102791 -4.9473267 11.050087 -11.05011 11.050087l-68.388 0c-6.102783 0 -11.050079 -4.947296 -11.050079 -11.050087z" fill-rule="evenodd"/><path fill="#ffffff" d="m494.313 82.71505q-0.65625 0 -0.65625 -0.6875l0 -10.03125q0 -0.671875 0.671875 -0.671875l3.796875 0q1.828125 0 2.78125 0.859375q0.96875 0.84375 0.96875 2.40625q0 1.25 -0.6875 2.046875q-0.671875 0.796875 -1.90625 1.046875q0.734375 0.25 1.25 1.234375l1.546875 2.875q0.171875 0.328125 0.0625 0.625q-0.109375 0.296875 -0.515625 0.296875q-0.265625 0 -0.453125 -0.109375q-0.171875 -0.125 -0.296875 -0.390625l-1.75 -3.21875q-0.359375 -0.6875 -0.84375 -0.921875q-0.484375 -0.234375 -1.265625 -0.234375l-2.046875 0l0 4.1875q0 0.6875 -0.65625 0.6875zm0.65625 -5.921875l2.953125 0q2.65625 0 2.65625 -2.203125q0 -2.171875 -2.65625 -2.171875l-2.953125 0l0 4.375zm12.493378 5.921875q-0.65625 0 -0.65625 -0.6875l0 -9.5625l-3.59375 0q-0.609375 0 -0.609375 -0.578125q0 -0.5625 0.609375 -0.5625l8.53125 0q0.6094055 0 0.6094055 0.5625q0 0.578125 -0.6094055 0.578125l-3.609375 0l0 9.5625q0 0.6875 -0.671875 0.6875zm6.8507996 0q-0.609375 0 -0.609375 -0.640625l0 -10.21875q0 -0.640625 0.609375 -0.640625q0.25 0 0.40625 0.109375q0.15625 0.09375 0.28125 0.34375l4.140625 7.796875l4.125 -7.796875q0.140625 -0.25 0.28125 -0.34375q0.140625 -0.109375 0.421875 -0.109375q0.578125 0 0.578125 0.640625l0 10.21875q0 0.640625 -0.609375 0.640625q-0.59375 0 -0.59375 -0.640625l0 -8.28125l-3.625 6.796875q-0.109375 0.203125 -0.234375 0.296875q-0.109375 0.09375 -0.34375 0.09375q-0.21875 0 -0.34375 -0.09375q-0.125 -0.109375 -0.234375 -0.296875l-3.65625 -6.78125l0 8.265625q0 0.640625 -0.59375 0.640625zm13.695618 0q-0.65625 0 -0.65625 -0.6875l0 -10.03125q0 -0.671875 0.671875 -0.671875l3.796875 0q1.828125 0 2.78125 0.890625q0.96875 0.875 0.96875 2.5q0 1.625 -0.96875 2.515625q-0.953125 0.875 -2.78125 0.875l-3.15625 0l0 3.921875q0 0.6875 -0.65625 0.6875zm0.65625 -5.703125l3.0 0q2.609375 0 2.609375 -2.296875q0 -2.296875 -2.609375 -2.296875l-3.0 0l0 4.59375z" fill-rule="nonzero"/><path fill="#000000" fill-opacity="0.0" d="m243.92749 174.61182c-20.70079 0 -31.051193 0.01574707 -41.40158 0.03149414c-10.350388 0.01574707 -20.70079 0.03149414 -41.40158 0.03149414" fill-rule="evenodd"/><path stroke="#6ee2e2" stroke-width="2.0" stroke-linejoin="round" stroke-linecap="butt" d="m243.92749 174.61182c-20.70079 0 -31.051178 0.01574707 -41.401566 0.03149414c-5.1752014 0.007873535 -10.350403 0.01574707 -16.819397 0.021652222c-3.234497 0.002960205 -6.79245 0.00541687 -10.835571 0.0071411133l-1.7466278 3.5095215E-4" fill-rule="evenodd"/><path fill="#6ee2e2" stroke="#6ee2e2" stroke-width="2.0" stroke-linecap="butt" d="m173.12369 171.36897l-9.075546 3.305252l9.076843 3.3016815z" fill-rule="evenodd"/><path fill="#000000" fill-opacity="0.0" d="m468.93405 76.745674c-21.558624 0 -32.337738 24.46457 -43.11725 48.92913c-10.779541 24.46457 -21.559479 48.92914 -43.118988 48.92914" fill-rule="evenodd"/><path stroke="#434343" stroke-width="1.0" stroke-linejoin="round" stroke-linecap="butt" d="m462.9711 77.41123l-0.28344727 0.06586456c-0.15213013 0.036849976 -0.30374146 0.075042725 -0.45474243 0.11457062c-0.302063 0.07904053 -0.6017151 0.16340637 -0.8991394 0.25299835c-2.3789978 0.71673584 -4.610626 1.767952 -6.7160034 3.1058578c-4.210602 2.6758118 -7.915985 6.498398 -11.284515 11.085503c-6.73703 9.174217 -12.126678 21.406494 -17.516449 33.63878c-10.7795105 24.46457 -21.55951 48.92914 -43.118958 48.92914" fill-rule="evenodd"/><path fill="#434343" stroke="#434343" stroke-width="1.0" stroke-linecap="butt" d="m463.1543 79.05277l4.326874 -2.1449356l-4.6932983 -1.1381378z" fill-rule="evenodd"/><path fill="#00153c" d="m43.455753 106.31233l117.6693 0l0 117.049484l-19.611938 19.611938l-98.05736 0z" fill-rule="evenodd"/><path fill="#00102f" d="m141.5131 242.97375l3.9223785 -15.68956l15.68956 -3.9223785z" fill-rule="evenodd"/><path fill="#000000" fill-opacity="0.0" d="m141.5131 242.97375l3.9223785 -15.68956l15.68956 -3.9223785l-19.611938 19.611938l-98.05736 0l0 -136.66142l117.6693 0l0 117.049484" fill-rule="evenodd"/><path stroke="#5a8bff" stroke-width="1.0" stroke-linejoin="round" stroke-linecap="butt" d="m141.5131 242.97375l3.9223785 -15.68956l15.68956 -3.9223785l-19.611938 19.611938l-98.05736 0l0 -136.66142l117.6693 0l0 117.049484" fill-rule="evenodd"/><path fill="#ffffff" d="m80.18542 138.88206q-0.765625 0 -0.765625 -0.796875l0 -11.703117q0 -0.78125 0.78125 -0.78125l4.421875 0q2.125 0 3.25 1.0q1.140625 0.984375 1.140625 2.8124924q0 1.453125 -0.796875 2.390625q-0.796875 0.921875 -2.25 1.203125q0.859375 0.296875 1.46875 1.453125l1.796875 3.34375q0.203125 0.390625 0.0625 0.734375q-0.125 0.34375 -0.59375 0.34375q-0.3125 0 -0.515625 -0.140625q-0.203125 -0.140625 -0.359375 -0.4375l-2.03125 -3.765625q-0.421875 -0.796875 -0.984375 -1.0625q-0.5625 -0.28125 -1.46875 -0.28125l-2.390625 0l0 4.890625q0 0.796875 -0.765625 0.796875zm0.765625 -6.890625l3.453125 0q3.09375 0 3.09375 -2.578125q0 -2.5468674 -3.09375 -2.5468674l-3.453125 0l0 5.1249924zm14.306946 6.9375q-1.328125 0 -2.296875 -0.578125q-0.96875 -0.578125 -1.5 -1.625q-0.53125 -1.0625 -0.53125 -2.5q0 -1.4375 0.53125 -2.484375q0.53125 -1.0625 1.5 -1.640625q0.96875 -0.578125 2.296875 -0.578125q1.3125 0 2.28125 0.578125q0.984375 0.578125 1.515625 1.640625q0.53125 1.046875 0.53125 2.484375q0 1.4375 -0.53125 2.5q-0.53125 1.046875 -1.515625 1.625q-0.96875 0.578125 -2.28125 0.578125zm0 -1.21875q1.265625 0 2.03125 -0.90625q0.765625 -0.90625 0.765625 -2.578125q0 -1.703125 -0.765625 -2.59375q-0.765625 -0.890625 -2.03125 -0.890625q-1.28125 0 -2.046875 0.890625q-0.75 0.890625 -0.75 2.59375q0 1.671875 0.75 2.578125q0.765625 0.90625 2.046875 0.90625zm10.372879 1.21875q-1.328125 0 -2.296875 -0.578125q-0.96875 -0.578125 -1.5 -1.625q-0.53125 -1.0625 -0.53125 -2.5q0 -1.4375 0.53125 -2.484375q0.53125 -1.0625 1.5 -1.640625q0.96875 -0.578125 2.296875 -0.578125q1.3125 0 2.2812424 0.578125q0.984375 0.578125 1.515625 1.640625q0.53125 1.046875 0.53125 2.484375q0 1.4375 -0.53125 2.5q-0.53125 1.046875 -1.515625 1.625q-0.9687424 0.578125 -2.2812424 0.578125zm0 -1.21875q1.265625 0 2.0312424 -0.90625q0.765625 -0.90625 0.765625 -2.578125q0 -1.703125 -0.765625 -2.59375q-0.7656174 -0.890625 -2.0312424 -0.890625q-1.28125 0 -2.046875 0.890625q-0.75 0.890625 -0.75 2.59375q0 1.671875 0.75 2.578125q0.765625 0.90625 2.046875 0.90625zm7.3884964 1.171875q-0.75 0 -0.75 -0.78125l0 -7.78125q0 -0.765625 0.734375 -0.765625q0.734375 0 0.734375 0.765625l0 0.90625q0.421875 -0.828125 1.140625 -1.265625q0.734375 -0.4375 1.703125 -0.4375q2.125 0 2.71875 1.84375q0.421875 -0.859375 1.21875 -1.34375q0.796875 -0.5 1.84375 -0.5q3.03125 0 3.03125 3.578125l0 5.0q0 0.78125 -0.765625 0.78125q-0.75 0 -0.75 -0.78125l0 -4.921875q0 -1.25 -0.4375 -1.828125q-0.4375 -0.59375 -1.453125 -0.59375q-1.09375 0 -1.75 0.78125q-0.65625 0.78125 -0.65625 2.09375l0 4.46875q0 0.78125 -0.765625 0.78125q-0.75 0 -0.75 -0.78125l0 -4.921875q0 -1.25 -0.4375 -1.828125q-0.4375 -0.59375 -1.4375 -0.59375q-1.125 0 -1.765625 0.78125q-0.640625 0.78125 -0.640625 2.09375l0 4.46875q0 0.78125 -0.765625 0.78125z" fill-rule="nonzero"/><path fill="#ffffff" d="m58.93064 160.92894q-1.609375 0 -2.421875 -0.84375q-0.796875 -0.859375 -0.796875 -2.46875l0 -4.75l-1.25 0q-0.65625 0 -0.65625 -0.59375q0 -0.578125 0.65625 -0.578125l1.25 0l0 -2.15625q0 -0.765625 0.765625 -0.765625q0.75 0 0.75 0.765625l0 2.15625l2.34375 0q0.65625 0 0.65625 0.578125q0 0.59375 -0.65625 0.59375l-2.34375 0l0 4.609375q0 1.0625 0.4375 1.609375q0.453125 0.546875 1.46875 0.546875q0.34375 0 0.578125 -0.0625q0.25 -0.078125 0.4375 -0.078125q0.171875 -0.015625 0.28125 0.109375q0.109375 0.125 0.109375 0.453125q0 0.21875 -0.078125 0.40625q-0.078125 0.1875 -0.28125 0.265625q-0.234375 0.0625 -0.59375 0.125q-0.359375 0.078125 -0.65625 0.078125zm6.8738556 0q-2.140625 0 -3.390625 -1.25q-1.25 -1.265625 -1.25 -3.4375q0 -1.390625 0.5625 -2.46875q0.5625 -1.078125 1.53125 -1.65625q0.984375 -0.59375 2.265625 -0.59375q1.859375 0 2.890625 1.1875q1.046875 1.1875 1.046875 3.25q0 0.578125 -0.65625 0.578125l-6.171875 0q0.078125 1.546875 0.890625 2.359375q0.828125 0.8125 2.28125 0.8125q0.625 0 1.25 -0.15625q0.640625 -0.15625 1.234375 -0.5625q0.421875 -0.28125 0.71875 -0.109375q0.296875 0.15625 0.296875 0.5q0.015625 0.34375 -0.375 0.609375q-0.625 0.453125 -1.46875 0.703125q-0.84375 0.234375 -1.65625 0.234375zm-0.234375 -8.28125q-1.296875 0 -2.046875 0.796875q-0.734375 0.796875 -0.875 2.109375l5.515625 0q-0.0625 -1.375 -0.734375 -2.140625q-0.65625 -0.765625 -1.859375 -0.765625zm6.862625 8.234375q-0.75 0 -0.75 -0.78125l0 -7.78125q0 -0.765625 0.734375 -0.765625q0.734375 0 0.734375 0.765625l0 0.90625q0.421875 -0.828125 1.140625 -1.265625q0.734375 -0.4375 1.703125 -0.4375q2.125 0 2.71875 1.84375q0.421875 -0.859375 1.21875 -1.34375q0.796875 -0.5 1.84375 -0.5q3.03125 0 3.03125 3.578125l0 5.0q0 0.78125 -0.765625 0.78125q-0.75 0 -0.75 -0.78125l0 -4.921875q0 -1.25 -0.4375 -1.828125q-0.4375 -0.59375 -1.453125 -0.59375q-1.09375 0 -1.75 0.78125q-0.65625 0.78125 -0.65625 2.09375l0 4.46875q0 0.78125 -0.765625 0.78125q-0.75 0 -0.75 -0.78125l0 -4.921875q0 -1.25 -0.4375 -1.828125q-0.4375 -0.59375 -1.4375 -0.59375q-1.125 0 -1.765625 0.78125q-0.640625 0.78125 -0.640625 2.09375l0 4.46875q0 0.78125 -0.765625 0.78125zm15.938507 3.359375q-0.75 0 -0.75 -0.765625l0 -11.15625q0 -0.765625 0.71875 -0.765625q0.765625 0 0.765625 0.765625l0 0.96875q0.390625 -0.8125 1.203125 -1.28125q0.828125 -0.484375 1.890625 -0.484375q1.21875 0 2.125 0.578125q0.90625 0.5625 1.390625 1.625q0.5 1.046875 0.5 2.5q0 1.4375 -0.5 2.5q-0.484375 1.046875 -1.390625 1.625q-0.90625 0.578125 -2.125 0.578125q-1.03125 0 -1.859375 -0.46875q-0.8125 -0.46875 -1.21875 -1.28125l0 4.296875q0 0.765625 -0.75 0.765625zm3.515625 -4.53125q1.265625 0 2.03125 -0.90625q0.765625 -0.90625 0.765625 -2.578125q0 -1.703125 -0.765625 -2.59375q-0.765625 -0.890625 -2.03125 -0.890625q-1.265625 0 -2.03125 0.890625q-0.765625 0.890625 -0.765625 2.59375q0 1.671875 0.765625 2.578125q0.765625 0.90625 2.03125 0.90625zm9.360977 1.21875q-1.34375 0 -2.046875 -0.8125q-0.703125 -0.8125 -0.703125 -2.359375l0 -9.515625q0 -0.765625 0.75 -0.765625q0.75 0 0.75 0.765625l0 9.40625q0 1.984375 1.59375 1.984375q0.171875 0 0.296875 -0.015625q0.125 -0.015625 0.265625 -0.015625q0.203125 -0.015625 0.28125 0.09375q0.09375 0.109375 0.09375 0.453125q0 0.625 -0.640625 0.71875q-0.140625 0.046875 -0.3125 0.046875q-0.171875 0.015625 -0.328125 0.015625zm5.6159973 0q-0.921875 0 -1.671875 -0.359375q-0.734375 -0.375 -1.171875 -1.0q-0.421875 -0.640625 -0.421875 -1.421875q0 -0.984375 0.515625 -1.5625q0.515625 -0.578125 1.703125 -0.828125q1.1875 -0.265625 3.2343674 -0.265625l0.59375 0l0 -0.578125q0 -1.15625 -0.484375 -1.65625q-0.46875 -0.515625 -1.5 -0.515625q-0.6562424 0 -1.3281174 0.171875q-0.65625 0.15625 -1.359375 0.53125q-0.328125 0.171875 -0.546875 0.078125q-0.203125 -0.109375 -0.296875 -0.34375q-0.078125 -0.234375 0 -0.484375q0.09375 -0.265625 0.375 -0.390625q0.796875 -0.40625 1.609375 -0.59375q0.8125 -0.1875 1.5468674 -0.1875q1.75 0 2.59375 0.859375q0.84375 0.859375 0.84375 2.671875l0 5.046875q0 0.78125 -0.6875 0.78125q-0.71875 0 -0.71875 -0.78125l0 -0.90625q-0.359375 0.796875 -1.09375 1.265625q-0.734375 0.46875 -1.7343674 0.46875zm0.25 -1.140625q1.1249924 0 1.8281174 -0.765625q0.703125 -0.78125 0.703125 -1.984375l0 -0.546875l-0.578125 0q-1.5 0 -2.3749924 0.140625q-0.859375 0.125 -1.21875 0.484375q-0.34375 0.34375 -0.34375 0.9375q0 0.765625 0.53125 1.25q0.53125 0.484375 1.453125 0.484375zm10.434685 1.140625q-1.609375 0 -2.421875 -0.84375q-0.796875 -0.859375 -0.796875 -2.46875l0 -4.75l-1.25 0q-0.65625 0 -0.65625 -0.59375q0 -0.578125 0.65625 -0.578125l1.25 0l0 -2.15625q0 -0.765625 0.765625 -0.765625q0.75 0 0.75 0.765625l0 2.15625l2.34375 0q0.65625 0 0.65625 0.578125q0 0.59375 -0.65625 0.59375l-2.34375 0l0 4.609375q0 1.0625 0.4375 1.609375q0.453125 0.546875 1.46875 0.546875q0.34375 0 0.578125 -0.0625q0.25 -0.078125 0.4375 -0.078125q0.171875 -0.015625 0.28125 0.109375q0.109375 0.125 0.109375 0.453125q0 0.21875 -0.078125 0.40625q-0.078125 0.1875 -0.28125 0.265625q-0.234375 0.0625 -0.59375 0.125q-0.359375 0.078125 -0.65625 0.078125zm6.8738556 0q-2.140625 0 -3.390625 -1.25q-1.25 -1.265625 -1.25 -3.4375q0 -1.390625 0.5625 -2.46875q0.5625 -1.078125 1.53125 -1.65625q0.984375 -0.59375 2.265625 -0.59375q1.859375 0 2.890625 1.1875q1.046875 1.1875 1.046875 3.25q0 0.578125 -0.65625 0.578125l-6.171875 0q0.078125 1.546875 0.890625 2.359375q0.828125 0.8125 2.28125 0.8125q0.625 0 1.25 -0.15625q0.640625 -0.15625 1.234375 -0.5625q0.421875 -0.28125 0.71875 -0.109375q0.296875 0.15625 0.296875 0.5q0.015625 0.34375 -0.375 0.609375q-0.625 0.453125 -1.46875 0.703125q-0.84375 0.234375 -1.65625 0.234375zm-0.234375 -8.28125q-1.296875 0 -2.046875 0.796875q-0.734375 0.796875 -0.875 2.109375l5.515625 0q-0.0625 -1.375 -0.734375 -2.140625q-0.65625 -0.765625 -1.859375 -0.765625zm14.660309 8.28125q-1.328125 0 -2.296875 -0.578125q-0.96875 -0.578125 -1.5 -1.625q-0.53125 -1.0625 -0.53125 -2.5q0 -1.4375 0.53125 -2.484375q0.53125 -1.0625 1.5 -1.640625q0.96875 -0.578125 2.296875 -0.578125q1.3125 0 2.28125 0.578125q0.984375 0.578125 1.515625 1.640625q0.53125 1.046875 0.53125 2.484375q0 1.4375 -0.53125 2.5q-0.53125 1.046875 -1.515625 1.625q-0.96875 0.578125 -2.28125 0.578125zm0 -1.21875q1.265625 0 2.03125 -0.90625q0.765625 -0.90625 0.765625 -2.578125q0 -1.703125 -0.765625 -2.59375q-0.765625 -0.890625 -2.03125 -0.890625q-1.28125 0 -2.046875 0.890625q-0.75 0.890625 -0.75 2.59375q0 1.671875 0.75 2.578125q0.765625 0.90625 2.046875 0.90625zm7.372879 1.171875q-0.765625 0 -0.765625 -0.78125l0 -7.78125q0 -0.765625 0.71875 -0.765625q0.75 0 0.75 0.765625l0 1.0q0.375 -0.859375 1.15625 -1.3125q0.78125 -0.46875 1.859375 -0.5q0.609375 -0.0625 0.640625 0.59375q0.0625 0.65625 -0.671875 0.734375l-0.296875 0.03125q-1.28125 0.109375 -1.953125 0.8125q-0.671875 0.703125 -0.671875 1.90625l0 4.515625q0 0.78125 -0.765625 0.78125z" fill-rule="nonzero"/><path fill="#ffffff" d="m70.97861 182.92894q-0.921875 0 -1.671875 -0.359375q-0.734375 -0.375 -1.171875 -1.0q-0.421875 -0.640625 -0.421875 -1.421875q0 -0.984375 0.515625 -1.5625q0.515625 -0.578125 1.703125 -0.828125q1.1875 -0.265625 3.234375 -0.265625l0.59375 0l0 -0.578125q0 -1.15625 -0.484375 -1.65625q-0.46875 -0.515625 -1.5 -0.515625q-0.65625 0 -1.328125 0.171875q-0.65625 0.15625 -1.359375 0.53125q-0.328125 0.171875 -0.546875 0.078125q-0.203125 -0.109375 -0.296875 -0.34375q-0.078125 -0.234375 0 -0.484375q0.09375 -0.265625 0.375 -0.390625q0.796875 -0.40625 1.609375 -0.59375q0.8125 -0.1875 1.546875 -0.1875q1.75 0 2.59375 0.859375q0.84375 0.859375 0.84375 2.671875l0 5.046875q0 0.78125 -0.6875 0.78125q-0.71875 0 -0.71875 -0.78125l0 -0.90625q-0.359375 0.796875 -1.09375 1.265625q-0.734375 0.46875 -1.734375 0.46875zm0.25 -1.140625q1.125 0 1.828125 -0.765625q0.703125 -0.78125 0.703125 -1.984375l0 -0.546875l-0.578125 0q-1.5 0 -2.375 0.140625q-0.859375 0.125 -1.21875 0.484375q-0.34375 0.34375 -0.34375 0.9375q0 0.765625 0.53125 1.25q0.53125 0.484375 1.453125 0.484375zm7.5440674 1.09375q-0.75 0 -0.75 -0.78125l0 -7.78125q0 -0.765625 0.71875 -0.765625q0.75 0 0.75 0.765625l0 0.921875q0.453125 -0.859375 1.265625 -1.28125q0.828125 -0.4375 1.84375 -0.4375q3.234375 0 3.234375 3.578125l0 5.0q0 0.78125 -0.75 0.78125q-0.765625 0 -0.765625 -0.78125l0 -4.90625q0 -1.265625 -0.5 -1.84375q-0.484375 -0.59375 -1.5625 -0.59375q-1.25 0 -2.0 0.78125q-0.734375 0.765625 -0.734375 2.046875l0 4.515625q0 0.78125 -0.75 0.78125zm11.769043 3.359375q-0.4375 0 -0.59375 -0.328125q-0.140625 -0.328125 0.03125 -0.734375l1.140625 -2.578125l-3.4375 -7.984375q-0.1875 -0.421875 -0.015625 -0.734375q0.1875 -0.328125 0.6875 -0.328125q0.515625 0 0.765625 0.609375l2.8125 6.875l2.84375 -6.875q0.140625 -0.34375 0.3125 -0.46875q0.171875 -0.140625 0.484375 -0.140625q0.4375 0 0.578125 0.328125q0.15625 0.3125 -0.015625 0.71875l-4.78125 11.046875q-0.140625 0.34375 -0.328125 0.46875q-0.171875 0.125 -0.484375 0.125zm15.511993 -3.359375q-0.6875 0 -0.953125 -0.703125l-2.765625 -7.5625q-0.1875 -0.484375 0 -0.765625q0.203125 -0.296875 0.625 -0.296875q0.28125 0 0.453125 0.140625q0.1875 0.125 0.296875 0.484375l2.390625 6.8125l2.453125 -6.8125q0.234375 -0.625 0.84375 -0.625q0.59375 0 0.828125 0.625l2.421875 6.828125l2.421875 -6.875q0.125 -0.328125 0.296875 -0.453125q0.1875 -0.125 0.46875 -0.125q0.453125 0 0.578125 0.328125q0.125 0.328125 -0.03125 0.734375l-2.78125 7.5625q-0.28125 0.703125 -0.953125 0.703125q-0.6875 0 -0.9375 -0.703125l-2.34375 -6.453125l-2.359375 6.453125q-0.25 0.703125 -0.953125 0.703125zm16.512375 0.046875q-2.140625 0 -3.390625 -1.25q-1.25 -1.265625 -1.25 -3.4375q0 -1.390625 0.5625 -2.46875q0.5625 -1.078125 1.53125 -1.65625q0.984375 -0.59375 2.265625 -0.59375q1.859375 0 2.890625 1.1875q1.046875 1.1875 1.046875 3.25q0 0.578125 -0.65625 0.578125l-6.171875 0q0.078125 1.546875 0.890625 2.359375q0.828125 0.8125 2.28125 0.8125q0.625 0 1.25 -0.15625q0.640625 -0.15625 1.234375 -0.5625q0.421875 -0.28125 0.71875 -0.109375q0.296875 0.15625 0.296875 0.5q0.015625 0.34375 -0.375 0.609375q-0.625 0.453125 -1.46875 0.703125q-0.84375 0.234375 -1.65625 0.234375zm-0.234375 -8.28125q-1.296875 0 -2.046875 0.796875q-0.734375 0.796875 -0.875 2.109375l5.515625 0q-0.0625 -1.375 -0.734375 -2.140625q-0.65625 -0.765625 -1.859375 -0.765625zm10.6595 8.28125q-1.0625 0 -1.890625 -0.46875q-0.8125 -0.484375 -1.203125 -1.328125l0 0.96875q0 0.78125 -0.734375 0.78125q-0.75 0 -0.75 -0.78125l0 -11.859375q0 -0.765625 0.75 -0.765625q0.75 0 0.75 0.765625l0 5.015625q0.40625 -0.796875 1.21875 -1.265625q0.828125 -0.46875 1.859375 -0.46875q1.21875 0 2.125 0.578125q0.90625 0.5625 1.390625 1.625q0.5 1.046875 0.5 2.5q0 1.4375 -0.5 2.5q-0.484375 1.046875 -1.390625 1.625q-0.90625 0.578125 -2.125 0.578125zm-0.3125 -1.21875q1.265625 0 2.03125 -0.90625q0.765625 -0.90625 0.765625 -2.578125q0 -1.703125 -0.765625 -2.59375q-0.765625 -0.890625 -2.03125 -0.890625q-1.265625 0 -2.03125 0.890625q-0.765625 0.890625 -0.765625 2.59375q0 1.671875 0.765625 2.578125q0.765625 0.90625 2.03125 0.90625z" fill-rule="nonzero"/><path fill="#ffffff" d="m83.651215 208.24144q-0.75 0 -0.75 -0.765625l0 -11.15625q0 -0.765625 0.71875 -0.765625q0.765625 0 0.765625 0.765625l0 0.96875q0.390625 -0.8125 1.203125 -1.28125q0.828125 -0.484375 1.890625 -0.484375q1.21875 0 2.125 0.578125q0.90625 0.5625 1.390625 1.625q0.5 1.046875 0.5 2.5q0 1.4375 -0.5 2.5q-0.484375 1.046875 -1.390625 1.625q-0.90625 0.578125 -2.125 0.578125q-1.03125 0 -1.859375 -0.46875q-0.8125 -0.46875 -1.21875 -1.28125l0 4.296875q0 0.765625 -0.75 0.765625zm3.515625 -4.53125q1.265625 0 2.03125 -0.90625q0.765625 -0.90625 0.765625 -2.578125q0 -1.703125 -0.765625 -2.59375q-0.765625 -0.890625 -2.03125 -0.890625q-1.265625 0 -2.03125 0.890625q-0.765625 0.890625 -0.765625 2.59375q0 1.671875 0.765625 2.578125q0.765625 0.90625 2.03125 0.90625zm9.454727 1.21875q-0.921875 0 -1.671875 -0.359375q-0.734375 -0.375 -1.171875 -1.0q-0.421875 -0.640625 -0.421875 -1.421875q0 -0.984375 0.515625 -1.5625q0.515625 -0.578125 1.703125 -0.828125q1.1875 -0.265625 3.234375 -0.265625l0.59375 0l0 -0.578125q0 -1.15625 -0.484375 -1.65625q-0.46875 -0.515625 -1.5 -0.515625q-0.65625 0 -1.328125 0.171875q-0.65625 0.15625 -1.359375 0.53125q-0.328125 0.171875 -0.546875 0.078125q-0.203125 -0.109375 -0.296875 -0.34375q-0.078125 -0.234375 0 -0.484375q0.09375 -0.265625 0.375 -0.390625q0.796875 -0.40625 1.609375 -0.59375q0.8125 -0.1875 1.546875 -0.1875q1.75 0 2.59375 0.859375q0.84375 0.859375 0.84375 2.671875l0 5.046875q0 0.78125 -0.6875 0.78125q-0.71875 0 -0.71875 -0.78125l0 -0.90625q-0.359375 0.796875 -1.09375 1.265625q-0.734375 0.46875 -1.734375 0.46875zm0.25 -1.140625q1.125 0 1.828125 -0.765625q0.703125 -0.78125 0.703125 -1.984375l0 -0.546875l-0.578125 0q-1.5 0 -2.375 0.140625q-0.859375 0.125 -1.21875 0.484375q-0.34375 0.34375 -0.34375 0.9375q0 0.765625 0.53125 1.25q0.53125 0.484375 1.453125 0.484375zm10.794067 4.5q-0.984375 0 -1.921875 -0.234375q-0.9375 -0.234375 -1.703125 -0.734375q-0.28125 -0.171875 -0.328125 -0.40625q-0.046875 -0.234375 0.0625 -0.453125q0.109375 -0.203125 0.328125 -0.296875q0.21875 -0.09375 0.453125 0.03125q0.828125 0.5 1.5625 0.6875q0.75 0.1875 1.484375 0.1875q2.6875 0 2.6875 -2.765625l0 -1.59375q-0.390625 0.859375 -1.234375 1.359375q-0.828125 0.484375 -1.890625 0.484375q-1.25 0 -2.171875 -0.578125q-0.90625 -0.578125 -1.40625 -1.59375q-0.484375 -1.015625 -0.484375 -2.359375q0 -1.34375 0.484375 -2.359375q0.5 -1.015625 1.40625 -1.578125q0.921875 -0.5625 2.171875 -0.5625q1.0625 0 1.875 0.46875q0.828125 0.46875 1.21875 1.296875l0 -0.96875q0 -0.765625 0.75 -0.765625q0.75 0 0.75 0.765625l0 7.78125q0 2.09375 -1.046875 3.140625q-1.03125 1.046875 -3.046875 1.046875zm-0.21875 -4.96875q1.3125 0 2.078125 -0.890625q0.765625 -0.90625 0.765625 -2.40625q0 -1.515625 -0.765625 -2.390625q-0.765625 -0.890625 -2.078125 -0.890625q-1.28125 0 -2.046875 0.890625q-0.765625 0.875 -0.765625 2.390625q0 1.5 0.765625 2.40625q0.765625 0.890625 2.046875 0.890625zm11.229446 1.609375q-2.140625 0 -3.390625 -1.25q-1.25 -1.265625 -1.25 -3.4375q0 -1.390625 0.5625 -2.46875q0.5625 -1.078125 1.53125 -1.65625q0.984375 -0.59375 2.265625 -0.59375q1.859375 0 2.890625 1.1875q1.046875 1.1875 1.046875 3.25q0 0.578125 -0.65625 0.578125l-6.171875 0q0.078125 1.546875 0.890625 2.359375q0.828125 0.8125 2.28125 0.8125q0.625 0 1.25 -0.15625q0.640625 -0.15625 1.234375 -0.5625q0.421875 -0.28125 0.71875 -0.109375q0.296875 0.15625 0.296875 0.5q0.015625 0.34375 -0.375 0.609375q-0.625 0.453125 -1.46875 0.703125q-0.84375 0.234375 -1.65625 0.234375zm-0.234375 -8.28125q-1.296875 0 -2.046875 0.796875q-0.734375 0.796875 -0.875 2.109375l5.515625 0q-0.0625 -1.375 -0.734375 -2.140625q-0.65625 -0.765625 -1.859375 -0.765625z" fill-rule="nonzero"/><path fill="#00153c" d="m479.4925 252.06299l0 0c0 -7.0332947 15.529022 -12.734909 34.68506 -12.734909c19.156006 0 34.684998 5.7016144 34.684998 12.734909l0 50.939636c0 7.0332947 -15.528992 12.734894 -34.684998 12.734894c-19.156036 0 -34.68506 -5.701599 -34.68506 -12.734894z" fill-rule="evenodd"/><path fill="#000000" fill-opacity="0.0" d="m548.86255 252.06299l0 0c0 7.0332947 -15.528992 12.734924 -34.684998 12.734924c-19.156036 0 -34.68506 -5.7016296 -34.68506 -12.734924" fill-rule="evenodd"/><path fill="#000000" fill-opacity="0.0" d="m479.4925 252.06299l0 0c0 -7.0332947 15.529022 -12.734909 34.68506 -12.734909c19.156006 0 34.684998 5.7016144 34.684998 12.734909l0 50.939636c0 7.0332947 -15.528992 12.734894 -34.684998 12.734894c-19.156036 0 -34.68506 -5.701599 -34.68506 -12.734894z" fill-rule="evenodd"/><path stroke="#5a8bff" stroke-width="1.0" stroke-linejoin="round" stroke-linecap="butt" d="m548.86255 252.06299l0 0c0 7.0332947 -15.528992 12.734924 -34.684998 12.734924c-19.156036 0 -34.68506 -5.7016296 -34.68506 -12.734924" fill-rule="evenodd"/><path stroke="#5a8bff" stroke-width="1.0" stroke-linejoin="round" stroke-linecap="butt" d="m479.4925 252.06299l0 0c0 -7.0332947 15.529022 -12.734909 34.68506 -12.734909c19.156006 0 34.684998 5.7016144 34.684998 12.734909l0 50.939636c0 7.0332947 -15.528992 12.734894 -34.684998 12.734894c-19.156036 0 -34.68506 -5.701599 -34.68506 -12.734894z" fill-rule="evenodd"/><path fill="#ffffff" d="m501.48474 290.94525q-0.8125 0 -0.8125 -0.828125l0 -11.609375q0 -0.84375 0.84375 -0.84375l6.765625 0q0.65625 0 0.65625 0.640625q0 0.65625 -0.65625 0.65625l-6.078125 0l0 4.578125l5.6875 0q0.671875 0 0.671875 0.640625q0 0.65625 -0.671875 0.65625l-5.6875 0l0 5.28125q0 0.828125 -0.71875 0.828125zm10.312683 -11.375q-1.0 0 -1.0 -0.9375q0 -0.90625 1.0 -0.90625q0.984375 0 0.984375 0.90625q0 0.9375 -0.984375 0.9375zm0 11.34375q-0.75 0 -0.75 -0.828125l0 -7.625q0 -0.796875 0.75 -0.796875q0.75 0 0.75 0.796875l0 7.625q0 0.828125 -0.75 0.828125zm6.328247 0.078125q-1.34375 0 -2.046875 -0.8125q-0.703125 -0.8125 -0.703125 -2.359375l0 -9.515625q0 -0.765625 0.75 -0.765625q0.75 0 0.75 0.765625l0 9.40625q0 1.984375 1.59375 1.984375q0.171875 0 0.296875 -0.015625q0.125 -0.015625 0.265625 -0.015625q0.203125 -0.015625 0.28125 0.09375q0.09375 0.109375 0.09375 0.453125q0 0.625 -0.640625 0.71875q-0.140625 0.046875 -0.3125 0.046875q-0.171875 0.015625 -0.328125 0.015625zm6.757019 0q-2.140625 0 -3.390625 -1.25q-1.25 -1.265625 -1.25 -3.4375q0 -1.390625 0.5625 -2.46875q0.5625 -1.078125 1.53125 -1.65625q0.984375 -0.59375 2.265625 -0.59375q1.859375 0 2.890625 1.1875q1.046875 1.1875 1.046875 3.25q0 0.578125 -0.65625 0.578125l-6.171875 0q0.078125 1.546875 0.890625 2.359375q0.828125 0.8125 2.28125 0.8125q0.625 0 1.25 -0.15625q0.640625 -0.15625 1.234375 -0.5625q0.421875 -0.28125 0.71875 -0.109375q0.296875 0.15625 0.296875 0.5q0.015625 0.34375 -0.375 0.609375q-0.625 0.453125 -1.46875 0.703125q-0.84375 0.234375 -1.65625 0.234375zm-0.234375 -8.28125q-1.296875 0 -2.046875 0.796875q-0.734375 0.796875 -0.875 2.109375l5.515625 0q-0.0625 -1.375 -0.734375 -2.140625q-0.65625 -0.765625 -1.859375 -0.765625z" fill-rule="nonzero"/><path fill="#000000" fill-opacity="0.0" d="m479.4925 174.61154c-24.198303 0 -36.298187 0.01576233 -48.396606 0.0315094c-12.098419 0.01574707 -24.195404 0.03149414 -48.390778 0.03149414" fill-rule="evenodd"/><path stroke="#434343" stroke-width="1.0" stroke-linejoin="round" stroke-linecap="butt" d="m473.4925 174.61255l-10.069275 0.0017089844c-4.726288 0.0017242432 -8.885437 0.004180908 -12.666504 0.0071258545c-7.562042 0.00592041 -13.611633 0.013793945 -19.660828 0.02166748c-12.098419 0.01574707 -24.195374 0.03149414 -48.390778 0.03149414" fill-rule="evenodd"/><path fill="#434343" stroke="#434343" stroke-width="1.0" stroke-linecap="butt" d="m473.49277 176.2643l4.5378113 -1.6524963l-4.5383606 -1.6509705z" fill-rule="evenodd"/><path fill="#000000" fill-opacity="0.0" d="m479.4925 277.5328c-24.198303 0 -36.298187 -25.732285 -48.396606 -51.46457c-12.098419 -25.732285 -24.195404 -51.46457 -48.390778 -51.46457" fill-rule="evenodd"/><path stroke="#434343" stroke-width="1.0" stroke-linejoin="round" stroke-linecap="butt" d="m473.51804 276.9797l-0.0038146973 -6.713867E-4c-0.17346191 -0.033081055 -0.34628296 -0.06756592 -0.5184326 -0.103515625c-0.68865967 -0.14370728 -1.3665771 -0.31018066 -2.0341797 -0.49865723c-2.6703186 -0.75387573 -5.175232 -1.8595581 -7.538391 -3.2667847c-4.726288 -2.8144836 -8.885437 -6.835144 -12.666504 -11.659943c-7.562042 -9.649612 -13.611633 -22.515747 -19.660828 -35.381897c-12.098419 -25.732285 -24.195374 -51.46457 -48.390778 -51.46457" fill-rule="evenodd"/><path fill="#434343" stroke="#434343" stroke-width="1.0" stroke-linecap="butt" d="m473.36578 278.62442l4.6710205 -1.2263794l-4.3664856 -2.0630188z" fill-rule="evenodd"/></g></svg>