<svg version="1.1" viewBox="0.0 0.0 809.0 387.0" fill="none" stroke="none" stroke-linecap="square" stroke-miterlimit="10" xmlns:xlink="http://www.w3.org/1999/xlink" xmlns="http://www.w3.org/2000/svg"><clipPath id="p.0"><path d="m0 0l809.0 0l0 387.0l-809.0 0l0 -387.0z" clip-rule="nonzero"/></clipPath><g clip-path="url(#p.0)"><path fill="#000000" fill-opacity="0.0" d="m0 0l809.0 0l0 387.0l-809.0 0z" fill-rule="evenodd"/><path fill="#000000" d="m0 0l809.0079 0l0 386.99213l-809.0079 0z" fill-rule="evenodd"/><path stroke="#000000" stroke-width="1.0" stroke-linejoin="round" stroke-linecap="butt" d="m0 0l809.0079 0l0 386.99213l-809.0079 0z" fill-rule="evenodd"/><path fill="#00153c" d="m288.30576 82.333336l0 0c0 -10.125221 20.616638 -18.333336 46.048553 -18.333336c25.431915 0 46.048553 8.208115 46.048553 18.333336l0 73.333336c0 10.125214 -20.616638 18.333328 -46.048553 18.333328c-25.431915 0 -46.048553 -8.208115 -46.048553 -18.333328z" fill-rule="evenodd"/><path fill="#000000" fill-opacity="0.0" d="m380.40286 82.333336l0 0c0 10.125221 -20.616638 18.333328 -46.048553 18.333328c-25.431915 0 -46.048553 -8.208107 -46.048553 -18.333328" fill-rule="evenodd"/><path fill="#000000" fill-opacity="0.0" d="m288.30576 82.333336l0 0c0 -10.125221 20.616638 -18.333336 46.048553 -18.333336c25.431915 0 46.048553 8.208115 46.048553 18.333336l0 73.333336c0 10.125214 -20.616638 18.333328 -46.048553 18.333328c-25.431915 0 -46.048553 -8.208115 -46.048553 -18.333328z" fill-rule="evenodd"/><path stroke="#5a8bff" stroke-width="1.0" stroke-linejoin="round" stroke-linecap="butt" d="m380.40286 82.333336l0 0c0 10.125221 -20.616638 18.333328 -46.048553 18.333328c-25.431915 0 -46.048553 -8.208107 -46.048553 -18.333328" fill-rule="evenodd"/><path stroke="#5a8bff" stroke-width="1.0" stroke-linejoin="round" stroke-linecap="butt" d="m288.30576 82.333336l0 0c0 -10.125221 20.616638 -18.333336 46.048553 -18.333336c25.431915 0 46.048553 8.208115 46.048553 18.333336l0 73.333336c0 10.125214 -20.616638 18.333328 -46.048553 18.333328c-25.431915 0 -46.048553 -8.208115 -46.048553 -18.333328z" fill-rule="evenodd"/><path fill="#ffffff" d="m313.55527 135.21167q-0.765625 0 -0.765625 -0.796875l0 -11.703133q0 -0.78125 0.78125 -0.78125l4.421875 0q2.125 0 3.25 1.0q1.140625 0.984375 1.140625 2.8125q0 1.453125 -0.796875 2.3906326q-0.796875 0.921875 -2.25 1.203125q0.859375 0.296875 1.46875 1.453125l1.796875 3.34375q0.203125 0.390625 0.0625 0.734375q-0.125 0.34375 -0.59375 0.34375q-0.3125 0 -0.515625 -0.140625q-0.203125 -0.140625 -0.359375 -0.4375l-2.03125 -3.765625q-0.421875 -0.796875 -0.984375 -1.0625q-0.5625 -0.28125 -1.46875 -0.28125l-2.390625 0l0 4.890625q0 0.796875 -0.765625 0.796875zm0.765625 -6.890625l3.453125 0q3.09375 0 3.09375 -2.5781326q0 -2.546875 -3.09375 -2.546875l-3.453125 0l0 5.1250076zm14.619446 6.9375q-2.140625 0 -3.390625 -1.25q-1.25 -1.265625 -1.25 -3.4375q0 -1.390625 0.5625 -2.46875q0.5625 -1.0781326 1.53125 -1.6562576q0.984375 -0.59375 2.265625 -0.59375q1.859375 0 2.890625 1.1875q1.046875 1.1875076 1.046875 3.2500076q0 0.578125 -0.65625 0.578125l-6.171875 0q0.078125 1.546875 0.890625 2.359375q0.828125 0.8125 2.28125 0.8125q0.625 0 1.25 -0.15625q0.640625 -0.15625 1.234375 -0.5625q0.421875 -0.28125 0.71875 -0.109375q0.296875 0.15625 0.296875 0.5q0.015625 0.34375 -0.375 0.609375q-0.625 0.453125 -1.46875 0.703125q-0.84375 0.234375 -1.65625 0.234375zm-0.234375 -8.281258q-1.296875 0 -2.046875 0.796875q-0.734375 0.7968826 -0.875 2.1093826l5.515625 0q-0.0625 -1.375 -0.734375 -2.1406326q-0.65625 -0.765625 -1.859375 -0.765625zm9.534485 8.281258q-1.21875 0 -2.125 -0.578125q-0.90625 -0.578125 -1.40625 -1.625q-0.484375 -1.0625 -0.484375 -2.5q0 -1.453125 0.484375 -2.5q0.5 -1.0625076 1.40625 -1.6250076q0.90625 -0.578125 2.125 -0.578125q1.0625 0 1.875 0.46875q0.8125 0.46875 1.203125 1.28125l0 -5.03125q0 -0.765625 0.765625 -0.765625q0.734375 0 0.734375 0.765625l0 11.859383q0 0.78125 -0.734375 0.78125q-0.75 0 -0.75 -0.78125l0 -0.96875q-0.40625 0.84375 -1.21875 1.328125q-0.8125 0.46875 -1.875 0.46875zm0.3125 -1.21875q1.265625 0 2.03125 -0.90625q0.765625 -0.90625 0.765625 -2.578125q0 -1.703125 -0.765625 -2.5937576q-0.765625 -0.890625 -2.03125 -0.890625q-1.28125 0 -2.046875 0.890625q-0.75 0.8906326 -0.75 2.5937576q0 1.671875 0.75 2.578125q0.765625 0.90625 2.046875 0.90625zm7.8609924 -10.203133q-1.0 0 -1.0 -0.9375q0 -0.90625 1.0 -0.90625q0.984375 0 0.984375 0.90625q0 0.9375 -0.984375 0.9375zm0 11.343758q-0.75 0 -0.75 -0.828125l0 -7.6250076q0 -0.796875 0.75 -0.796875q0.75 0 0.75 0.796875l0 7.6250076q0 0.828125 -0.75 0.828125zm6.640747 0.078125q-0.84375 0 -1.703125 -0.21875q-0.84375 -0.21875 -1.5625 -0.703125q-0.34375 -0.203125 -0.34375 -0.53125q0.015625 -0.328125 0.25 -0.515625q0.25 -0.1875 0.625 0q0.734375 0.453125 1.40625 0.640625q0.6875 0.171875 1.359375 0.171875q1.0625 0 1.59375 -0.390625q0.546875 -0.390625 0.546875 -1.0625q0 -0.53125 -0.359375 -0.828125q-0.34375 -0.3125 -1.109375 -0.484375l-1.703125 -0.375q-2.3125 -0.5 -2.3125 -2.390625q0 -1.2343826 0.984375 -1.9687576q0.984375 -0.75 2.5625 -0.75q0.796875 0 1.546875 0.21875q0.75 0.203125 1.34375 0.671875q0.3125 0.234375 0.28125 0.546875q-0.03125 0.3125 -0.296875 0.5q-0.25 0.171875 -0.59375 -0.046875q-0.5625 -0.375 -1.140625 -0.546875q-0.578125 -0.1875 -1.140625 -0.1875q-1.046875 0 -1.59375 0.421875q-0.53125 0.40625 -0.53125 1.0781326q0 1.03125 1.375 1.328125l1.703125 0.359375q1.1875 0.265625 1.796875 0.84375q0.625 0.5625 0.625 1.53125q0 1.25 -0.984375 1.96875q-0.984375 0.71875 -2.625 0.71875z" fill-rule="nonzero"/><path fill="#00153c" d="m472.46732 45.48845l0 0c0 -6.3463287 5.1447144 -11.491043 11.491058 -11.491043l97.08087 0c3.0476074 0 5.970398 1.210659 8.125427 3.3656464c2.1549683 2.1549911 3.3656616 5.0777817 3.3656616 8.125397l0 45.96279c0 6.3463287 -5.1447144 11.491043 -11.491089 11.491043l-97.08087 0c-6.346344 0 -11.491058 -5.1447144 -11.491058 -11.491043z" fill-rule="evenodd"/><path stroke="#5a8bff" stroke-width="1.0" stroke-linejoin="round" stroke-linecap="butt" d="m472.46732 45.48845l0 0c0 -6.3463287 5.1447144 -11.491043 11.491058 -11.491043l97.08087 0c3.0476074 0 5.970398 1.210659 8.125427 3.3656464c2.1549683 2.1549911 3.3656616 5.0777817 3.3656616 8.125397l0 45.96279c0 6.3463287 -5.1447144 11.491043 -11.491089 11.491043l-97.08087 0c-6.346344 0 -11.491058 -5.1447144 -11.491058 -11.491043z" fill-rule="evenodd"/><path fill="#ffffff" d="m502.3536 64.939224q-0.65625 0 -0.65625 -0.6875l0 -10.031254q0 -0.671875 0.671875 -0.671875l3.796875 0q1.828125 0 2.78125 0.859375q0.96875 0.84375 0.96875 2.40625q0 1.25 -0.6875 2.046875q-0.671875 0.796875 -1.90625 1.046875q0.734375 0.25 1.25 1.234375l1.546875 2.8750038q0.171875 0.328125 0.0625 0.625q-0.109375 0.296875 -0.515625 0.296875q-0.265625 0 -0.453125 -0.109375q-0.171875 -0.125 -0.296875 -0.390625l-1.75 -3.2187538q-0.359375 -0.6875 -0.84375 -0.921875q-0.484375 -0.234375 -1.265625 -0.234375l-2.046875 0l0 4.187504q0 0.6875 -0.65625 0.6875zm0.65625 -5.921879l2.953125 0q2.65625 0 2.65625 -2.203125q0 -2.171875 -2.65625 -2.171875l-2.953125 0l0 4.375zm12.543671 5.953129q-1.84375 0 -2.921875 -1.0781288q-1.0625 -1.078125 -1.0625 -2.9375q0 -1.203125 0.484375 -2.109375q0.484375 -0.921875 1.3125 -1.421875q0.84375 -0.515625 1.953125 -0.515625q1.578125 0 2.46875 1.015625q0.90625 1.015625 0.90625 2.796875q0 0.5 -0.5625 0.5l-5.296875 0q0.0625 1.328125 0.765625 2.03125q0.703125 0.6875 1.953125 0.6875q0.53125 0 1.078125 -0.140625q0.546875 -0.140625 1.046875 -0.484375q0.375 -0.25 0.625 -0.09375q0.25 0.140625 0.25 0.4375q0.015625 0.296875 -0.328125 0.5156288q-0.53125 0.390625 -1.265625 0.59375q-0.71875 0.203125 -1.40625 0.203125zm-0.203125 -7.093754q-1.109375 0 -1.75 0.6875q-0.640625 0.6875 -0.75 1.796875l4.71875 0q-0.046875 -1.171875 -0.625 -1.828125q-0.5625 -0.65625 -1.59375 -0.65625zm8.512024 7.093754q-1.171875 0 -2.03125 -0.5q-0.84375 -0.5000038 -1.296875 -1.4218788q-0.453125 -0.921875 -0.453125 -2.15625q0 -1.859375 1.0 -2.921875q1.015625 -1.0625 2.78125 -1.0625q0.578125 0 1.203125 0.1875q0.625 0.1875 1.125 0.59375q0.28125 0.203125 0.234375 0.484375q-0.03125 0.28125 -0.265625 0.4375q-0.234375 0.140625 -0.546875 -0.0625q-0.421875 -0.328125 -0.859375 -0.453125q-0.421875 -0.125 -0.8125 -0.125q-1.21875 0 -1.875 0.765625q-0.65625 0.75 -0.65625 2.171875q0 1.390625 0.65625 2.203125q0.65625 0.8125 1.875 0.8125q0.390625 0 0.8125 -0.125q0.4375 -0.140625 0.859375 -0.453125q0.3125 -0.21875 0.53125 -0.0625q0.234375 0.15625 0.25 0.453125q0.03125 0.2812538 -0.234375 0.4531288q-0.515625 0.421875 -1.125 0.609375q-0.59375 0.171875 -1.171875 0.171875zm7.185486 0q-1.140625 0 -1.984375 -0.484375q-0.828125 -0.5000038 -1.28125 -1.4062538q-0.453125 -0.90625 -0.453125 -2.140625q0 -1.234375 0.453125 -2.125q0.453125 -0.90625 1.28125 -1.40625q0.84375 -0.5 1.984375 -0.5q1.109375 0 1.953125 0.5q0.84375 0.5 1.296875 1.40625q0.453125 0.890625 0.453125 2.125q0 1.234375 -0.453125 2.140625q-0.453125 0.90625 -1.296875 1.4062538q-0.84375 0.484375 -1.953125 0.484375zm0 -1.0312538q1.078125 0 1.734375 -0.78125q0.65625 -0.78125 0.65625 -2.21875q0 -1.453125 -0.65625 -2.21875q-0.65625 -0.765625 -1.734375 -0.765625q-1.109375 0 -1.765625 0.765625q-0.640625 0.765625 -0.640625 2.21875q0 1.4375 0.640625 2.21875q0.65625 0.78125 1.765625 0.78125zm6.317932 1.0000038q-0.65625 0 -0.65625 -0.671875l0 -6.671879q0 -0.65625 0.625 -0.65625q0.640625 0 0.640625 0.65625l0 0.84375q0.3125 -0.734375 0.984375 -1.125q0.671875 -0.390625 1.609375 -0.421875q0.5 -0.046875 0.53125 0.515625q0.046875 0.5625 -0.5625 0.625l-0.265625 0.03125q-1.09375 0.09375 -1.671875 0.703125q-0.578125 0.59375 -0.578125 1.625l0 3.8750038q0 0.671875 -0.65625 0.671875zm7.928894 0.03125q-1.03125 0 -1.8125 -0.484375q-0.78125 -0.5000038 -1.203125 -1.4062538q-0.421875 -0.90625 -0.421875 -2.140625q0 -1.25 0.421875 -2.140625q0.421875 -0.90625 1.203125 -1.390625q0.78125 -0.5 1.8125 -0.5q0.921875 0 1.609375 0.40625q0.703125 0.390625 1.03125 1.09375l0 -4.3125q0 -0.65625 0.65625 -0.65625q0.640625 0 0.640625 0.65625l0 10.171879q0 0.671875 -0.640625 0.671875q-0.640625 0 -0.640625 -0.671875l0 -0.8281288q-0.34375 0.7187538 -1.046875 1.1250038q-0.6875 0.40625 -1.609375 0.40625zm0.28125 -1.0312538q1.078125 0 1.734375 -0.78125q0.65625 -0.78125 0.65625 -2.21875q0 -1.453125 -0.65625 -2.21875q-0.65625 -0.765625 -1.734375 -0.765625q-1.109375 0 -1.765625 0.765625q-0.640625 0.765625 -0.640625 2.21875q0 1.4375 0.640625 2.21875q0.65625 0.78125 1.765625 0.78125zm9.593628 1.0312538q-1.84375 0 -2.921875 -1.0781288q-1.0625 -1.078125 -1.0625 -2.9375q0 -1.203125 0.484375 -2.109375q0.484375 -0.921875 1.3125 -1.421875q0.84375 -0.515625 1.953125 -0.515625q1.578125 0 2.46875 1.015625q0.90625 1.015625 0.90625 2.796875q0 0.5 -0.5625 0.5l-5.296875 0q0.0625 1.328125 0.765625 2.03125q0.703125 0.6875 1.953125 0.6875q0.53125 0 1.078125 -0.140625q0.546875 -0.140625 1.046875 -0.484375q0.375 -0.25 0.625 -0.09375q0.25 0.140625 0.25 0.4375q0.015625 0.296875 -0.328125 0.5156288q-0.53125 0.390625 -1.265625 0.59375q-0.71875 0.203125 -1.40625 0.203125zm-0.203125 -7.093754q-1.109375 0 -1.75 0.6875q-0.640625 0.6875 -0.75 1.796875l4.71875 0q-0.046875 -1.171875 -0.625 -1.828125q-0.5625 -0.65625 -1.59375 -0.65625zm5.871399 7.062504q-0.65625 0 -0.65625 -0.671875l0 -6.671879q0 -0.65625 0.625 -0.65625q0.640625 0 0.640625 0.65625l0 0.84375q0.3125 -0.734375 0.984375 -1.125q0.671875 -0.390625 1.609375 -0.421875q0.5 -0.046875 0.53125 0.515625q0.046875 0.5625 -0.5625 0.625l-0.265625 0.03125q-1.09375 0.09375 -1.671875 0.703125q-0.578125 0.59375 -0.578125 1.625l0 3.8750038q0 0.671875 -0.65625 0.671875z" fill-rule="nonzero"/><path fill="#ffffff" d="m511.40964 83.970474q-1.15625 0 -2.171875 -0.28125q-1.015625 -0.28125 -1.75 -0.8125q-0.265625 -0.1875 -0.3125 -0.421875q-0.046875 -0.234375 0.046875 -0.4375q0.109375 -0.21875 0.3125 -0.28125q0.21875 -0.078125 0.484375 0.09375q0.734375 0.53125 1.546875 0.75q0.8125 0.21875 1.84375 0.21875q1.4374695 0 2.1249695 -0.53125q0.703125 -0.53125 0.703125 -1.40625q0 -0.71875 -0.515625 -1.125q-0.5 -0.421875 -1.671875 -0.65625l-1.6718445 -0.34375q-1.5 -0.3125 -2.25 -1.03125q-0.734375 -0.734375 -0.734375 -1.953125q0 -1.015625 0.515625 -1.765625q0.515625 -0.75 1.4375 -1.15625q0.9375 -0.421875 2.15625 -0.421875q0.9999695 0 1.8749695 0.28125q0.875 0.28125 1.578125 0.84375q0.21875 0.171875 0.25 0.40625q0.046875 0.234375 -0.0625 0.421875q-0.109375 0.1875 -0.328125 0.25q-0.203125 0.046875 -0.484375 -0.125q-0.640625 -0.5 -1.34375 -0.703125q-0.6875 -0.203125 -1.4999695 -0.203125q-1.265625 0 -2.015625 0.578125q-0.75 0.578125 -0.75 1.546875q0 0.765625 0.46875 1.21875q0.46875 0.4375 1.546875 0.65625l1.6562195 0.34375q1.609375 0.34375 2.390625 1.03125q0.78125 0.671875 0.78125 1.828125q0 0.953125 -0.515625 1.671875q-0.5 0.71875 -1.4375 1.125q-0.9375 0.390625 -2.2030945 0.390625zm9.511871 0q-1.84375 0 -2.921875 -1.078125q-1.0625 -1.078125 -1.0625 -2.9375q0 -1.203125 0.484375 -2.109375q0.484375 -0.921875 1.3125 -1.421875q0.84375 -0.515625 1.953125 -0.515625q1.578125 0 2.46875 1.015625q0.90625 1.015625 0.90625 2.796875q0 0.5 -0.5625 0.5l-5.296875 0q0.0625 1.328125 0.765625 2.03125q0.703125 0.6875 1.953125 0.6875q0.53125 0 1.078125 -0.140625q0.546875 -0.140625 1.046875 -0.484375q0.375 -0.25 0.625 -0.09375q0.25 0.140625 0.25 0.4375q0.015625 0.296875 -0.328125 0.515625q-0.53125 0.390625 -1.265625 0.59375q-0.71875 0.203125 -1.40625 0.203125zm-0.203125 -7.09375q-1.109375 0 -1.75 0.6875q-0.640625 0.6875 -0.75 1.796875l4.71875 0q-0.046875 -1.171875 -0.625 -1.828125q-0.5625 -0.65625 -1.59375 -0.65625zm5.871399 7.0625q-0.65625 0 -0.65625 -0.671875l0 -6.671875q0 -0.65625 0.625 -0.65625q0.640625 0 0.640625 0.65625l0 0.84375q0.3125 -0.734375 0.984375 -1.125q0.671875 -0.390625 1.609375 -0.421875q0.5 -0.046875 0.53125 0.515625q0.046875 0.5625 -0.5625 0.625l-0.265625 0.03125q-1.09375 0.09375 -1.671875 0.703125q-0.578125 0.59375 -0.578125 1.625l0 3.875q0 0.671875 -0.65625 0.671875zm8.442383 0q-0.5625 0 -0.828125 -0.625l-2.765625 -6.453125q-0.15625 -0.375 -0.015625 -0.640625q0.140625 -0.28125 0.578125 -0.28125q0.4375 0 0.65625 0.515625l2.40625 5.90625l2.453125 -5.90625q0.109375 -0.28125 0.25 -0.390625q0.140625 -0.125 0.421875 -0.125q0.359375 0 0.484375 0.28125q0.140625 0.265625 0 0.625l-2.8125 6.46875q-0.25 0.625 -0.828125 0.625zm5.9900513 -9.75q-0.84375 0 -0.84375 -0.8125q0 -0.78125 0.84375 -0.78125q0.84375 0 0.84375 0.78125q0 0.8125 -0.84375 0.8125zm0 9.71875q-0.640625 0 -0.640625 -0.703125l0 -6.546875q0 -0.6875 0.640625 -0.6875q0.65625 0 0.65625 0.6875l0 6.546875q0 0.703125 -0.65625 0.703125zm6.368225 0.0625q-1.171875 0 -2.03125 -0.5q-0.84375 -0.5 -1.296875 -1.421875q-0.453125 -0.921875 -0.453125 -2.15625q0 -1.859375 1.0 -2.921875q1.015625 -1.0625 2.78125 -1.0625q0.578125 0 1.203125 0.1875q0.625 0.1875 1.125 0.59375q0.28125 0.203125 0.234375 0.484375q-0.03125 0.28125 -0.265625 0.4375q-0.234375 0.140625 -0.546875 -0.0625q-0.421875 -0.328125 -0.859375 -0.453125q-0.421875 -0.125 -0.8125 -0.125q-1.21875 0 -1.875 0.765625q-0.65625 0.75 -0.65625 2.171875q0 1.390625 0.65625 2.203125q0.65625 0.8125 1.875 0.8125q0.390625 0 0.8125 -0.125q0.4375 -0.140625 0.859375 -0.453125q0.3125 -0.21875 0.53125 -0.0625q0.234375 0.15625 0.25 0.453125q0.03125 0.28125 -0.234375 0.453125q-0.515625 0.421875 -1.125 0.609375q-0.59375 0.171875 -1.171875 0.171875zm7.451172 0q-1.84375 0 -2.921875 -1.078125q-1.0625 -1.078125 -1.0625 -2.9375q0 -1.203125 0.484375 -2.109375q0.484375 -0.921875 1.3125 -1.421875q0.84375 -0.515625 1.953125 -0.515625q1.578125 0 2.46875 1.015625q0.90625 1.015625 0.90625 2.796875q0 0.5 -0.5625 0.5l-5.296875 0q0.0625 1.328125 0.765625 2.03125q0.703125 0.6875 1.953125 0.6875q0.53125 0 1.078125 -0.140625q0.546875 -0.140625 1.046875 -0.484375q0.375 -0.25 0.625 -0.09375q0.25 0.140625 0.25 0.4375q0.015625 0.296875 -0.328125 0.515625q-0.53125 0.390625 -1.265625 0.59375q-0.71875 0.203125 -1.40625 0.203125zm-0.203125 -7.09375q-1.109375 0 -1.75 0.6875q-0.640625 0.6875 -0.75 1.796875l4.71875 0q-0.046875 -1.171875 -0.625 -1.828125q-0.5625 -0.65625 -1.59375 -0.65625z" fill-rule="nonzero"/><path fill="#000000" fill-opacity="0.0" d="m592.53033 68.46985c9.734192 0 14.602295 0.01574707 19.468445 0.03149414c4.86615 0.01574707 9.730347 0.03149414 19.460632 0.03149414" fill-rule="evenodd"/><path stroke="#6ee2e2" stroke-width="2.0" stroke-linejoin="round" stroke-linecap="butt" d="m592.53033 68.46985c9.734192 0 14.602295 0.01574707 19.468445 0.03149414l7.4606323 0.020431519" fill-rule="evenodd"/><path fill="#6ee2e2" stroke="#6ee2e2" stroke-width="2.0" stroke-linecap="butt" d="m619.4564 71.82524l9.079224 -3.2950974l-9.073181 -3.3118286z" fill-rule="evenodd"/><path fill="#000000" fill-opacity="0.0" d="m380.40286 119.0c23.016205 0 34.524536 -12.629921 46.03241 -25.259842c11.507874 -12.629921 23.01529 -25.259842 46.03058 -25.259842" fill-rule="evenodd"/><path stroke="#434343" stroke-width="1.0" stroke-linejoin="round" stroke-linecap="butt" d="m386.39517 118.696655l0.18704224 -0.019264221c0.6549988 -0.07054138 1.2998047 -0.1522522 1.9347534 -0.24475098c2.539917 -0.370018 4.922455 -0.9127121 7.1701355 -1.6034088c4.4953613 -1.3813934 8.451294 -3.3548203 12.047607 -5.722931c7.192566 -4.7362213 12.946625 -11.051186 18.700562 -17.366142c11.507874 -12.629921 23.01532 -25.259842 46.03058 -25.259842" fill-rule="evenodd"/><path fill="#434343" stroke="#434343" stroke-width="1.0" stroke-linecap="butt" d="m386.31168 117.047035l-4.4487915 1.8790588l4.6157837 1.4201813z" fill-rule="evenodd"/><path fill="#00153c" d="m57.467182 45.48845l0 0c0 -6.3463287 5.1447144 -11.491043 11.491047 -11.491043l115.78956 0c3.0476227 0 5.970413 1.210659 8.125397 3.3656502c2.1549988 2.1549873 3.3656464 5.077778 3.3656464 8.125393l0 45.9628c0 6.346321 -5.1447144 11.491043 -11.491043 11.491043l-115.78956 0c-6.3463326 0 -11.491047 -5.144722 -11.491047 -11.491043z" fill-rule="evenodd"/><path stroke="#5a8bff" stroke-width="1.0" stroke-linejoin="round" stroke-linecap="butt" d="m57.467182 45.48845l0 0c0 -6.3463287 5.1447144 -11.491043 11.491047 -11.491043l115.78956 0c3.0476227 0 5.970413 1.210659 8.125397 3.3656502c2.1549988 2.1549873 3.3656464 5.077778 3.3656464 8.125393l0 45.9628c0 6.346321 -5.1447144 11.491043 -11.491043 11.491043l-115.78956 0c-6.3463326 0 -11.491047 -5.144722 -11.491047 -11.491043z" fill-rule="evenodd"/><path fill="#ffffff" d="m79.115395 74.32985q-0.671875 0 -0.671875 -0.6875l0 -9.984379q0 -0.6875 0.65625 -0.6875q0.65625 0 0.65625 0.6875l0 9.515629l5.25 0q0.609375 0 0.609375 0.578125q0 0.578125 -0.609375 0.578125l-5.890625 0zm8.484894 -9.640625q-0.84375 0 -0.84375 -0.8125038q0 -0.78125 0.84375 -0.78125q0.84375 0 0.84375 0.78125q0 0.8125038 -0.84375 0.8125038zm0 9.71875q-0.640625 0 -0.640625 -0.703125l0 -6.546875q0 -0.6875 0.640625 -0.6875q0.65625 0 0.65625 0.6875l0 6.546875q0 0.703125 -0.65625 0.703125zm5.9620056 0.03125q-0.5625 0 -0.828125 -0.625l-2.765625 -6.453125q-0.15625 -0.375 -0.015625 -0.640625q0.140625 -0.28125 0.578125 -0.28125q0.4375 0 0.65625 0.515625l2.40625 5.90625l2.453125 -5.90625q0.109375 -0.28125 0.25 -0.390625q0.140625 -0.125 0.421875 -0.125q0.359375 0 0.484375 0.28125q0.140625 0.265625 0 0.625l-2.8125 6.46875q-0.25 0.625 -0.828125 0.625zm8.737396 0.03125q-1.84375 0 -2.921875 -1.078125q-1.0625 -1.078125 -1.0625 -2.9375q0 -1.203125 0.484375 -2.109375q0.484375 -0.921875 1.3125 -1.421875q0.84375 -0.515625 1.953125 -0.515625q1.578125 0 2.46875 1.015625q0.90625 1.015625 0.90625 2.796875q0 0.5 -0.5625 0.5l-5.296875 0q0.0625 1.328125 0.765625 2.03125q0.703125 0.6875 1.953125 0.6875q0.53125 0 1.078125 -0.140625q0.546875 -0.140625 1.046875 -0.484375q0.375 -0.25 0.625 -0.09375q0.25 0.140625 0.25 0.4375q0.015625 0.296875 -0.328125 0.515625q-0.53125 0.390625 -1.265625 0.59375q-0.71875 0.203125 -1.40625 0.203125zm-0.203125 -7.09375q-1.109375 0 -1.75 0.6875q-0.640625 0.6875 -0.75 1.796875l4.71875 0q-0.046875 -1.171875 -0.625 -1.828125q-0.5625 -0.65625 -1.59375 -0.65625zm6.043274 7.0625q-0.65625 0 -0.65625 -0.6875l0 -10.140629q0 -0.671875 0.65625 -0.671875q0.65625 0 0.65625 0.671875l0 4.562504l0.03125 0l5.21875 -4.875004q0.390625 -0.359375 0.796875 -0.359375q0.4375 0 0.515625 0.3125q0.09375 0.3125 -0.1875 0.578125l-5.078125 4.687504l5.328125 4.9375q0.359375 0.328125 0.21875 0.65625q-0.125 0.328125 -0.5625 0.328125q-0.234375 0 -0.40625 -0.109375q-0.15625 -0.09375 -0.375 -0.296875l-5.46875 -5.015625l-0.03125 0l0 4.734375q0 0.6875 -0.65625 0.6875zm10.004517 -9.75q-0.84375 0 -0.84375 -0.8125038q0 -0.78125 0.84375 -0.78125q0.84375 0 0.84375 0.78125q0 0.8125038 -0.84375 0.8125038zm0 9.71875q-0.640625 0 -0.640625 -0.703125l0 -6.546875q0 -0.6875 0.640625 -0.6875q0.65625 0 0.65625 0.6875l0 6.546875q0 0.703125 -0.65625 0.703125zm6.1963806 0.0625q-1.390625 0 -2.078125 -0.71875q-0.6875 -0.734375 -0.6875 -2.109375l0 -4.078125l-1.0625 0q-0.5625 0 -0.5625 -0.515625q0 -0.5 0.5625 -0.5l1.0625 0l0 -1.828125q0 -0.65625 0.65625 -0.65625q0.640625 0 0.640625 0.65625l0 1.828125l2.0156326 0q0.5625 0 0.5625 0.5q0 0.515625 -0.5625 0.515625l-2.0156326 0l0 3.953125q0 0.90625 0.375 1.390625q0.390625 0.46875 1.265625 0.46875q0.296875 0 0.5000076 -0.0625q0.21875 -0.078125 0.375 -0.078125q0.140625 -0.015625 0.234375 0.109375q0.109375 0.109375 0.109375 0.375q0 0.1875 -0.078125 0.359375q-0.078125 0.15625 -0.25 0.21875q-0.1875 0.0625 -0.5 0.109375q-0.31250763 0.0625 -0.5625076 0.0625zm10.431145 0q-1.15625 0 -2.171875 -0.28125q-1.015625 -0.28125 -1.75 -0.8125q-0.265625 -0.1875 -0.3125 -0.421875q-0.046875 -0.234375 0.046875 -0.4375q0.109375 -0.21875 0.3125 -0.28125q0.21875 -0.078125 0.484375 0.09375q0.734375 0.53125 1.546875 0.75q0.8125 0.21875 1.84375 0.21875q1.4375 0 2.125 -0.53125q0.703125 -0.53125 0.703125 -1.40625q0 -0.71875 -0.515625 -1.125q-0.5 -0.421875 -1.671875 -0.65625l-1.671875 -0.34375q-1.5 -0.3125 -2.25 -1.03125q-0.734375 -0.734375 -0.734375 -1.953125q0 -1.015625 0.515625 -1.765625q0.515625 -0.7500038 1.4375 -1.1562538q0.9375 -0.421875 2.15625 -0.421875q1.0 0 1.875 0.28125q0.875 0.28125 1.578125 0.8437538q0.21875 0.171875 0.25 0.40625q0.046875 0.234375 -0.0625 0.421875q-0.109375 0.1875 -0.328125 0.25q-0.203125 0.046875 -0.484375 -0.125q-0.640625 -0.5 -1.34375 -0.703125q-0.6875 -0.203125 -1.5 -0.203125q-1.265625 0 -2.015625 0.578125q-0.75 0.578125 -0.75 1.546875q0 0.765625 0.46875 1.21875q0.46875 0.4375 1.546875 0.65625l1.65625 0.34375q1.609375 0.34375 2.390625 1.03125q0.78125 0.671875 0.78125 1.828125q0 0.953125 -0.515625 1.671875q-0.5 0.71875 -1.4375 1.125q-0.9375 0.390625 -2.203125 0.390625zm9.511902 0q-1.84375 0 -2.921875 -1.078125q-1.0625 -1.078125 -1.0625 -2.9375q0 -1.203125 0.484375 -2.109375q0.484375 -0.921875 1.3125 -1.421875q0.84375 -0.515625 1.953125 -0.515625q1.578125 0 2.46875 1.015625q0.90625 1.015625 0.90625 2.796875q0 0.5 -0.5625 0.5l-5.296875 0q0.0625 1.328125 0.765625 2.03125q0.703125 0.6875 1.953125 0.6875q0.53125 0 1.078125 -0.140625q0.546875 -0.140625 1.046875 -0.484375q0.375 -0.25 0.625 -0.09375q0.25 0.140625 0.25 0.4375q0.015625 0.296875 -0.328125 0.515625q-0.53125 0.390625 -1.265625 0.59375q-0.71875 0.203125 -1.40625 0.203125zm-0.203125 -7.09375q-1.109375 0 -1.75 0.6875q-0.640625 0.6875 -0.75 1.796875l4.71875 0q-0.046875 -1.171875 -0.625 -1.828125q-0.5625 -0.65625 -1.59375 -0.65625zm5.871399 7.0625q-0.65625 0 -0.65625 -0.671875l0 -6.671875q0 -0.65625 0.625 -0.65625q0.640625 0 0.640625 0.65625l0 0.84375q0.3125 -0.734375 0.984375 -1.125q0.671875 -0.390625 1.609375 -0.421875q0.5 -0.046875 0.53125 0.515625q0.046875 0.5625 -0.5625 0.625l-0.265625 0.03125q-1.09375 0.09375 -1.671875 0.703125q-0.578125 0.59375 -0.578125 1.625l0 3.875q0 0.671875 -0.65625 0.671875zm8.442383 0q-0.5625 0 -0.828125 -0.625l-2.765625 -6.453125q-0.15625 -0.375 -0.015625 -0.640625q0.140625 -0.28125 0.578125 -0.28125q0.4375 0 0.65625 0.515625l2.40625 5.90625l2.453125 -5.90625q0.109375 -0.28125 0.25 -0.390625q0.140625 -0.125 0.421875 -0.125q0.359375 0 0.484375 0.28125q0.140625 0.265625 0 0.625l-2.8125 6.46875q-0.25 0.625 -0.828125 0.625zm8.737396 0.03125q-1.84375 0 -2.921875 -1.078125q-1.0625 -1.078125 -1.0625 -2.9375q0 -1.203125 0.484375 -2.109375q0.484375 -0.921875 1.3125 -1.421875q0.84375 -0.515625 1.953125 -0.515625q1.578125 0 2.46875 1.015625q0.90625 1.015625 0.90625 2.796875q0 0.5 -0.5625 0.5l-5.296875 0q0.0625 1.328125 0.765625 2.03125q0.703125 0.6875 1.953125 0.6875q0.53125 0 1.078125 -0.140625q0.546875 -0.140625 1.046875 -0.484375q0.375 -0.25 0.625 -0.09375q0.25 0.140625 0.25 0.4375q0.015625 0.296875 -0.328125 0.515625q-0.53125 0.390625 -1.265625 0.59375q-0.71875 0.203125 -1.40625 0.203125zm-0.203125 -7.09375q-1.109375 0 -1.75 0.6875q-0.640625 0.6875 -0.75 1.796875l4.71875 0q-0.046875 -1.171875 -0.625 -1.828125q-0.5625 -0.65625 -1.59375 -0.65625zm5.871399 7.0625q-0.65625 0 -0.65625 -0.671875l0 -6.671875q0 -0.65625 0.625 -0.65625q0.640625 0 0.640625 0.65625l0 0.84375q0.3125 -0.734375 0.984375 -1.125q0.671875 -0.390625 1.609375 -0.421875q0.5 -0.046875 0.53125 0.515625q0.046875 0.5625 -0.5625 0.625l-0.265625 0.03125q-1.09375 0.09375 -1.671875 0.703125q-0.578125 0.59375 -0.578125 1.625l0 3.875q0 0.671875 -0.65625 0.671875z" fill-rule="nonzero"/><path fill="#00153c" d="m57.467175 145.22334l0 0c0 -6.3463287 5.1447144 -11.491043 11.491047 -11.491043l115.789566 0c3.0476074 0 5.970398 1.2106628 8.125397 3.3656464c2.1549835 2.1549835 3.3656464 5.077774 3.3656464 8.125397l0 45.9628c0 6.3463287 -5.1447144 11.491043 -11.491043 11.491043l-115.789566 0c-6.3463326 0 -11.491047 -5.1447144 -11.491047 -11.491043z" fill-rule="evenodd"/><path stroke="#5a8bff" stroke-width="1.0" stroke-linejoin="round" stroke-linecap="butt" d="m57.467175 145.22334l0 0c0 -6.3463287 5.1447144 -11.491043 11.491047 -11.491043l115.789566 0c3.0476074 0 5.970398 1.2106628 8.125397 3.3656464c2.1549835 2.1549835 3.3656464 5.077774 3.3656464 8.125397l0 45.9628c0 6.3463287 -5.1447144 11.491043 -11.491043 11.491043l-115.789566 0c-6.3463326 0 -11.491047 -5.1447144 -11.491047 -11.491043z" fill-rule="evenodd"/><path fill="#ffffff" d="m79.115395 174.06474q-0.671875 0 -0.671875 -0.6875l0 -9.984375q0 -0.6875 0.65625 -0.6875q0.65625 0 0.65625 0.6875l0 9.515625l5.25 0q0.609375 0 0.609375 0.578125q0 0.578125 -0.609375 0.578125l-5.890625 0zm8.484894 -9.640625q-0.84375 0 -0.84375 -0.8125q0 -0.78125 0.84375 -0.78125q0.84375 0 0.84375 0.78125q0 0.8125 -0.84375 0.8125zm0 9.71875q-0.640625 0 -0.640625 -0.703125l0 -6.546875q0 -0.6875 0.640625 -0.6875q0.65625 0 0.65625 0.6875l0 6.546875q0 0.703125 -0.65625 0.703125zm5.9620056 0.03125q-0.5625 0 -0.828125 -0.625l-2.765625 -6.453125q-0.15625 -0.375 -0.015625 -0.640625q0.140625 -0.28125 0.578125 -0.28125q0.4375 0 0.65625 0.515625l2.40625 5.90625l2.453125 -5.90625q0.109375 -0.28125 0.25 -0.390625q0.140625 -0.125 0.421875 -0.125q0.359375 0 0.484375 0.28125q0.140625 0.265625 0 0.625l-2.8125 6.46875q-0.25 0.625 -0.828125 0.625zm8.737396 0.03125q-1.84375 0 -2.921875 -1.078125q-1.0625 -1.078125 -1.0625 -2.9375q0 -1.203125 0.484375 -2.109375q0.484375 -0.921875 1.3125 -1.421875q0.84375 -0.515625 1.953125 -0.515625q1.578125 0 2.46875 1.015625q0.90625 1.015625 0.90625 2.796875q0 0.5 -0.5625 0.5l-5.296875 0q0.0625 1.328125 0.765625 2.03125q0.703125 0.6875 1.953125 0.6875q0.53125 0 1.078125 -0.140625q0.546875 -0.140625 1.046875 -0.484375q0.375 -0.25 0.625 -0.09375q0.25 0.140625 0.25 0.4375q0.015625 0.296875 -0.328125 0.515625q-0.53125 0.390625 -1.265625 0.59375q-0.71875 0.203125 -1.40625 0.203125zm-0.203125 -7.09375q-1.109375 0 -1.75 0.6875q-0.640625 0.6875 -0.75 1.796875l4.71875 0q-0.046875 -1.171875 -0.625 -1.828125q-0.5625 -0.65625 -1.59375 -0.65625zm6.043274 7.0625q-0.65625 0 -0.65625 -0.6875l0 -10.140625q0 -0.671875 0.65625 -0.671875q0.65625 0 0.65625 0.671875l0 4.5625l0.03125 0l5.21875 -4.875q0.390625 -0.359375 0.796875 -0.359375q0.4375 0 0.515625 0.3125q0.09375 0.3125 -0.1875 0.578125l-5.078125 4.6875l5.328125 4.9375q0.359375 0.328125 0.21875 0.65625q-0.125 0.328125 -0.5625 0.328125q-0.234375 0 -0.40625 -0.109375q-0.15625 -0.09375 -0.375 -0.296875l-5.46875 -5.015625l-0.03125 0l0 4.734375q0 0.6875 -0.65625 0.6875zm10.004517 -9.75q-0.84375 0 -0.84375 -0.8125q0 -0.78125 0.84375 -0.78125q0.84375 0 0.84375 0.78125q0 0.8125 -0.84375 0.8125zm0 9.71875q-0.640625 0 -0.640625 -0.703125l0 -6.546875q0 -0.6875 0.640625 -0.6875q0.65625 0 0.65625 0.6875l0 6.546875q0 0.703125 -0.65625 0.703125zm6.1963806 0.0625q-1.390625 0 -2.078125 -0.71875q-0.6875 -0.734375 -0.6875 -2.109375l0 -4.078125l-1.0625 0q-0.5625 0 -0.5625 -0.515625q0 -0.5 0.5625 -0.5l1.0625 0l0 -1.828125q0 -0.65625 0.65625 -0.65625q0.640625 0 0.640625 0.65625l0 1.828125l2.015625 0q0.5625 0 0.5625 0.5q0 0.515625 -0.5625 0.515625l-2.015625 0l0 3.953125q0 0.90625 0.375 1.390625q0.390625 0.46875 1.265625 0.46875q0.296875 0 0.5 -0.0625q0.21875 -0.078125 0.375 -0.078125q0.140625 -0.015625 0.234375 0.109375q0.109375 0.109375 0.109375 0.375q0 0.1875 -0.078125 0.359375q-0.078125 0.15625 -0.25 0.21875q-0.1875 0.0625 -0.5 0.109375q-0.3125 0.0625 -0.5625 0.0625zm10.431145 0q-1.15625 0 -2.171875 -0.28125q-1.015625 -0.28125 -1.75 -0.8125q-0.265625 -0.1875 -0.3125 -0.421875q-0.046875 -0.234375 0.046875 -0.4375q0.109375 -0.21875 0.3125 -0.28125q0.21875 -0.078125 0.484375 0.09375q0.734375 0.53125 1.546875 0.75q0.8125 0.21875 1.84375 0.21875q1.4375 0 2.125 -0.53125q0.703125 -0.53125 0.703125 -1.40625q0 -0.71875 -0.515625 -1.125q-0.5 -0.421875 -1.671875 -0.65625l-1.671875 -0.34375q-1.5 -0.3125 -2.25 -1.03125q-0.734375 -0.734375 -0.734375 -1.953125q0 -1.015625 0.515625 -1.765625q0.515625 -0.75 1.4375 -1.15625q0.9375 -0.421875 2.15625 -0.421875q1.0 0 1.875 0.28125q0.875 0.28125 1.578125 0.84375q0.21875 0.171875 0.25 0.40625q0.046875 0.234375 -0.0625 0.421875q-0.109375 0.1875 -0.328125 0.25q-0.203125 0.046875 -0.484375 -0.125q-0.640625 -0.5 -1.34375 -0.703125q-0.6875 -0.203125 -1.5 -0.203125q-1.265625 0 -2.015625 0.578125q-0.75 0.578125 -0.75 1.546875q0 0.765625 0.46875 1.21875q0.46875 0.4375 1.546875 0.65625l1.65625 0.34375q1.609375 0.34375 2.390625 1.03125q0.78125 0.671875 0.78125 1.828125q0 0.953125 -0.515625 1.671875q-0.5 0.71875 -1.4375 1.125q-0.9375 0.390625 -2.203125 0.390625zm9.511902 0q-1.84375 0 -2.921875 -1.078125q-1.0625 -1.078125 -1.0625 -2.9375q0 -1.203125 0.484375 -2.109375q0.484375 -0.921875 1.3125 -1.421875q0.84375 -0.515625 1.953125 -0.515625q1.578125 0 2.46875 1.015625q0.90625 1.015625 0.90625 2.796875q0 0.5 -0.5625 0.5l-5.296875 0q0.0625 1.328125 0.765625 2.03125q0.703125 0.6875 1.953125 0.6875q0.53125 0 1.078125 -0.140625q0.546875 -0.140625 1.046875 -0.484375q0.375 -0.25 0.625 -0.09375q0.25 0.140625 0.25 0.4375q0.015625 0.296875 -0.328125 0.515625q-0.53125 0.390625 -1.265625 0.59375q-0.71875 0.203125 -1.40625 0.203125zm-0.203125 -7.09375q-1.109375 0 -1.75 0.6875q-0.640625 0.6875 -0.75 1.796875l4.71875 0q-0.046875 -1.171875 -0.625 -1.828125q-0.5625 -0.65625 -1.59375 -0.65625zm5.871399 7.0625q-0.65625 0 -0.65625 -0.671875l0 -6.671875q0 -0.65625 0.625 -0.65625q0.640625 0 0.640625 0.65625l0 0.84375q0.3125 -0.734375 0.984375 -1.125q0.671875 -0.390625 1.609375 -0.421875q0.5 -0.046875 0.53125 0.515625q0.046875 0.5625 -0.5625 0.625l-0.265625 0.03125q-1.09375 0.09375 -1.671875 0.703125q-0.578125 0.59375 -0.578125 1.625l0 3.875q0 0.671875 -0.65625 0.671875zm8.442383 0q-0.5625 0 -0.828125 -0.625l-2.765625 -6.453125q-0.15625 -0.375 -0.015625 -0.640625q0.140625 -0.28125 0.578125 -0.28125q0.4375 0 0.65625 0.515625l2.40625 5.90625l2.453125 -5.90625q0.109375 -0.28125 0.25 -0.390625q0.140625 -0.125 0.421875 -0.125q0.359375 0 0.484375 0.28125q0.140625 0.265625 0 0.625l-2.8125 6.46875q-0.25 0.625 -0.828125 0.625zm8.737396 0.03125q-1.84375 0 -2.921875 -1.078125q-1.0625 -1.078125 -1.0625 -2.9375q0 -1.203125 0.484375 -2.109375q0.484375 -0.921875 1.3125 -1.421875q0.84375 -0.515625 1.953125 -0.515625q1.578125 0 2.46875 1.015625q0.90625 1.015625 0.90625 2.796875q0 0.5 -0.5625 0.5l-5.296875 0q0.0625 1.328125 0.765625 2.03125q0.703125 0.6875 1.953125 0.6875q0.53125 0 1.078125 -0.140625q0.546875 -0.140625 1.046875 -0.484375q0.375 -0.25 0.625 -0.09375q0.25 0.140625 0.25 0.4375q0.015625 0.296875 -0.328125 0.515625q-0.53125 0.390625 -1.265625 0.59375q-0.71875 0.203125 -1.40625 0.203125zm-0.203125 -7.09375q-1.109375 0 -1.75 0.6875q-0.640625 0.6875 -0.75 1.796875l4.71875 0q-0.046875 -1.171875 -0.625 -1.828125q-0.5625 -0.65625 -1.59375 -0.65625zm5.871399 7.0625q-0.65625 0 -0.65625 -0.671875l0 -6.671875q0 -0.65625 0.625 -0.65625q0.640625 0 0.640625 0.65625l0 0.84375q0.3125 -0.734375 0.984375 -1.125q0.671875 -0.390625 1.609375 -0.421875q0.5 -0.046875 0.53125 0.515625q0.046875 0.5625 -0.5625 0.625l-0.265625 0.03125q-1.09375 0.09375 -1.671875 0.703125q-0.578125 0.59375 -0.578125 1.625l0 3.875q0 0.671875 -0.65625 0.671875z" fill-rule="nonzero"/><path fill="#00153c" d="m631.46735 45.488445l0 0c0 -6.3463287 5.1447144 -11.491043 11.491028 -11.491043l97.08087 0c3.0476685 0 5.970459 1.210659 8.125427 3.3656464c2.1549683 2.1549911 3.3656616 5.0777817 3.3656616 8.125397l0 45.962795c0 6.3463287 -5.1447144 11.491043 -11.491089 11.491043l-97.08087 0c-6.3463135 0 -11.491028 -5.1447144 -11.491028 -11.491043z" fill-rule="evenodd"/><path stroke="#5a8bff" stroke-width="1.0" stroke-linejoin="round" stroke-linecap="butt" d="m631.46735 45.488445l0 0c0 -6.3463287 5.1447144 -11.491043 11.491028 -11.491043l97.08087 0c3.0476685 0 5.970459 1.210659 8.125427 3.3656464c2.1549683 2.1549911 3.3656616 5.0777817 3.3656616 8.125397l0 45.962795c0 6.3463287 -5.1447144 11.491043 -11.491089 11.491043l-97.08087 0c-6.3463135 0 -11.491028 -5.1447144 -11.491028 -11.491043z" fill-rule="evenodd"/><path fill="#ffffff" d="m661.35364 74.43922q-0.65625 0 -0.65625 -0.6875l0 -10.03125q0 -0.671875 0.671875 -0.671875l3.796875 0q1.828125 0 2.78125 0.859375q0.96875 0.84375 0.96875 2.40625q0 1.25 -0.6875 2.046875q-0.671875 0.796875 -1.90625 1.046875q0.734375 0.25 1.25 1.234375l1.546875 2.875q0.171875 0.328125 0.0625 0.625q-0.109375 0.296875 -0.515625 0.296875q-0.265625 0 -0.453125 -0.109375q-0.171875 -0.125 -0.296875 -0.390625l-1.75 -3.21875q-0.359375 -0.6875 -0.84375 -0.921875q-0.484375 -0.234375 -1.265625 -0.234375l-2.046875 0l0 4.1875q0 0.6875 -0.65625 0.6875zm0.65625 -5.921875l2.953125 0q2.65625 0 2.65625 -2.203125q0 -2.171875 -2.65625 -2.171875l-2.953125 0l0 4.375zm12.54364 5.953125q-1.84375 0 -2.921875 -1.078125q-1.0625 -1.078125 -1.0625 -2.9375q0 -1.203125 0.484375 -2.109375q0.484375 -0.921875 1.3125 -1.421875q0.84375 -0.515625 1.953125 -0.515625q1.578125 0 2.46875 1.015625q0.90625 1.015625 0.90625 2.796875q0 0.5 -0.5625 0.5l-5.296875 0q0.0625 1.328125 0.765625 2.03125q0.703125 0.6875 1.953125 0.6875q0.53125 0 1.078125 -0.140625q0.546875 -0.140625 1.046875 -0.484375q0.375 -0.25 0.625 -0.09375q0.25 0.140625 0.25 0.4375q0.015625 0.296875 -0.328125 0.515625q-0.53125 0.390625 -1.265625 0.59375q-0.71875 0.203125 -1.40625 0.203125zm-0.203125 -7.09375q-1.109375 0 -1.75 0.6875q-0.640625 0.6875 -0.75 1.796875l4.71875 0q-0.046875 -1.171875 -0.625 -1.828125q-0.5625 -0.65625 -1.59375 -0.65625zm8.512024 7.09375q-1.171875 0 -2.03125 -0.5q-0.84375 -0.5 -1.296875 -1.421875q-0.453125 -0.921875 -0.453125 -2.15625q0 -1.859375 1.0 -2.921875q1.015625 -1.0625 2.78125 -1.0625q0.578125 0 1.203125 0.1875q0.625 0.1875 1.125 0.59375q0.28125 0.203125 0.234375 0.484375q-0.03125 0.28125 -0.265625 0.4375q-0.234375 0.140625 -0.546875 -0.0625q-0.421875 -0.328125 -0.859375 -0.453125q-0.421875 -0.125 -0.8125 -0.125q-1.21875 0 -1.875 0.765625q-0.65625 0.75 -0.65625 2.171875q0 1.390625 0.65625 2.203125q0.65625 0.8125 1.875 0.8125q0.390625 0 0.8125 -0.125q0.4375 -0.140625 0.859375 -0.453125q0.3125 -0.21875 0.53125 -0.0625q0.234375 0.15625 0.25 0.453125q0.03125 0.28125 -0.234375 0.453125q-0.515625 0.421875 -1.125 0.609375q-0.59375 0.171875 -1.171875 0.171875zm7.185486 0q-1.140625 0 -1.984375 -0.484375q-0.828125 -0.5 -1.28125 -1.40625q-0.453125 -0.90625 -0.453125 -2.140625q0 -1.234375 0.453125 -2.125q0.453125 -0.90625 1.28125 -1.40625q0.84375 -0.5 1.984375 -0.5q1.109375 0 1.953125 0.5q0.84375 0.5 1.296875 1.40625q0.453125 0.890625 0.453125 2.125q0 1.234375 -0.453125 2.140625q-0.453125 0.90625 -1.296875 1.40625q-0.84375 0.484375 -1.953125 0.484375zm0 -1.03125q1.078125 0 1.734375 -0.78125q0.65625 -0.78125 0.65625 -2.21875q0 -1.453125 -0.65625 -2.21875q-0.65625 -0.765625 -1.734375 -0.765625q-1.109375 0 -1.765625 0.765625q-0.640625 0.765625 -0.640625 2.21875q0 1.4375 0.640625 2.21875q0.65625 0.78125 1.765625 0.78125zm6.317932 1.0q-0.65625 0 -0.65625 -0.671875l0 -6.671875q0 -0.65625 0.625 -0.65625q0.640625 0 0.640625 0.65625l0 0.84375q0.3125 -0.734375 0.984375 -1.125q0.671875 -0.390625 1.609375 -0.421875q0.5 -0.046875 0.53125 0.515625q0.046875 0.5625 -0.5625 0.625l-0.265625 0.03125q-1.09375 0.09375 -1.671875 0.703125q-0.578125 0.59375 -0.578125 1.625l0 3.875q0 0.671875 -0.65625 0.671875zm7.928894 0.03125q-1.03125 0 -1.8125 -0.484375q-0.78125 -0.5 -1.203125 -1.40625q-0.421875 -0.90625 -0.421875 -2.140625q0 -1.25 0.421875 -2.140625q0.421875 -0.90625 1.203125 -1.390625q0.78125 -0.5 1.8125 -0.5q0.921875 0 1.609375 0.40625q0.703125 0.390625 1.03125 1.09375l0 -4.3125q0 -0.65625 0.65625 -0.65625q0.640625 0 0.640625 0.65625l0 10.171875q0 0.671875 -0.640625 0.671875q-0.640625 0 -0.640625 -0.671875l0 -0.828125q-0.34375 0.71875 -1.046875 1.125q-0.6875 0.40625 -1.609375 0.40625zm0.28125 -1.03125q1.078125 0 1.734375 -0.78125q0.65625 -0.78125 0.65625 -2.21875q0 -1.453125 -0.65625 -2.21875q-0.65625 -0.765625 -1.734375 -0.765625q-1.109375 0 -1.765625 0.765625q-0.640625 0.765625 -0.640625 2.21875q0 1.4375 0.640625 2.21875q0.65625 0.78125 1.765625 0.78125zm9.593628 1.03125q-1.84375 0 -2.921875 -1.078125q-1.0625 -1.078125 -1.0625 -2.9375q0 -1.203125 0.484375 -2.109375q0.484375 -0.921875 1.3125 -1.421875q0.84375 -0.515625 1.953125 -0.515625q1.578125 0 2.46875 1.015625q0.90625 1.015625 0.90625 2.796875q0 0.5 -0.5625 0.5l-5.296875 0q0.0625 1.328125 0.765625 2.03125q0.703125 0.6875 1.953125 0.6875q0.53125 0 1.078125 -0.140625q0.546875 -0.140625 1.046875 -0.484375q0.375 -0.25 0.625 -0.09375q0.25 0.140625 0.25 0.4375q0.015625 0.296875 -0.328125 0.515625q-0.53125 0.390625 -1.265625 0.59375q-0.71875 0.203125 -1.40625 0.203125zm-0.203125 -7.09375q-1.109375 0 -1.75 0.6875q-0.640625 0.6875 -0.75 1.796875l4.71875 0q-0.046875 -1.171875 -0.625 -1.828125q-0.5625 -0.65625 -1.59375 -0.65625zm5.871399 7.0625q-0.65625 0 -0.65625 -0.671875l0 -6.671875q0 -0.65625 0.625 -0.65625q0.640625 0 0.640625 0.65625l0 0.84375q0.3125 -0.734375 0.984375 -1.125q0.671875 -0.390625 1.609375 -0.421875q0.5 -0.046875 0.53125 0.515625q0.046875 0.5625 -0.5625 0.625l-0.265625 0.03125q-1.09375 0.09375 -1.671875 0.703125q-0.578125 0.59375 -0.578125 1.625l0 3.875q0 0.671875 -0.65625 0.671875z" fill-rule="nonzero"/><path fill="#00153c" d="m57.468166 304.73544l0 0c0 -7.0334473 5.701729 -12.735168 12.735165 -12.735168l113.30132 0c3.3775787 0 6.6168213 1.3417358 9.005127 3.7300415c2.3883057 2.3883057 3.7300415 5.627533 3.7300415 9.005127l0 50.939117c0 7.0334167 -5.701721 12.735168 -12.735168 12.735168l-113.30132 0c-7.033436 0 -12.735165 -5.7017517 -12.735165 -12.735168z" fill-rule="evenodd"/><path stroke="#5a8bff" stroke-width="1.0" stroke-linejoin="round" stroke-linecap="butt" d="m57.468166 304.73544l0 0c0 -7.0334473 5.701729 -12.735168 12.735165 -12.735168l113.30132 0c3.3775787 0 6.6168213 1.3417358 9.005127 3.7300415c2.3883057 2.3883057 3.7300415 5.627533 3.7300415 9.005127l0 50.939117c0 7.0334167 -5.701721 12.735168 -12.735168 12.735168l-113.30132 0c-7.033436 0 -12.735165 -5.7017517 -12.735165 -12.735168z" fill-rule="evenodd"/><path fill="#ffffff" d="m93.99155 336.20563q-1.65625 0 -2.84375 -0.703125q-1.1875 -0.703125 -1.828125 -2.0q-0.625 -1.296875 -0.625 -3.078125q0 -1.78125 0.625 -3.078125q0.640625 -1.296875 1.828125 -2.0q1.1875 -0.703125 2.84375 -0.703125q1.0 0 1.890625 0.296875q0.90625 0.28125 1.5625 0.8125q0.265625 0.1875 0.296875 0.453125q0.046875 0.25 -0.078125 0.453125q-0.125 0.1875 -0.359375 0.25q-0.234375 0.046875 -0.515625 -0.15625q-1.140625 -0.90625 -2.765625 -0.90625q-1.890625 0 -2.90625 1.203125q-1.0 1.1875 -1.0 3.375q0 2.1875 1.0 3.390625q1.015625 1.1875 2.90625 1.1875q1.625 0 2.796875 -0.921875q0.28125 -0.1875 0.515625 -0.140625q0.234375 0.046875 0.34375 0.234375q0.125 0.1875 0.09375 0.4375q-0.03125 0.234375 -0.265625 0.421875q-0.6875 0.578125 -1.59375 0.875q-0.890625 0.296875 -1.921875 0.296875zm8.080521 0q-1.140625 0 -1.75 -0.6875q-0.609375 -0.703125 -0.609375 -2.03125l0 -8.15625q0 -0.65625 0.640625 -0.65625q0.65625 0 0.65625 0.65625l0 8.0625q0 1.71875 1.359375 1.71875q0.140625 0 0.25 -0.015625q0.109375 -0.015625 0.234375 -0.015625q0.171875 -0.03125 0.234375 0.078125q0.078125 0.09375 0.078125 0.375q0 0.546875 -0.546875 0.625q-0.125 0.03125 -0.265625 0.03125q-0.140625 0.015625 -0.28125 0.015625zm3.0172577 -9.78125q-0.84375 0 -0.84375 -0.8125q0 -0.78125 0.84375 -0.78125q0.84375 0 0.84375 0.78125q0 0.8125 -0.84375 0.8125zm0 9.71875q-0.640625 0 -0.640625 -0.703125l0 -6.546875q0 -0.6875 0.640625 -0.6875q0.65625 0 0.65625 0.6875l0 6.546875q0 0.703125 -0.65625 0.703125zm6.5713806 0.0625q-1.84375 0 -2.921875 -1.078125q-1.0625 -1.078125 -1.0625 -2.9375q0 -1.203125 0.484375 -2.109375q0.484375 -0.921875 1.3125 -1.421875q0.84375 -0.515625 1.953125 -0.515625q1.578125 0 2.46875 1.015625q0.90625 1.015625 0.90625 2.796875q0 0.5 -0.5625 0.5l-5.296875 0q0.0625 1.328125 0.765625 2.03125q0.703125 0.6875 1.953125 0.6875q0.53125 0 1.078125 -0.140625q0.546875 -0.140625 1.046875 -0.484375q0.375 -0.25 0.625 -0.09375q0.25 0.140625 0.25 0.4375q0.015625 0.296875 -0.328125 0.515625q-0.53125 0.390625 -1.265625 0.59375q-0.71875 0.203125 -1.40625 0.203125zm-0.203125 -7.09375q-1.109375 0 -1.75 0.6875q-0.640625 0.6875 -0.75 1.796875l4.71875 0q-0.046875 -1.171875 -0.625 -1.828125q-0.5625 -0.65625 -1.59375 -0.65625zm5.855774 7.0625q-0.640625 0 -0.640625 -0.671875l0 -6.671875q0 -0.65625 0.625 -0.65625q0.640625 0 0.640625 0.65625l0 0.78125q0.375 -0.734375 1.078125 -1.09375q0.703125 -0.375 1.59375 -0.375q2.765625 0 2.765625 3.078125l0 4.28125q0 0.671875 -0.640625 0.671875q-0.65625 0 -0.65625 -0.671875l0 -4.203125q0 -1.09375 -0.421875 -1.59375q-0.421875 -0.5 -1.359375 -0.5q-1.0625 0 -1.703125 0.671875q-0.625 0.65625 -0.625 1.75l0 3.875q0 0.671875 -0.65625 0.671875zm11.572388 0.03125q-1.390625 0 -2.078125 -0.71875q-0.6875 -0.734375 -0.6875 -2.109375l0 -4.078125l-1.0625 0q-0.5625 0 -0.5625 -0.515625q0 -0.5 0.5625 -0.5l1.0625 0l0 -1.828125q0 -0.65625 0.65625 -0.65625q0.640625 0 0.640625 0.65625l0 1.828125l2.015625 0q0.5625 0 0.5625 0.5q0 0.515625 -0.5625 0.515625l-2.015625 0l0 3.953125q0 0.90625 0.375 1.390625q0.390625 0.46875 1.265625 0.46875q0.296875 0 0.5 -0.0625q0.21875 -0.078125 0.375 -0.078125q0.140625 -0.015625 0.234375 0.109375q0.109375 0.109375 0.109375 0.375q0 0.1875 -0.078125 0.359375q-0.078125 0.15625 -0.25 0.21875q-0.1875 0.0625 -0.5 0.109375q-0.3125 0.0625 -0.5625 0.0625zm10.431137 0q-1.15625 0 -2.171875 -0.28125q-1.015625 -0.28125 -1.75 -0.8125q-0.265625 -0.1875 -0.3125 -0.421875q-0.046875 -0.234375 0.046875 -0.4375q0.109375 -0.21875 0.3125 -0.28125q0.21875 -0.078125 0.484375 0.09375q0.734375 0.53125 1.546875 0.75q0.8125 0.21875 1.84375 0.21875q1.4375 0 2.125 -0.53125q0.703125 -0.53125 0.703125 -1.40625q0 -0.71875 -0.515625 -1.125q-0.5 -0.421875 -1.671875 -0.65625l-1.671875 -0.34375q-1.5 -0.3125 -2.25 -1.03125q-0.734375 -0.734375 -0.734375 -1.953125q0 -1.015625 0.515625 -1.765625q0.515625 -0.75 1.4375 -1.15625q0.9375 -0.421875 2.15625 -0.421875q1.0 0 1.875 0.28125q0.875 0.28125 1.578125 0.84375q0.21875 0.171875 0.25 0.40625q0.046875 0.234375 -0.0625 0.421875q-0.109375 0.1875 -0.328125 0.25q-0.203125 0.046875 -0.484375 -0.125q-0.640625 -0.5 -1.34375 -0.703125q-0.6875 -0.203125 -1.5 -0.203125q-1.265625 0 -2.015625 0.578125q-0.75 0.578125 -0.75 1.546875q0 0.765625 0.46875 1.21875q0.46875 0.4375 1.546875 0.65625l1.65625 0.34375q1.609375 0.34375 2.390625 1.03125q0.78125 0.671875 0.78125 1.828125q0 0.953125 -0.515625 1.671875q-0.5 0.71875 -1.4375 1.125q-0.9375 0.390625 -2.203125 0.390625zm6.902527 -0.140625q-0.71875 0 -0.71875 -0.71875l0 -9.84375q0 -0.71875 0.71875 -0.71875l3.09375 0q2.734375 0 4.21875 1.453125q1.484375 1.4375 1.484375 4.1875q0 2.734375 -1.484375 4.1875q-1.484375 1.453125 -4.21875 1.453125l-3.09375 0zm0.59375 -1.125l2.40625 0q4.40625 0 4.40625 -4.515625q0 -4.515625 -4.40625 -4.515625l-2.40625 0l0 9.03125zm11.215775 1.234375q-0.65625 0 -0.65625 -0.6875l0 -10.140625q0 -0.671875 0.65625 -0.671875q0.65625 0 0.65625 0.671875l0 4.5625l0.03125 0l5.21875 -4.875q0.390625 -0.359375 0.796875 -0.359375q0.4375 0 0.515625 0.3125q0.09375 0.3125 -0.1875 0.578125l-5.078125 4.6875l5.328125 4.9375q0.359375 0.328125 0.21875 0.65625q-0.125 0.328125 -0.5625 0.328125q-0.234375 0 -0.40625 -0.109375q-0.15625 -0.09375 -0.375 -0.296875l-5.46875 -5.015625l-0.03125 0l0 4.734375q0 0.6875 -0.65625 0.6875z" fill-rule="nonzero"/><path fill="#00153c" d="m472.46863 145.22336l0 0c0 -6.3463287 5.1447144 -11.491043 11.491058 -11.491043l97.0809 0c3.0476074 0 5.970398 1.2106628 8.125366 3.3656464c2.1550293 2.1549835 3.3656616 5.077774 3.3656616 8.125397l0 45.9628c0 6.3463287 -5.1447144 11.491043 -11.491028 11.491043l-97.0809 0c-6.346344 0 -11.491058 -5.1447144 -11.491058 -11.491043z" fill-rule="evenodd"/><path stroke="#5a8bff" stroke-width="1.0" stroke-linejoin="round" stroke-linecap="butt" d="m472.46863 145.22336l0 0c0 -6.3463287 5.1447144 -11.491043 11.491058 -11.491043l97.0809 0c3.0476074 0 5.970398 1.2106628 8.125366 3.3656464c2.1550293 2.1549835 3.3656616 5.077774 3.3656616 8.125397l0 45.9628c0 6.3463287 -5.1447144 11.491043 -11.491028 11.491043l-97.0809 0c-6.346344 0 -11.491058 -5.1447144 -11.491058 -11.491043z" fill-rule="evenodd"/><path fill="#ffffff" d="m502.35492 164.67413q-0.65625 0 -0.65625 -0.6875l0 -10.03125q0 -0.671875 0.671875 -0.671875l3.796875 0q1.828125 0 2.78125 0.859375q0.96875 0.84375 0.96875 2.40625q0 1.25 -0.6875 2.046875q-0.671875 0.796875 -1.90625 1.046875q0.734375 0.25 1.25 1.234375l1.546875 2.875q0.171875 0.328125 0.0625 0.625q-0.109375 0.296875 -0.515625 0.296875q-0.265625 0 -0.453125 -0.109375q-0.171875 -0.125 -0.296875 -0.390625l-1.75 -3.21875q-0.359375 -0.6875 -0.84375 -0.921875q-0.484375 -0.234375 -1.265625 -0.234375l-2.046875 0l0 4.1875q0 0.6875 -0.65625 0.6875zm0.65625 -5.921875l2.953125 0q2.65625 0 2.65625 -2.203125q0 -2.171875 -2.65625 -2.171875l-2.953125 0l0 4.375zm12.54364 5.953125q-1.84375 0 -2.921875 -1.078125q-1.0624695 -1.078125 -1.0624695 -2.9375q0 -1.203125 0.48434448 -2.109375q0.484375 -0.921875 1.3125 -1.421875q0.84375 -0.515625 1.953125 -0.515625q1.578125 0 2.46875 1.015625q0.90625 1.015625 0.90625 2.796875q0 0.5 -0.5625 0.5l-5.296875 0q0.0625 1.328125 0.765625 2.03125q0.703125 0.6875 1.953125 0.6875q0.53125 0 1.078125 -0.140625q0.546875 -0.140625 1.046875 -0.484375q0.375 -0.25 0.625 -0.09375q0.25 0.140625 0.25 0.4375q0.015625 0.296875 -0.328125 0.515625q-0.53125 0.390625 -1.265625 0.59375q-0.71875 0.203125 -1.40625 0.203125zm-0.203125 -7.09375q-1.109375 0 -1.75 0.6875q-0.640625 0.6875 -0.75 1.796875l4.71875 0q-0.046875 -1.171875 -0.625 -1.828125q-0.5625 -0.65625 -1.59375 -0.65625zm8.512024 7.09375q-1.171875 0 -2.03125 -0.5q-0.84375 -0.5 -1.296875 -1.421875q-0.453125 -0.921875 -0.453125 -2.15625q0 -1.859375 1.0 -2.921875q1.015625 -1.0625 2.78125 -1.0625q0.578125 0 1.203125 0.1875q0.625 0.1875 1.125 0.59375q0.28125 0.203125 0.234375 0.484375q-0.03125 0.28125 -0.265625 0.4375q-0.234375 0.140625 -0.546875 -0.0625q-0.421875 -0.328125 -0.859375 -0.453125q-0.421875 -0.125 -0.8125 -0.125q-1.21875 0 -1.875 0.765625q-0.65625 0.75 -0.65625 2.171875q0 1.390625 0.65625 2.203125q0.65625 0.8125 1.875 0.8125q0.390625 0 0.8125 -0.125q0.4375 -0.140625 0.859375 -0.453125q0.3125 -0.21875 0.53125 -0.0625q0.234375 0.15625 0.25 0.453125q0.03125 0.28125 -0.234375 0.453125q-0.515625 0.421875 -1.125 0.609375q-0.59375 0.171875 -1.171875 0.171875zm7.185547 0q-1.140625 0 -1.984375 -0.484375q-0.828125 -0.5 -1.28125 -1.40625q-0.453125 -0.90625 -0.453125 -2.140625q0 -1.234375 0.453125 -2.125q0.453125 -0.90625 1.28125 -1.40625q0.84375 -0.5 1.984375 -0.5q1.109375 0 1.953125 0.5q0.84375 0.5 1.296875 1.40625q0.453125 0.890625 0.453125 2.125q0 1.234375 -0.453125 2.140625q-0.453125 0.90625 -1.296875 1.40625q-0.84375 0.484375 -1.953125 0.484375zm0 -1.03125q1.078125 0 1.734375 -0.78125q0.65625 -0.78125 0.65625 -2.21875q0 -1.453125 -0.65625 -2.21875q-0.65625 -0.765625 -1.734375 -0.765625q-1.109375 0 -1.765625 0.765625q-0.640625 0.765625 -0.640625 2.21875q0 1.4375 0.640625 2.21875q0.65625 0.78125 1.765625 0.78125zm6.317871 1.0q-0.65625 0 -0.65625 -0.671875l0 -6.671875q0 -0.65625 0.625 -0.65625q0.640625 0 0.640625 0.65625l0 0.84375q0.3125 -0.734375 0.984375 -1.125q0.671875 -0.390625 1.609375 -0.421875q0.5 -0.046875 0.53125 0.515625q0.046875 0.5625 -0.5625 0.625l-0.265625 0.03125q-1.09375 0.09375 -1.671875 0.703125q-0.578125 0.59375 -0.578125 1.625l0 3.875q0 0.671875 -0.65625 0.671875zm7.928894 0.03125q-1.03125 0 -1.8125 -0.484375q-0.78125 -0.5 -1.203125 -1.40625q-0.421875 -0.90625 -0.421875 -2.140625q0 -1.25 0.421875 -2.140625q0.421875 -0.90625 1.203125 -1.390625q0.78125 -0.5 1.8125 -0.5q0.921875 0 1.609375 0.40625q0.703125 0.390625 1.03125 1.09375l0 -4.3125q0 -0.65625 0.65625 -0.65625q0.640625 0 0.640625 0.65625l0 10.171875q0 0.671875 -0.640625 0.671875q-0.640625 0 -0.640625 -0.671875l0 -0.828125q-0.34375 0.71875 -1.046875 1.125q-0.6875 0.40625 -1.609375 0.40625zm0.28125 -1.03125q1.078125 0 1.734375 -0.78125q0.65625 -0.78125 0.65625 -2.21875q0 -1.453125 -0.65625 -2.21875q-0.65625 -0.765625 -1.734375 -0.765625q-1.109375 0 -1.765625 0.765625q-0.640625 0.765625 -0.640625 2.21875q0 1.4375 0.640625 2.21875q0.65625 0.78125 1.765625 0.78125zm9.593628 1.03125q-1.84375 0 -2.921875 -1.078125q-1.0625 -1.078125 -1.0625 -2.9375q0 -1.203125 0.484375 -2.109375q0.484375 -0.921875 1.3125 -1.421875q0.84375 -0.515625 1.953125 -0.515625q1.578125 0 2.46875 1.015625q0.90625 1.015625 0.90625 2.796875q0 0.5 -0.5625 0.5l-5.296875 0q0.0625 1.328125 0.765625 2.03125q0.703125 0.6875 1.953125 0.6875q0.53125 0 1.078125 -0.140625q0.546875 -0.140625 1.046875 -0.484375q0.375 -0.25 0.625 -0.09375q0.25 0.140625 0.25 0.4375q0.015625 0.296875 -0.328125 0.515625q-0.53125 0.390625 -1.265625 0.59375q-0.71875 0.203125 -1.40625 0.203125zm-0.203125 -7.09375q-1.109375 0 -1.75 0.6875q-0.640625 0.6875 -0.75 1.796875l4.71875 0q-0.046875 -1.171875 -0.625 -1.828125q-0.5625 -0.65625 -1.59375 -0.65625zm5.871399 7.0625q-0.65625 0 -0.65625 -0.671875l0 -6.671875q0 -0.65625 0.625 -0.65625q0.640625 0 0.640625 0.65625l0 0.84375q0.3125 -0.734375 0.984375 -1.125q0.671875 -0.390625 1.609375 -0.421875q0.5 -0.046875 0.53125 0.515625q0.046875 0.5625 -0.5625 0.625l-0.265625 0.03125q-1.09375 0.09375 -1.671875 0.703125q-0.578125 0.59375 -0.578125 1.625l0 3.875q0 0.671875 -0.65625 0.671875z" fill-rule="nonzero"/><path fill="#ffffff" d="m511.41095 183.70538q-1.15625 0 -2.171875 -0.28125q-1.015625 -0.28125 -1.75 -0.8125q-0.265625 -0.1875 -0.3125 -0.421875q-0.046875 -0.234375 0.046875 -0.4375q0.109375 -0.21875 0.3125 -0.28125q0.21875 -0.078125 0.484375 0.09375q0.734375 0.53125 1.546875 0.75q0.8125 0.21875 1.84375 0.21875q1.4375 0 2.125 -0.53125q0.703125 -0.53125 0.703125 -1.40625q0 -0.71875 -0.515625 -1.125q-0.5 -0.421875 -1.671875 -0.65625l-1.671875 -0.34375q-1.5 -0.3125 -2.25 -1.03125q-0.734375 -0.734375 -0.734375 -1.953125q0 -1.015625 0.515625 -1.765625q0.515625 -0.75 1.4375 -1.15625q0.9375 -0.421875 2.15625 -0.421875q1.0 0 1.875 0.28125q0.875 0.28125 1.578125 0.84375q0.21875 0.171875 0.25 0.40625q0.046875 0.234375 -0.0625 0.421875q-0.109375 0.1875 -0.328125 0.25q-0.203125 0.046875 -0.484375 -0.125q-0.640625 -0.5 -1.34375 -0.703125q-0.6875 -0.203125 -1.5 -0.203125q-1.265625 0 -2.015625 0.578125q-0.75 0.578125 -0.75 1.546875q0 0.765625 0.46875 1.21875q0.46875 0.4375 1.546875 0.65625l1.65625 0.34375q1.609375 0.34375 2.390625 1.03125q0.78125 0.671875 0.78125 1.828125q0 0.953125 -0.515625 1.671875q-0.5 0.71875 -1.4375 1.125q-0.9375 0.390625 -2.203125 0.390625zm9.511902 0q-1.84375 0 -2.921875 -1.078125q-1.0625 -1.078125 -1.0625 -2.9375q0 -1.203125 0.484375 -2.109375q0.484375 -0.921875 1.3125 -1.421875q0.84375 -0.515625 1.953125 -0.515625q1.578125 0 2.46875 1.015625q0.90625 1.015625 0.90625 2.796875q0 0.5 -0.5625 0.5l-5.296875 0q0.0625 1.328125 0.765625 2.03125q0.703125 0.6875 1.953125 0.6875q0.53125 0 1.078125 -0.140625q0.546875 -0.140625 1.046875 -0.484375q0.375 -0.25 0.625 -0.09375q0.25 0.140625 0.25 0.4375q0.015625 0.296875 -0.328125 0.515625q-0.53125 0.390625 -1.265625 0.59375q-0.71875 0.203125 -1.40625 0.203125zm-0.203125 -7.09375q-1.109375 0 -1.75 0.6875q-0.640625 0.6875 -0.75 1.796875l4.71875 0q-0.046875 -1.171875 -0.625 -1.828125q-0.5625 -0.65625 -1.59375 -0.65625zm5.871399 7.0625q-0.65625 0 -0.65625 -0.671875l0 -6.671875q0 -0.65625 0.625 -0.65625q0.640625 0 0.640625 0.65625l0 0.84375q0.3125 -0.734375 0.984375 -1.125q0.671875 -0.390625 1.609375 -0.421875q0.5 -0.046875 0.53125 0.515625q0.046875 0.5625 -0.5625 0.625l-0.265625 0.03125q-1.09375 0.09375 -1.671875 0.703125q-0.578125 0.59375 -0.578125 1.625l0 3.875q0 0.671875 -0.65625 0.671875zm8.442383 0q-0.5625 0 -0.828125 -0.625l-2.765625 -6.453125q-0.15625 -0.375 -0.015625 -0.640625q0.140625 -0.28125 0.578125 -0.28125q0.4375 0 0.65625 0.515625l2.40625 5.90625l2.453125 -5.90625q0.109375 -0.28125 0.25 -0.390625q0.140625 -0.125 0.421875 -0.125q0.359375 0 0.484375 0.28125q0.140625 0.265625 0 0.625l-2.8125 6.46875q-0.25 0.625 -0.828125 0.625zm5.98999 -9.75q-0.84375 0 -0.84375 -0.8125q0 -0.78125 0.84375 -0.78125q0.84375 0 0.84375 0.78125q0 0.8125 -0.84375 0.8125zm0 9.71875q-0.640625 0 -0.640625 -0.703125l0 -6.546875q0 -0.6875 0.640625 -0.6875q0.65625 0 0.65625 0.6875l0 6.546875q0 0.703125 -0.65625 0.703125zm6.368286 0.0625q-1.171875 0 -2.03125 -0.5q-0.84375 -0.5 -1.296875 -1.421875q-0.453125 -0.921875 -0.453125 -2.15625q0 -1.859375 1.0 -2.921875q1.015625 -1.0625 2.78125 -1.0625q0.578125 0 1.203125 0.1875q0.625 0.1875 1.125 0.59375q0.28125 0.203125 0.234375 0.484375q-0.03125 0.28125 -0.265625 0.4375q-0.234375 0.140625 -0.546875 -0.0625q-0.421875 -0.328125 -0.859375 -0.453125q-0.421875 -0.125 -0.8125 -0.125q-1.21875 0 -1.875 0.765625q-0.65625 0.75 -0.65625 2.171875q0 1.390625 0.65625 2.203125q0.65625 0.8125 1.875 0.8125q0.390625 0 0.8125 -0.125q0.4375 -0.140625 0.859375 -0.453125q0.3125 -0.21875 0.53125 -0.0625q0.234375 0.15625 0.25 0.453125q0.03125 0.28125 -0.234375 0.453125q-0.515625 0.421875 -1.125 0.609375q-0.59375 0.171875 -1.171875 0.171875zm7.451111 0q-1.84375 0 -2.921875 -1.078125q-1.0625 -1.078125 -1.0625 -2.9375q0 -1.203125 0.484375 -2.109375q0.484375 -0.921875 1.3125 -1.421875q0.84375 -0.515625 1.953125 -0.515625q1.578125 0 2.46875 1.015625q0.90625 1.015625 0.90625 2.796875q0 0.5 -0.5625 0.5l-5.296875 0q0.0625 1.328125 0.765625 2.03125q0.703125 0.6875 1.953125 0.6875q0.53125 0 1.078125 -0.140625q0.546875 -0.140625 1.046875 -0.484375q0.375 -0.25 0.625 -0.09375q0.25 0.140625 0.25 0.4375q0.015625 0.296875 -0.328125 0.515625q-0.53125 0.390625 -1.265625 0.59375q-0.71875 0.203125 -1.40625 0.203125zm-0.203125 -7.09375q-1.109375 0 -1.75 0.6875q-0.640625 0.6875 -0.75 1.796875l4.71875 0q-0.046875 -1.171875 -0.625 -1.828125q-0.5625 -0.65625 -1.59375 -0.65625z" fill-rule="nonzero"/><path fill="#000000" fill-opacity="0.0" d="m592.5316 168.20476c9.734253 0 14.602295 0.01574707 19.468445 0.03149414c4.86615 0.01574707 9.730347 0.03149414 19.460693 0.03149414" fill-rule="evenodd"/><path stroke="#6ee2e2" stroke-width="2.0" stroke-linejoin="round" stroke-linecap="butt" d="m592.5316 168.20476c9.734192 0 14.602295 0.01574707 19.468445 0.03149414l7.4606934 0.020431519" fill-rule="evenodd"/><path fill="#6ee2e2" stroke="#6ee2e2" stroke-width="2.0" stroke-linecap="butt" d="m619.4577 171.56015l9.079224 -3.295105l-9.07312 -3.3118286z" fill-rule="evenodd"/><path fill="#00153c" d="m631.4686 145.22336l0 0c0 -6.3463287 5.1447144 -11.491043 11.491028 -11.491043l97.08093 0c3.0476074 0 5.970398 1.2106476 8.125366 3.3656464c2.1550293 2.1549835 3.3656616 5.077774 3.3656616 8.125397l0 45.962784c0 6.3463287 -5.1447144 11.491043 -11.491028 11.491043l-97.08093 0c-6.3463135 0 -11.491028 -5.1447144 -11.491028 -11.491043z" fill-rule="evenodd"/><path stroke="#5a8bff" stroke-width="1.0" stroke-linejoin="round" stroke-linecap="butt" d="m631.4686 145.22336l0 0c0 -6.3463287 5.1447144 -11.491043 11.491028 -11.491043l97.08093 0c3.0476074 0 5.970398 1.2106476 8.125366 3.3656464c2.1550293 2.1549835 3.3656616 5.077774 3.3656616 8.125397l0 45.962784c0 6.3463287 -5.1447144 11.491043 -11.491028 11.491043l-97.08093 0c-6.3463135 0 -11.491028 -5.1447144 -11.491028 -11.491043z" fill-rule="evenodd"/><path fill="#ffffff" d="m661.3549 174.17412q-0.65625 0 -0.65625 -0.6875l0 -10.03125q0 -0.671875 0.671875 -0.671875l3.796875 0q1.828125 0 2.78125 0.859375q0.96875 0.84375 0.96875 2.40625q0 1.25 -0.6875 2.046875q-0.671875 0.796875 -1.90625 1.046875q0.734375 0.25 1.25 1.234375l1.546875 2.875q0.171875 0.328125 0.0625 0.625q-0.109375 0.296875 -0.515625 0.296875q-0.265625 0 -0.453125 -0.109375q-0.171875 -0.125 -0.296875 -0.390625l-1.75 -3.21875q-0.359375 -0.6875 -0.84375 -0.921875q-0.484375 -0.234375 -1.265625 -0.234375l-2.046875 0l0 4.1875q0 0.6875 -0.65625 0.6875zm0.65625 -5.921875l2.953125 0q2.65625 0 2.65625 -2.203125q0 -2.171875 -2.65625 -2.171875l-2.953125 0l0 4.375zm12.54364 5.953125q-1.84375 0 -2.921875 -1.078125q-1.0625 -1.078125 -1.0625 -2.9375q0 -1.203125 0.484375 -2.109375q0.484375 -0.921875 1.3125 -1.421875q0.84375 -0.515625 1.953125 -0.515625q1.578125 0 2.46875 1.015625q0.90625 1.015625 0.90625 2.796875q0 0.5 -0.5625 0.5l-5.296875 0q0.0625 1.328125 0.765625 2.03125q0.703125 0.6875 1.953125 0.6875q0.53125 0 1.078125 -0.140625q0.546875 -0.140625 1.046875 -0.484375q0.375 -0.25 0.625 -0.09375q0.25 0.140625 0.25 0.4375q0.015625 0.296875 -0.328125 0.515625q-0.53125 0.390625 -1.265625 0.59375q-0.71875 0.203125 -1.40625 0.203125zm-0.203125 -7.09375q-1.109375 0 -1.75 0.6875q-0.640625 0.6875 -0.75 1.796875l4.71875 0q-0.046875 -1.171875 -0.625 -1.828125q-0.5625 -0.65625 -1.59375 -0.65625zm8.512024 7.09375q-1.171875 0 -2.03125 -0.5q-0.84375 -0.5 -1.296875 -1.421875q-0.453125 -0.921875 -0.453125 -2.15625q0 -1.859375 1.0 -2.921875q1.015625 -1.0625 2.78125 -1.0625q0.578125 0 1.203125 0.1875q0.625 0.1875 1.125 0.59375q0.28125 0.203125 0.234375 0.484375q-0.03125 0.28125 -0.265625 0.4375q-0.234375 0.140625 -0.546875 -0.0625q-0.421875 -0.328125 -0.859375 -0.453125q-0.421875 -0.125 -0.8125 -0.125q-1.21875 0 -1.875 0.765625q-0.65625 0.75 -0.65625 2.171875q0 1.390625 0.65625 2.203125q0.65625 0.8125 1.875 0.8125q0.390625 0 0.8125 -0.125q0.4375 -0.140625 0.859375 -0.453125q0.3125 -0.21875 0.53125 -0.0625q0.234375 0.15625 0.25 0.453125q0.03125 0.28125 -0.234375 0.453125q-0.515625 0.421875 -1.125 0.609375q-0.59375 0.171875 -1.171875 0.171875zm7.185547 0q-1.140625 0 -1.984375 -0.484375q-0.828125 -0.5 -1.28125 -1.40625q-0.453125 -0.90625 -0.453125 -2.140625q0 -1.234375 0.453125 -2.125q0.453125 -0.90625 1.28125 -1.40625q0.84375 -0.5 1.984375 -0.5q1.109375 0 1.953125 0.5q0.84375 0.5 1.296875 1.40625q0.453125 0.890625 0.453125 2.125q0 1.234375 -0.453125 2.140625q-0.453125 0.90625 -1.296875 1.40625q-0.84375 0.484375 -1.953125 0.484375zm0 -1.03125q1.078125 0 1.734375 -0.78125q0.65625 -0.78125 0.65625 -2.21875q0 -1.453125 -0.65625 -2.21875q-0.65625 -0.765625 -1.734375 -0.765625q-1.109375 0 -1.765625 0.765625q-0.640625 0.765625 -0.640625 2.21875q0 1.4375 0.640625 2.21875q0.65625 0.78125 1.765625 0.78125zm6.317871 1.0q-0.65625 0 -0.65625 -0.671875l0 -6.671875q0 -0.65625 0.625 -0.65625q0.640625 0 0.640625 0.65625l0 0.84375q0.3125 -0.734375 0.984375 -1.125q0.671875 -0.390625 1.609375 -0.421875q0.5 -0.046875 0.53125 0.515625q0.046875 0.5625 -0.5625 0.625l-0.265625 0.03125q-1.09375 0.09375 -1.671875 0.703125q-0.578125 0.59375 -0.578125 1.625l0 3.875q0 0.671875 -0.65625 0.671875zm7.928894 0.03125q-1.03125 0 -1.8125 -0.484375q-0.78125 -0.5 -1.203125 -1.40625q-0.421875 -0.90625 -0.421875 -2.140625q0 -1.25 0.421875 -2.140625q0.421875 -0.90625 1.203125 -1.390625q0.78125 -0.5 1.8125 -0.5q0.921875 0 1.609375 0.40625q0.703125 0.390625 1.03125 1.09375l0 -4.3125q0 -0.65625 0.65625 -0.65625q0.640625 0 0.640625 0.65625l0 10.171875q0 0.671875 -0.640625 0.671875q-0.640625 0 -0.640625 -0.671875l0 -0.828125q-0.34375 0.71875 -1.046875 1.125q-0.6875 0.40625 -1.609375 0.40625zm0.28125 -1.03125q1.078125 0 1.734375 -0.78125q0.65625 -0.78125 0.65625 -2.21875q0 -1.453125 -0.65625 -2.21875q-0.65625 -0.765625 -1.734375 -0.765625q-1.109375 0 -1.765625 0.765625q-0.640625 0.765625 -0.640625 2.21875q0 1.4375 0.640625 2.21875q0.65625 0.78125 1.765625 0.78125zm9.593628 1.03125q-1.84375 0 -2.921875 -1.078125q-1.0625 -1.078125 -1.0625 -2.9375q0 -1.203125 0.484375 -2.109375q0.484375 -0.921875 1.3125 -1.421875q0.84375 -0.515625 1.953125 -0.515625q1.578125 0 2.46875 1.015625q0.90625 1.015625 0.90625 2.796875q0 0.5 -0.5625 0.5l-5.296875 0q0.0625 1.328125 0.765625 2.03125q0.703125 0.6875 1.953125 0.6875q0.53125 0 1.078125 -0.140625q0.546875 -0.140625 1.046875 -0.484375q0.375 -0.25 0.625 -0.09375q0.25 0.140625 0.25 0.4375q0.015625 0.296875 -0.328125 0.515625q-0.53125 0.390625 -1.265625 0.59375q-0.71875 0.203125 -1.40625 0.203125zm-0.203125 -7.09375q-1.109375 0 -1.75 0.6875q-0.640625 0.6875 -0.75 1.796875l4.71875 0q-0.046875 -1.171875 -0.625 -1.828125q-0.5625 -0.65625 -1.59375 -0.65625zm5.871399 7.0625q-0.65625 0 -0.65625 -0.671875l0 -6.671875q0 -0.65625 0.625 -0.65625q0.640625 0 0.640625 0.65625l0 0.84375q0.3125 -0.734375 0.984375 -1.125q0.671875 -0.390625 1.609375 -0.421875q0.5 -0.046875 0.53125 0.515625q0.046875 0.5625 -0.5625 0.625l-0.265625 0.03125q-1.09375 0.09375 -1.671875 0.703125q-0.578125 0.59375 -0.578125 1.625l0 3.875q0 0.671875 -0.65625 0.671875z" fill-rule="nonzero"/><path fill="#000000" fill-opacity="0.0" d="m380.40286 119.0c23.016663 0 34.52545 12.29921 46.033325 24.59842c11.507874 12.299225 23.014832 24.598434 46.029663 24.598434" fill-rule="evenodd"/><path stroke="#434343" stroke-width="1.0" stroke-linejoin="round" stroke-linecap="butt" d="m386.3956 119.29543l0.18673706 0.018730164c0.6549988 0.06868744 1.2998352 0.14826202 1.9348145 0.23834229c2.5399475 0.36032867 4.922516 0.8888092 7.1702576 1.5614243c4.4954834 1.3452225 8.451538 3.2669754 12.047913 5.5730743c7.192749 4.6122055 12.94693 10.761818 18.700867 16.911415c11.507874 12.299225 23.014832 24.598434 46.029663 24.598434" fill-rule="evenodd"/><path fill="#434343" stroke="#434343" stroke-width="1.0" stroke-linecap="butt" d="m386.4769 117.6457l-4.613922 1.4262848l4.4512634 1.873169z" fill-rule="evenodd"/><path fill="#000000" fill-opacity="0.0" d="m288.30576 119.0c-23.016663 0 -34.525467 12.29921 -46.03334 24.59842c-11.507874 12.299225 -23.014832 24.598434 -46.029663 24.598434" fill-rule="evenodd"/><path stroke="#434343" stroke-width="1.0" stroke-linejoin="round" stroke-linecap="butt" d="m282.31302 119.29543l-0.18673706 0.018730164c-0.6550293 0.06868744 -1.2998352 0.14826202 -1.9348145 0.23834229c-2.5399475 0.36032867 -4.9225464 0.8888092 -7.170288 1.5614243c-4.4954834 1.3452225 -8.451508 3.2669754 -12.047913 5.5730743c-7.192749 4.6122055 -12.946915 10.761818 -18.700851 16.911415c-11.507874 12.299225 -23.014832 24.598434 -46.029648 24.598434" fill-rule="evenodd"/><path fill="#434343" stroke="#434343" stroke-width="1.0" stroke-linecap="butt" d="m282.39435 120.94515l4.4512634 -1.873169l-4.613922 -1.4262848z" fill-rule="evenodd"/><path fill="#000000" fill-opacity="0.0" d="m288.30576 119.0c-23.016663 0 -34.525467 -12.629921 -46.03334 -25.259842c-11.507874 -12.629921 -23.014832 -25.259842 -46.029663 -25.259842" fill-rule="evenodd"/><path stroke="#434343" stroke-width="1.0" stroke-linejoin="round" stroke-linecap="butt" d="m282.31342 118.69666l-0.18713379 -0.01927185c-0.6550293 -0.07054138 -1.2998352 -0.1522522 -1.9348145 -0.24475098c-2.5399475 -0.370018 -4.9225464 -0.9127121 -7.170288 -1.6034088c-4.4954834 -1.3813934 -8.451508 -3.3548203 -12.047913 -5.722931c-7.192749 -4.7362213 -12.946915 -11.051186 -18.700851 -17.366142c-11.507874 -12.629921 -23.014832 -25.259842 -46.029648 -25.259842" fill-rule="evenodd"/><path fill="#434343" stroke="#434343" stroke-width="1.0" stroke-linecap="butt" d="m282.22992 120.34629l4.615814 -1.4201965l-4.4487915 -1.8790436z" fill-rule="evenodd"/><path fill="#000000" fill-opacity="0.0" d="m126.854 292.00027c0 -22.330719 0.01574707 -33.496063 0.03149414 -44.661423c0.01574707 -11.1653595 0.03149414 -22.330719 0.03149414 -44.661423" fill-rule="evenodd"/><path stroke="#6ee2e2" stroke-width="2.0" stroke-linejoin="round" stroke-linecap="butt" d="m126.85399 292.00027c0 -22.330719 0.0157547 -33.496063 0.03150177 -44.661423c0.007873535 -5.5826874 0.01574707 -11.1653595 0.021652222 -18.143707c0.0029525757 -3.4891663 0.0054092407 -7.3272552 0.007133484 -11.688721l5.1116943E-4 -2.8289948" fill-rule="evenodd"/><path fill="#6ee2e2" stroke="#6ee2e2" stroke-width="2.0" stroke-linecap="butt" d="m130.21826 214.67804l-3.3018112 -9.0767975l-3.3051224 9.075592z" fill-rule="evenodd"/><path fill="#000000" fill-opacity="0.0" d="m119.85302 234.4672l120.062996 0l0 38.771637l-120.062996 0z" fill-rule="evenodd"/><path fill="#ffffff" d="m141.43005 258.9678q-1.65625 0 -2.84375 -0.703125q-1.1875 -0.703125 -1.828125 -2.0q-0.625 -1.2968597 -0.625 -3.0781097q0 -1.78125 0.625 -3.078125q0.640625 -1.296875 1.828125 -2.0q1.1875 -0.703125 2.84375 -0.703125q1.0 0 1.890625 0.296875q0.90625 0.28125 1.5625 0.8125q0.265625 0.1875 0.296875 0.453125q0.046875 0.25 -0.078125 0.453125q-0.125 0.1875 -0.359375 0.25q-0.234375 0.046875 -0.515625 -0.15625q-1.140625 -0.90625 -2.765625 -0.90625q-1.890625 0 -2.90625 1.203125q-1.0 1.1875 -1.0 3.375q0 2.1875 1.0 3.3906097q1.015625 1.1875 2.90625 1.1875q1.625 0 2.796875 -0.921875q0.28125 -0.1875 0.515625 -0.140625q0.234375 0.046875 0.34375 0.234375q0.125 0.1875 0.09375 0.4375q-0.03125 0.234375 -0.265625 0.421875q-0.6875 0.578125 -1.59375 0.875q-0.890625 0.296875 -1.921875 0.296875zm6.3773956 -0.03125q-0.65625 0 -0.65625 -0.671875l0 -6.6718597q0 -0.65625 0.625 -0.65625q0.640625 0 0.640625 0.65625l0 0.84375q0.3125 -0.734375 0.984375 -1.125q0.671875 -0.390625 1.609375 -0.421875q0.5 -0.046875 0.53125 0.515625q0.046875 0.5625 -0.5625 0.625l-0.265625 0.03125q-1.09375 0.09375 -1.671875 0.703125q-0.578125 0.59375 -0.578125 1.625l0 3.8749847q0 0.671875 -0.65625 0.671875zm8.475769 0.03125q-1.84375 0 -2.921875 -1.078125q-1.0625 -1.078125 -1.0625 -2.9374847q0 -1.203125 0.484375 -2.109375q0.484375 -0.921875 1.3125 -1.421875q0.84375 -0.515625 1.953125 -0.515625q1.578125 0 2.46875 1.015625q0.90625 1.015625 0.90625 2.796875q0 0.5 -0.5625 0.5l-5.296875 0q0.0625 1.3281097 0.765625 2.0312347q0.703125 0.6875 1.953125 0.6875q0.53125 0 1.078125 -0.140625q0.546875 -0.140625 1.046875 -0.484375q0.375 -0.25 0.625 -0.09375q0.25 0.140625 0.25 0.4375q0.015625 0.296875 -0.328125 0.515625q-0.53125 0.390625 -1.265625 0.59375q-0.71875 0.203125 -1.40625 0.203125zm-0.203125 -7.0937347q-1.109375 0 -1.75 0.6875q-0.640625 0.6875 -0.75 1.796875l4.71875 0q-0.046875 -1.171875 -0.625 -1.828125q-0.5625 -0.65625 -1.59375 -0.65625zm7.652649 7.0937347q-0.796875 0 -1.4375 -0.3125q-0.625 -0.3125 -1.0 -0.84375q-0.359375 -0.546875 -0.359375 -1.21875q0 -0.85935974 0.4375 -1.3437347q0.453125 -0.5 1.46875 -0.71875q1.015625 -0.21875 2.765625 -0.21875l0.515625 0l0 -0.5q0 -0.984375 -0.40625 -1.421875q-0.40625 -0.4375 -1.296875 -0.4375q-0.5625 0 -1.140625 0.140625q-0.5625 0.140625 -1.171875 0.46875q-0.265625 0.140625 -0.453125 0.0625q-0.1875 -0.09375 -0.265625 -0.296875q-0.0625 -0.203125 0 -0.421875q0.078125 -0.21875 0.3125 -0.328125q0.6875 -0.34375 1.390625 -0.5q0.703125 -0.171875 1.328125 -0.171875q1.5 0 2.21875 0.734375q0.734375 0.734375 0.734375 2.296875l0 4.3281097q0 0.671875 -0.59375 0.671875q-0.625 0 -0.625 -0.671875l0 -0.78125q-0.296875 0.6875 -0.9375 1.09375q-0.625 0.390625 -1.484375 0.390625zm0.21875 -0.96875q0.953125 0 1.5625 -0.65625q0.609375 -0.671875 0.609375 -1.7031097l0 -0.46875l-0.5 0q-1.296875 0 -2.046875 0.125q-0.734375 0.109375 -1.03125 0.40625q-0.296875 0.296875 -0.296875 0.81248474q0 0.65625 0.453125 1.078125q0.46875 0.40625 1.25 0.40625zm8.948761 0.96875q-1.390625 0 -2.078125 -0.71875q-0.6875 -0.734375 -0.6875 -2.109375l0 -4.0781097l-1.0625 0q-0.5625 0 -0.5625 -0.515625q0 -0.5 0.5625 -0.5l1.0625 0l0 -1.828125q0 -0.65625 0.65625 -0.65625q0.640625 0 0.640625 0.65625l0 1.828125l2.015625 0q0.5625 0 0.5625 0.5q0 0.515625 -0.5625 0.515625l-2.015625 0l0 3.9531097q0 0.90625 0.375 1.390625q0.390625 0.46875 1.265625 0.46875q0.296875 0 0.5 -0.0625q0.21875 -0.078125 0.375 -0.078125q0.140625 -0.015625 0.234375 0.109375q0.109375 0.109375 0.109375 0.375q0 0.1875 -0.078125 0.359375q-0.078125 0.15625 -0.25 0.21875q-0.1875 0.0625 -0.5 0.109375q-0.3125 0.0625 -0.5625 0.0625zm5.8950043 0q-1.84375 0 -2.921875 -1.078125q-1.0625 -1.078125 -1.0625 -2.9374847q0 -1.203125 0.484375 -2.109375q0.484375 -0.921875 1.3125 -1.421875q0.84375 -0.515625 1.953125 -0.515625q1.578125 0 2.46875 1.015625q0.90625 1.015625 0.90625 2.796875q0 0.5 -0.5625 0.5l-5.296875 0q0.0625 1.3281097 0.765625 2.0312347q0.703125 0.6875 1.953125 0.6875q0.53125 0 1.078125 -0.140625q0.546875 -0.140625 1.046875 -0.484375q0.375 -0.25 0.625 -0.09375q0.25 0.140625 0.25 0.4375q0.015625 0.296875 -0.328125 0.515625q-0.53125 0.390625 -1.265625 0.59375q-0.71875 0.203125 -1.40625 0.203125zm-0.203125 -7.0937347q-1.109375 0 -1.75 0.6875q-0.640625 0.6875 -0.75 1.796875l4.71875 0q-0.046875 -1.171875 -0.625 -1.828125q-0.5625 -0.65625 -1.59375 -0.65625zm6.0432587 7.0624847q-0.65625 0 -0.65625 -0.6875l0 -10.031235q0 -0.671875 0.671875 -0.671875l3.796875 0q1.828125 0 2.78125 0.859375q0.96875 0.84375 0.96875 2.40625q0 1.25 -0.6875 2.046875q-0.671875 0.796875 -1.90625 1.046875q0.734375 0.25 1.25 1.234375l1.546875 2.8749847q0.171875 0.328125 0.0625 0.625q-0.109375 0.296875 -0.515625 0.296875q-0.265625 0 -0.453125 -0.109375q-0.171875 -0.125 -0.296875 -0.390625l-1.75 -3.2187347q-0.359375 -0.6875 -0.84375 -0.921875q-0.484375 -0.234375 -1.265625 -0.234375l-2.046875 0l0 4.1874847q0 0.6875 -0.65625 0.6875zm0.65625 -5.9218597l2.953125 0q2.65625 0 2.65625 -2.203125q0 -2.171875 -2.65625 -2.171875l-2.953125 0l0 4.375zm12.27803 5.9531097q-1.140625 0 -1.984375 -0.484375q-0.828125 -0.5 -1.28125 -1.40625q-0.453125 -0.90625 -0.453125 -2.1406097q0 -1.234375 0.453125 -2.125q0.453125 -0.90625 1.28125 -1.40625q0.84375 -0.5 1.984375 -0.5q1.109375 0 1.953125 0.5q0.84375 0.5 1.296875 1.40625q0.453125 0.890625 0.453125 2.125q0 1.2343597 -0.453125 2.1406097q-0.453125 0.90625 -1.296875 1.40625q-0.84375 0.484375 -1.953125 0.484375zm0 -1.03125q1.078125 0 1.734375 -0.78125q0.65625 -0.78125 0.65625 -2.2187347q0 -1.453125 -0.65625 -2.21875q-0.65625 -0.765625 -1.734375 -0.765625q-1.109375 0 -1.765625 0.765625q-0.640625 0.765625 -0.640625 2.21875q0 1.4374847 0.640625 2.2187347q0.65625 0.78125 1.765625 0.78125zm8.896011 1.03125q-1.140625 0 -1.984375 -0.484375q-0.828125 -0.5 -1.28125 -1.40625q-0.453125 -0.90625 -0.453125 -2.1406097q0 -1.234375 0.453125 -2.125q0.453125 -0.90625 1.28125 -1.40625q0.84375 -0.5 1.984375 -0.5q1.109375 0 1.953125 0.5q0.84375 0.5 1.296875 1.40625q0.453125 0.890625 0.453125 2.125q0 1.2343597 -0.453125 2.1406097q-0.453125 0.90625 -1.296875 1.40625q-0.84375 0.484375 -1.953125 0.484375zm0 -1.03125q1.078125 0 1.734375 -0.78125q0.65625 -0.78125 0.65625 -2.2187347q0 -1.453125 -0.65625 -2.21875q-0.65625 -0.765625 -1.734375 -0.765625q-1.109375 0 -1.765625 0.765625q-0.640625 0.765625 -0.640625 2.21875q0 1.4374847 0.640625 2.2187347q0.65625 0.78125 1.765625 0.78125zm6.3335114 1.0q-0.640625 0 -0.640625 -0.671875l0 -6.6718597q0 -0.65625 0.625 -0.65625q0.640625 0 0.640625 0.65625l0 0.765625q0.34375 -0.703125 0.96875 -1.078125q0.625 -0.375 1.453125 -0.375q1.828125 0 2.34375 1.578125q0.34375 -0.734375 1.03125 -1.15625q0.703125 -0.421875 1.59375 -0.421875q2.59375 0 2.59375 3.078125l0 4.2812347q0 0.671875 -0.65625 0.671875q-0.640625 0 -0.640625 -0.671875l0 -4.2187347q0 -1.078125 -0.375 -1.578125q-0.375 -0.5 -1.25 -0.5q-0.9375 0 -1.5 0.671875q-0.5625 0.671875 -0.5625 1.78125l0 3.8437347q0 0.671875 -0.65625 0.671875q-0.640625 0 -0.640625 -0.671875l0 -4.2187347q0 -1.078125 -0.375 -1.578125q-0.375 -0.5 -1.234375 -0.5q-0.96875 0 -1.515625 0.671875q-0.546875 0.671875 -0.546875 1.78125l0 3.8437347q0 0.671875 -0.65625 0.671875z" fill-rule="nonzero"/></g></svg>