<svg version="1.1" viewBox="0.0 0.0 743.4146981627297 380.0577427821522" fill="none" stroke="none" stroke-linecap="square" stroke-miterlimit="10" xmlns:xlink="http://www.w3.org/1999/xlink" xmlns="http://www.w3.org/2000/svg"><clipPath id="p.0"><path d="m0 0l743.4147 0l0 380.05774l-743.4147 0l0 -380.05774z" clip-rule="nonzero"/></clipPath><g clip-path="url(#p.0)"><path fill="#000000" fill-opacity="0.0" d="m0 0l743.4147 0l0 380.05774l-743.4147 0z" fill-rule="evenodd"/><path fill="#000000" d="m1.1811024 0l743.4016 0l0 380.063l-743.4016 0z" fill-rule="evenodd"/><path stroke="#000000" stroke-width="1.0" stroke-linejoin="round" stroke-linecap="butt" d="m1.1811024 0l743.4016 0l0 380.063l-743.4016 0z" fill-rule="evenodd"/><path fill="#00153c" d="m42.255196 182.88916l0 0c0 -9.81163 20.259407 -17.765533 45.250656 -17.765533c24.99125 0 45.25065 7.953903 45.25065 17.765533l0 71.06212c0 9.81163 -20.2594 17.765518 -45.25065 17.765518c-24.99125 0 -45.250656 -7.953888 -45.250656 -17.765518z" fill-rule="evenodd"/><path fill="#000000" fill-opacity="0.0" d="m132.7565 182.88916l0 0c0 9.81163 -20.2594 17.765518 -45.25065 17.765518c-24.99125 0 -45.250656 -7.953888 -45.250656 -17.765518" fill-rule="evenodd"/><path fill="#000000" fill-opacity="0.0" d="m42.255196 182.88916l0 0c0 -9.81163 20.259407 -17.765533 45.250656 -17.765533c24.99125 0 45.25065 7.953903 45.25065 17.765533l0 71.06212c0 9.81163 -20.2594 17.765518 -45.25065 17.765518c-24.99125 0 -45.250656 -7.953888 -45.250656 -17.765518z" fill-rule="evenodd"/><path stroke="#5a8bff" stroke-width="1.0" stroke-linejoin="round" stroke-linecap="butt" d="m132.7565 182.88916l0 0c0 9.81163 -20.2594 17.765518 -45.25065 17.765518c-24.99125 0 -45.250656 -7.953888 -45.250656 -17.765518" fill-rule="evenodd"/><path stroke="#5a8bff" stroke-width="1.0" stroke-linejoin="round" stroke-linecap="butt" d="m42.255196 182.88916l0 0c0 -9.81163 20.259407 -17.765533 45.250656 -17.765533c24.99125 0 45.25065 7.953903 45.25065 17.765533l0 71.06212c0 9.81163 -20.2594 17.765518 -45.25065 17.765518c-24.99125 0 -45.250656 -7.953888 -45.250656 -17.765518z" fill-rule="evenodd"/><path fill="#ffffff" d="m66.70681 234.34798q-0.765625 0 -0.765625 -0.796875l0 -11.703125q0 -0.78125 0.78125 -0.78125l4.421875 0q2.125 0 3.25 1.0q1.140625 0.984375 1.140625 2.8125q0 1.453125 -0.796875 2.390625q-0.796875 0.921875 -2.25 1.203125q0.859375 0.296875 1.46875 1.453125l1.796875 3.34375q0.203125 0.390625 0.0625 0.734375q-0.125 0.34375 -0.59375 0.34375q-0.3125 0 -0.515625 -0.140625q-0.203125 -0.140625 -0.359375 -0.4375l-2.03125 -3.765625q-0.421875 -0.796875 -0.984375 -1.0625q-0.5625 -0.28125 -1.46875 -0.28125l-2.390625 0l0 4.890625q0 0.796875 -0.765625 0.796875zm0.765625 -6.890625l3.453125 0q3.09375 0 3.09375 -2.578125q0 -2.546875 -3.09375 -2.546875l-3.453125 0l0 5.125zm14.619446 6.9375q-2.140625 0 -3.390625 -1.25q-1.25 -1.265625 -1.25 -3.4375q0 -1.390625 0.5625 -2.46875q0.5625 -1.078125 1.53125 -1.65625q0.984375 -0.59375 2.265625 -0.59375q1.859375 0 2.890625 1.1875q1.046875 1.1875 1.046875 3.25q0 0.578125 -0.65625 0.578125l-6.171875 0q0.078125 1.546875 0.890625 2.359375q0.828125 0.8125 2.28125 0.8125q0.625 0 1.25 -0.15625q0.640625 -0.15625 1.234375 -0.5625q0.421875 -0.28125 0.71875 -0.109375q0.296875 0.15625 0.296875 0.5q0.015625 0.34375 -0.375 0.609375q-0.625 0.453125 -1.46875 0.703125q-0.84375 0.234375 -1.65625 0.234375zm-0.234375 -8.28125q-1.296875 0 -2.046875 0.796875q-0.734375 0.796875 -0.875 2.109375l5.515625 0q-0.0625 -1.375 -0.734375 -2.140625q-0.65625 -0.765625 -1.859375 -0.765625zm9.5345 8.28125q-1.21875 0 -2.125 -0.578125q-0.90625 -0.578125 -1.40625 -1.625q-0.484375 -1.0625 -0.484375 -2.5q0 -1.453125 0.484375 -2.5q0.5 -1.0625 1.40625 -1.625q0.90625 -0.578125 2.125 -0.578125q1.0625 0 1.875 0.46875q0.8125 0.46875 1.203125 1.28125l0 -5.03125q0 -0.765625 0.765625 -0.765625q0.734375 0 0.734375 0.765625l0 11.859375q0 0.78125 -0.734375 0.78125q-0.75 0 -0.75 -0.78125l0 -0.96875q-0.40625 0.84375 -1.21875 1.328125q-0.8125 0.46875 -1.875 0.46875zm0.3125 -1.21875q1.265625 0 2.03125 -0.90625q0.765625 -0.90625 0.765625 -2.578125q0 -1.703125 -0.765625 -2.59375q-0.765625 -0.890625 -2.03125 -0.890625q-1.28125 0 -2.046875 0.890625q-0.75 0.890625 -0.75 2.59375q0 1.671875 0.75 2.578125q0.765625 0.90625 2.046875 0.90625zm7.860977 -10.203125q-1.0 0 -1.0 -0.9375q0 -0.90625 1.0 -0.90625q0.984375 0 0.984375 0.90625q0 0.9375 -0.984375 0.9375zm0 11.34375q-0.75 0 -0.75 -0.828125l0 -7.625q0 -0.796875 0.75 -0.796875q0.75 0 0.75 0.796875l0 7.625q0 0.828125 -0.75 0.828125zm6.640747 0.078125q-0.84375 0 -1.703125 -0.21875q-0.84375 -0.21875 -1.5625 -0.703125q-0.34375 -0.203125 -0.34375 -0.53125q0.015625 -0.328125 0.25 -0.515625q0.25 -0.1875 0.625 0q0.734375 0.453125 1.40625 0.640625q0.6875 0.171875 1.359375 0.171875q1.0625 0 1.59375 -0.390625q0.546875 -0.390625 0.546875 -1.0625q0 -0.53125 -0.359375 -0.828125q-0.34375 -0.3125 -1.109375 -0.484375l-1.703125 -0.375q-2.3125 -0.5 -2.3125 -2.390625q0 -1.234375 0.984375 -1.96875q0.984375 -0.75 2.5625 -0.75q0.796875 0 1.546875 0.21875q0.75 0.203125 1.34375 0.671875q0.3125 0.234375 0.28125 0.546875q-0.03125 0.3125 -0.296875 0.5q-0.25 0.171875 -0.59375 -0.046875q-0.5625 -0.375 -1.140625 -0.546875q-0.578125 -0.1875 -1.140625 -0.1875q-1.046875 0 -1.59375 0.421875q-0.53125 0.40625 -0.53125 1.078125q0 1.03125 1.375 1.328125l1.703125 0.359375q1.1875 0.265625 1.796875 0.84375q0.625 0.5625 0.625 1.53125q0 1.25 -0.984375 1.96875q-0.984375 0.71875 -2.625 0.71875z" fill-rule="nonzero"/><path fill="#00153c" d="m236.809 73.34435l0 0c0 -7.0334396 5.701721 -12.735165 12.735153 -12.735165l113.30133 0c3.3775635 0 6.6168213 1.3417397 9.005127 3.7300453c2.3883057 2.3883057 3.7300415 5.6275406 3.7300415 9.005119l0 50.939125c0 7.033432 -5.701721 12.735153 -12.735168 12.735153l-113.30133 0c-7.033432 0 -12.735153 -5.701721 -12.735153 -12.735153z" fill-rule="evenodd"/><path stroke="#5a8bff" stroke-width="1.0" stroke-linejoin="round" stroke-linecap="butt" d="m236.809 73.34435l0 0c0 -7.0334396 5.701721 -12.735165 12.735153 -12.735165l113.30133 0c3.3775635 0 6.6168213 1.3417397 9.005127 3.7300453c2.3883057 2.3883057 3.7300415 5.6275406 3.7300415 9.005119l0 50.939125c0 7.033432 -5.701721 12.735153 -12.735168 12.735153l-113.30133 0c-7.033432 0 -12.735153 -5.701721 -12.735153 -12.735153z" fill-rule="evenodd"/><path fill="#ffffff" d="m259.52924 104.67391q-0.671875 0 -0.671875 -0.6875l0 -9.984375q0 -0.6875 0.65625 -0.6875q0.65625 0 0.65625 0.6875l0 9.515625l5.25 0q0.609375 0 0.609375 0.578125q0 0.578125 -0.609375 0.578125l-5.890625 0zm8.484894 -9.640625q-0.84375 0 -0.84375 -0.8125q0 -0.78125 0.84375 -0.78125q0.84375 0 0.84375 0.78125q0 0.8125 -0.84375 0.8125zm0 9.71875q-0.640625 0 -0.640625 -0.703125l0 -6.546875q0 -0.6875 0.640625 -0.6875q0.65625 0 0.65625 0.6875l0 6.546875q0 0.703125 -0.65625 0.703125zm5.9620056 0.03125q-0.5625 0 -0.828125 -0.625l-2.765625 -6.453125q-0.15625 -0.375 -0.015625 -0.640625q0.140625 -0.28125 0.578125 -0.28125q0.4375 0 0.65625 0.515625l2.40625 5.90625l2.453125 -5.90625q0.109375 -0.28125 0.25 -0.390625q0.140625 -0.125 0.421875 -0.125q0.359375 0 0.484375 0.28125q0.140625 0.265625 0 0.625l-2.8125 6.46875q-0.25 0.625 -0.828125 0.625zm8.737396 0.03125q-1.84375 0 -2.921875 -1.078125q-1.0625 -1.078125 -1.0625 -2.9375q0 -1.203125 0.484375 -2.109375q0.484375 -0.921875 1.3125 -1.421875q0.84375 -0.515625 1.953125 -0.515625q1.578125 0 2.46875 1.015625q0.90625 1.015625 0.90625 2.796875q0 0.5 -0.5625 0.5l-5.296875 0q0.0625 1.328125 0.765625 2.03125q0.703125 0.6875 1.953125 0.6875q0.53125 0 1.078125 -0.140625q0.546875 -0.140625 1.046875 -0.484375q0.375 -0.25 0.625 -0.09375q0.25 0.140625 0.25 0.4375q0.015625 0.296875 -0.328125 0.515625q-0.53125 0.390625 -1.265625 0.59375q-0.71875 0.203125 -1.40625 0.203125zm-0.203125 -7.09375q-1.109375 0 -1.75 0.6875q-0.640625 0.6875 -0.75 1.796875l4.71875 0q-0.046875 -1.171875 -0.625 -1.828125q-0.5625 -0.65625 -1.59375 -0.65625zm6.043274 7.0625q-0.65625 0 -0.65625 -0.6875l0 -10.140625q0 -0.671875 0.65625 -0.671875q0.65625 0 0.65625 0.671875l0 4.5625l0.03125 0l5.21875 -4.875q0.390625 -0.359375 0.796875 -0.359375q0.4375 0 0.515625 0.3125q0.09375 0.3125 -0.1875 0.578125l-5.078125 4.6875l5.328125 4.9375q0.359375 0.328125 0.21875 0.65625q-0.125 0.328125 -0.5625 0.328125q-0.234375 0 -0.40625 -0.109375q-0.15625 -0.09375 -0.375 -0.296875l-5.46875 -5.015625l-0.03125 0l0 4.734375q0 0.6875 -0.65625 0.6875zm10.004517 -9.75q-0.84375 0 -0.84375 -0.8125q0 -0.78125 0.84375 -0.78125q0.84375 0 0.84375 0.78125q0 0.8125 -0.84375 0.8125zm0 9.71875q-0.640625 0 -0.640625 -0.703125l0 -6.546875q0 -0.6875 0.640625 -0.6875q0.65625 0 0.65625 0.6875l0 6.546875q0 0.703125 -0.65625 0.703125zm6.1963806 0.0625q-1.390625 0 -2.078125 -0.71875q-0.6875 -0.734375 -0.6875 -2.109375l0 -4.078125l-1.0625 0q-0.5625 0 -0.5625 -0.515625q0 -0.5 0.5625 -0.5l1.0625 0l0 -1.828125q0 -0.65625 0.65625 -0.65625q0.640625 0 0.640625 0.65625l0 1.828125l2.015625 0q0.5625 0 0.5625 0.5q0 0.515625 -0.5625 0.515625l-2.015625 0l0 3.953125q0 0.90625 0.375 1.390625q0.390625 0.46875 1.265625 0.46875q0.296875 0 0.5 -0.0625q0.21875 -0.078125 0.375 -0.078125q0.140625 -0.015625 0.234375 0.109375q0.109375 0.109375 0.109375 0.375q0 0.1875 -0.078125 0.359375q-0.078125 0.15625 -0.25 0.21875q-0.1875 0.0625 -0.5 0.109375q-0.3125 0.0625 -0.5625 0.0625zm9.227997 0q-0.71875 0 -1.453125 -0.171875q-0.734375 -0.1875 -1.34375 -0.609375q-0.296875 -0.171875 -0.296875 -0.453125q0.015625 -0.28125 0.21875 -0.4375q0.21875 -0.171875 0.53125 0q0.625 0.375 1.203125 0.53125q0.59375 0.15625 1.171875 0.15625q0.90625 0 1.375 -0.328125q0.46875 -0.34375 0.46875 -0.921875q0 -0.453125 -0.3125 -0.71875q-0.296875 -0.265625 -0.953125 -0.40625l-1.46875 -0.3125q-1.96875 -0.4375 -1.96875 -2.046875q0 -1.0625 0.828125 -1.703125q0.84375 -0.640625 2.203125 -0.640625q0.6875 0 1.328125 0.1875q0.640625 0.1875 1.15625 0.578125q0.265625 0.203125 0.234375 0.46875q-0.03125 0.265625 -0.25 0.421875q-0.21875 0.15625 -0.515625 -0.03125q-0.484375 -0.328125 -0.984375 -0.46875q-0.484375 -0.15625 -0.96875 -0.15625q-0.890625 0 -1.359375 0.359375q-0.46875 0.34375 -0.46875 0.921875q0 0.890625 1.1875 1.140625l1.453125 0.3125q1.03125 0.21875 1.546875 0.71875q0.53125 0.484375 0.53125 1.3125q0 1.0625 -0.84375 1.6875q-0.84375 0.609375 -2.25 0.609375zm8.571014 0q-1.84375 0 -2.921875 -1.078125q-1.0625 -1.078125 -1.0625 -2.9375q0 -1.203125 0.484375 -2.109375q0.484375 -0.921875 1.3125 -1.421875q0.84375 -0.515625 1.953125 -0.515625q1.578125 0 2.46875 1.015625q0.90625 1.015625 0.90625 2.796875q0 0.5 -0.5625 0.5l-5.296875 0q0.0625 1.328125 0.765625 2.03125q0.703125 0.6875 1.953125 0.6875q0.53125 0 1.078125 -0.140625q0.546875 -0.140625 1.046875 -0.484375q0.375 -0.25 0.625 -0.09375q0.25 0.140625 0.25 0.4375q0.015625 0.296875 -0.328125 0.515625q-0.53125 0.390625 -1.265625 0.59375q-0.71875 0.203125 -1.40625 0.203125zm-0.203125 -7.09375q-1.109375 0 -1.75 0.6875q-0.640625 0.6875 -0.75 1.796875l4.71875 0q-0.046875 -1.171875 -0.625 -1.828125q-0.5625 -0.65625 -1.59375 -0.65625zm5.871399 7.0625q-0.65625 0 -0.65625 -0.671875l0 -6.671875q0 -0.65625 0.625 -0.65625q0.640625 0 0.640625 0.65625l0 0.84375q0.3125 -0.734375 0.984375 -1.125q0.671875 -0.390625 1.609375 -0.421875q0.5 -0.046875 0.53125 0.515625q0.046875 0.5625 -0.5625 0.625l-0.265625 0.03125q-1.09375 0.09375 -1.671875 0.703125q-0.578125 0.59375 -0.578125 1.625l0 3.875q0 0.671875 -0.65625 0.671875zm8.442383 0q-0.5625 0 -0.828125 -0.625l-2.765625 -6.453125q-0.15625 -0.375 -0.015625 -0.640625q0.140625 -0.28125 0.578125 -0.28125q0.4375 0 0.65625 0.515625l2.40625 5.90625l2.453125 -5.90625q0.109375 -0.28125 0.25 -0.390625q0.140625 -0.125 0.421875 -0.125q0.359375 0 0.484375 0.28125q0.140625 0.265625 0 0.625l-2.8125 6.46875q-0.25 0.625 -0.828125 0.625zm8.737396 0.03125q-1.84375 0 -2.921875 -1.078125q-1.0625 -1.078125 -1.0625 -2.9375q0 -1.203125 0.484375 -2.109375q0.484375 -0.921875 1.3125 -1.421875q0.84375 -0.515625 1.953125 -0.515625q1.578125 0 2.46875 1.015625q0.90625 1.015625 0.90625 2.796875q0 0.5 -0.5625 0.5l-5.296875 0q0.0625 1.328125 0.765625 2.03125q0.703125 0.6875 1.953125 0.6875q0.53125 0 1.078125 -0.140625q0.546875 -0.140625 1.046875 -0.484375q0.375 -0.25 0.625 -0.09375q0.25 0.140625 0.25 0.4375q0.015625 0.296875 -0.328125 0.515625q-0.53125 0.390625 -1.265625 0.59375q-0.71875 0.203125 -1.40625 0.203125zm-0.203125 -7.09375q-1.109375 0 -1.75 0.6875q-0.640625 0.6875 -0.75 1.796875l4.71875 0q-0.046875 -1.171875 -0.625 -1.828125q-0.5625 -0.65625 -1.59375 -0.65625zm5.871399 7.0625q-0.65625 0 -0.65625 -0.671875l0 -6.671875q0 -0.65625 0.625 -0.65625q0.640625 0 0.640625 0.65625l0 0.84375q0.3125 -0.734375 0.984375 -1.125q0.671875 -0.390625 1.609375 -0.421875q0.5 -0.046875 0.53125 0.515625q0.046875 0.5625 -0.5625 0.625l-0.265625 0.03125q-1.09375 0.09375 -1.671875 0.703125q-0.578125 0.59375 -0.578125 1.625l0 3.875q0 0.671875 -0.65625 0.671875z" fill-rule="nonzero"/><path fill="#00153c" d="m236.809 192.91916l0 0c0 -7.033432 5.701721 -12.735168 12.735153 -12.735168l113.30133 0c3.3775635 0 6.6168213 1.3417358 9.005127 3.7300415c2.3883057 2.3883057 3.7300415 5.627548 3.7300415 9.005127l0 50.939117c0 7.033432 -5.701721 12.735168 -12.735168 12.735168l-113.30133 0c-7.033432 0 -12.735153 -5.7017365 -12.735153 -12.735168z" fill-rule="evenodd"/><path stroke="#5a8bff" stroke-width="1.0" stroke-linejoin="round" stroke-linecap="butt" d="m236.809 192.91916l0 0c0 -7.033432 5.701721 -12.735168 12.735153 -12.735168l113.30133 0c3.3775635 0 6.6168213 1.3417358 9.005127 3.7300415c2.3883057 2.3883057 3.7300415 5.627548 3.7300415 9.005127l0 50.939117c0 7.033432 -5.701721 12.735168 -12.735168 12.735168l-113.30133 0c-7.033432 0 -12.735153 -5.7017365 -12.735153 -12.735168z" fill-rule="evenodd"/><path fill="#ffffff" d="m259.52924 224.24872q-0.671875 0 -0.671875 -0.6875l0 -9.984375q0 -0.6875 0.65625 -0.6875q0.65625 0 0.65625 0.6875l0 9.515625l5.25 0q0.609375 0 0.609375 0.578125q0 0.578125 -0.609375 0.578125l-5.890625 0zm8.484894 -9.640625q-0.84375 0 -0.84375 -0.8125q0 -0.78125 0.84375 -0.78125q0.84375 0 0.84375 0.78125q0 0.8125 -0.84375 0.8125zm0 9.71875q-0.640625 0 -0.640625 -0.703125l0 -6.546875q0 -0.6875 0.640625 -0.6875q0.65625 0 0.65625 0.6875l0 6.546875q0 0.703125 -0.65625 0.703125zm5.9620056 0.03125q-0.5625 0 -0.828125 -0.625l-2.765625 -6.453125q-0.15625 -0.375 -0.015625 -0.640625q0.140625 -0.28125 0.578125 -0.28125q0.4375 0 0.65625 0.515625l2.40625 5.90625l2.453125 -5.90625q0.109375 -0.28125 0.25 -0.390625q0.140625 -0.125 0.421875 -0.125q0.359375 0 0.484375 0.28125q0.140625 0.265625 0 0.625l-2.8125 6.46875q-0.25 0.625 -0.828125 0.625zm8.737396 0.03125q-1.84375 0 -2.921875 -1.078125q-1.0625 -1.078125 -1.0625 -2.9375q0 -1.203125 0.484375 -2.109375q0.484375 -0.921875 1.3125 -1.421875q0.84375 -0.515625 1.953125 -0.515625q1.578125 0 2.46875 1.015625q0.90625 1.015625 0.90625 2.796875q0 0.5 -0.5625 0.5l-5.296875 0q0.0625 1.328125 0.765625 2.03125q0.703125 0.6875 1.953125 0.6875q0.53125 0 1.078125 -0.140625q0.546875 -0.140625 1.046875 -0.484375q0.375 -0.25 0.625 -0.09375q0.25 0.140625 0.25 0.4375q0.015625 0.296875 -0.328125 0.515625q-0.53125 0.390625 -1.265625 0.59375q-0.71875 0.203125 -1.40625 0.203125zm-0.203125 -7.09375q-1.109375 0 -1.75 0.6875q-0.640625 0.6875 -0.75 1.796875l4.71875 0q-0.046875 -1.171875 -0.625 -1.828125q-0.5625 -0.65625 -1.59375 -0.65625zm6.043274 7.0625q-0.65625 0 -0.65625 -0.6875l0 -10.140625q0 -0.671875 0.65625 -0.671875q0.65625 0 0.65625 0.671875l0 4.5625l0.03125 0l5.21875 -4.875q0.390625 -0.359375 0.796875 -0.359375q0.4375 0 0.515625 0.3125q0.09375 0.3125 -0.1875 0.578125l-5.078125 4.6875l5.328125 4.9375q0.359375 0.328125 0.21875 0.65625q-0.125 0.328125 -0.5625 0.328125q-0.234375 0 -0.40625 -0.109375q-0.15625 -0.09375 -0.375 -0.296875l-5.46875 -5.015625l-0.03125 0l0 4.734375q0 0.6875 -0.65625 0.6875zm10.004517 -9.75q-0.84375 0 -0.84375 -0.8125q0 -0.78125 0.84375 -0.78125q0.84375 0 0.84375 0.78125q0 0.8125 -0.84375 0.8125zm0 9.71875q-0.640625 0 -0.640625 -0.703125l0 -6.546875q0 -0.6875 0.640625 -0.6875q0.65625 0 0.65625 0.6875l0 6.546875q0 0.703125 -0.65625 0.703125zm6.1963806 0.0625q-1.390625 0 -2.078125 -0.71875q-0.6875 -0.734375 -0.6875 -2.109375l0 -4.078125l-1.0625 0q-0.5625 0 -0.5625 -0.515625q0 -0.5 0.5625 -0.5l1.0625 0l0 -1.828125q0 -0.65625 0.65625 -0.65625q0.640625 0 0.640625 0.65625l0 1.828125l2.015625 0q0.5625 0 0.5625 0.5q0 0.515625 -0.5625 0.515625l-2.015625 0l0 3.953125q0 0.90625 0.375 1.390625q0.390625 0.46875 1.265625 0.46875q0.296875 0 0.5 -0.0625q0.21875 -0.078125 0.375 -0.078125q0.140625 -0.015625 0.234375 0.109375q0.109375 0.109375 0.109375 0.375q0 0.1875 -0.078125 0.359375q-0.078125 0.15625 -0.25 0.21875q-0.1875 0.0625 -0.5 0.109375q-0.3125 0.0625 -0.5625 0.0625zm9.227997 0q-0.71875 0 -1.453125 -0.171875q-0.734375 -0.1875 -1.34375 -0.609375q-0.296875 -0.171875 -0.296875 -0.453125q0.015625 -0.28125 0.21875 -0.4375q0.21875 -0.171875 0.53125 0q0.625 0.375 1.203125 0.53125q0.59375 0.15625 1.171875 0.15625q0.90625 0 1.375 -0.328125q0.46875 -0.34375 0.46875 -0.921875q0 -0.453125 -0.3125 -0.71875q-0.296875 -0.265625 -0.953125 -0.40625l-1.46875 -0.3125q-1.96875 -0.4375 -1.96875 -2.046875q0 -1.0625 0.828125 -1.703125q0.84375 -0.640625 2.203125 -0.640625q0.6875 0 1.328125 0.1875q0.640625 0.1875 1.15625 0.578125q0.265625 0.203125 0.234375 0.46875q-0.03125 0.265625 -0.25 0.421875q-0.21875 0.15625 -0.515625 -0.03125q-0.484375 -0.328125 -0.984375 -0.46875q-0.484375 -0.15625 -0.96875 -0.15625q-0.890625 0 -1.359375 0.359375q-0.46875 0.34375 -0.46875 0.921875q0 0.890625 1.1875 1.140625l1.453125 0.3125q1.03125 0.21875 1.546875 0.71875q0.53125 0.484375 0.53125 1.3125q0 1.0625 -0.84375 1.6875q-0.84375 0.609375 -2.25 0.609375zm8.571014 0q-1.84375 0 -2.921875 -1.078125q-1.0625 -1.078125 -1.0625 -2.9375q0 -1.203125 0.484375 -2.109375q0.484375 -0.921875 1.3125 -1.421875q0.84375 -0.515625 1.953125 -0.515625q1.578125 0 2.46875 1.015625q0.90625 1.015625 0.90625 2.796875q0 0.5 -0.5625 0.5l-5.296875 0q0.0625 1.328125 0.765625 2.03125q0.703125 0.6875 1.953125 0.6875q0.53125 0 1.078125 -0.140625q0.546875 -0.140625 1.046875 -0.484375q0.375 -0.25 0.625 -0.09375q0.25 0.140625 0.25 0.4375q0.015625 0.296875 -0.328125 0.515625q-0.53125 0.390625 -1.265625 0.59375q-0.71875 0.203125 -1.40625 0.203125zm-0.203125 -7.09375q-1.109375 0 -1.75 0.6875q-0.640625 0.6875 -0.75 1.796875l4.71875 0q-0.046875 -1.171875 -0.625 -1.828125q-0.5625 -0.65625 -1.59375 -0.65625zm5.871399 7.0625q-0.65625 0 -0.65625 -0.671875l0 -6.671875q0 -0.65625 0.625 -0.65625q0.640625 0 0.640625 0.65625l0 0.84375q0.3125 -0.734375 0.984375 -1.125q0.671875 -0.390625 1.609375 -0.421875q0.5 -0.046875 0.53125 0.515625q0.046875 0.5625 -0.5625 0.625l-0.265625 0.03125q-1.09375 0.09375 -1.671875 0.703125q-0.578125 0.59375 -0.578125 1.625l0 3.875q0 0.671875 -0.65625 0.671875zm8.442383 0q-0.5625 0 -0.828125 -0.625l-2.765625 -6.453125q-0.15625 -0.375 -0.015625 -0.640625q0.140625 -0.28125 0.578125 -0.28125q0.4375 0 0.65625 0.515625l2.40625 5.90625l2.453125 -5.90625q0.109375 -0.28125 0.25 -0.390625q0.140625 -0.125 0.421875 -0.125q0.359375 0 0.484375 0.28125q0.140625 0.265625 0 0.625l-2.8125 6.46875q-0.25 0.625 -0.828125 0.625zm8.737396 0.03125q-1.84375 0 -2.921875 -1.078125q-1.0625 -1.078125 -1.0625 -2.9375q0 -1.203125 0.484375 -2.109375q0.484375 -0.921875 1.3125 -1.421875q0.84375 -0.515625 1.953125 -0.515625q1.578125 0 2.46875 1.015625q0.90625 1.015625 0.90625 2.796875q0 0.5 -0.5625 0.5l-5.296875 0q0.0625 1.328125 0.765625 2.03125q0.703125 0.6875 1.953125 0.6875q0.53125 0 1.078125 -0.140625q0.546875 -0.140625 1.046875 -0.484375q0.375 -0.25 0.625 -0.09375q0.25 0.140625 0.25 0.4375q0.015625 0.296875 -0.328125 0.515625q-0.53125 0.390625 -1.265625 0.59375q-0.71875 0.203125 -1.40625 0.203125zm-0.203125 -7.09375q-1.109375 0 -1.75 0.6875q-0.640625 0.6875 -0.75 1.796875l4.71875 0q-0.046875 -1.171875 -0.625 -1.828125q-0.5625 -0.65625 -1.59375 -0.65625zm5.871399 7.0625q-0.65625 0 -0.65625 -0.671875l0 -6.671875q0 -0.65625 0.625 -0.65625q0.640625 0 0.640625 0.65625l0 0.84375q0.3125 -0.734375 0.984375 -1.125q0.671875 -0.390625 1.609375 -0.421875q0.5 -0.046875 0.53125 0.515625q0.046875 0.5625 -0.5625 0.625l-0.265625 0.03125q-1.09375 0.09375 -1.671875 0.703125q-0.578125 0.59375 -0.578125 1.625l0 3.875q0 0.671875 -0.65625 0.671875z" fill-rule="nonzero"/><path fill="#00153c" d="m236.809 312.49396l0 0c0 -7.0334473 5.701721 -12.735168 12.735153 -12.735168l113.30133 0c3.3775635 0 6.6168213 1.3417358 9.005127 3.7300415c2.3883057 2.3883057 3.7300415 5.6275635 3.7300415 9.005127l0 50.939117c0 7.0334473 -5.701721 12.735168 -12.735168 12.735168l-113.30133 0c-7.033432 0 -12.735153 -5.701721 -12.735153 -12.735168z" fill-rule="evenodd"/><path stroke="#5a8bff" stroke-width="1.0" stroke-linejoin="round" stroke-linecap="butt" d="m236.809 312.49396l0 0c0 -7.0334473 5.701721 -12.735168 12.735153 -12.735168l113.30133 0c3.3775635 0 6.6168213 1.3417358 9.005127 3.7300415c2.3883057 2.3883057 3.7300415 5.6275635 3.7300415 9.005127l0 50.939117c0 7.0334473 -5.701721 12.735168 -12.735168 12.735168l-113.30133 0c-7.033432 0 -12.735153 -5.701721 -12.735153 -12.735168z" fill-rule="evenodd"/><path fill="#ffffff" d="m259.52924 343.82352q-0.671875 0 -0.671875 -0.6875l0 -9.984375q0 -0.6875 0.65625 -0.6875q0.65625 0 0.65625 0.6875l0 9.515625l5.25 0q0.609375 0 0.609375 0.578125q0 0.578125 -0.609375 0.578125l-5.890625 0zm8.484894 -9.640625q-0.84375 0 -0.84375 -0.8125q0 -0.78125 0.84375 -0.78125q0.84375 0 0.84375 0.78125q0 0.8125 -0.84375 0.8125zm0 9.71875q-0.640625 0 -0.640625 -0.703125l0 -6.546875q0 -0.6875 0.640625 -0.6875q0.65625 0 0.65625 0.6875l0 6.546875q0 0.703125 -0.65625 0.703125zm5.9620056 0.03125q-0.5625 0 -0.828125 -0.625l-2.765625 -6.453125q-0.15625 -0.375 -0.015625 -0.640625q0.140625 -0.28125 0.578125 -0.28125q0.4375 0 0.65625 0.515625l2.40625 5.90625l2.453125 -5.90625q0.109375 -0.28125 0.25 -0.390625q0.140625 -0.125 0.421875 -0.125q0.359375 0 0.484375 0.28125q0.140625 0.265625 0 0.625l-2.8125 6.46875q-0.25 0.625 -0.828125 0.625zm8.737396 0.03125q-1.84375 0 -2.921875 -1.078125q-1.0625 -1.078125 -1.0625 -2.9375q0 -1.203125 0.484375 -2.109375q0.484375 -0.921875 1.3125 -1.421875q0.84375 -0.515625 1.953125 -0.515625q1.578125 0 2.46875 1.015625q0.90625 1.015625 0.90625 2.796875q0 0.5 -0.5625 0.5l-5.296875 0q0.0625 1.328125 0.765625 2.03125q0.703125 0.6875 1.953125 0.6875q0.53125 0 1.078125 -0.140625q0.546875 -0.140625 1.046875 -0.484375q0.375 -0.25 0.625 -0.09375q0.25 0.140625 0.25 0.4375q0.015625 0.296875 -0.328125 0.515625q-0.53125 0.390625 -1.265625 0.59375q-0.71875 0.203125 -1.40625 0.203125zm-0.203125 -7.09375q-1.109375 0 -1.75 0.6875q-0.640625 0.6875 -0.75 1.796875l4.71875 0q-0.046875 -1.171875 -0.625 -1.828125q-0.5625 -0.65625 -1.59375 -0.65625zm6.043274 7.0625q-0.65625 0 -0.65625 -0.6875l0 -10.140625q0 -0.671875 0.65625 -0.671875q0.65625 0 0.65625 0.671875l0 4.5625l0.03125 0l5.21875 -4.875q0.390625 -0.359375 0.796875 -0.359375q0.4375 0 0.515625 0.3125q0.09375 0.3125 -0.1875 0.578125l-5.078125 4.6875l5.328125 4.9375q0.359375 0.328125 0.21875 0.65625q-0.125 0.328125 -0.5625 0.328125q-0.234375 0 -0.40625 -0.109375q-0.15625 -0.09375 -0.375 -0.296875l-5.46875 -5.015625l-0.03125 0l0 4.734375q0 0.6875 -0.65625 0.6875zm10.004517 -9.75q-0.84375 0 -0.84375 -0.8125q0 -0.78125 0.84375 -0.78125q0.84375 0 0.84375 0.78125q0 0.8125 -0.84375 0.8125zm0 9.71875q-0.640625 0 -0.640625 -0.703125l0 -6.546875q0 -0.6875 0.640625 -0.6875q0.65625 0 0.65625 0.6875l0 6.546875q0 0.703125 -0.65625 0.703125zm6.1963806 0.0625q-1.390625 0 -2.078125 -0.71875q-0.6875 -0.734375 -0.6875 -2.109375l0 -4.078125l-1.0625 0q-0.5625 0 -0.5625 -0.515625q0 -0.5 0.5625 -0.5l1.0625 0l0 -1.828125q0 -0.65625 0.65625 -0.65625q0.640625 0 0.640625 0.65625l0 1.828125l2.015625 0q0.5625 0 0.5625 0.5q0 0.515625 -0.5625 0.515625l-2.015625 0l0 3.953125q0 0.90625 0.375 1.390625q0.390625 0.46875 1.265625 0.46875q0.296875 0 0.5 -0.0625q0.21875 -0.078125 0.375 -0.078125q0.140625 -0.015625 0.234375 0.109375q0.109375 0.109375 0.109375 0.375q0 0.1875 -0.078125 0.359375q-0.078125 0.15625 -0.25 0.21875q-0.1875 0.0625 -0.5 0.109375q-0.3125 0.0625 -0.5625 0.0625zm9.227997 0q-0.71875 0 -1.453125 -0.171875q-0.734375 -0.1875 -1.34375 -0.609375q-0.296875 -0.171875 -0.296875 -0.453125q0.015625 -0.28125 0.21875 -0.4375q0.21875 -0.171875 0.53125 0q0.625 0.375 1.203125 0.53125q0.59375 0.15625 1.171875 0.15625q0.90625 0 1.375 -0.328125q0.46875 -0.34375 0.46875 -0.921875q0 -0.453125 -0.3125 -0.71875q-0.296875 -0.265625 -0.953125 -0.40625l-1.46875 -0.3125q-1.96875 -0.4375 -1.96875 -2.046875q0 -1.0625 0.828125 -1.703125q0.84375 -0.640625 2.203125 -0.640625q0.6875 0 1.328125 0.1875q0.640625 0.1875 1.15625 0.578125q0.265625 0.203125 0.234375 0.46875q-0.03125 0.265625 -0.25 0.421875q-0.21875 0.15625 -0.515625 -0.03125q-0.484375 -0.328125 -0.984375 -0.46875q-0.484375 -0.15625 -0.96875 -0.15625q-0.890625 0 -1.359375 0.359375q-0.46875 0.34375 -0.46875 0.921875q0 0.890625 1.1875 1.140625l1.453125 0.3125q1.03125 0.21875 1.546875 0.71875q0.53125 0.484375 0.53125 1.3125q0 1.0625 -0.84375 1.6875q-0.84375 0.609375 -2.25 0.609375zm8.571014 0q-1.84375 0 -2.921875 -1.078125q-1.0625 -1.078125 -1.0625 -2.9375q0 -1.203125 0.484375 -2.109375q0.484375 -0.921875 1.3125 -1.421875q0.84375 -0.515625 1.953125 -0.515625q1.578125 0 2.46875 1.015625q0.90625 1.015625 0.90625 2.796875q0 0.5 -0.5625 0.5l-5.296875 0q0.0625 1.328125 0.765625 2.03125q0.703125 0.6875 1.953125 0.6875q0.53125 0 1.078125 -0.140625q0.546875 -0.140625 1.046875 -0.484375q0.375 -0.25 0.625 -0.09375q0.25 0.140625 0.25 0.4375q0.015625 0.296875 -0.328125 0.515625q-0.53125 0.390625 -1.265625 0.59375q-0.71875 0.203125 -1.40625 0.203125zm-0.203125 -7.09375q-1.109375 0 -1.75 0.6875q-0.640625 0.6875 -0.75 1.796875l4.71875 0q-0.046875 -1.171875 -0.625 -1.828125q-0.5625 -0.65625 -1.59375 -0.65625zm5.871399 7.0625q-0.65625 0 -0.65625 -0.671875l0 -6.671875q0 -0.65625 0.625 -0.65625q0.640625 0 0.640625 0.65625l0 0.84375q0.3125 -0.734375 0.984375 -1.125q0.671875 -0.390625 1.609375 -0.421875q0.5 -0.046875 0.53125 0.515625q0.046875 0.5625 -0.5625 0.625l-0.265625 0.03125q-1.09375 0.09375 -1.671875 0.703125q-0.578125 0.59375 -0.578125 1.625l0 3.875q0 0.671875 -0.65625 0.671875zm8.442383 0q-0.5625 0 -0.828125 -0.625l-2.765625 -6.453125q-0.15625 -0.375 -0.015625 -0.640625q0.140625 -0.28125 0.578125 -0.28125q0.4375 0 0.65625 0.515625l2.40625 5.90625l2.453125 -5.90625q0.109375 -0.28125 0.25 -0.390625q0.140625 -0.125 0.421875 -0.125q0.359375 0 0.484375 0.28125q0.140625 0.265625 0 0.625l-2.8125 6.46875q-0.25 0.625 -0.828125 0.625zm8.737396 0.03125q-1.84375 0 -2.921875 -1.078125q-1.0625 -1.078125 -1.0625 -2.9375q0 -1.203125 0.484375 -2.109375q0.484375 -0.921875 1.3125 -1.421875q0.84375 -0.515625 1.953125 -0.515625q1.578125 0 2.46875 1.015625q0.90625 1.015625 0.90625 2.796875q0 0.5 -0.5625 0.5l-5.296875 0q0.0625 1.328125 0.765625 2.03125q0.703125 0.6875 1.953125 0.6875q0.53125 0 1.078125 -0.140625q0.546875 -0.140625 1.046875 -0.484375q0.375 -0.25 0.625 -0.09375q0.25 0.140625 0.25 0.4375q0.015625 0.296875 -0.328125 0.515625q-0.53125 0.390625 -1.265625 0.59375q-0.71875 0.203125 -1.40625 0.203125zm-0.203125 -7.09375q-1.109375 0 -1.75 0.6875q-0.640625 0.6875 -0.75 1.796875l4.71875 0q-0.046875 -1.171875 -0.625 -1.828125q-0.5625 -0.65625 -1.59375 -0.65625zm5.871399 7.0625q-0.65625 0 -0.65625 -0.671875l0 -6.671875q0 -0.65625 0.625 -0.65625q0.640625 0 0.640625 0.65625l0 0.84375q0.3125 -0.734375 0.984375 -1.125q0.671875 -0.390625 1.609375 -0.421875q0.5 -0.046875 0.53125 0.515625q0.046875 0.5625 -0.5625 0.625l-0.265625 0.03125q-1.09375 0.09375 -1.671875 0.703125q-0.578125 0.59375 -0.578125 1.625l0 3.875q0 0.671875 -0.65625 0.671875z" fill-rule="nonzero"/><path fill="#00153c" d="m450.52292 338.73517l0 -240.6929l29.102356 0l0 240.6929z" fill-rule="evenodd"/><path stroke="#5a8bff" stroke-width="1.0" stroke-linejoin="round" stroke-linecap="butt" d="m450.52292 338.73517l0 -240.6929l29.102356 0l0 240.6929z" fill-rule="evenodd"/><path fill="#ffffff" d="m471.0747 315.05075q0 1.140625 -0.6875 1.75q-0.703125 0.609375 -2.03125 0.609375l-8.15625 0q-0.65625 0 -0.65625 -0.640625q0 -0.65625 0.65625 -0.65625l8.0625 0q1.71875 0 1.71875 -1.359375q0 -0.140625 -0.015625 -0.25q-0.015625 -0.109375 -0.015625 -0.234375q-0.03125 -0.171875 0.078125 -0.234375q0.09375 -0.078125 0.375 -0.078125q0.546875 0 0.625 0.546875q0.03125 0.125 0.03125 0.265625q0.015625 0.140625 0.015625 0.28125zm0 -5.531006q0 1.140625 -0.484375 1.984375q-0.5 0.828125 -1.40625 1.28125q-0.90625 0.453125 -2.140625 0.453125q-1.234375 0 -2.125 -0.453125q-0.90625 -0.453125 -1.40625 -1.28125q-0.5 -0.84375 -0.5 -1.984375q0 -1.109375 0.5 -1.953125q0.5 -0.84375 1.40625 -1.296875q0.890625 -0.453125 2.125 -0.453125q1.234375 0 2.140625 0.453125q0.90625 0.453125 1.40625 1.296875q0.484375 0.84375 0.484375 1.953125zm-1.03125 0q0 -1.078125 -0.78125 -1.734375q-0.78125 -0.65625 -2.21875 -0.65625q-1.453125 0 -2.21875 0.65625q-0.765625 0.65625 -0.765625 1.734375q0 1.109375 0.765625 1.765625q0.765625 0.640625 2.21875 0.640625q1.4375 0 2.21875 -0.640625q0.78125 -0.65625 0.78125 -1.765625zm1.03125 -8.099121q0 0.796875 -0.3125 1.4375q-0.3125 0.625 -0.84375 1.0q-0.546875 0.359375 -1.21875 0.359375q-0.859375 0 -1.34375 -0.4375q-0.5 -0.453125 -0.71875 -1.46875q-0.21875 -1.015625 -0.21875 -2.765625l0 -0.515625l-0.5 0q-0.984375 0 -1.421875 0.40625q-0.4375 0.40625 -0.4375 1.296875q0 0.5625 0.140625 1.140625q0.140625 0.5625 0.46875 1.171875q0.140625 0.265625 0.0625 0.453125q-0.09375 0.1875 -0.296875 0.265625q-0.203125 0.0625 -0.421875 0q-0.21875 -0.078125 -0.328125 -0.3125q-0.34375 -0.6875 -0.5 -1.390625q-0.171875 -0.703125 -0.171875 -1.328125q0 -1.5 0.734375 -2.21875q0.734375 -0.734375 2.296875 -0.734375l4.328125 0q0.671875 0 0.671875 0.59375q0 0.625 -0.671875 0.625l-0.78125 0q0.6875 0.296875 1.09375 0.9375q0.390625 0.625 0.390625 1.484375zm-0.96875 -0.21875q0 -0.953125 -0.65625 -1.5625q-0.671875 -0.609375 -1.703125 -0.609375l-0.46875 0l0 0.5q0 1.296875 0.125 2.046875q0.109375 0.734375 0.40625 1.03125q0.296875 0.296875 0.8125 0.296875q0.65625 0 1.078125 -0.453125q0.40625 -0.46875 0.40625 -1.25zm0.96875 -8.776886q0 1.03125 -0.484375 1.8125q-0.5 0.78125 -1.40625 1.203125q-0.90625 0.421875 -2.140625 0.421875q-1.25 0 -2.140625 -0.421875q-0.90625 -0.421875 -1.390625 -1.203125q-0.5 -0.78125 -0.5 -1.8125q0 -0.921875 0.40625 -1.609375q0.390625 -0.703125 1.09375 -1.03125l-4.3125 0q-0.65625 0 -0.65625 -0.65625q0 -0.640625 0.65625 -0.640625l10.171875 0q0.671875 0 0.671875 0.640625q0 0.640625 -0.671875 0.640625l-0.828125 0q0.71875 0.34375 1.125 1.046875q0.40625 0.6875 0.40625 1.609375zm-1.03125 -0.28125q0 -1.078125 -0.78125 -1.734375q-0.78125 -0.65625 -2.21875 -0.65625q-1.453125 0 -2.21875 0.65625q-0.765625 0.65625 -0.765625 1.734375q0 1.109375 0.765625 1.765625q0.765625 0.640625 2.21875 0.640625q1.4375 0 2.21875 -0.640625q0.78125 -0.65625 0.78125 -1.765625zm1.03125 -14.159149q0 0.921875 -0.40625 1.625q-0.40625 0.703125 -1.125 1.03125l0.828125 0q0.671875 0 0.671875 0.640625q0 0.640625 -0.671875 0.640625l-10.171875 0q-0.65625 0 -0.65625 -0.640625q0 -0.65625 0.65625 -0.65625l4.296875 0q-0.6875 -0.328125 -1.078125 -1.03125q-0.40625 -0.703125 -0.40625 -1.609375q0 -1.03125 0.5 -1.8125q0.484375 -0.78125 1.390625 -1.203125q0.890625 -0.421875 2.140625 -0.421875q1.234375 0 2.140625 0.421875q0.90625 0.421875 1.40625 1.203125q0.484375 0.78125 0.484375 1.8125zm-1.03125 0.28125q0 -1.09375 -0.78125 -1.75q-0.78125 -0.65625 -2.21875 -0.65625q-1.453125 0 -2.21875 0.65625q-0.765625 0.65625 -0.765625 1.75q0 1.078125 0.765625 1.734375q0.765625 0.65625 2.21875 0.65625q1.4375 0 2.21875 -0.65625q0.78125 -0.65625 0.78125 -1.734375zm1.03125 -8.109283q0 0.796875 -0.3125 1.4375q-0.3125 0.625 -0.84375 1.0q-0.546875 0.359375 -1.21875 0.359375q-0.859375 0 -1.34375 -0.4375q-0.5 -0.453125 -0.71875 -1.46875q-0.21875 -1.015625 -0.21875 -2.765625l0 -0.515625l-0.5 0q-0.984375 0 -1.421875 0.40625q-0.4375 0.40625 -0.4375 1.296875q0 0.5625 0.140625 1.140625q0.140625 0.5625 0.46875 1.171875q0.140625 0.265625 0.0625 0.453125q-0.09375 0.1875 -0.296875 0.265625q-0.203125 0.0625 -0.421875 0q-0.21875 -0.078125 -0.328125 -0.3125q-0.34375 -0.6875 -0.5 -1.390625q-0.171875 -0.703125 -0.171875 -1.328125q0 -1.5 0.734375 -2.21875q0.734375 -0.734375 2.296875 -0.734375l4.328125 0q0.671875 0 0.671875 0.59375q0 0.625 -0.671875 0.625l-0.78125 0q0.6875 0.296875 1.09375 0.9375q0.390625 0.625 0.390625 1.484375zm-0.96875 -0.21875q0 -0.953125 -0.65625 -1.5625q-0.671875 -0.609375 -1.703125 -0.609375l-0.46875 0l0 0.5q0 1.296875 0.125 2.046875q0.109375 0.734375 0.40625 1.03125q0.296875 0.296875 0.8125 0.296875q0.65625 0 1.078125 -0.453125q0.40625 -0.46875 0.40625 -1.25zm0.96875 -8.183136q0 1.140625 -0.6875 1.75q-0.703125 0.609375 -2.03125 0.609375l-8.15625 0q-0.65625 0 -0.65625 -0.640625q0 -0.65625 0.65625 -0.65625l8.0625 0q1.71875 0 1.71875 -1.359375q0 -0.140625 -0.015625 -0.25q-0.015625 -0.109375 -0.015625 -0.234375q-0.03125 -0.171875 0.078125 -0.234375q0.09375 -0.078125 0.375 -0.078125q0.546875 0 0.625 0.546875q0.03125 0.125 0.03125 0.265625q0.015625 0.140625 0.015625 0.28125zm0 -4.8141174q0 0.796875 -0.3125 1.4375q-0.3125 0.625 -0.84375 1.0q-0.546875 0.359375 -1.21875 0.359375q-0.859375 0 -1.34375 -0.4375q-0.5 -0.453125 -0.71875 -1.46875q-0.21875 -1.015625 -0.21875 -2.765625l0 -0.515625l-0.5 0q-0.984375 0 -1.421875 0.40625q-0.4375 0.40625 -0.4375 1.296875q0 0.5625 0.140625 1.140625q0.140625 0.5625 0.46875 1.171875q0.140625 0.265625 0.0625 0.453125q-0.09375 0.1875 -0.296875 0.265625q-0.203125 0.0625 -0.421875 0q-0.21875 -0.078125 -0.328125 -0.3125q-0.34375 -0.6875 -0.5 -1.390625q-0.171875 -0.703125 -0.171875 -1.328125q0 -1.5 0.734375 -2.21875q0.734375 -0.734375 2.296875 -0.734375l4.328125 0q0.671875 0 0.671875 0.59375q0 0.625 -0.671875 0.625l-0.78125 0q0.6875 0.296875 1.09375 0.9375q0.390625 0.625 0.390625 1.484375zm-0.96875 -0.21875q0 -0.953125 -0.65625 -1.5625q-0.671875 -0.609375 -1.703125 -0.609375l-0.46875 0l0 0.5q0 1.296875 0.125 2.046875q0.109375 0.734375 0.40625 1.03125q0.296875 0.296875 0.8125 0.296875q0.65625 0 1.078125 -0.453125q0.40625 -0.46875 0.40625 -1.25zm0.9375 -6.464386q0 0.640625 -0.671875 0.640625l-6.671875 0q-0.65625 0 -0.65625 -0.625q0 -0.640625 0.65625 -0.640625l0.78125 0q-0.734375 -0.375 -1.09375 -1.078125q-0.375 -0.703125 -0.375 -1.59375q0 -2.765625 3.078125 -2.765625l4.28125 0q0.671875 0 0.671875 0.640625q0 0.65625 -0.671875 0.65625l-4.203125 0q-1.09375 0 -1.59375 0.421875q-0.5 0.421875 -0.5 1.359375q0 1.0625 0.671875 1.703125q0.65625 0.625 1.75 0.625l3.875 0q0.671875 0 0.671875 0.65625zm0.03125 -11.744263q0 1.171875 -0.5 2.03125q-0.5 0.84375 -1.421875 1.296875q-0.921875 0.453125 -2.15625 0.453125q-1.859375 0 -2.921875 -1.0q-1.0625 -1.015625 -1.0625 -2.78125q0 -0.578125 0.1875 -1.203125q0.1875 -0.625 0.59375 -1.125q0.203125 -0.28125 0.484375 -0.234375q0.28125 0.03125 0.4375 0.265625q0.140625 0.234375 -0.0625 0.546875q-0.328125 0.421875 -0.453125 0.859375q-0.125 0.421875 -0.125 0.8125q0 1.21875 0.765625 1.875q0.75 0.65625 2.171875 0.65625q1.390625 0 2.203125 -0.65625q0.8125 -0.65625 0.8125 -1.875q0 -0.390625 -0.125 -0.8125q-0.140625 -0.4375 -0.453125 -0.859375q-0.21875 -0.3125 -0.0625 -0.53125q0.15625 -0.234375 0.453125 -0.25q0.28125 -0.03125 0.453125 0.234375q0.421875 0.515625 0.609375 1.125q0.171875 0.59375 0.171875 1.171875zm0 -7.4511414q0 1.84375 -1.078125 2.921875q-1.078125 1.0625 -2.9375 1.0625q-1.203125 0 -2.109375 -0.484375q-0.921875 -0.484375 -1.421875 -1.3125q-0.515625 -0.84375 -0.515625 -1.953125q0 -1.578125 1.015625 -2.46875q1.015625 -0.90625 2.796875 -0.90625q0.5 0 0.5 0.5625l0 5.296875q1.328125 -0.0625 2.03125 -0.765625q0.6875 -0.703125 0.6875 -1.953125q0 -0.53125 -0.140625 -1.078125q-0.140625 -0.546875 -0.484375 -1.046875q-0.25 -0.375 -0.09375 -0.625q0.140625 -0.25 0.4375 -0.25q0.296875 -0.015625 0.515625 0.328125q0.390625 0.53125 0.59375 1.265625q0.203125 0.71875 0.203125 1.40625zm-7.09375 0.203125q0 1.109375 0.6875 1.75q0.6875 0.640625 1.796875 0.75l0 -4.71875q-1.171875 0.046875 -1.828125 0.625q-0.65625 0.5625 -0.65625 1.59375zm7.0625 -5.871399q0 0.65625 -0.671875 0.65625l-6.671875 0q-0.65625 0 -0.65625 -0.625q0 -0.640625 0.65625 -0.640625l0.84375 0q-0.734375 -0.3125 -1.125 -0.984375q-0.390625 -0.671875 -0.421875 -1.609375q-0.046875 -0.5 0.515625 -0.53125q0.5625 -0.046875 0.625 0.5625l0.03125 0.265625q0.09375 1.09375 0.703125 1.671875q0.59375 0.578125 1.625 0.578125l3.875 0q0.671875 0 0.671875 0.65625zm2.59375 -11.340393q-1.640625 0.890625 -3.375 1.3125q-1.75 0.421875 -3.53125 0.421875q-1.796875 0 -3.515625 -0.421875q-1.734375 -0.421875 -3.40625 -1.3125q-0.265625 -0.15625 -0.265625 -0.4375q-0.015625 -0.28125 0.203125 -0.46875q0.21875 -0.1875 0.609375 -0.015625q1.609375 0.640625 3.171875 0.953125q1.5625 0.3125 3.203125 0.3125q1.625 0 3.203125 -0.3125q1.5625 -0.328125 3.15625 -0.953125q0.40625 -0.171875 0.609375 0.015625q0.21875 0.1875 0.203125 0.46875q-0.015625 0.28125 -0.265625 0.4375zm-2.59375 -3.9782715q0 0.640625 -0.671875 0.640625l-6.203125 0l0 1.0156403q0 0.5625 -0.515625 0.5625q-0.5 0 -0.5 -0.5625l0 -1.0156403l-0.265625 0q-3.0 0 -3.25 -2.9375l-0.046875 -0.46875q-0.015625 -0.28125 0.125 -0.40625q0.140625 -0.125 0.34375 -0.125q0.203125 -0.015625 0.359375 0.09375q0.15625 0.109375 0.171875 0.3125l0.046875 0.375q0.078125 0.96875 0.59375 1.421875q0.5 0.4375 1.5 0.4375l0.421875 0l0 -1.734375q0 -0.5625 0.5 -0.5625q0.515625 0 0.515625 0.5625l0 1.734375l6.203125 0q0.671875 0 0.671875 0.65625zm0.03125 -7.291504q0 1.140625 -0.484375 1.984375q-0.5 0.828125 -1.40625 1.28125q-0.90625 0.453125 -2.140625 0.453125q-1.234375 0 -2.125 -0.453125q-0.90625 -0.453125 -1.40625 -1.28125q-0.5 -0.84375 -0.5 -1.984375q0 -1.109375 0.5 -1.953125q0.5 -0.84375 1.40625 -1.296875q0.890625 -0.453125 2.125 -0.453125q1.234375 0 2.140625 0.453125q0.90625 0.453125 1.40625 1.296875q0.484375 0.84375 0.484375 1.953125zm-1.03125 0q0 -1.078125 -0.78125 -1.734375q-0.78125 -0.65625 -2.21875 -0.65625q-1.453125 0 -2.21875 0.65625q-0.765625 0.65625 -0.765625 1.734375q0 1.109375 0.765625 1.765625q0.765625 0.640625 2.21875 0.640625q1.4375 0 2.21875 -0.640625q0.78125 -0.65625 0.78125 -1.765625zm1.0 -6.3179016q0 0.65625 -0.671875 0.65625l-6.671875 0q-0.65625 0 -0.65625 -0.625q0 -0.640625 0.65625 -0.640625l0.84375 0q-0.734375 -0.3125 -1.125 -0.984375q-0.390625 -0.671875 -0.421875 -1.609375q-0.046875 -0.5 0.515625 -0.53125q0.5625 -0.046875 0.625 0.5625l0.03125 0.265625q0.09375 1.09375 0.703125 1.671875q0.59375 0.578125 1.625 0.578125l3.875 0q0.671875 0 0.671875 0.65625zm0.03125 -11.824768q0 0.71875 -0.171875 1.453125q-0.1875 0.734375 -0.609375 1.34375q-0.171875 0.296875 -0.453125 0.296875q-0.28125 -0.015625 -0.4375 -0.21875q-0.171875 -0.21875 0 -0.53125q0.375 -0.625 0.53125 -1.203125q0.15625 -0.59375 0.15625 -1.171875q0 -0.90625 -0.328125 -1.375q-0.34375 -0.46875 -0.921875 -0.46875q-0.453125 0 -0.71875 0.3125q-0.265625 0.296875 -0.40625 0.953125l-0.3125 1.46875q-0.4375 1.96875 -2.046875 1.96875q-1.0625 0 -1.703125 -0.828125q-0.640625 -0.84375 -0.640625 -2.203125q0 -0.6875 0.1875 -1.328125q0.1875 -0.640625 0.578125 -1.15625q0.203125 -0.265625 0.46875 -0.234375q0.265625 0.03125 0.421875 0.25q0.15625 0.21875 -0.03125 0.515625q-0.328125 0.484375 -0.46875 0.984375q-0.15625 0.484375 -0.15625 0.96875q0 0.890625 0.359375 1.359375q0.34375 0.46875 0.921875 0.46875q0.890625 0 1.140625 -1.1875l0.3125 -1.453125q0.21875 -1.03125 0.71875 -1.546875q0.484375 -0.53125 1.3125 -0.53125q1.0625 0 1.6875 0.84375q0.609375 0.84375 0.609375 2.25zm-9.78125 -5.7116394q0 0.84375 -0.8125 0.84375q-0.78125 0 -0.78125 -0.84375q0 -0.84375 0.78125 -0.84375q0.8125 0 0.8125 0.84375zm9.71875 0q0 0.640625 -0.703125 0.640625l-6.546875 0q-0.6875 0 -0.6875 -0.640625q0 -0.65625 0.6875 -0.65625l6.546875 0q0.703125 0 0.703125 0.65625zm2.953125 -6.5088806q0 0.84375 -0.203125 1.65625q-0.203125 0.8125 -0.640625 1.46875q-0.140625 0.234375 -0.34375 0.28125q-0.203125 0.03125 -0.390625 -0.0625q-0.171875 -0.09375 -0.25 -0.28125q-0.078125 -0.1875 0.03125 -0.390625q0.421875 -0.703125 0.578125 -1.34375q0.171875 -0.640625 0.171875 -1.265625q0 -2.296875 -2.375 -2.296875l-1.375 0q0.734375 0.328125 1.171875 1.046875q0.421875 0.703125 0.421875 1.625q0 1.0625 -0.5 1.859375q-0.5 0.78125 -1.359375 1.203125q-0.875 0.421875 -2.03125 0.421875q-1.15625 0 -2.015625 -0.421875q-0.875 -0.421875 -1.359375 -1.203125q-0.484375 -0.796875 -0.484375 -1.859375q0 -0.921875 0.40625 -1.625q0.390625 -0.703125 1.109375 -1.03125l-0.828125 0q-0.65625 0 -0.65625 -0.640625q0 -0.640625 0.65625 -0.640625l6.671875 0q1.796875 0 2.6875 0.890625q0.90625 0.875 0.90625 2.609375zm-4.265625 0.1875q0 -1.109375 -0.765625 -1.765625q-0.765625 -0.65625 -2.0625 -0.65625q-1.296875 0 -2.046875 0.65625q-0.765625 0.65625 -0.765625 1.765625q0 1.109375 0.765625 1.765625q0.75 0.65625 2.046875 0.65625q1.296875 0 2.0625 -0.65625q0.765625 -0.65625 0.765625 -1.765625zm1.34375 -6.766632q0 0.640625 -0.671875 0.640625l-6.671875 0q-0.65625 0 -0.65625 -0.625q0 -0.640625 0.65625 -0.640625l0.78125 0q-0.734375 -0.375 -1.09375 -1.078125q-0.375 -0.703125 -0.375 -1.59375q0 -2.765625 3.078125 -2.765625l4.28125 0q0.671875 0 0.671875 0.640625q0 0.65625 -0.671875 0.65625l-4.203125 0q-1.09375 0 -1.59375 0.421875q-0.5 0.421875 -0.5 1.359375q0 1.0625 0.671875 1.703125q0.65625 0.625 1.75 0.625l3.875 0q0.671875 0 0.671875 0.65625zm0.03125 -10.884888q0 0.796875 -0.3125 1.4375q-0.3125 0.625 -0.84375 1.0q-0.546875 0.359375 -1.21875 0.359375q-0.859375 0 -1.34375 -0.4375q-0.5 -0.453125 -0.71875 -1.46875q-0.21875 -1.015625 -0.21875 -2.765625l0 -0.515625l-0.5 0q-0.984375 0 -1.421875 0.40625q-0.4375 0.40625 -0.4375 1.296875q0 0.5625 0.140625 1.140625q0.140625 0.5625 0.46875 1.171875q0.140625 0.265625 0.0625 0.453125q-0.09375 0.1875 -0.296875 0.265625q-0.203125 0.0625 -0.421875 0q-0.21875 -0.078125 -0.328125 -0.3125q-0.34375 -0.6875 -0.5 -1.390625q-0.171875 -0.703125 -0.171875 -1.328125q0 -1.5 0.734375 -2.21875q0.734375 -0.734375 2.296875 -0.734375l4.328125 0q0.671875 0 0.671875 0.59375q0 0.625 -0.671875 0.625l-0.78125 0q0.6875 0.296875 1.09375 0.9375q0.390625 0.625 0.390625 1.484375zm-0.96875 -0.21875q0 -0.953125 -0.65625 -1.5625q-0.671875 -0.609375 -1.703125 -0.609375l-0.46875 0l0 0.5q0 1.296875 0.125 2.046875q0.109375 0.734375 0.40625 1.03125q0.296875 0.296875 0.8125 0.296875q0.65625 0 1.078125 -0.453125q0.40625 -0.46875 0.40625 -1.25zm0.96875 -8.183136q0 1.140625 -0.6875 1.75q-0.703125 0.609375 -2.03125 0.609375l-8.15625 0q-0.65625 0 -0.65625 -0.640625q0 -0.65625 0.65625 -0.65625l8.0625 0q1.71875 0 1.71875 -1.359375q0 -0.140625 -0.015625 -0.25q-0.015625 -0.109375 -0.015625 -0.234375q-0.03125 -0.171875 0.078125 -0.234375q0.09375 -0.078125 0.375 -0.078125q0.546875 0 0.625 0.546875q0.03125 0.125 0.03125 0.265625q0.015625 0.140625 0.015625 0.28125zm-9.78125 -3.017273q0 0.84375 -0.8125 0.84375q-0.78125 0 -0.78125 -0.84375q0 -0.84375 0.78125 -0.84375q0.8125 0 0.8125 0.84375zm9.71875 0q0 0.640625 -0.703125 0.640625l-6.546875 0q-0.6875 0 -0.6875 -0.640625q0 -0.65625 0.6875 -0.65625l6.546875 0q0.703125 0 0.703125 0.65625zm0.03125 -3.7120056q0 0.640625 -0.671875 0.640625l-6.671875 0q-0.65625 0 -0.65625 -0.625q0 -0.640625 0.65625 -0.640625l0.78125 0q-0.734375 -0.375 -1.09375 -1.078125q-0.375 -0.703125 -0.375 -1.59375q0 -2.765625 3.078125 -2.765625l4.28125 0q0.671875 0 0.671875 0.640625q0 0.65625 -0.671875 0.65625l-4.203125 0q-1.09375 0 -1.59375 0.421875q-0.5 0.421875 -0.5 1.359375q0 1.0625 0.671875 1.703125q0.65625 0.625 1.75 0.625l3.875 0q0.671875 0 0.671875 0.65625zm2.921875 -11.88488q0 0.8437424 -0.203125 1.6562424q-0.203125 0.8125 -0.640625 1.46875q-0.140625 0.234375 -0.34375 0.28125q-0.203125 0.03125 -0.390625 -0.0625q-0.171875 -0.09375 -0.25 -0.28125q-0.078125 -0.1875 0.03125 -0.390625q0.421875 -0.703125 0.578125 -1.34375q0.171875 -0.640625 0.171875 -1.265625q0 -2.2968674 -2.375 -2.2968674l-1.375 0q0.734375 0.328125 1.171875 1.046875q0.421875 0.703125 0.421875 1.6249924q0 1.0625 -0.5 1.859375q-0.5 0.78125 -1.359375 1.203125q-0.875 0.421875 -2.03125 0.421875q-1.15625 0 -2.015625 -0.421875q-0.875 -0.421875 -1.359375 -1.203125q-0.484375 -0.796875 -0.484375 -1.859375q0 -0.9218674 0.40625 -1.6249924q0.390625 -0.703125 1.109375 -1.03125l-0.828125 0q-0.65625 0 -0.65625 -0.640625q0 -0.640625 0.65625 -0.640625l6.671875 0q1.796875 0 2.6875 0.890625q0.90625 0.875 0.90625 2.609375zm-4.265625 0.18749237q0 -1.1093674 -0.765625 -1.7656174q-0.765625 -0.65625 -2.0625 -0.65625q-1.296875 0 -2.046875 0.65625q-0.765625 0.65625 -0.765625 1.7656174q0 1.109375 0.765625 1.765625q0.75 0.65625 2.046875 0.65625q1.296875 0 2.0625 -0.65625q0.765625 -0.65625 0.765625 -1.765625zm3.9375 -6.6416245q0.25 0.171875 0.265625 0.46875q0.015625 0.28125 -0.203125 0.46875q-0.203125 0.171875 -0.609375 0.015625q-3.140625 -1.28125 -6.359375 -1.28125q-1.640625 0 -3.1875 0.34375q-1.5625 0.328125 -3.1875 0.9375q-0.390625 0.140625 -0.609375 -0.046875q-0.21875 -0.1875 -0.203125 -0.453125q0 -0.28125 0.265625 -0.453125q1.65625 -0.875 3.390625 -1.28125q1.734375 -0.421875 3.53125 -0.421875q1.78125 0 3.53125 0.421875q1.75 0.40625 3.375 1.28125z" fill-rule="nonzero"/><path fill="#00153c" d="m648.9271 196.2892l0 0c0 -6.1027985 4.9472656 -11.050095 11.050049 -11.050095l68.38806 0c2.930664 0 5.741272 1.1642151 7.8135986 3.236496c2.0722656 2.0722961 3.2364502 4.8829346 3.2364502 7.8135986l0 44.199036c0 6.1027985 -4.9472656 11.050095 -11.050049 11.050095l-68.38806 0c-6.102783 0 -11.050049 -4.947296 -11.050049 -11.050095z" fill-rule="evenodd"/><path stroke="#5a8bff" stroke-width="1.0" stroke-linejoin="round" stroke-linecap="butt" d="m648.9271 196.2892l0 0c0 -6.1027985 4.9472656 -11.050095 11.050049 -11.050095l68.38806 0c2.930664 0 5.741272 1.1642151 7.8135986 3.236496c2.0722656 2.0722961 3.2364502 4.8829346 3.2364502 7.8135986l0 44.199036c0 6.1027985 -4.9472656 11.050095 -11.050049 11.050095l-68.38806 0c-6.102783 0 -11.050049 -4.947296 -11.050049 -11.050095z" fill-rule="evenodd"/><path fill="#ffffff" d="m679.2288 224.38934q-1.65625 0 -2.84375 -0.703125q-1.1875 -0.703125 -1.828125 -2.0q-0.625 -1.296875 -0.625 -3.078125q0 -1.78125 0.625 -3.078125q0.640625 -1.296875 1.828125 -2.0q1.1875 -0.703125 2.84375 -0.703125q1.0 0 1.890625 0.296875q0.90625 0.28125 1.5625 0.8125q0.265625 0.1875 0.296875 0.453125q0.046875 0.25 -0.078125 0.453125q-0.125 0.1875 -0.359375 0.25q-0.234375 0.046875 -0.515625 -0.15625q-1.140625 -0.90625 -2.765625 -0.90625q-1.890625 0 -2.90625 1.203125q-1.0 1.1875 -1.0 3.375q0 2.1875 1.0 3.390625q1.015625 1.1875 2.90625 1.1875q1.625 0 2.796875 -0.921875q0.28125 -0.1875 0.515625 -0.140625q0.234375 0.046875 0.34375 0.234375q0.125 0.1875 0.09375 0.4375q-0.03125 0.234375 -0.265625 0.421875q-0.6875 0.578125 -1.59375 0.875q-0.890625 0.296875 -1.921875 0.296875zm8.080505 0q-1.140625 0 -1.75 -0.6875q-0.609375 -0.703125 -0.609375 -2.03125l0 -8.15625q0 -0.65625 0.640625 -0.65625q0.65625 0 0.65625 0.65625l0 8.0625q0 1.71875 1.359375 1.71875q0.140625 0 0.25 -0.015625q0.109375 -0.015625 0.234375 -0.015625q0.171875 -0.03125 0.234375 0.078125q0.078125 0.09375 0.078125 0.375q0 0.546875 -0.546875 0.625q-0.125 0.03125 -0.265625 0.03125q-0.140625 0.015625 -0.28125 0.015625zm3.017273 -9.78125q-0.84375 0 -0.84375 -0.8125q0 -0.78125 0.84375 -0.78125q0.84375 0 0.84375 0.78125q0 0.8125 -0.84375 0.8125zm0 9.71875q-0.640625 0 -0.640625 -0.703125l0 -6.546875q0 -0.6875 0.640625 -0.6875q0.65625 0 0.65625 0.6875l0 6.546875q0 0.703125 -0.65625 0.703125zm6.57135 0.0625q-1.84375 0 -2.921875 -1.078125q-1.0625 -1.078125 -1.0625 -2.9375q0 -1.203125 0.484375 -2.109375q0.484375 -0.921875 1.3125 -1.421875q0.84375 -0.515625 1.953125 -0.515625q1.578125 0 2.46875 1.015625q0.90625 1.015625 0.90625 2.796875q0 0.5 -0.5625 0.5l-5.296875 0q0.0625 1.328125 0.765625 2.03125q0.703125 0.6875 1.953125 0.6875q0.53125 0 1.078125 -0.140625q0.546875 -0.140625 1.046875 -0.484375q0.375 -0.25 0.625 -0.09375q0.25 0.140625 0.25 0.4375q0.015625 0.296875 -0.328125 0.515625q-0.53125 0.390625 -1.265625 0.59375q-0.71875 0.203125 -1.40625 0.203125zm-0.203125 -7.09375q-1.109375 0 -1.75 0.6875q-0.640625 0.6875 -0.75 1.796875l4.71875 0q-0.046875 -1.171875 -0.625 -1.828125q-0.5625 -0.65625 -1.59375 -0.65625zm5.855774 7.0625q-0.640625 0 -0.640625 -0.671875l0 -6.671875q0 -0.65625 0.625 -0.65625q0.640625 0 0.640625 0.65625l0 0.78125q0.375 -0.734375 1.078125 -1.09375q0.703125 -0.375 1.59375 -0.375q2.765625 0 2.765625 3.078125l0 4.28125q0 0.671875 -0.640625 0.671875q-0.65625 0 -0.65625 -0.671875l0 -4.203125q0 -1.09375 -0.421875 -1.59375q-0.421875 -0.5 -1.359375 -0.5q-1.0625 0 -1.703125 0.671875q-0.625 0.65625 -0.625 1.75l0 3.875q0 0.671875 -0.65625 0.671875zm11.572388 0.03125q-1.390625 0 -2.078125 -0.71875q-0.6875 -0.734375 -0.6875 -2.109375l0 -4.078125l-1.0625 0q-0.5625 0 -0.5625 -0.515625q0 -0.5 0.5625 -0.5l1.0625 0l0 -1.828125q0 -0.65625 0.65625 -0.65625q0.640625 0 0.640625 0.65625l0 1.828125l2.015625 0q0.5625 0 0.5625 0.5q0 0.515625 -0.5625 0.515625l-2.015625 0l0 3.953125q0 0.90625 0.375 1.390625q0.390625 0.46875 1.265625 0.46875q0.296875 0 0.5 -0.0625q0.21875 -0.078125 0.375 -0.078125q0.140625 -0.015625 0.234375 0.109375q0.109375 0.109375 0.109375 0.375q0 0.1875 -0.078125 0.359375q-0.078125 0.15625 -0.25 0.21875q-0.1875 0.0625 -0.5 0.109375q-0.3125 0.0625 -0.5625 0.0625z" fill-rule="nonzero"/><path fill="#000000" fill-opacity="0.0" d="m648.9271 218.38872c-42.32538 0 -63.48932 0.01574707 -84.65076 0.03149414c-21.161438 0.01574707 -42.320312 0.03149414 -84.640594 0.03149414" fill-rule="evenodd"/><path stroke="#6ee2e2" stroke-width="2.0" stroke-linejoin="round" stroke-linecap="butt" d="m648.9271 218.38872c-42.32538 0 -63.48932 0.01574707 -84.65076 0.03149414c-10.580688 0.007873535 -21.160828 0.01574707 -34.38568 0.021652222c-6.612488 0.002960205 -13.886169 0.00541687 -22.151764 0.0071411133l-16.10315 0.0015563965" fill-rule="evenodd"/><path fill="#6ee2e2" stroke="#6ee2e2" stroke-width="2.0" stroke-linecap="butt" d="m491.63547 215.1471l-9.075867 3.3043365l9.076508 3.3025818z" fill-rule="evenodd"/><path fill="#000000" fill-opacity="0.0" d="m450.52292 218.38872c-18.735657 0 -28.105164 29.897644 -37.471313 59.795273c-9.36615 29.897644 -18.728912 59.795288 -37.457825 59.795288" fill-rule="evenodd"/><path stroke="#6ee2e2" stroke-width="2.0" stroke-linejoin="round" stroke-linecap="butt" stroke-dasharray="8.0,6.0" d="m450.52292 218.38872c-18.735687 0 -28.105194 29.897644 -37.471313 59.795273c-4.683075 14.948822 -9.365326 29.897644 -15.2178955 41.109253c-2.9262695 5.6058044 -6.1451416 10.277313 -9.8029785 13.547363c-0.2286377 0.20437622 -0.45895386 0.4032898 -0.69104004 0.59661865c-0.11605835 0.09664917 -0.23254395 0.19189453 -0.3494568 0.28573608l-0.13644409 0.10748291" fill-rule="evenodd"/><path fill="#6ee2e2" stroke="#6ee2e2" stroke-width="2.0" stroke-linecap="butt" d="m385.71164 330.7307l-7.374359 6.2377014l9.65863 -0.038208008z" fill-rule="evenodd"/><path fill="#000000" fill-opacity="0.0" d="m132.7565 218.42021c26.013153 0 39.018433 -29.905518 52.026306 -59.81102c13.007874 -29.905518 26.018341 -59.811028 52.036697 -59.811028" fill-rule="evenodd"/><path stroke="#434343" stroke-width="1.0" stroke-linejoin="round" stroke-linecap="butt" d="m138.7308 217.8654l0.4522705 -0.08879089c0.18652344 -0.03842163 0.37231445 -0.07853699 0.55737305 -0.120285034c0.7402649 -0.16700745 1.4690247 -0.36050415 2.1866608 -0.57951355c2.8705597 -0.8761444 5.563278 -2.161148 8.103561 -3.7966156c5.080597 -3.2709045 9.551483 -7.9436493 13.615967 -13.550934c8.128937 -11.214554 14.632233 -26.167313 21.13617 -41.12007c13.007874 -29.905518 26.018341 -59.811028 52.036682 -59.811028" fill-rule="evenodd"/><path fill="#434343" stroke="#434343" stroke-width="1.0" stroke-linecap="butt" d="m138.57806 216.22075l-4.365921 2.0642853l4.6713867 1.2250214z" fill-rule="evenodd"/><path fill="#000000" fill-opacity="0.0" d="m236.809 218.38872c-26.013153 0 -39.018417 0.01574707 -52.02629 0.03149414c-13.007874 0.01574707 -26.018356 0.03149414 -52.036713 0.03149414" fill-rule="evenodd"/><path stroke="#434343" stroke-width="1.0" stroke-linejoin="round" stroke-linecap="butt" d="m236.80899 218.38872c-26.013138 0 -39.018417 0.01574707 -52.02629 0.03149414c-6.503937 0.007873535 -13.008514 0.01574707 -21.139404 0.021652222c-4.06546 0.002960205 -8.537476 0.00541687 -13.619293 0.0071411133l-11.277985 0.0017547607" fill-rule="evenodd"/><path fill="#434343" stroke="#434343" stroke-width="1.0" stroke-linecap="butt" d="m138.74576 216.79904l-4.537842 1.6524353l4.5383606 1.6510315z" fill-rule="evenodd"/><path fill="#000000" fill-opacity="0.0" d="m132.7565 218.42021c26.013153 0 39.018433 29.881897 52.026306 59.76378c13.007874 29.881897 26.018341 59.763794 52.036697 59.763794" fill-rule="evenodd"/><path stroke="#434343" stroke-width="1.0" stroke-linejoin="round" stroke-linecap="butt" d="m138.73085 218.9746l0.45222473 0.08869934c0.18652344 0.038406372 0.37231445 0.07847595 0.55737305 0.12020874c0.7402649 0.16687012 1.4690247 0.36019897 2.1866608 0.57907104c2.8705597 0.87542725 5.563278 2.1594238 8.103561 3.7935944c5.080597 3.2683258 9.551483 7.937378 13.615967 13.540222c8.128937 11.205719 14.632233 26.146652 21.13617 41.0876c13.007874 29.881897 26.018341 59.763794 52.036682 59.763794" fill-rule="evenodd"/><path fill="#434343" stroke="#434343" stroke-width="1.0" stroke-linecap="butt" d="m138.88345 217.32993l-4.671295 1.225357l4.3660736 2.06398z" fill-rule="evenodd"/><path fill="#000000" fill-opacity="0.0" d="m1.4887916 271.7168l172.03151 0l0 38.771667l-172.03151 0z" fill-rule="evenodd"/><path fill="#ffffff" d="m20.955795 299.0612q-0.640625 0 -0.640625 -0.640625l0 -9.578125q0 -0.65625 0.625 -0.65625q0.65625 0 0.65625 0.65625l0 0.828125q0.328125 -0.703125 1.03125 -1.109375q0.703125 -0.40625 1.625 -0.40625q1.03125 0 1.8125 0.5q0.78125 0.484375 1.203125 1.390625q0.421875 0.890625 0.421875 2.140625q0 1.234375 -0.421875 2.140625q-0.421875 0.90625 -1.203125 1.40625q-0.78125 0.484375 -1.8125 0.484375q-0.90625 0 -1.609375 -0.390625q-0.703125 -0.40625 -1.03125 -1.109375l0 3.703125q0 0.640625 -0.65625 0.640625zm3.015625 -3.875q1.09375 0 1.75 -0.78125q0.65625 -0.78125 0.65625 -2.21875q0 -1.453125 -0.65625 -2.21875q-0.65625 -0.765625 -1.75 -0.765625q-1.078125 0 -1.734375 0.765625q-0.65625 0.765625 -0.65625 2.21875q0 1.4375 0.65625 2.21875q0.65625 0.78125 1.734375 0.78125zm8.421768 1.03125q-2.796875 0 -2.796875 -3.078125l0 -4.296875q0 -0.65625 0.640625 -0.65625q0.65625 0 0.65625 0.65625l0 4.28125q0 1.03125 0.421875 1.53125q0.421875 0.5 1.328125 0.5q1.0 0 1.625 -0.65625q0.625 -0.671875 0.625 -1.78125l0 -3.875q0 -0.65625 0.65625 -0.65625q0.640625 0 0.640625 0.65625l0 6.671875q0 0.671875 -0.625 0.671875q-0.640625 0 -0.640625 -0.671875l0 -0.75q-0.375 0.703125 -1.046875 1.078125q-0.65625 0.375 -1.484375 0.375zm10.163513 0q-0.921875 0 -1.625 -0.40625q-0.703125 -0.40625 -1.03125 -1.125l0 0.828125q0 0.671875 -0.640625 0.671875q-0.640625 0 -0.640625 -0.671875l0 -10.171875q0 -0.65625 0.640625 -0.65625q0.65625 0 0.65625 0.65625l0 4.296875q0.328125 -0.6875 1.03125 -1.078125q0.703125 -0.40625 1.609375 -0.40625q1.03125 0 1.8125 0.5q0.78125 0.484375 1.203125 1.390625q0.421875 0.890625 0.421875 2.140625q0 1.234375 -0.421875 2.140625q-0.421875 0.90625 -1.203125 1.40625q-0.78125 0.484375 -1.8125 0.484375zm-0.28125 -1.03125q1.09375 0 1.75 -0.78125q0.65625 -0.78125 0.65625 -2.21875q0 -1.453125 -0.65625 -2.21875q-0.65625 -0.765625 -1.75 -0.765625q-1.078125 0 -1.734375 0.765625q-0.65625 0.765625 -0.65625 2.21875q0 1.4375 0.65625 2.21875q0.65625 0.78125 1.734375 0.78125zm5.328018 1.4375q-0.09375 0.265625 -0.28125 0.34375q-0.1875 0.09375 -0.40625 0.03125q-0.203125 -0.0625 -0.3125 -0.234375q-0.109375 -0.171875 -0.03125 -0.453125l3.796875 -11.796875q0.109375 -0.265625 0.296875 -0.34375q0.1875 -0.09375 0.390625 -0.03125q0.21875 0.046875 0.328125 0.234375q0.109375 0.1875 0.015625 0.4375l-3.796875 11.8125zm6.5367584 -0.40625q-0.71875 0 -1.453125 -0.171875q-0.734375 -0.1875 -1.34375 -0.609375q-0.296875 -0.171875 -0.296875 -0.453125q0.015625 -0.28125 0.21875 -0.4375q0.21875 -0.171875 0.53125 0q0.625 0.375 1.203125 0.53125q0.59375 0.15625 1.171875 0.15625q0.90625 0 1.375 -0.328125q0.46875 -0.34375 0.46875 -0.921875q0 -0.453125 -0.3125 -0.71875q-0.296875 -0.265625 -0.953125 -0.40625l-1.46875 -0.3125q-1.96875 -0.4375 -1.96875 -2.046875q0 -1.0625 0.828125 -1.703125q0.84375 -0.640625 2.203125 -0.640625q0.6875 0 1.328125 0.1875q0.640625 0.1875 1.15625 0.578125q0.265625 0.203125 0.234375 0.46875q-0.03125 0.265625 -0.25 0.421875q-0.21875 0.15625 -0.515625 -0.03125q-0.484375 -0.328125 -0.984375 -0.46875q-0.484375 -0.15625 -0.96875 -0.15625q-0.890625 0 -1.359375 0.359375q-0.46875 0.34375 -0.46875 0.921875q0 0.890625 1.1875 1.140625l1.453125 0.3125q1.03125 0.21875 1.546875 0.71875q0.53125 0.484375 0.53125 1.3125q0 1.0625 -0.84375 1.6875q-0.84375 0.609375 -2.25 0.609375zm7.8210144 0q-2.796875 0 -2.796875 -3.078125l0 -4.296875q0 -0.65625 0.640625 -0.65625q0.65625 0 0.65625 0.65625l0 4.28125q0 1.03125 0.421875 1.53125q0.421875 0.5 1.328125 0.5q1.0 0 1.625 -0.65625q0.625 -0.671875 0.625 -1.78125l0 -3.875q0 -0.65625 0.65625 -0.65625q0.640625 0 0.640625 0.65625l0 6.671875q0 0.671875 -0.625 0.671875q-0.640625 0 -0.640625 -0.671875l0 -0.75q-0.375 0.703125 -1.046875 1.078125q-0.65625 0.375 -1.484375 0.375zm10.163513 0q-0.921875 0 -1.625 -0.40625q-0.703125 -0.40625 -1.03125 -1.125l0 0.828125q0 0.671875 -0.640625 0.671875q-0.640625 0 -0.640625 -0.671875l0 -10.171875q0 -0.65625 0.640625 -0.65625q0.65625 0 0.65625 0.65625l0 4.296875q0.328125 -0.6875 1.03125 -1.078125q0.703125 -0.40625 1.609375 -0.40625q1.03125 0 1.8125 0.5q0.78125 0.484375 1.203125 1.390625q0.421875 0.890625 0.421875 2.140625q0 1.234375 -0.421875 2.140625q-0.421875 0.90625 -1.203125 1.40625q-0.78125 0.484375 -1.8125 0.484375zm-0.28125 -1.03125q1.09375 0 1.75 -0.78125q0.65625 -0.78125 0.65625 -2.21875q0 -1.453125 -0.65625 -2.21875q-0.65625 -0.765625 -1.75 -0.765625q-1.078125 0 -1.734375 0.765625q-0.65625 0.765625 -0.65625 2.21875q0 1.4375 0.65625 2.21875q0.65625 0.78125 1.734375 0.78125zm6.085388 2.40625q-0.21875 0.28125 -0.453125 0.25q-0.21875 -0.015625 -0.296875 -0.234375q-0.078125 -0.203125 0.125 -0.484375q0.1875 -0.25 0.28125 -0.515625q0.109375 -0.25 0.15625 -0.46875q-0.390625 -0.03125 -0.625 -0.265625q-0.21875 -0.25 -0.21875 -0.609375q0 -0.390625 0.234375 -0.640625q0.234375 -0.25 0.625 -0.25q0.40625 0 0.640625 0.28125q0.25 0.28125 0.25 0.8125q0 0.5 -0.15625 1.0625q-0.15625 0.5625 -0.5625 1.0625zm9.963516 -1.375q-1.03125 0 -1.8125 -0.484375q-0.78125 -0.5 -1.203125 -1.40625q-0.421875 -0.90625 -0.421875 -2.140625q0 -1.25 0.421875 -2.140625q0.421875 -0.90625 1.203125 -1.390625q0.78125 -0.5 1.8125 -0.5q0.921875 0 1.609375 0.40625q0.703125 0.390625 1.03125 1.09375l0 -4.3125q0 -0.65625 0.65625 -0.65625q0.640625 0 0.640625 0.65625l0 10.171875q0 0.671875 -0.640625 0.671875q-0.640625 0 -0.640625 -0.671875l0 -0.828125q-0.34375 0.71875 -1.046875 1.125q-0.6875 0.40625 -1.609375 0.40625zm0.28125 -1.03125q1.078125 0 1.734375 -0.78125q0.65625 -0.78125 0.65625 -2.21875q0 -1.453125 -0.65625 -2.21875q-0.65625 -0.765625 -1.734375 -0.765625q-1.109375 0 -1.765625 0.765625q-0.640625 0.765625 -0.640625 2.21875q0 1.4375 0.640625 2.21875q0.65625 0.78125 1.765625 0.78125zm8.531143 1.03125q-0.796875 0 -1.4375 -0.3125q-0.625 -0.3125 -1.0 -0.84375q-0.359375 -0.546875 -0.359375 -1.21875q0 -0.859375 0.4375 -1.34375q0.453125 -0.5 1.46875 -0.71875q1.015625 -0.21875 2.765625 -0.21875l0.515625 0l0 -0.5q0 -0.984375 -0.40625 -1.421875q-0.40625 -0.4375 -1.296875 -0.4375q-0.5625 0 -1.140625 0.140625q-0.5625 0.140625 -1.171875 0.46875q-0.265625 0.140625 -0.453125 0.0625q-0.1875 -0.09375 -0.265625 -0.296875q-0.0625 -0.203125 0 -0.421875q0.078125 -0.21875 0.3125 -0.328125q0.6875 -0.34375 1.390625 -0.5q0.703125 -0.171875 1.328125 -0.171875q1.5 0 2.21875 0.734375q0.734375 0.734375 0.734375 2.296875l0 4.328125q0 0.671875 -0.59375 0.671875q-0.625 0 -0.625 -0.671875l0 -0.78125q-0.296875 0.6875 -0.9375 1.09375q-0.625 0.390625 -1.484375 0.390625zm0.21875 -0.96875q0.953125 0 1.5625 -0.65625q0.609375 -0.671875 0.609375 -1.703125l0 -0.46875l-0.5 0q-1.296875 0 -2.046875 0.125q-0.734375 0.109375 -1.03125 0.40625q-0.296875 0.296875 -0.296875 0.8125q0 0.65625 0.453125 1.078125q0.46875 0.40625 1.25 0.40625zm8.948761 0.96875q-1.390625 0 -2.078125 -0.71875q-0.6875 -0.734375 -0.6875 -2.109375l0 -4.078125l-1.0625 0q-0.5625 0 -0.5625 -0.515625q0 -0.5 0.5625 -0.5l1.0625 0l0 -1.828125q0 -0.65625 0.65625 -0.65625q0.640625 0 0.640625 0.65625l0 1.828125l2.015625 0q0.5625 0 0.5625 0.5q0 0.515625 -0.5625 0.515625l-2.015625 0l0 3.953125q0 0.90625 0.375 1.390625q0.390625 0.46875 1.265625 0.46875q0.296875 0 0.5 -0.0625q0.21875 -0.078125 0.375 -0.078125q0.140625 -0.015625 0.234375 0.109375q0.109375 0.109375 0.109375 0.375q0 0.1875 -0.078125 0.359375q-0.078125 0.15625 -0.25 0.21875q-0.1875 0.0625 -0.5 0.109375q-0.3125 0.0625 -0.5625 0.0625zm4.912506 0q-0.796875 0 -1.4375 -0.3125q-0.625 -0.3125 -1.0 -0.84375q-0.359375 -0.546875 -0.359375 -1.21875q0 -0.859375 0.4375 -1.34375q0.453125 -0.5 1.46875 -0.71875q1.015625 -0.21875 2.765625 -0.21875l0.515625 0l0 -0.5q0 -0.984375 -0.40625 -1.421875q-0.40625 -0.4375 -1.296875 -0.4375q-0.5625 0 -1.140625 0.140625q-0.5625 0.140625 -1.171875 0.46875q-0.265625 0.140625 -0.453125 0.0625q-0.1875 -0.09375 -0.265625 -0.296875q-0.0625 -0.203125 0 -0.421875q0.078125 -0.21875 0.3125 -0.328125q0.6875 -0.34375 1.390625 -0.5q0.703125 -0.171875 1.328125 -0.171875q1.5 0 2.21875 0.734375q0.734375 0.734375 0.734375 2.296875l0 4.328125q0 0.671875 -0.59375 0.671875q-0.625 0 -0.625 -0.671875l0 -0.78125q-0.296875 0.6875 -0.9375 1.09375q-0.625 0.390625 -1.484375 0.390625zm0.21875 -0.96875q0.953125 0 1.5625 -0.65625q0.609375 -0.671875 0.609375 -1.703125l0 -0.46875l-0.5 0q-1.296875 0 -2.046875 0.125q-0.734375 0.109375 -1.03125 0.40625q-0.296875 0.296875 -0.296875 0.8125q0 0.65625 0.453125 1.078125q0.46875 0.40625 1.25 0.40625zm12.576767 0.96875q-0.71875 0 -1.453125 -0.171875q-0.734375 -0.1875 -1.34375 -0.609375q-0.296875 -0.171875 -0.296875 -0.453125q0.015625 -0.28125 0.21875 -0.4375q0.21875 -0.171875 0.53125 0q0.625 0.375 1.203125 0.53125q0.59375 0.15625 1.171875 0.15625q0.90625 0 1.375 -0.328125q0.46875 -0.34375 0.46875 -0.921875q0 -0.453125 -0.3125 -0.71875q-0.296875 -0.265625 -0.953125 -0.40625l-1.46875 -0.3125q-1.96875 -0.4375 -1.96875 -2.046875q0 -1.0625 0.828125 -1.703125q0.84375 -0.640625 2.203125 -0.640625q0.6875 0 1.328125 0.1875q0.640625 0.1875 1.15625 0.578125q0.265625 0.203125 0.234375 0.46875q-0.03125 0.265625 -0.25 0.421875q-0.21875 0.15625 -0.515625 -0.03125q-0.484375 -0.328125 -0.984375 -0.46875q-0.484375 -0.15625 -0.96875 -0.15625q-0.890625 0 -1.359375 0.359375q-0.46875 0.34375 -0.46875 0.921875q0 0.890625 1.1875 1.140625l1.453125 0.3125q1.03125 0.21875 1.546875 0.71875q0.53125 0.484375 0.53125 1.3125q0 1.0625 -0.84375 1.6875q-0.84375 0.609375 -2.25 0.609375zm8.115997 0q-1.390625 0 -2.078125 -0.71875q-0.68748474 -0.734375 -0.68748474 -2.109375l0 -4.078125l-1.0625 0q-0.5625 0 -0.5625 -0.515625q0 -0.5 0.5625 -0.5l1.0625 0l0 -1.828125q0 -0.65625 0.65623474 -0.65625q0.640625 0 0.640625 0.65625l0 1.828125l2.015625 0q0.5625 0 0.5625 0.5q0 0.515625 -0.5625 0.515625l-2.015625 0l0 3.953125q0 0.90625 0.375 1.390625q0.390625 0.46875 1.265625 0.46875q0.296875 0 0.5 -0.0625q0.21875 -0.078125 0.375 -0.078125q0.140625 -0.015625 0.234375 0.109375q0.109375 0.109375 0.109375 0.375q0 0.1875 -0.078125 0.359375q-0.078125 0.15625 -0.25 0.21875q-0.1875 0.0625 -0.5 0.109375q-0.3125 0.0625 -0.5625 0.0625zm5.6293945 0q-1.140625 0 -1.984375 -0.484375q-0.828125 -0.5 -1.28125 -1.40625q-0.453125 -0.90625 -0.453125 -2.140625q0 -1.234375 0.453125 -2.125q0.453125 -0.90625 1.28125 -1.40625q0.84375 -0.5 1.984375 -0.5q1.109375 0 1.953125 0.5q0.84375 0.5 1.296875 1.40625q0.453125 0.890625 0.453125 2.125q0 1.234375 -0.453125 2.140625q-0.453125 0.90625 -1.296875 1.40625q-0.84375 0.484375 -1.953125 0.484375zm0 -1.03125q1.078125 0 1.734375 -0.78125q0.65625 -0.78125 0.65625 -2.21875q0 -1.453125 -0.65625 -2.21875q-0.65625 -0.765625 -1.734375 -0.765625q-1.109375 0 -1.765625 0.765625q-0.640625 0.765625 -0.640625 2.21875q0 1.4375 0.640625 2.21875q0.65625 0.78125 1.765625 0.78125zm6.317871 1.0q-0.65625 0 -0.65625 -0.671875l0 -6.671875q0 -0.65625 0.625 -0.65625q0.640625 0 0.640625 0.65625l0 0.84375q0.3125 -0.734375 0.984375 -1.125q0.671875 -0.390625 1.609375 -0.421875q0.5 -0.046875 0.53125 0.515625q0.046875 0.5625 -0.5625 0.625l-0.265625 0.03125q-1.09375 0.09375 -1.671875 0.703125q-0.578125 0.59375 -0.578125 1.625l0 3.875q0 0.671875 -0.65625 0.671875zm8.475769 0.03125q-1.84375 0 -2.921875 -1.078125q-1.0625 -1.078125 -1.0625 -2.9375q0 -1.203125 0.484375 -2.109375q0.484375 -0.921875 1.3125 -1.421875q0.84375 -0.515625 1.953125 -0.515625q1.578125 0 2.46875 1.015625q0.90625 1.015625 0.90625 2.796875q0 0.5 -0.5625 0.5l-5.296875 0q0.0625 1.328125 0.765625 2.03125q0.703125 0.6875 1.953125 0.6875q0.53125 0 1.078125 -0.140625q0.546875 -0.140625 1.046875 -0.484375q0.375 -0.25 0.625 -0.09375q0.25 0.140625 0.25 0.4375q0.015625 0.296875 -0.328125 0.515625q-0.53125 0.390625 -1.265625 0.59375q-0.71875 0.203125 -1.40625 0.203125zm-0.203125 -7.09375q-1.109375 0 -1.75 0.6875q-0.640625 0.6875 -0.75 1.796875l4.71875 0q-0.046875 -1.171875 -0.625 -1.828125q-0.5625 -0.65625 -1.59375 -0.65625z" fill-rule="nonzero"/><path fill="#000000" fill-opacity="0.0" d="m494.88907 185.2391l138.77164 0l0 37.16536l-138.77164 0z" fill-rule="evenodd"/><path fill="#ffffff" d="m507.4047 208.4441q-0.65625 0 -1.328125 -0.15625q-0.65625 -0.171875 -1.234375 -0.5625q-0.265625 -0.15625 -0.265625 -0.40625q0.015625 -0.265625 0.203125 -0.40625q0.1875 -0.140625 0.484375 0q0.578125 0.34375 1.109375 0.484375q0.53125 0.140625 1.0625 0.140625q0.828125 0 1.25 -0.296875q0.4375 -0.3125 0.4375 -0.84375q0 -0.40625 -0.28125 -0.640625q-0.28125 -0.25 -0.875 -0.390625l-1.34375 -0.28125q-1.8125 -0.40625 -1.8125 -1.875q0 -0.96875 0.765625 -1.546875q0.78125 -0.59375 2.015625 -0.59375q0.640625 0 1.21875 0.171875q0.59375 0.15625 1.0625 0.53125q0.25 0.171875 0.21875 0.421875q-0.03125 0.25 -0.234375 0.390625q-0.1875 0.140625 -0.46875 -0.046875q-0.4375 -0.28125 -0.90625 -0.421875q-0.453125 -0.140625 -0.890625 -0.140625q-0.8125 0 -1.25 0.328125q-0.421875 0.3125 -0.421875 0.84375q0 0.8125 1.09375 1.046875l1.328125 0.28125q0.9375 0.203125 1.421875 0.65625q0.484375 0.453125 0.484375 1.203125q0 0.984375 -0.78125 1.546875q-0.765625 0.5625 -2.0625 0.5625zm5.237152 -8.96875q-0.7812195 0 -0.7812195 -0.734375q0 -0.703125 0.7812195 -0.703125q0.78125 0 0.78125 0.703125q0 0.734375 -0.78125 0.734375zm0 8.921875q-0.59375 0 -0.59375 -0.65625l0 -5.984375q0 -0.640625 0.59375 -0.640625q0.59375 0 0.59375 0.640625l0 5.984375q0 0.65625 -0.59375 0.65625zm5.9627686 2.6875q-0.78125 0 -1.515625 -0.1875q-0.734375 -0.171875 -1.34375 -0.5625q-0.21875 -0.140625 -0.265625 -0.328125q-0.03125 -0.171875 0.0625 -0.34375q0.09375 -0.171875 0.25 -0.25q0.171875 -0.0625 0.359375 0.03125q0.65625 0.40625 1.234375 0.546875q0.59375 0.140625 1.15625 0.140625q2.109375 0 2.109375 -2.171875l0 -1.25q-0.296875 0.671875 -0.953125 1.0625q-0.65625 0.390625 -1.484375 0.390625q-0.984375 0 -1.703125 -0.453125q-0.71875 -0.453125 -1.109375 -1.25q-0.390625 -0.8125 -0.390625 -1.859375q0 -1.0625 0.390625 -1.859375q0.390625 -0.796875 1.109375 -1.234375q0.71875 -0.4375 1.703125 -0.4375q0.828125 0 1.46875 0.375q0.65625 0.359375 0.953125 1.015625l0 -0.765625q0 -0.59375 0.59375 -0.59375q0.578125 0 0.578125 0.59375l0 6.109375q0 1.640625 -0.8125 2.453125q-0.8125 0.828125 -2.390625 0.828125zm-0.171875 -3.890625q1.015625 0 1.609375 -0.703125q0.609375 -0.703125 0.609375 -1.890625q0 -1.1875 -0.609375 -1.875q-0.59375 -0.703125 -1.609375 -0.703125q-1.015625 0 -1.625 0.703125q-0.59375 0.6875 -0.59375 1.875q0 1.1875 0.59375 1.890625q0.609375 0.703125 1.625 0.703125zm6.197998 1.234375q-0.59375 0 -0.59375 -0.625l0 -6.109375q0 -0.59375 0.578125 -0.59375q0.578125 0 0.578125 0.59375l0 0.71875q0.359375 -0.671875 1.0 -1.0q0.640625 -0.34375 1.453125 -0.34375q2.53125 0 2.53125 2.8125l0 3.921875q0 0.625 -0.578125 0.625q-0.609375 0 -0.609375 -0.625l0 -3.859375q0 -0.984375 -0.390625 -1.4375q-0.375 -0.46875 -1.234375 -0.46875q-0.984375 0 -1.5625 0.609375q-0.578125 0.59375 -0.578125 1.609375l0 3.546875q0 0.625 -0.59375 0.625zm9.981018 0.015625q-0.734375 0 -1.3125 -0.28125q-0.578125 -0.28125 -0.921875 -0.78125q-0.328125 -0.5 -0.328125 -1.109375q0 -0.78125 0.390625 -1.234375q0.40625 -0.453125 1.328125 -0.65625q0.9375 -0.203125 2.5625 -0.203125l0.46875 0l0 -0.453125q0 -0.90625 -0.375 -1.296875q-0.375 -0.40625 -1.203125 -0.40625q-0.515625 0 -1.03125 0.140625q-0.515625 0.125 -1.078125 0.40625q-0.25 0.140625 -0.421875 0.0625q-0.15625 -0.09375 -0.234375 -0.265625q-0.0625 -0.1875 0 -0.375q0.078125 -0.203125 0.296875 -0.3125q0.625 -0.328125 1.265625 -0.46875q0.640625 -0.140625 1.203125 -0.140625q1.375 0 2.046875 0.671875q0.671875 0.671875 0.671875 2.09375l0 3.96875q0 0.625 -0.546875 0.625q-0.578125 0 -0.578125 -0.625l0 -0.71875q-0.265625 0.640625 -0.84375 1.0q-0.578125 0.359375 -1.359375 0.359375zm0.1875 -0.890625q0.875 0 1.4375 -0.609375q0.5625 -0.609375 0.5625 -1.546875l0 -0.4375l-0.46875 0q-1.171875 0 -1.859375 0.109375q-0.6875 0.109375 -0.953125 0.390625q-0.265625 0.265625 -0.265625 0.734375q0 0.59375 0.40625 0.984375q0.421875 0.375 1.140625 0.375zm7.5021973 0.890625q-1.046875 0 -1.609375 -0.625q-0.5625 -0.640625 -0.5625 -1.859375l0 -7.46875q0 -0.609375 0.59375 -0.609375q0.59375 0 0.59375 0.609375l0 7.375q0 1.578125 1.25 1.578125q0.125 0 0.234375 -0.015625q0.109375 -0.015625 0.203125 -0.015625q0.15625 -0.015625 0.21875 0.078125q0.078125 0.078125 0.078125 0.34375q0 0.5 -0.5 0.578125q-0.109375 0.03125 -0.25 0.03125q-0.125 0 -0.25 0zm8.979004 0q-1.078125 0 -1.859375 -0.453125q-0.765625 -0.46875 -1.1875 -1.3125q-0.421875 -0.84375 -0.421875 -1.96875q0 -1.703125 0.921875 -2.671875q0.921875 -0.96875 2.546875 -0.96875q0.515625 0 1.078125 0.171875q0.578125 0.15625 1.046875 0.546875q0.25 0.171875 0.21875 0.4375q-0.03125 0.265625 -0.25 0.40625q-0.203125 0.125 -0.484375 -0.078125q-0.40625 -0.28125 -0.796875 -0.390625q-0.375 -0.125 -0.75 -0.125q-1.109375 0 -1.71875 0.703125q-0.59375 0.6875 -0.59375 1.984375q0 1.28125 0.59375 2.03125q0.609375 0.734375 1.71875 0.734375q0.375 0 0.75 -0.109375q0.390625 -0.125 0.796875 -0.421875q0.28125 -0.1875 0.484375 -0.046875q0.203125 0.125 0.21875 0.390625q0.03125 0.265625 -0.203125 0.421875q-0.46875 0.390625 -1.03125 0.5625q-0.5625 0.15625 -1.078125 0.15625zm6.576721 0q-1.046875 0 -1.8125 -0.453125q-0.75 -0.453125 -1.171875 -1.28125q-0.421875 -0.828125 -0.421875 -1.953125q0 -1.125 0.421875 -1.953125q0.421875 -0.828125 1.171875 -1.28125q0.765625 -0.453125 1.8125 -0.453125q1.015625 0 1.78125 0.453125q0.78125 0.453125 1.1875 1.28125q0.421875 0.828125 0.421875 1.953125q0 1.125 -0.421875 1.953125q-0.40625 0.828125 -1.1875 1.28125q-0.765625 0.453125 -1.78125 0.453125zm0 -0.953125q1.0 0 1.59375 -0.703125q0.59375 -0.71875 0.59375 -2.03125q0 -1.328125 -0.59375 -2.03125q-0.59375 -0.703125 -1.59375 -0.703125q-1.015625 0 -1.609375 0.703125q-0.59375 0.703125 -0.59375 2.03125q0 1.3125 0.59375 2.03125q0.59375 0.703125 1.609375 0.703125zm5.7738647 0.9375q-0.59375 0 -0.59375 -0.625l0 -6.109375q0 -0.59375 0.578125 -0.59375q0.578125 0 0.578125 0.59375l0 0.71875q0.359375 -0.671875 1.0 -1.0q0.640625 -0.34375 1.453125 -0.34375q2.53125 0 2.53125 2.8125l0 3.921875q0 0.625 -0.578125 0.625q-0.609375 0 -0.609375 -0.625l0 -3.859375q0 -0.984375 -0.390625 -1.4375q-0.375 -0.46875 -1.234375 -0.46875q-0.984375 0 -1.5625 0.609375q-0.578125 0.59375 -0.578125 1.609375l0 3.546875q0 0.625 -0.59375 0.625zm8.324829 0q-0.59375 0 -0.59375 -0.625l0 -6.109375q0 -0.59375 0.578125 -0.59375q0.578125 0 0.578125 0.59375l0 0.71875q0.359375 -0.671875 1.0 -1.0q0.640625 -0.34375 1.453125 -0.34375q2.53125 0 2.53125 2.8125l0 3.921875q0 0.625 -0.578125 0.625q-0.609375 0 -0.609375 -0.625l0 -3.859375q0 -0.984375 -0.390625 -1.4375q-0.375 -0.46875 -1.234375 -0.46875q-0.984375 0 -1.5625 0.609375q-0.578125 0.59375 -0.578125 1.609375l0 3.546875q0 0.625 -0.59375 0.625zm10.949768 0.015625q-1.6875 0 -2.671875 -0.984375q-0.984375 -0.984375 -0.984375 -2.6875q0 -1.09375 0.4375 -1.9375q0.4375 -0.84375 1.203125 -1.296875q0.78125 -0.46875 1.796875 -0.46875q1.453125 0 2.265625 0.9375q0.828125 0.921875 0.828125 2.546875q0 0.453125 -0.515625 0.453125l-4.859375 0q0.0625 1.21875 0.703125 1.859375q0.65625 0.625 1.796875 0.625q0.484375 0 0.96875 -0.109375q0.5 -0.125 0.96875 -0.453125q0.34375 -0.21875 0.5625 -0.078125q0.234375 0.125 0.234375 0.390625q0.015625 0.265625 -0.296875 0.484375q-0.484375 0.34375 -1.15625 0.53125q-0.65625 0.1875 -1.28125 0.1875zm-0.1875 -6.5q-1.015625 0 -1.609375 0.640625q-0.578125 0.625 -0.6875 1.640625l4.328125 0q-0.046875 -1.078125 -0.578125 -1.671875q-0.515625 -0.609375 -1.453125 -0.609375zm7.797119 6.5q-1.078125 0 -1.859375 -0.453125q-0.765625 -0.46875 -1.1875 -1.3125q-0.421875 -0.84375 -0.421875 -1.96875q0 -1.703125 0.921875 -2.671875q0.921875 -0.96875 2.546875 -0.96875q0.515625 0 1.078125 0.171875q0.578125 0.15625 1.046875 0.546875q0.25 0.171875 0.21875 0.4375q-0.03125 0.265625 -0.25 0.40625q-0.203125 0.125 -0.484375 -0.078125q-0.40625 -0.28125 -0.796875 -0.390625q-0.375 -0.125 -0.75 -0.125q-1.109375 0 -1.71875 0.703125q-0.59375 0.6875 -0.59375 1.984375q0 1.28125 0.59375 2.03125q0.609375 0.734375 1.71875 0.734375q0.375 0 0.75 -0.109375q0.390625 -0.125 0.796875 -0.421875q0.28125 -0.1875 0.484375 -0.046875q0.203125 0.125 0.21875 0.390625q0.03125 0.265625 -0.203125 0.421875q-0.46875 0.390625 -1.03125 0.5625q-0.5625 0.15625 -1.078125 0.15625zm6.6140137 0q-1.25 0 -1.890625 -0.65625q-0.625 -0.671875 -0.625 -1.9375l0 -3.734375l-0.984375 0q-0.515625 0 -0.515625 -0.46875q0 -0.453125 0.515625 -0.453125l0.984375 0l0 -1.6875q0 -0.59375 0.59375 -0.59375q0.59375 0 0.59375 0.59375l0 1.6875l1.84375 0q0.515625 0 0.515625 0.453125q0 0.46875 -0.515625 0.46875l-1.84375 0l0 3.625q0 0.828125 0.34375 1.265625q0.359375 0.4375 1.15625 0.4375q0.265625 0 0.453125 -0.0625q0.203125 -0.0625 0.34375 -0.0625q0.140625 -0.015625 0.21875 0.09375q0.09375 0.09375 0.09375 0.34375q0 0.1875 -0.078125 0.328125q-0.0625 0.140625 -0.21875 0.203125q-0.171875 0.0625 -0.46875 0.109375q-0.28125 0.046875 -0.515625 0.046875zm2.9520874 -8.96875q-0.78125 0 -0.78125 -0.734375q0 -0.703125 0.78125 -0.703125q0.78125 0 0.78125 0.703125q0 0.734375 -0.78125 0.734375zm0 8.921875q-0.59375 0 -0.59375 -0.65625l0 -5.984375q0 -0.640625 0.59375 -0.640625q0.59375 0 0.59375 0.640625l0 5.984375q0 0.65625 -0.59375 0.65625zm5.7752686 0.046875q-1.046875 0 -1.8125 -0.453125q-0.75 -0.453125 -1.171875 -1.28125q-0.421875 -0.828125 -0.421875 -1.953125q0 -1.125 0.421875 -1.953125q0.421875 -0.828125 1.171875 -1.28125q0.765625 -0.453125 1.8125 -0.453125q1.015625 0 1.78125 0.453125q0.78125 0.453125 1.1875 1.28125q0.421875 0.828125 0.421875 1.953125q0 1.125 -0.421875 1.953125q-0.40625 0.828125 -1.1875 1.28125q-0.765625 0.453125 -1.78125 0.453125zm0 -0.953125q1.0 0 1.59375 -0.703125q0.59375 -0.71875 0.59375 -2.03125q0 -1.328125 -0.59375 -2.03125q-0.59375 -0.703125 -1.59375 -0.703125q-1.015625 0 -1.609375 0.703125q-0.59375 0.703125 -0.59375 2.03125q0 1.3125 0.59375 2.03125q0.59375 0.703125 1.609375 0.703125zm5.773926 0.9375q-0.59375 0 -0.59375 -0.625l0 -6.109375q0 -0.59375 0.578125 -0.59375q0.578125 0 0.578125 0.59375l0 0.71875q0.359375 -0.671875 1.0 -1.0q0.640625 -0.34375 1.453125 -0.34375q2.53125 0 2.53125 2.8125l0 3.921875q0 0.625 -0.578125 0.625q-0.609375 0 -0.609375 -0.625l0 -3.859375q0 -0.984375 -0.390625 -1.4375q-0.375 -0.46875 -1.234375 -0.46875q-0.984375 0 -1.5625 0.609375q-0.578125 0.59375 -0.578125 1.609375l0 3.546875q0 0.625 -0.59375 0.625z" fill-rule="nonzero"/><path fill="#000000" fill-opacity="0.0" d="m500.87897 214.50555l138.77167 0l0 37.16536l-138.77167 0z" fill-rule="evenodd"/><path fill="#ffffff" d="m513.4571 237.69493q-0.546875 0 -0.75 -0.5625l-2.1875 -5.9375q-0.140625 -0.375 0.015625 -0.59375q0.15625 -0.234375 0.484375 -0.234375q0.21875 0 0.359375 0.109375q0.140625 0.09375 0.234375 0.375l1.875 5.34375l1.9375 -5.34375q0.171875 -0.484375 0.65625 -0.484375q0.46875 0 0.640625 0.484375l1.90625 5.359375l1.90625 -5.390625q0.09375 -0.265625 0.234375 -0.359375q0.140625 -0.09375 0.359375 -0.09375q0.359375 0 0.453125 0.25q0.109375 0.25 -0.015625 0.578125l-2.1875 5.9375q-0.21875 0.5625 -0.75 0.5625q-0.546875 0 -0.734375 -0.5625l-1.84375 -5.078125l-1.84375 5.078125q-0.203125 0.5625 -0.75 0.5625zm12.973267 0.015625q-1.6875 0 -2.671875 -0.984375q-0.984375 -0.984375 -0.984375 -2.6875q0 -1.09375 0.4375 -1.9375q0.4375 -0.84375 1.203125 -1.296875q0.78125 -0.46875 1.796875 -0.46875q1.453125 0 2.265625 0.9375q0.828125 0.921875 0.828125 2.546875q0 0.453125 -0.515625 0.453125l-4.859375 0q0.0625 1.21875 0.703125 1.859375q0.65625 0.625 1.796875 0.625q0.484375 0 0.96875 -0.109375q0.5 -0.125 0.96875 -0.453125q0.34375 -0.21875 0.5625 -0.078125q0.234375 0.125 0.234375 0.390625q0.015625 0.265625 -0.296875 0.484375q-0.484375 0.34375 -1.15625 0.53125q-0.65625 0.1875 -1.28125 0.1875zm-0.1875 -6.5q-1.015625 0 -1.609375 0.640625q-0.578125 0.625 -0.6875 1.640625l4.328125 0q-0.046875 -1.078125 -0.578125 -1.671875q-0.515625 -0.609375 -1.453125 -0.609375zm8.375305 6.5q-0.828125 0 -1.484375 -0.359375q-0.640625 -0.375 -0.953125 -1.046875l0 0.765625q0 0.625 -0.578125 0.625q-0.59375 0 -0.59375 -0.625l0 -9.3125q0 -0.609375 0.59375 -0.609375q0.59375 0 0.59375 0.609375l0 3.9375q0.3125 -0.625 0.953125 -0.984375q0.65625 -0.375 1.46875 -0.375q0.953125 0 1.65625 0.453125q0.71875 0.4375 1.109375 1.265625q0.390625 0.828125 0.390625 1.96875q0 1.125 -0.390625 1.953125q-0.390625 0.828125 -1.109375 1.28125q-0.703125 0.453125 -1.65625 0.453125zm-0.25 -0.953125q1.0 0 1.59375 -0.703125q0.609375 -0.71875 0.609375 -2.03125q0 -1.328125 -0.609375 -2.03125q-0.59375 -0.703125 -1.59375 -0.703125q-1.0 0 -1.609375 0.703125q-0.59375 0.703125 -0.59375 2.03125q0 1.3125 0.59375 2.03125q0.609375 0.703125 1.609375 0.703125zm7.5914917 0.953125q-0.65625 0 -1.328125 -0.15625q-0.65625 -0.171875 -1.234375 -0.5625q-0.265625 -0.15625 -0.265625 -0.40625q0.015625 -0.265625 0.203125 -0.40625q0.1875 -0.140625 0.484375 0q0.578125 0.34375 1.109375 0.484375q0.53125 0.140625 1.0625 0.140625q0.828125 0 1.25 -0.296875q0.4375 -0.3125 0.4375 -0.84375q0 -0.40625 -0.28125 -0.640625q-0.28125 -0.25 -0.875 -0.390625l-1.34375 -0.28125q-1.8125 -0.40625 -1.8125 -1.875q0 -0.96875 0.765625 -1.546875q0.78125 -0.59375 2.015625 -0.59375q0.640625 0 1.21875 0.171875q0.59375 0.15625 1.0625 0.53125q0.25 0.171875 0.21875 0.421875q-0.03125 0.25 -0.234375 0.390625q-0.1875 0.140625 -0.46875 -0.046875q-0.4375 -0.28125 -0.90625 -0.421875q-0.453125 -0.140625 -0.890625 -0.140625q-0.8125 0 -1.25 0.328125q-0.421875 0.3125 -0.421875 0.84375q0 0.8125 1.09375 1.046875l1.328125 0.28125q0.9375 0.203125 1.421875 0.65625q0.484375 0.453125 0.484375 1.203125q0 0.984375 -0.78125 1.546875q-0.765625 0.5625 -2.0625 0.5625zm7.6121826 0q-1.046875 0 -1.8125 -0.453125q-0.75 -0.453125 -1.171875 -1.28125q-0.421875 -0.828125 -0.421875 -1.953125q0 -1.125 0.421875 -1.953125q0.421875 -0.828125 1.171875 -1.28125q0.765625 -0.453125 1.8125 -0.453125q1.015625 0 1.78125 0.453125q0.78125 0.453125 1.1875 1.28125q0.421875 0.828125 0.421875 1.953125q0 1.125 -0.421875 1.953125q-0.40625 0.828125 -1.1875 1.28125q-0.765625 0.453125 -1.78125 0.453125zm0 -0.953125q1.0 0 1.59375 -0.703125q0.59375 -0.71875 0.59375 -2.03125q0 -1.328125 -0.59375 -2.03125q-0.59375 -0.703125 -1.59375 -0.703125q-1.015625 0 -1.609375 0.703125q-0.59375 0.703125 -0.59375 2.03125q0 1.3125 0.59375 2.03125q0.59375 0.703125 1.609375 0.703125zm8.211426 0.953125q-1.078125 0 -1.859375 -0.453125q-0.765625 -0.46875 -1.1875 -1.3125q-0.421875 -0.84375 -0.421875 -1.96875q0 -1.703125 0.921875 -2.671875q0.921875 -0.96875 2.546875 -0.96875q0.515625 0 1.078125 0.171875q0.578125 0.15625 1.046875 0.546875q0.25 0.171875 0.21875 0.4375q-0.03125 0.265625 -0.25 0.40625q-0.203125 0.125 -0.484375 -0.078125q-0.40625 -0.28125 -0.796875 -0.390625q-0.375 -0.125 -0.75 -0.125q-1.109375 0 -1.71875 0.703125q-0.59375 0.6875 -0.59375 1.984375q0 1.28125 0.59375 2.03125q0.609375 0.734375 1.71875 0.734375q0.375 0 0.75 -0.109375q0.390625 -0.125 0.796875 -0.421875q0.28125 -0.1875 0.484375 -0.046875q0.203125 0.125 0.21875 0.390625q0.03125 0.265625 -0.203125 0.421875q-0.46875 0.390625 -1.03125 0.5625q-0.5625 0.15625 -1.078125 0.15625zm4.3483887 -0.015625q-0.59375 0 -0.59375 -0.625l0 -9.3125q0 -0.609375 0.59375 -0.609375q0.59375 0 0.59375 0.609375l0 5.875l0.03125 0l3.0 -2.875q0.203125 -0.1875 0.359375 -0.28125q0.15625 -0.109375 0.421875 -0.109375q0.359375 0 0.46875 0.265625q0.109375 0.265625 -0.15625 0.546875l-2.859375 2.71875l3.140625 2.9375q0.296875 0.296875 0.15625 0.578125q-0.125 0.28125 -0.453125 0.28125q-0.265625 0 -0.4375 -0.109375q-0.171875 -0.125 -0.390625 -0.34375l-3.25 -3.0l-0.03125 0l0 2.828125q0 0.625 -0.59375 0.625zm9.762451 0.015625q-1.6875 0 -2.671875 -0.984375q-0.984375 -0.984375 -0.984375 -2.6875q0 -1.09375 0.4375 -1.9375q0.4375 -0.84375 1.203125 -1.296875q0.78125 -0.46875 1.796875 -0.46875q1.453125 0 2.265625 0.9375q0.828125 0.921875 0.828125 2.546875q0 0.453125 -0.515625 0.453125l-4.859375 0q0.0625 1.21875 0.703125 1.859375q0.65625 0.625 1.796875 0.625q0.484375 0 0.96875 -0.109375q0.5 -0.125 0.96875 -0.453125q0.34375 -0.21875 0.5625 -0.078125q0.234375 0.125 0.234375 0.390625q0.015625 0.265625 -0.296875 0.484375q-0.484375 0.34375 -1.15625 0.53125q-0.65625 0.1875 -1.28125 0.1875zm-0.1875 -6.5q-1.015625 0 -1.609375 0.640625q-0.578125 0.625 -0.6875 1.640625l4.328125 0q-0.046875 -1.078125 -0.578125 -1.671875q-0.515625 -0.609375 -1.453125 -0.609375zm7.625305 6.5q-1.25 0 -1.890625 -0.65625q-0.625 -0.671875 -0.625 -1.9375l0 -3.734375l-0.984375 0q-0.515625 0 -0.515625 -0.46875q0 -0.453125 0.515625 -0.453125l0.984375 0l0 -1.6875q0 -0.59375 0.59375 -0.59375q0.59375 0 0.59375 0.59375l0 1.6875l1.84375 0q0.515625 0 0.515625 0.453125q0 0.46875 -0.515625 0.46875l-1.84375 0l0 3.625q0 0.828125 0.34375 1.265625q0.359375 0.4375 1.15625 0.4375q0.265625 0 0.453125 -0.0625q0.203125 -0.0625 0.34375 -0.0625q0.140625 -0.015625 0.21875 0.09375q0.09375 0.09375 0.09375 0.34375q0 0.1875 -0.078125 0.328125q-0.0625 0.140625 -0.21875 0.203125q-0.171875 0.0625 -0.46875 0.109375q-0.28125 0.046875 -0.515625 0.046875zm9.348511 -0.015625q-0.59375 0 -0.59375 -0.640625l0 -8.765625l-3.296875 0q-0.5625 0 -0.5625 -0.515625q0 -0.515625 0.5625 -0.515625l7.8125 0q0.546875 0 0.546875 0.515625q0 0.515625 -0.546875 0.515625l-3.296875 0l0 8.765625q0 0.640625 -0.625 0.640625zm6.307434 -0.109375q-0.609375 0 -0.609375 -0.625l0 -9.15625q0 -0.625 0.59375 -0.625q0.609375 0 0.609375 0.625l0 8.71875l4.796875 0q0.5625 0 0.5625 0.53125q0 0.53125 -0.5625 0.53125l-5.390625 0zm10.413147 0.125q-1.046875 0 -1.984375 -0.25q-0.921875 -0.25 -1.59375 -0.75q-0.234375 -0.171875 -0.28125 -0.390625q-0.046875 -0.21875 0.046875 -0.40625q0.09375 -0.1875 0.28125 -0.25q0.203125 -0.078125 0.453125 0.09375q0.65625 0.484375 1.390625 0.6875q0.75 0.203125 1.6875 0.203125q1.328125 0 1.953125 -0.484375q0.640625 -0.5 0.640625 -1.296875q0 -0.65625 -0.46875 -1.03125q-0.453125 -0.390625 -1.53125 -0.609375l-1.53125 -0.296875q-1.375 -0.296875 -2.0625 -0.953125q-0.671875 -0.671875 -0.671875 -1.796875q0 -0.921875 0.46875 -1.609375q0.484375 -0.6875 1.328125 -1.0625q0.859375 -0.390625 1.96875 -0.390625q0.921875 0 1.71875 0.265625q0.796875 0.25 1.453125 0.765625q0.203125 0.15625 0.234375 0.375q0.046875 0.203125 -0.0625 0.390625q-0.109375 0.171875 -0.296875 0.234375q-0.1875 0.046875 -0.453125 -0.125q-0.578125 -0.453125 -1.21875 -0.640625q-0.640625 -0.1875 -1.390625 -0.1875q-1.15625 0 -1.84375 0.53125q-0.6875 0.53125 -0.6875 1.40625q0 0.71875 0.421875 1.125q0.4375 0.40625 1.421875 0.59375l1.53125 0.328125q1.46875 0.3125 2.171875 0.9375q0.71875 0.609375 0.71875 1.6875q0 0.859375 -0.46875 1.53125q-0.453125 0.65625 -1.3125 1.015625q-0.84375 0.359375 -2.03125 0.359375z" fill-rule="nonzero"/><path fill="#000000" fill-opacity="0.0" d="m694.1712 185.2391c0 -74.81471 -96.99213 -134.05069 -193.98425 -149.62943c-96.99213 -15.578739 -193.98425 12.49976 -193.98425 24.999516" fill-rule="evenodd"/><path stroke="#5a8bff" stroke-width="2.0" stroke-linejoin="round" stroke-linecap="butt" d="m694.1712 185.2391c0 -74.814705 -96.99213 -134.05069 -193.98422 -149.62943c-48.496063 -7.7893715 -96.99213 -4.6644325 -133.3642 1.9703178c-18.186005 3.3173752 -33.341064 7.512207 -43.949554 11.658928c-2.6521301 1.0366783 -5.020111 2.0703468 -7.080261 3.0865593l-0.6211853 0.3115654" fill-rule="evenodd"/><path fill="#5a8bff" stroke="#5a8bff" stroke-width="2.0" stroke-linecap="butt" d="m312.97717 50.16795l-4.589142 8.498825l8.978424 -3.5606346z" fill-rule="evenodd"/><path fill="#000000" fill-opacity="0.0" d="m433.5517 1.7955415l230.67719 0l0 37.165356l-230.67719 0z" fill-rule="evenodd"/><path fill="#ffffff" d="m447.14545 24.984917q-0.484375 0 -0.6875 -0.5625l-3.25 -9.25q-0.09375 -0.328125 0.046875 -0.53125q0.140625 -0.203125 0.5 -0.203125q0.46875 0 0.640625 0.515625l2.765625 8.15625l2.84375 -8.109375q0.203125 -0.5625 0.65625 -0.5625q0.234375 0 0.375 0.140625q0.140625 0.140625 0.234375 0.421875l2.8125 8.1875l2.84375 -8.234375q0.15625 -0.515625 0.640625 -0.515625q0.296875 0 0.4375 0.203125q0.140625 0.203125 0.03125 0.53125l-3.25 9.25q-0.09375 0.28125 -0.25 0.421875q-0.15625 0.140625 -0.4375 0.140625q-0.265625 0 -0.421875 -0.140625q-0.15625 -0.140625 -0.265625 -0.421875l-2.78125 -8.046875l-2.8125 8.046875q-0.109375 0.28125 -0.265625 0.421875q-0.140625 0.140625 -0.40625 0.140625zm15.005646 0.015625q-1.6875 0 -2.671875 -0.984375q-0.984375 -0.984375 -0.984375 -2.6875q0 -1.09375 0.4375 -1.9375q0.4375 -0.84375 1.203125 -1.296875q0.78125 -0.46875 1.796875 -0.46875q1.453125 0 2.265625 0.9375q0.828125 0.921875 0.828125 2.546875q0 0.453125 -0.515625 0.453125l-4.859375 0q0.0625 1.21875 0.703125 1.859375q0.65625 0.625 1.796875 0.625q0.484375 0 0.96875 -0.109375q0.5 -0.125 0.96875 -0.453125q0.34375 -0.21875 0.5625 -0.078125q0.234375 0.125 0.234375 0.390625q0.015625 0.265625 -0.296875 0.484375q-0.484375 0.34375 -1.15625 0.53125q-0.65625 0.1875 -1.28125 0.1875zm-0.1875 -6.5q-1.015625 0 -1.609375 0.640625q-0.578125 0.625 -0.6875 1.640625l4.328125 0q-0.046875 -1.078125 -0.578125 -1.671875q-0.515625 -0.609375 -1.453125 -0.609375zm8.375275 6.5q-0.828125 0 -1.484375 -0.359375q-0.640625 -0.375 -0.953125 -1.046875l0 0.765625q0 0.625 -0.578125 0.625q-0.59375 0 -0.59375 -0.625l0 -9.3125q0 -0.609375 0.59375 -0.609375q0.59375 0 0.59375 0.609375l0 3.9375q0.3125 -0.625 0.953125 -0.984375q0.65625 -0.375 1.46875 -0.375q0.953125 0 1.65625 0.453125q0.71875 0.4375 1.109375 1.265625q0.390625 0.828125 0.390625 1.96875q0 1.125 -0.390625 1.953125q-0.390625 0.828125 -1.109375 1.28125q-0.703125 0.453125 -1.65625 0.453125zm-0.25 -0.953125q1.0 0 1.59375 -0.703125q0.609375 -0.71875 0.609375 -2.03125q0 -1.328125 -0.609375 -2.03125q-0.59375 -0.703125 -1.59375 -0.703125q-1.0 0 -1.609375 0.703125q-0.59375 0.703125 -0.59375 2.03125q0 1.3125 0.59375 2.03125q0.609375 0.703125 1.609375 0.703125zm5.9508667 0.9375q-0.59375 0 -0.59375 -0.640625l0 -9.1875q0 -0.609375 0.609375 -0.609375l3.46875 0q1.671875 0 2.5625 0.78125q0.890625 0.765625 0.890625 2.203125q0 1.140625 -0.625 1.875q-0.625 0.734375 -1.765625 0.953125q0.671875 0.234375 1.15625 1.140625l1.40625 2.625q0.15625 0.3125 0.046875 0.59375q-0.09375 0.265625 -0.453125 0.265625q-0.25 0 -0.421875 -0.109375q-0.15625 -0.125 -0.265625 -0.359375l-1.609375 -2.953125q-0.328125 -0.625 -0.765625 -0.84375q-0.4375 -0.21875 -1.15625 -0.21875l-1.875 0l0 3.84375q0 0.640625 -0.609375 0.640625zm0.609375 -5.421875l2.703125 0q2.4375 0 2.4375 -2.03125q0 -2.0 -2.4375 -2.0l-2.703125 0l0 4.03125zm11.433624 5.421875q-0.59375 0 -0.59375 -0.640625l0 -8.765625l-3.296875 0q-0.5625 0 -0.5625 -0.515625q0 -0.515625 0.5625 -0.515625l7.8125 0q0.546875 0 0.546875 0.515625q0 0.515625 -0.546875 0.515625l-3.296875 0l0 8.765625q0 0.640625 -0.625 0.640625zm9.521484 0.015625q-1.53125 0 -2.625 -0.640625q-1.078125 -0.640625 -1.65625 -1.828125q-0.578125 -1.1875 -0.578125 -2.828125q0 -1.625 0.578125 -2.8125q0.578125 -1.1875 1.65625 -1.828125q1.09375 -0.65625 2.625 -0.65625q0.90625 0 1.71875 0.265625q0.828125 0.265625 1.421875 0.75q0.25 0.171875 0.28125 0.40625q0.046875 0.234375 -0.078125 0.421875q-0.109375 0.1875 -0.328125 0.234375q-0.203125 0.046875 -0.46875 -0.140625q-1.046875 -0.828125 -2.515625 -0.828125q-1.75 0 -2.671875 1.09375q-0.921875 1.09375 -0.921875 3.09375q0 2.0 0.921875 3.109375q0.921875 1.09375 2.671875 1.09375q1.46875 0 2.546875 -0.84375q0.265625 -0.1875 0.46875 -0.140625q0.21875 0.046875 0.328125 0.234375q0.109375 0.171875 0.078125 0.390625q-0.03125 0.21875 -0.25 0.390625q-0.625 0.53125 -1.453125 0.796875q-0.8125 0.265625 -1.75 0.265625zm12.035645 0q-1.078125 0 -1.859375 -0.453125q-0.765625 -0.46875 -1.1875 -1.3125q-0.421875 -0.84375 -0.421875 -1.96875q0 -1.703125 0.921875 -2.671875q0.921875 -0.96875 2.546875 -0.96875q0.515625 0 1.078125 0.171875q0.578125 0.15625 1.046875 0.546875q0.25003052 0.171875 0.21875 0.4375q-0.03125 0.265625 -0.25 0.40625q-0.203125 0.125 -0.484375 -0.078125q-0.40625 -0.28125 -0.796875 -0.390625q-0.375 -0.125 -0.75 -0.125q-1.109375 0 -1.71875 0.703125q-0.59375 0.6875 -0.59375 1.984375q0 1.28125 0.59375 2.03125q0.609375 0.734375 1.71875 0.734375q0.375 0 0.75 -0.109375q0.390625 -0.125 0.796875 -0.421875q0.28125 -0.1875 0.484375 -0.046875q0.203125 0.125 0.21875 0.390625q0.03125 0.265625 -0.203125 0.421875q-0.46875 0.390625 -1.03125 0.5625q-0.5625 0.15625 -1.078125 0.15625zm6.5766907 0q-1.046875 0 -1.8125 -0.453125q-0.75 -0.453125 -1.171875 -1.28125q-0.421875 -0.828125 -0.421875 -1.953125q0 -1.125 0.421875 -1.953125q0.421875 -0.828125 1.171875 -1.28125q0.765625 -0.453125 1.8125 -0.453125q1.015625 0 1.78125 0.453125q0.78125 0.453125 1.1875 1.28125q0.421875 0.828125 0.421875 1.953125q0 1.125 -0.421875 1.953125q-0.40625 0.828125 -1.1875 1.28125q-0.765625 0.453125 -1.78125 0.453125zm0 -0.953125q1.0 0 1.59375 -0.703125q0.59375 -0.71875 0.59375 -2.03125q0 -1.328125 -0.59375 -2.03125q-0.59375 -0.703125 -1.59375 -0.703125q-1.015625 0 -1.609375 0.703125q-0.59375 0.703125 -0.59375 2.03125q0 1.3125 0.59375 2.03125q0.59375 0.703125 1.609375 0.703125zm5.773926 0.9375q-0.59375 0 -0.59375 -0.625l0 -6.109375q0 -0.59375 0.578125 -0.59375q0.578125 0 0.578125 0.59375l0 0.71875q0.359375 -0.671875 1.0 -1.0q0.640625 -0.34375 1.453125 -0.34375q2.53125 0 2.53125 2.8125l0 3.921875q0 0.625 -0.578125 0.625q-0.609375 0 -0.609375 -0.625l0 -3.859375q0 -0.984375 -0.390625 -1.4375q-0.375 -0.46875 -1.234375 -0.46875q-0.984375 0 -1.5625 0.609375q-0.578125 0.59375 -0.578125 1.609375l0 3.546875q0 0.625 -0.59375 0.625zm8.324768 0q-0.59375 0 -0.59375 -0.625l0 -6.109375q0 -0.59375 0.578125 -0.59375q0.578125 0 0.578125 0.59375l0 0.71875q0.359375 -0.671875 1.0 -1.0q0.640625 -0.34375 1.453125 -0.34375q2.53125 0 2.53125 2.8125l0 3.921875q0 0.625 -0.578125 0.625q-0.609375 0 -0.609375 -0.625l0 -3.859375q0 -0.984375 -0.390625 -1.4375q-0.375 -0.46875 -1.234375 -0.46875q-0.984375 0 -1.5625 0.609375q-0.578125 0.59375 -0.578125 1.609375l0 3.546875q0 0.625 -0.59375 0.625zm10.949829 0.015625q-1.6875 0 -2.671875 -0.984375q-0.984375 -0.984375 -0.984375 -2.6875q0 -1.09375 0.4375 -1.9375q0.4375 -0.84375 1.203125 -1.296875q0.78125 -0.46875 1.796875 -0.46875q1.453125 0 2.265625 0.9375q0.828125 0.921875 0.828125 2.546875q0 0.453125 -0.515625 0.453125l-4.859375 0q0.0625 1.21875 0.703125 1.859375q0.65625 0.625 1.796875 0.625q0.484375 0 0.96875 -0.109375q0.5 -0.125 0.96875 -0.453125q0.34375 -0.21875 0.5625 -0.078125q0.234375 0.125 0.234375 0.390625q0.015625 0.265625 -0.296875 0.484375q-0.484375 0.34375 -1.15625 0.53125q-0.65625 0.1875 -1.28125 0.1875zm-0.1875 -6.5q-1.015625 0 -1.609375 0.640625q-0.578125 0.625 -0.6875 1.640625l4.328125 0q-0.046875 -1.078125 -0.578125 -1.671875q-0.515625 -0.609375 -1.453125 -0.609375zm7.797119 6.5q-1.078125 0 -1.859375 -0.453125q-0.765625 -0.46875 -1.1875 -1.3125q-0.421875 -0.84375 -0.421875 -1.96875q0 -1.703125 0.921875 -2.671875q0.921875 -0.96875 2.546875 -0.96875q0.515625 0 1.078125 0.171875q0.578125 0.15625 1.046875 0.546875q0.25 0.171875 0.21875 0.4375q-0.03125 0.265625 -0.25 0.40625q-0.203125 0.125 -0.484375 -0.078125q-0.40625 -0.28125 -0.796875 -0.390625q-0.375 -0.125 -0.75 -0.125q-1.109375 0 -1.71875 0.703125q-0.59375 0.6875 -0.59375 1.984375q0 1.28125 0.59375 2.03125q0.609375 0.734375 1.71875 0.734375q0.375 0 0.75 -0.109375q0.390625 -0.125 0.796875 -0.421875q0.28125 -0.1875 0.484375 -0.046875q0.203125 0.125 0.21875 0.390625q0.03125 0.265625 -0.203125 0.421875q-0.46875 0.390625 -1.03125 0.5625q-0.5625 0.15625 -1.078125 0.15625zm6.6140137 0q-1.25 0 -1.890625 -0.65625q-0.625 -0.671875 -0.625 -1.9375l0 -3.734375l-0.984375 0q-0.515625 0 -0.515625 -0.46875q0 -0.453125 0.515625 -0.453125l0.984375 0l0 -1.6875q0 -0.59375 0.59375 -0.59375q0.59375 0 0.59375 0.59375l0 1.6875l1.84375 0q0.515625 0 0.515625 0.453125q0 0.46875 -0.515625 0.46875l-1.84375 0l0 3.625q0 0.828125 0.34375 1.265625q0.359375 0.4375 1.15625 0.4375q0.265625 0 0.453125 -0.0625q0.203125 -0.0625 0.34375 -0.0625q0.140625 -0.015625 0.21875 0.09375q0.09375 0.09375 0.09375 0.34375q0 0.1875 -0.078125 0.328125q-0.0625 0.140625 -0.21875 0.203125q-0.171875 0.0625 -0.46875 0.109375q-0.28125 0.046875 -0.515625 0.046875zm2.9520874 -8.96875q-0.78125 0 -0.78125 -0.734375q0 -0.703125 0.78125 -0.703125q0.78125 0 0.78125 0.703125q0 0.734375 -0.78125 0.734375zm0 8.921875q-0.59375 0 -0.59375 -0.65625l0 -5.984375q0 -0.640625 0.59375 -0.640625q0.59375 0 0.59375 0.640625l0 5.984375q0 0.65625 -0.59375 0.65625zm5.7752686 0.046875q-1.046875 0 -1.8125 -0.453125q-0.75 -0.453125 -1.171875 -1.28125q-0.421875 -0.828125 -0.421875 -1.953125q0 -1.125 0.421875 -1.953125q0.421875 -0.828125 1.171875 -1.28125q0.765625 -0.453125 1.8125 -0.453125q1.015625 0 1.78125 0.453125q0.78125 0.453125 1.1875 1.28125q0.421875 0.828125 0.421875 1.953125q0 1.125 -0.421875 1.953125q-0.40625 0.828125 -1.1875 1.28125q-0.765625 0.453125 -1.78125 0.453125zm0 -0.953125q1.0 0 1.59375 -0.703125q0.59375 -0.71875 0.59375 -2.03125q0 -1.328125 -0.59375 -2.03125q-0.59375 -0.703125 -1.59375 -0.703125q-1.015625 0 -1.609375 0.703125q-0.59375 0.703125 -0.59375 2.03125q0 1.3125 0.59375 2.03125q0.59375 0.703125 1.609375 0.703125zm5.7738647 0.9375q-0.59375 0 -0.59375 -0.625l0 -6.109375q0 -0.59375 0.578125 -0.59375q0.578125 0 0.578125 0.59375l0 0.71875q0.359375 -0.671875 1.0 -1.0q0.640625 -0.34375 1.453125 -0.34375q2.53125 0 2.53125 2.8125l0 3.921875q0 0.625 -0.578125 0.625q-0.609375 0 -0.609375 -0.625l0 -3.859375q0 -0.984375 -0.390625 -1.4375q-0.375 -0.46875 -1.234375 -0.46875q-0.984375 0 -1.5625 0.609375q-0.578125 0.59375 -0.578125 1.609375l0 3.546875q0 0.625 -0.59375 0.625zm15.746765 0.015625q-2.03125 0 -3.09375 -1.0625q-1.046875 -1.078125 -1.046875 -3.15625l0 -5.71875q0 -0.625 0.59375 -0.625q0.609375 0 0.609375 0.625l0 5.671875q0 3.203125 2.9375 3.203125q2.921875 0 2.921875 -3.203125l0 -5.671875q0 -0.625 0.609375 -0.625q0.59375 0 0.59375 0.625l0 5.71875q0 2.078125 -1.046875 3.15625q-1.046875 1.0625 -3.078125 1.0625zm7.26355 -0.125q-0.65625 0 -0.65625 -0.65625l0 -9.015625q0 -0.65625 0.65625 -0.65625l2.828125 0q2.5 0 3.859375 1.328125q1.375 1.3125 1.375 3.828125q0 2.5 -1.375 3.84375q-1.359375 1.328125 -3.859375 1.328125l-2.828125 0zm0.546875 -1.03125l2.1875 0q4.046875 0 4.046875 -4.140625q0 -4.140625 -4.046875 -4.140625l-2.1875 0l0 8.28125zm10.265564 1.140625q-0.59375 0 -0.59375 -0.640625l0 -9.1875q0 -0.609375 0.609375 -0.609375l3.46875 0q1.671875 0 2.5625 0.8125q0.890625 0.796875 0.890625 2.296875q0 1.46875 -0.890625 2.28125q-0.890625 0.8125 -2.5625 0.8125l-2.875 0l0 3.59375q0 0.640625 -0.609375 0.640625zm0.609375 -5.234375l2.734375 0q2.40625 0 2.40625 -2.09375q0 -2.125 -2.40625 -2.125l-2.734375 0l0 4.21875zm6.7402344 5.625q-0.09375 0.25 -0.28125 0.328125q-0.171875 0.078125 -0.359375 0.015625q-0.1875 -0.046875 -0.28125 -0.21875q-0.109375 -0.15625 -0.03125 -0.40625l3.484375 -10.8125q0.078125 -0.234375 0.25 -0.3125q0.1875 -0.09375 0.375 -0.03125q0.1875 0.046875 0.296875 0.21875q0.109375 0.171875 0.015625 0.40625l-3.46875 10.8125zm8.328186 -0.390625q-0.59375 0 -0.59375 -0.640625l0 -8.765625l-3.296875 0q-0.5625 0 -0.5625 -0.515625q0 -0.515625 0.5625 -0.515625l7.8125 0q0.546875 0 0.546875 0.515625q0 0.515625 -0.546875 0.515625l-3.296875 0l0 8.765625q0 0.640625 -0.625 0.640625zm9.521484 0.015625q-1.53125 0 -2.625 -0.640625q-1.078125 -0.640625 -1.65625 -1.828125q-0.578125 -1.1875 -0.578125 -2.828125q0 -1.625 0.578125 -2.8125q0.578125 -1.1875 1.65625 -1.828125q1.09375 -0.65625 2.625 -0.65625q0.90625 0 1.71875 0.265625q0.828125 0.265625 1.421875 0.75q0.25 0.171875 0.28125 0.40625q0.046875 0.234375 -0.078125 0.421875q-0.109375 0.1875 -0.328125 0.234375q-0.203125 0.046875 -0.46875 -0.140625q-1.046875 -0.828125 -2.515625 -0.828125q-1.75 0 -2.671875 1.09375q-0.921875 1.09375 -0.921875 3.09375q0 2.0 0.921875 3.109375q0.921875 1.09375 2.671875 1.09375q1.46875 0 2.546875 -0.84375q0.265625 -0.1875 0.46875 -0.140625q0.21875 0.046875 0.328125 0.234375q0.109375 0.171875 0.078125 0.390625q-0.03125 0.21875 -0.25 0.390625q-0.625 0.53125 -1.453125 0.796875q-0.8125 0.265625 -1.75 0.265625zm5.9887085 -0.015625q-0.59375 0 -0.59375 -0.640625l0 -9.1875q0 -0.609375 0.609375 -0.609375l3.46875 0q1.671875 0 2.5625 0.8125q0.890625 0.796875 0.890625 2.296875q0 1.46875 -0.890625 2.28125q-0.890625 0.8125 -2.5625 0.8125l-2.875 0l0 3.59375q0 0.640625 -0.609375 0.640625zm0.609375 -5.234375l2.734375 0q2.40625 0 2.40625 -2.09375q0 -2.125 -2.40625 -2.125l-2.734375 0l0 4.21875z" fill-rule="nonzero"/><path fill="#000000" fill-opacity="0.0" d="m450.52292 218.38872c-18.735657 0 -28.105164 -29.897644 -37.471313 -59.795273c-9.36615 -29.897644 -18.728912 -59.79528 -37.457825 -59.79528" fill-rule="evenodd"/><path stroke="#6ee2e2" stroke-width="2.0" stroke-linejoin="round" stroke-linecap="butt" stroke-dasharray="8.0,6.0" d="m450.52292 218.38872c-18.735687 0 -28.105194 -29.897644 -37.471313 -59.795273c-4.683075 -14.948822 -9.365326 -29.897644 -15.2178955 -41.109253c-2.9262695 -5.605812 -6.1451416 -10.277313 -9.8029785 -13.547371c-0.2286377 -0.20437622 -0.45895386 -0.40328217 -0.69104004 -0.59659576c-0.11605835 -0.0966568 -0.23254395 -0.19191742 -0.3494568 -0.2857666l-0.13644409 -0.10747528" fill-rule="evenodd"/><path fill="#6ee2e2" stroke="#6ee2e2" stroke-width="2.0" stroke-linecap="butt" d="m387.9959 99.84724l-9.65863 -0.038208008l7.374359 6.2377014z" fill-rule="evenodd"/><path fill="#000000" fill-opacity="0.0" d="m450.52292 218.38872c-18.735657 0 -28.105164 0.01574707 -37.471313 0.03149414c-9.36615 0.01574707 -18.728912 0.03149414 -37.457825 0.03149414" fill-rule="evenodd"/><path stroke="#6ee2e2" stroke-width="2.0" stroke-linejoin="round" stroke-linecap="butt" stroke-dasharray="8.0,6.0" d="m450.52292 218.38872c-18.735687 0 -28.105194 0.01574707 -37.471313 0.03149414c-4.683075 0.007873535 -9.365326 0.01574707 -15.2178955 0.021652222c-2.9262695 0.002960205 -6.1451416 0.00541687 -9.8029785 0.0071411133l-0.43695068 1.0681152E-4" fill-rule="evenodd"/><path fill="#6ee2e2" stroke="#6ee2e2" stroke-width="2.0" stroke-linecap="butt" d="m387.59308 215.14563l-9.07547 3.3054504l9.076904 3.3014832z" fill-rule="evenodd"/></g></svg>