<svg width="132" height="28" viewBox="0 0 132 28" fill="none" xmlns="http://www.w3.org/2000/svg">
<rect width="9.33331" height="9.33331" fill="#5BBFE4"/>
<rect y="9.33331" width="9.33331" height="9.33331" fill="#4A9EEB"/>
<rect y="18.6666" width="9.33331" height="9.33331" fill="#5A8BFF"/>
<rect x="9.33325" y="18.6666" width="9.33331" height="9.33331" fill="#4A9EEB"/>
<rect x="9.33325" y="9.33331" width="9.33331" height="9.33331" fill="#6EE2E2"/>
<rect x="18.6665" width="9.33331" height="9.33331" fill="#7AFAE1"/>
<rect x="18.6665" y="18.6666" width="9.33331" height="9.33331" fill="#5BBFE4"/>
<path d="M40 5.58625H44.1904V19.9683H51.725V23.5638H40V5.58625Z" fill="white"/>
<path d="M54.5539 9.85592H58.6649V23.5638H54.5539V9.85592ZM54.197 6.16788C54.197 5.87707 54.2542 5.59947 54.3688 5.3351C54.4834 5.07072 54.6464 4.8416 54.8579 4.64772C55.0782 4.44503 55.3382 4.28641 55.6378 4.17184C55.9374 4.05728 56.2723 4 56.6424 4C57.0126 4 57.3474 4.05728 57.6471 4.17184C57.9467 4.28641 58.2022 4.44503 58.4137 4.64772C58.6341 4.8416 58.8015 5.07072 58.9161 5.3351C59.0306 5.59947 59.0879 5.87707 59.0879 6.16788C59.0879 6.4675 59.0306 6.7495 58.9161 7.01388C58.8015 7.26944 58.6341 7.49416 58.4137 7.68804C58.2022 7.88191 57.9423 8.03613 57.6338 8.15069C57.3342 8.26526 56.9993 8.32254 56.6292 8.32254C56.2679 8.32254 55.9374 8.26526 55.6378 8.15069C55.3382 8.03613 55.0826 7.88191 54.8711 7.68804C54.6596 7.48535 54.4922 7.25622 54.3688 7.00066C54.2542 6.73629 54.197 6.45869 54.197 6.16788Z" fill="white"/>
<path d="M76.4045 9.85592L70.6543 23.5638H66.9927L61.2558 9.85592H65.6312L68.8037 18.0912H68.8301L72.0159 9.85592H76.4045Z" fill="white"/>
<path d="M77.4488 16.7165C77.4488 15.7118 77.6338 14.7689 78.004 13.8876C78.3741 12.9976 78.894 12.2221 79.5638 11.5611C80.2423 10.9002 81.0443 10.3803 81.9696 10.0013C82.9037 9.61357 83.9348 9.4197 85.0628 9.4197C86.1996 9.4197 87.2351 9.61357 88.1692 10.0013C89.1121 10.3803 89.9185 10.9002 90.5882 11.5611C91.2668 12.2221 91.7911 12.9976 92.1613 13.8876C92.5402 14.7689 92.7297 15.7118 92.7297 16.7165C92.7297 16.9985 92.7165 17.2188 92.69 17.3774C92.6724 17.536 92.6504 17.6946 92.6239 17.8533H81.5069C81.6215 18.2851 81.7978 18.6728 82.0357 19.0165C82.2824 19.3602 82.5644 19.6554 82.8817 19.9022C83.2078 20.1401 83.5558 20.3252 83.926 20.4574C84.3049 20.5896 84.6927 20.6557 85.0892 20.6557C85.7325 20.6557 86.2921 20.5191 86.768 20.2459C87.2439 19.9727 87.6052 19.6246 87.8519 19.2016H92.267C92.0643 19.8008 91.7559 20.3913 91.3417 20.9729C90.9275 21.5457 90.4164 22.0568 89.8083 22.5063C89.2003 22.9557 88.4953 23.317 87.6933 23.5902C86.9002 23.8634 86.0234 24 85.0628 24C83.9436 24 82.9169 23.8105 81.9828 23.4316C81.0487 23.0438 80.2467 22.5195 79.577 21.8586C78.9072 21.1976 78.3829 20.4265 78.004 19.5453C77.6338 18.6552 77.4488 17.7123 77.4488 16.7165ZM85.0892 12.6583C84.2344 12.6583 83.5118 12.8742 82.9213 13.306C82.3309 13.7378 81.9035 14.3062 81.6391 15.0112H88.3807C88.1251 14.315 87.7198 13.751 87.1646 13.3192C86.6094 12.8786 85.9176 12.6583 85.0892 12.6583Z" fill="white"/>
<path d="M100.053 14.6279L107.006 5.58625H111.87L105.565 13.5968L112.148 23.5638H107.204L102.842 16.6768L100.053 20.2062V23.5638H95.8625V5.58625H100.053V14.6279Z" fill="white"/>
<path d="M114.276 9.85592H118.387V23.5638H114.276V9.85592ZM113.919 6.16788C113.919 5.87707 113.977 5.59947 114.091 5.3351C114.206 5.07072 114.369 4.8416 114.58 4.64772C114.801 4.44503 115.061 4.28641 115.36 4.17184C115.66 4.05728 115.995 4 116.365 4C116.735 4 117.07 4.05728 117.369 4.17184C117.669 4.28641 117.925 4.44503 118.136 4.64772C118.356 4.8416 118.524 5.07072 118.638 5.3351C118.753 5.59947 118.81 5.87707 118.81 6.16788C118.81 6.4675 118.753 6.7495 118.638 7.01388C118.524 7.26944 118.356 7.49416 118.136 7.68804C117.925 7.88191 117.665 8.03613 117.356 8.15069C117.057 8.26526 116.722 8.32254 116.352 8.32254C115.99 8.32254 115.66 8.26526 115.36 8.15069C115.061 8.03613 114.805 7.88191 114.594 7.68804C114.382 7.48535 114.215 7.25622 114.091 7.00066C113.977 6.73629 113.919 6.45869 113.919 6.16788Z" fill="white"/>
<path d="M124.521 6.07535L127.455 6.04891V9.85592H131.434V13.3589H127.455V18.1705C127.455 18.5935 127.504 18.946 127.601 19.228C127.707 19.5012 127.843 19.7215 128.011 19.889C128.187 20.0476 128.394 20.1577 128.632 20.2194C128.87 20.2811 129.125 20.312 129.399 20.312H131.685L131.659 23.6563H129.002C128.235 23.6563 127.508 23.5902 126.821 23.458C126.142 23.317 125.547 23.0527 125.036 22.6649C124.525 22.2683 124.12 21.7176 123.82 21.0126C123.529 20.2987 123.384 19.3646 123.384 18.2102V13.3589H121.203V10.2393L123.278 9.44613L124.521 6.07535Z" fill="white"/>
</svg>
