<?xml version="1.0" encoding="UTF-8"?>
<!DOCTYPE svg PUBLIC "-//W3C//DTD SVG 1.1//EN" "http://www.w3.org/Graphics/SVG/1.1/DTD/svg11.dtd">
<!-- Creator: CorelDRAW -->
<svg xmlns="http://www.w3.org/2000/svg" xml:space="preserve" width="71.9666mm" height="71.9666mm" version="1.1" style="shape-rendering:geometricPrecision; text-rendering:geometricPrecision; image-rendering:optimizeQuality; fill-rule:evenodd; clip-rule:evenodd"
viewBox="0 0 7197 7197"
 xmlns:xlink="http://www.w3.org/1999/xlink">
 <defs>
  <style type="text/css">
   <![CDATA[
    .str0 {stroke:#373435;stroke-width:17.64}
    .fil0 {fill:none}
    .fil1 {fill:#333333}
    .fil2 {fill:white}
   ]]>
  </style>
 </defs>
<symbol id="Symbol1" viewBox="3459 3481 286 228">
 <line class="fil0 str0" x1="3678" y1="3490" x2="3736" y2= "3707" />
 <line class="fil0 str0" x1="3678" y1="3490" x2="3461" y2= "3548" />
</symbol>
 <g id="Layer_x0020_1">
  <metadata id="CorelCorpID_0Corel-Layer"/>
  <circle class="fil1" cx="3598" cy="3598" r="3598"/>
  <g id="_412273784">
   <g>
    <g>
     <path class="fil2" d="M4184 5767c-116,0 -236,-14 -352,-46 -423,-113 -758,-409 -920,-814 -113,-222 -363,-459 -543,-628 -187,-176 -250,-233 -205,-303 39,-60 85,-71 674,173 0,0 0,0 0,-4 -201,-271 -776,-839 -1016,-983 -21,-15 -31,-39 -28,-64 4,-25 21,-46 46,-49 201,-46 391,-21 536,14 -331,-293 -913,-889 -628,-1594 7,-21 29,-35 50,-39 24,-3 46,8 60,29 655,955 1269,1286 1452,1255 21,-4 25,-11 25,-14 10,-46 -57,-237 -490,-575 -21,-18 -28,-46 -21,-71 10,-24 31,-42 60,-38 458,21 941,585 1272,1019 28,0 57,0 85,0 -39,-247 -247,-441 -247,-445 -21,-17 -25,-45 -14,-70 11,-25 39,-39 63,-35 565,77 1210,761 1414,1494 169,603 18,1132 -419,1485 -247,201 -547,303 -854,303zm-1829 -1671c31,28 67,63 98,95 191,176 448,419 572,666 0,0 0,4 3,4 148,370 455,641 839,744 384,102 786,17 1100,-237 536,-433 466,-1036 377,-1357 -172,-610 -662,-1188 -1135,-1361 78,110 162,268 162,448 0,18 -7,35 -21,46 -7,10 -24,18 -42,18 -67,-8 -124,-8 -176,-4 -18,0 -39,-7 -53,-25 -166,-218 -554,-733 -942,-923 233,215 346,398 318,518 -14,56 -60,95 -124,109 -239,42 -856,-307 -1505,-1209 -173,656 479,1216 733,1435 106,91 141,120 110,173 -32,52 -89,31 -177,-4 -98,-39 -275,-92 -476,-81 296,229 769,712 938,948 11,14 14,32 11,50 -7,31 -11,63 -18,98 -3,18 -14,36 -32,46 -17,11 -35,11 -53,4 -232,-99 -401,-166 -507,-201zm208 -868l0 0 0 0z"/>
    </g>
    <g>
     <path class="fil2" d="M4181 5361c-282,0 -561,-123 -751,-356 -162,-201 -236,-451 -208,-708 28,-254 152,-487 353,-645l0 0c412,-332 1018,-268 1353,144 163,201 237,451 208,709 -28,254 -151,486 -352,645 -176,141 -392,211 -603,211zm-525 -1614c-177,141 -286,342 -311,564 -24,222 39,441 180,617 293,359 822,416 1181,127 177,-141 286,-342 311,-564 24,-222 -39,-441 -180,-617 -293,-360 -822,-416 -1181,-127l0 0z"/>
    </g>
    <g>
     <path class="fil2" d="M3874 3849c-14,0 -28,0 -42,-4 -78,-10 -145,-52 -190,-112 -11,-14 -22,-29 -32,-50 -14,-31 -4,-67 28,-81 32,-14 67,-3 81,28 7,15 11,22 18,29 28,35 67,60 109,67 42,7 88,-4 123,-32 57,-42 82,-109 60,-173 -10,-32 11,-67 43,-77 31,-11 67,10 77,42 35,113 -7,236 -106,307 -45,38 -105,56 -169,56z"/>
    </g>
    <g>
     <path class="fil2" d="M3888 5309c-10,0 -24,-4 -31,-11 -29,-18 -36,-56 -18,-85 56,-88 49,-201 -18,-282 -38,-49 -98,-81 -162,-88 -63,-7 -127,11 -176,53 -7,7 -14,11 -25,21 -24,25 -63,25 -88,0 -25,-24 -25,-63 0,-88 11,-11 21,-21 35,-32 74,-60 170,-88 265,-77 95,10 183,56 243,134 99,123 109,292 25,423 -11,24 -28,32 -50,32z"/>
    </g>
    <g>
     <path class="fil2" d="M4537 4614c-63,0 -127,-28 -169,-81 -35,-46 -53,-102 -46,-162 7,-57 35,-110 81,-145 92,-74 229,-60 303,32 74,92 60,229 -31,307 -43,31 -89,49 -138,49zm0 -310c-21,0 -42,7 -56,21 0,0 0,0 0,0 -22,14 -32,39 -36,60 -3,25 4,49 22,70 14,18 35,32 63,32 25,4 49,-3 67,-21 39,-32 46,-92 14,-130 -21,-22 -46,-32 -74,-32zm-95 -28l0 0 0 0z"/>
    </g>
    <g>
     <path class="fil2" d="M4283 5041c-32,0 -56,-22 -60,-53 -3,-36 18,-64 53,-71l85 -14c35,-3 63,18 70,53 4,35 -17,63 -53,71l-84 14c-4,0 -7,0 -11,0z"/>
    </g>
    <g>
     <path class="fil2" d="M4266 3979c-32,0 -57,-21 -60,-52 -4,-36 17,-64 53,-71l88 -14c35,-4 63,18 70,53 4,35 -17,63 -53,70l-88 14c-7,0 -10,0 -10,0z"/>
    </g>
    <g>
     <path class="fil2" d="M3557 4441c-28,0 -56,-21 -60,-49 -7,-35 18,-67 49,-71l85 -14c35,-7 67,18 70,50 8,35 -17,67 -49,70l-84 14c-4,-3 -8,0 -11,0z"/>
    </g>
   </g>
  </g>
 </g>
</svg>
