<svg version="1.1" viewBox="0.0 0.0 612.8766404199475 630.6850393700787" fill="none" stroke="none" stroke-linecap="square" stroke-miterlimit="10" xmlns:xlink="http://www.w3.org/1999/xlink" xmlns="http://www.w3.org/2000/svg"><clipPath id="p.0"><path d="m0 0l612.87665 0l0 630.68506l-612.87665 0l0 -630.68506z" clip-rule="nonzero"/></clipPath><g clip-path="url(#p.0)"><path fill="#000000" fill-opacity="0.0" d="m0 0l612.87665 0l0 630.68506l-612.87665 0z" fill-rule="evenodd"/><path fill="#000000" d="m-36.380577 -35.427822l682.96063 0l0 669.19684l-682.96063 0z" fill-rule="evenodd"/><path stroke="#000000" stroke-width="1.0" stroke-linejoin="round" stroke-linecap="butt" d="m-36.380577 -35.427822l682.96063 0l0 669.19684l-682.96063 0z" fill-rule="evenodd"/><path fill="#00153c" d="m8.491591 211.36906l595.3701 0l0 262.2992l-595.3701 0z" fill-rule="evenodd"/><path fill="#ffffff" d="m266.01053 458.1533q-1.015625 0 -1.015625 -1.046875l0 -9.453125q0 -1.03125 1.015625 -1.03125q1.03125 0 1.03125 1.03125l0 4.09375l0.03125 0l4.59375 -4.609375q0.25 -0.265625 0.5 -0.390625q0.265625 -0.125 0.578125 -0.125q0.46875 0 0.671875 0.25q0.203125 0.234375 0.15625 0.5625q-0.03125 0.3125 -0.3125 0.578125l-4.203125 4.15625l4.4375 4.5q0.328125 0.3125 0.34375 0.671875q0.015625 0.34375 -0.21875 0.578125q-0.234375 0.234375 -0.671875 0.234375q-0.390625 0 -0.625 -0.15625q-0.21875 -0.15625 -0.53125 -0.46875l-4.71875 -4.71875l-0.03125 0l0 4.296875q0 1.046875 -1.03125 1.046875zm12.105011 0.03125q-2.890625 0 -2.890625 -3.234375l0 -3.859375q0 -1.015625 1.0 -1.015625q1.0 0 1.0 1.015625l0 3.890625q0 0.84375 0.328125 1.25q0.34375 0.390625 1.09375 0.390625q0.796875 0 1.296875 -0.546875q0.515625 -0.5625 0.515625 -1.46875l0 -3.515625q0 -1.015625 1.0 -1.015625q1.0 0 1.0 1.015625l0 6.046875q0 1.015625 -0.96875 1.015625q-0.984375 0 -0.984375 -1.015625l0 -0.28125q-0.78125 1.328125 -2.390625 1.328125zm10.935913 0q-0.859375 0 -1.53125 -0.375q-0.671875 -0.375 -1.0 -1.015625l0 0.34375q0 1.015625 -0.984375 1.015625q-0.984375 0 -0.984375 -1.015625l0 -9.515625q0 -1.0 0.984375 -1.0q1.015625 0 1.015625 1.0l0 3.734375q0.34375 -0.59375 1.0 -0.953125q0.671875 -0.359375 1.5 -0.359375q1.046875 0 1.8125 0.5q0.765625 0.5 1.1875 1.40625q0.4375 0.890625 0.4375 2.15625q0 1.25 -0.4375 2.171875q-0.421875 0.921875 -1.203125 1.421875q-0.765625 0.484375 -1.796875 0.484375zm-0.5625 -1.515625q0.90625 0 1.4375 -0.640625q0.546875 -0.65625 0.546875 -1.921875q0 -1.28125 -0.546875 -1.90625q-0.53125 -0.640625 -1.4375 -0.640625q-0.890625 0 -1.4375 0.640625q-0.53125 0.625 -0.53125 1.90625q0 1.265625 0.53125 1.921875q0.546875 0.640625 1.4375 0.640625zm9.506256 1.515625q-1.328125 0 -2.296875 -0.484375q-0.953125 -0.5 -1.46875 -1.40625q-0.515625 -0.921875 -0.515625 -2.171875q0 -1.21875 0.5 -2.125q0.5 -0.90625 1.390625 -1.421875q0.890625 -0.53125 2.03125 -0.53125q1.65625 0 2.625 1.0625q0.96875 1.046875 0.96875 2.875q0 0.59375 -0.765625 0.59375l-4.828125 0q0.21875 2.09375 2.390625 2.09375q0.421875 0 0.9375 -0.09375q0.53125 -0.109375 0.984375 -0.375q0.421875 -0.234375 0.703125 -0.140625q0.296875 0.078125 0.40625 0.34375q0.125 0.25 0.03125 0.5625q-0.078125 0.3125 -0.453125 0.53125q-0.5625 0.359375 -1.296875 0.53125q-0.71875 0.15625 -1.34375 0.15625zm-0.28125 -6.78125q-0.875 0 -1.421875 0.546875q-0.546875 0.546875 -0.65625 1.46875l3.9375 0q-0.0625 -0.96875 -0.546875 -1.484375q-0.46875 -0.53125 -1.3125 -0.53125zm6.1251526 6.75q-1.015625 0 -1.015625 -1.015625l0 -6.046875q0 -1.015625 0.96875 -1.015625q0.96875 0 0.96875 1.015625l0 0.484375q0.578125 -1.375 2.46875 -1.53125q0.6875 -0.078125 0.765625 0.78125q0.078125 0.84375 -0.828125 0.953125l-0.34375 0.03125q-1.96875 0.1875 -1.96875 2.015625l0 3.3125q0 1.015625 -1.015625 1.015625zm6.240753 0q-0.984375 0 -0.984375 -1.015625l0 -6.046875q0 -1.015625 0.96875 -1.015625q0.96875 0 0.96875 1.015625l0 0.328125q0.40625 -0.671875 1.078125 -1.015625q0.6875 -0.359375 1.53125 -0.359375q2.78125 0 2.78125 3.21875l0 3.875q0 1.015625 -1.0 1.015625q-1.0 0 -1.0 -1.015625l0 -3.78125q0 -0.90625 -0.34375 -1.328125q-0.34375 -0.421875 -1.078125 -0.421875q-0.875 0 -1.390625 0.5625q-0.515625 0.546875 -0.515625 1.453125l0 3.515625q0 1.015625 -1.015625 1.015625zm12.219391 0.03125q-1.328125 0 -2.296875 -0.484375q-0.953125 -0.5 -1.46875 -1.40625q-0.515625 -0.921875 -0.515625 -2.171875q0 -1.21875 0.5 -2.125q0.5 -0.90625 1.390625 -1.421875q0.890625 -0.53125 2.03125 -0.53125q1.65625 0 2.625 1.0625q0.96875 1.046875 0.96875 2.875q0 0.59375 -0.765625 0.59375l-4.828125 0q0.21875 2.09375 2.390625 2.09375q0.421875 0 0.9375 -0.09375q0.53125 -0.109375 0.984375 -0.375q0.421875 -0.234375 0.703125 -0.140625q0.296875 0.078125 0.40625 0.34375q0.125 0.25 0.03125 0.5625q-0.078125 0.3125 -0.453125 0.53125q-0.5625 0.359375 -1.296875 0.53125q-0.71875 0.15625 -1.34375 0.15625zm-0.28125 -6.78125q-0.875 0 -1.421875 0.546875q-0.546875 0.546875 -0.65625 1.46875l3.9375 0q-0.0625 -0.96875 -0.546875 -1.484375q-0.46875 -0.53125 -1.3125 -0.53125zm8.65564 6.78125q-3.109375 0 -3.109375 -3.0625l0 -3.40625l-0.828125 0q-0.796875 0 -0.796875 -0.765625q0 -0.75 0.796875 -0.75l0.828125 0l0 -1.453125q0 -1.0 1.015625 -1.0q0.984375 0 0.984375 1.0l0 1.453125l1.703125 0q0.796875 0 0.796875 0.75q0 0.765625 -0.796875 0.765625l-1.703125 0l0 3.28125q0 0.78125 0.328125 1.171875q0.34375 0.375 1.09375 0.375q0.28125 0 0.484375 -0.046875q0.203125 -0.046875 0.375 -0.0625q0.1875 -0.015625 0.3125 0.125q0.125 0.125 0.125 0.546875q0 0.3125 -0.109375 0.5625q-0.09375 0.25 -0.359375 0.34375q-0.21875 0.0625 -0.5625 0.109375q-0.328125 0.0625 -0.578125 0.0625zm6.329651 0q-1.328125 0 -2.296875 -0.484375q-0.953125 -0.5 -1.46875 -1.40625q-0.515625 -0.921875 -0.515625 -2.171875q0 -1.21875 0.5 -2.125q0.5 -0.90625 1.390625 -1.421875q0.890625 -0.53125 2.03125 -0.53125q1.65625 0 2.625 1.0625q0.96875 1.046875 0.96875 2.875q0 0.59375 -0.765625 0.59375l-4.828125 0q0.21875 2.09375 2.390625 2.09375q0.421875 0 0.9375 -0.09375q0.53125 -0.109375 0.984375 -0.375q0.421875 -0.234375 0.703125 -0.140625q0.296875 0.078125 0.40625 0.34375q0.125 0.25 0.03125 0.5625q-0.078125 0.3125 -0.453125 0.53125q-0.5625 0.359375 -1.296875 0.53125q-0.71875 0.15625 -1.34375 0.15625zm-0.28125 -6.78125q-0.875 0 -1.421875 0.546875q-0.546875 0.546875 -0.65625 1.46875l3.9375 0q-0.0625 -0.96875 -0.546875 -1.484375q-0.46875 -0.53125 -1.3125 -0.53125zm7.968872 6.78125q-0.6875 0 -1.453125 -0.140625q-0.765625 -0.140625 -1.375 -0.5q-0.34375 -0.1875 -0.421875 -0.46875q-0.078125 -0.28125 0.015625 -0.53125q0.109375 -0.25 0.359375 -0.359375q0.25 -0.109375 0.578125 0.046875q0.640625 0.3125 1.203125 0.4375q0.5625 0.109375 1.109375 0.109375q0.765625 0 1.140625 -0.265625q0.375 -0.265625 0.375 -0.6875q0 -0.671875 -0.984375 -0.875l-1.609375 -0.296875q-2.03125 -0.390625 -2.03125 -2.109375q0 -0.765625 0.421875 -1.328125q0.421875 -0.5625 1.171875 -0.859375q0.765625 -0.3125 1.734375 -0.3125q1.40625 0 2.515625 0.625q0.296875 0.15625 0.359375 0.4375q0.0625 0.28125 -0.0625 0.53125q-0.125 0.25 -0.390625 0.359375q-0.25 0.09375 -0.578125 -0.0625q-0.5 -0.265625 -0.953125 -0.375q-0.453125 -0.109375 -0.875 -0.109375q-0.78125 0 -1.15625 0.28125q-0.375 0.265625 -0.375 0.71875q0 0.703125 0.90625 0.859375l1.609375 0.296875q1.03125 0.203125 1.5625 0.71875q0.546875 0.5 0.546875 1.359375q0 1.171875 -0.921875 1.84375q-0.90625 0.65625 -2.421875 0.65625z" fill-rule="nonzero"/><path fill="#00153c" d="m155.50209 7.395256l301.10236 0l0 106.58268l-301.10236 0z" fill-rule="evenodd"/><path fill="#ffffff" d="m221.23447 41.755257q-0.71875 0 -0.71875 -0.71875l0 -9.84375q0 -0.71875 0.71875 -0.71875l3.796875 0q1.734375 0 2.6875 0.78125q0.953125 0.765625 0.953125 2.15625q0 0.9375 -0.484375 1.59375q-0.46875 0.65625 -1.3125 0.953125q0.96875 0.265625 1.515625 0.953125q0.5625 0.6875 0.5625 1.734375q0 1.515625 -0.984375 2.3125q-0.96875 0.796875 -2.75 0.796875l-3.984375 0zm0.5625 -6.234375l3.046875 0q2.53125 0 2.53125 -1.984375q0 -2.0 -2.53125 -2.0l-3.046875 0l0 3.984375zm0 5.171875l3.296875 0q2.5625 0 2.5625 -2.0625q0 -2.0625 -2.5625 -2.0625l-3.296875 0l0 4.125zm10.01915 1.171875q-0.65625 0 -0.65625 -0.671875l0 -6.671875q0 -0.65625 0.625 -0.65625q0.640625 0 0.640625 0.65625l0 0.84375q0.3125 -0.734375 0.984375 -1.125q0.671875 -0.390625 1.609375 -0.421875q0.5 -0.046875 0.53125 0.515625q0.046875 0.5625 -0.5625 0.625l-0.265625 0.03125q-1.09375 0.09375 -1.671875 0.703125q-0.578125 0.59375 -0.578125 1.625l0 3.875q0 0.671875 -0.65625 0.671875zm8.210144 0.03125q-1.140625 0 -1.984375 -0.484375q-0.828125 -0.5 -1.28125 -1.40625q-0.453125 -0.90625 -0.453125 -2.140625q0 -1.234375 0.453125 -2.125q0.453125 -0.90625 1.28125 -1.40625q0.84375 -0.5 1.984375 -0.5q1.109375 0 1.953125 0.5q0.84375 0.5 1.296875 1.40625q0.453125 0.890625 0.453125 2.125q0 1.234375 -0.453125 2.140625q-0.453125 0.90625 -1.296875 1.40625q-0.84375 0.484375 -1.953125 0.484375zm0 -1.03125q1.078125 0 1.734375 -0.78125q0.65625 -0.78125 0.65625 -2.21875q0 -1.453125 -0.65625 -2.21875q-0.65625 -0.765625 -1.734375 -0.765625q-1.109375 0 -1.765625 0.765625q-0.640625 0.765625 -0.640625 2.21875q0 1.4375 0.640625 2.21875q0.65625 0.78125 1.765625 0.78125zm8.237137 1.0q-0.59375 0 -0.8125 -0.609375l-2.390625 -6.46875q-0.15625 -0.421875 0 -0.671875q0.171875 -0.25 0.546875 -0.25q0.234375 0 0.390625 0.125q0.15625 0.109375 0.25 0.40625l2.046875 5.84375l2.109375 -5.84375q0.1875 -0.53125 0.71875 -0.53125q0.515625 0 0.703125 0.53125l2.078125 5.859375l2.078125 -5.890625q0.125 -0.296875 0.265625 -0.390625q0.15625 -0.109375 0.390625 -0.109375q0.390625 0 0.5 0.28125q0.109375 0.28125 -0.03125 0.640625l-2.375 6.46875q-0.25 0.609375 -0.828125 0.609375q-0.59375 0 -0.796875 -0.609375l-2.015625 -5.53125l-2.015625 5.53125q-0.21875 0.609375 -0.8125 0.609375zm13.2335205 0.03125q-0.71875 0 -1.453125 -0.171875q-0.734375 -0.1875 -1.34375 -0.609375q-0.296875 -0.171875 -0.296875 -0.453125q0.015625 -0.28125 0.21875 -0.4375q0.21875 -0.171875 0.53125 0q0.625 0.375 1.203125 0.53125q0.59375 0.15625 1.171875 0.15625q0.90625 0 1.375 -0.328125q0.46875 -0.34375 0.46875 -0.921875q0 -0.453125 -0.3125 -0.71875q-0.296875 -0.265625 -0.953125 -0.40625l-1.46875 -0.3125q-1.96875 -0.4375 -1.96875 -2.046875q0 -1.0625 0.828125 -1.703125q0.84375 -0.640625 2.203125 -0.640625q0.6875 0 1.328125 0.1875q0.640625 0.1875 1.15625 0.578125q0.265625 0.203125 0.234375 0.46875q-0.03125 0.265625 -0.25 0.421875q-0.21875 0.15625 -0.515625 -0.03125q-0.484375 -0.328125 -0.984375 -0.46875q-0.484375 -0.15625 -0.96875 -0.15625q-0.890625 0 -1.359375 0.359375q-0.46875 0.34375 -0.46875 0.921875q0 0.890625 1.1875 1.140625l1.453125 0.3125q1.03125 0.21875 1.546875 0.71875q0.53125 0.484375 0.53125 1.3125q0 1.0625 -0.84375 1.6875q-0.84375 0.609375 -2.25 0.609375zm8.571014 0q-1.84375 0 -2.921875 -1.078125q-1.0625 -1.078125 -1.0625 -2.9375q0 -1.203125 0.484375 -2.109375q0.484375 -0.921875 1.3125 -1.421875q0.84375 -0.515625 1.953125 -0.515625q1.578125 0 2.46875 1.015625q0.90625 1.015625 0.90625 2.796875q0 0.5 -0.5625 0.5l-5.296875 0q0.0625 1.328125 0.765625 2.03125q0.703125 0.6875 1.953125 0.6875q0.53125 0 1.078125 -0.140625q0.546875 -0.140625 1.046875 -0.484375q0.375 -0.25 0.625 -0.09375q0.25 0.140625 0.25 0.4375q0.015625 0.296875 -0.328125 0.515625q-0.53125 0.390625 -1.265625 0.59375q-0.71875 0.203125 -1.40625 0.203125zm-0.203125 -7.09375q-1.109375 0 -1.75 0.6875q-0.640625 0.6875 -0.75 1.796875l4.71875 0q-0.046875 -1.171875 -0.625 -1.828125q-0.5625 -0.65625 -1.59375 -0.65625zm5.871399 7.0625q-0.65625 0 -0.65625 -0.671875l0 -6.671875q0 -0.65625 0.625 -0.65625q0.640625 0 0.640625 0.65625l0 0.84375q0.3125 -0.734375 0.984375 -1.125q0.671875 -0.390625 1.609375 -0.421875q0.5 -0.046875 0.53125 0.515625q0.046875 0.5625 -0.5625 0.625l-0.265625 0.03125q-1.09375 0.09375 -1.671875 0.703125q-0.578125 0.59375 -0.578125 1.625l0 3.875q0 0.671875 -0.65625 0.671875zm8.856018 0.4375q-0.09375 0.265625 -0.28125 0.34375q-0.1875 0.09375 -0.40625 0.03125q-0.203125 -0.0625 -0.3125 -0.234375q-0.109375 -0.171875 -0.03125 -0.453125l3.796875 -11.796875q0.109375 -0.265625 0.296875 -0.34375q0.1875 -0.09375 0.390625 -0.03125q0.21875 0.046875 0.328125 0.234375q0.109375 0.1875 0.015625 0.4375l-3.796875 11.8125zm9.796631 -0.4375q-0.625 0 -0.625 -0.65625l0 -10.171875q0 -0.671875 0.578125 -0.671875q0.234375 0 0.359375 0.09375q0.140625 0.078125 0.296875 0.3125l6.59375 8.78125l0 -8.546875q0 -0.640625 0.625 -0.640625q0.59375 0 0.59375 0.640625l0 10.21875q0 0.640625 -0.53125 0.640625q-0.25 0 -0.390625 -0.09375q-0.140625 -0.09375 -0.296875 -0.296875l-6.59375 -8.828125l0 8.5625q0 0.65625 -0.609375 0.65625zm13.480652 0.03125q-0.796875 0 -1.4375 -0.3125q-0.625 -0.3125 -1.0 -0.84375q-0.359375 -0.546875 -0.359375 -1.21875q0 -0.859375 0.4375 -1.34375q0.453125 -0.5 1.46875 -0.71875q1.015625 -0.21875 2.765625 -0.21875l0.515625 0l0 -0.5q0 -0.984375 -0.40625 -1.421875q-0.40625 -0.4375 -1.296875 -0.4375q-0.5625 0 -1.140625 0.140625q-0.5625 0.140625 -1.171875 0.46875q-0.265625 0.140625 -0.453125 0.0625q-0.1875 -0.09375 -0.265625 -0.296875q-0.0625 -0.203125 0 -0.421875q0.078125 -0.21875 0.3125 -0.328125q0.6875 -0.34375 1.390625 -0.5q0.703125 -0.171875 1.328125 -0.171875q1.5 0 2.21875 0.734375q0.734375 0.734375 0.734375 2.296875l0 4.328125q0 0.671875 -0.59375 0.671875q-0.625 0 -0.625 -0.671875l0 -0.78125q-0.296875 0.6875 -0.9375 1.09375q-0.625 0.390625 -1.484375 0.390625zm0.21875 -0.96875q0.953125 0 1.5625 -0.65625q0.609375 -0.671875 0.609375 -1.703125l0 -0.46875l-0.5 0q-1.296875 0 -2.046875 0.125q-0.734375 0.109375 -1.03125 0.40625q-0.296875 0.296875 -0.296875 0.8125q0 0.65625 0.453125 1.078125q0.46875 0.40625 1.25 0.40625zm8.948761 0.96875q-1.390625 0 -2.078125 -0.71875q-0.6875 -0.734375 -0.6875 -2.109375l0 -4.078125l-1.0625 0q-0.5625 0 -0.5625 -0.515625q0 -0.5 0.5625 -0.5l1.0625 0l0 -1.828125q0 -0.65625 0.65625 -0.65625q0.640625 0 0.640625 0.65625l0 1.828125l2.015625 0q0.5625 0 0.5625 0.5q0 0.515625 -0.5625 0.515625l-2.015625 0l0 3.953125q0 0.90625 0.375 1.390625q0.390625 0.46875 1.265625 0.46875q0.296875 0 0.5 -0.0625q0.21875 -0.078125 0.375 -0.078125q0.140625 -0.015625 0.234375 0.109375q0.109375 0.109375 0.109375 0.375q0 0.1875 -0.078125 0.359375q-0.078125 0.15625 -0.25 0.21875q-0.1875 0.0625 -0.5 0.109375q-0.3125 0.0625 -0.5625 0.0625zm3.2116394 -9.78125q-0.84375 0 -0.84375 -0.8125q0 -0.78125 0.84375 -0.78125q0.84375 0 0.84375 0.78125q0 0.8125 -0.84375 0.8125zm0 9.71875q-0.640625 0 -0.640625 -0.703125l0 -6.546875q0 -0.6875 0.640625 -0.6875q0.65625 0 0.65625 0.6875l0 6.546875q0 0.703125 -0.65625 0.703125zm5.9620056 0.03125q-0.5625 0 -0.828125 -0.625l-2.765625 -6.453125q-0.15625 -0.375 -0.015625 -0.640625q0.140625 -0.28125 0.578125 -0.28125q0.4375 0 0.65625 0.515625l2.40625 5.90625l2.453125 -5.90625q0.109375 -0.28125 0.25 -0.390625q0.140625 -0.125 0.421875 -0.125q0.359375 0 0.484375 0.28125q0.140625 0.265625 0 0.625l-2.8125 6.46875q-0.25 0.625 -0.828125 0.625zm8.737396 0.03125q-1.84375 0 -2.921875 -1.078125q-1.0625 -1.078125 -1.0625 -2.9375q0 -1.203125 0.484375 -2.109375q0.484375 -0.921875 1.3125 -1.421875q0.84375 -0.515625 1.953125 -0.515625q1.578125 0 2.46875 1.015625q0.90625 1.015625 0.90625 2.796875q0 0.5 -0.5625 0.5l-5.296875 0q0.0625 1.328125 0.765625 2.03125q0.703125 0.6875 1.953125 0.6875q0.53125 0 1.078125 -0.140625q0.546875 -0.140625 1.046875 -0.484375q0.375 -0.25 0.625 -0.09375q0.25 0.140625 0.25 0.4375q0.015625 0.296875 -0.328125 0.515625q-0.53125 0.390625 -1.265625 0.59375q-0.71875 0.203125 -1.40625 0.203125zm-0.203125 -7.09375q-1.109375 0 -1.75 0.6875q-0.640625 0.6875 -0.75 1.796875l4.71875 0q-0.046875 -1.171875 -0.625 -1.828125q-0.5625 -0.65625 -1.59375 -0.65625zm14.390015 7.09375q-1.65625 0 -2.84375 -0.703125q-1.1875 -0.703125 -1.828125 -2.0q-0.625 -1.296875 -0.625 -3.078125q0 -1.78125 0.625 -3.078125q0.640625 -1.296875 1.828125 -2.0q1.1875 -0.703125 2.84375 -0.703125q1.0 0 1.890625 0.296875q0.90625 0.28125 1.5625 0.8125q0.265625 0.1875 0.296875 0.453125q0.046875 0.25 -0.078125 0.453125q-0.125 0.1875 -0.359375 0.25q-0.234375 0.046875 -0.515625 -0.15625q-1.140625 -0.90625 -2.765625 -0.90625q-1.890625 0 -2.90625 1.203125q-1.0 1.1875 -1.0 3.375q0 2.1875 1.0 3.390625q1.015625 1.1875 2.90625 1.1875q1.625 0 2.796875 -0.921875q0.28125 -0.1875 0.515625 -0.140625q0.234375 0.046875 0.34375 0.234375q0.125 0.1875 0.09375 0.4375q-0.03125 0.234375 -0.265625 0.421875q-0.6875 0.578125 -1.59375 0.875q-0.890625 0.296875 -1.921875 0.296875zm8.080536 0q-1.140625 0 -1.75 -0.6875q-0.609375 -0.703125 -0.609375 -2.03125l0 -8.15625q0 -0.65625 0.640625 -0.65625q0.65625 0 0.65625 0.65625l0 8.0625q0 1.71875 1.359375 1.71875q0.140625 0 0.25 -0.015625q0.109375 -0.015625 0.234375 -0.015625q0.171875 -0.03125 0.234375 0.078125q0.078125 0.09375 0.078125 0.375q0 0.546875 -0.546875 0.625q-0.125 0.03125 -0.265625 0.03125q-0.140625 0.015625 -0.28125 0.015625zm3.0172424 -9.78125q-0.84375 0 -0.84375 -0.8125q0 -0.78125 0.84375 -0.78125q0.84375 0 0.84375 0.78125q0 0.8125 -0.84375 0.8125zm0 9.71875q-0.640625 0 -0.640625 -0.703125l0 -6.546875q0 -0.6875 0.640625 -0.6875q0.65625 0 0.65625 0.6875l0 6.546875q0 0.703125 -0.65625 0.703125zm6.5713806 0.0625q-1.84375 0 -2.921875 -1.078125q-1.0625 -1.078125 -1.0625 -2.9375q0 -1.203125 0.484375 -2.109375q0.484375 -0.921875 1.3125 -1.421875q0.84375 -0.515625 1.953125 -0.515625q1.578125 0 2.46875 1.015625q0.90625 1.015625 0.90625 2.796875q0 0.5 -0.5625 0.5l-5.296875 0q0.0625 1.328125 0.765625 2.03125q0.703125 0.6875 1.953125 0.6875q0.53125 0 1.078125 -0.140625q0.546875 -0.140625 1.046875 -0.484375q0.375 -0.25 0.625 -0.09375q0.25 0.140625 0.25 0.4375q0.015625 0.296875 -0.328125 0.515625q-0.53125 0.390625 -1.265625 0.59375q-0.71875 0.203125 -1.40625 0.203125zm-0.203125 -7.09375q-1.109375 0 -1.75 0.6875q-0.640625 0.6875 -0.75 1.796875l4.71875 0q-0.046875 -1.171875 -0.625 -1.828125q-0.5625 -0.65625 -1.59375 -0.65625zm5.855774 7.0625q-0.640625 0 -0.640625 -0.671875l0 -6.671875q0 -0.65625 0.625 -0.65625q0.640625 0 0.640625 0.65625l0 0.78125q0.375 -0.734375 1.078125 -1.09375q0.703125 -0.375 1.59375 -0.375q2.765625 0 2.765625 3.078125l0 4.28125q0 0.671875 -0.640625 0.671875q-0.65625 0 -0.65625 -0.671875l0 -4.203125q0 -1.09375 -0.421875 -1.59375q-0.421875 -0.5 -1.359375 -0.5q-1.0625 0 -1.703125 0.671875q-0.625 0.65625 -0.625 1.75l0 3.875q0 0.671875 -0.65625 0.671875zm11.572388 0.03125q-1.390625 0 -2.078125 -0.71875q-0.6875 -0.734375 -0.6875 -2.109375l0 -4.078125l-1.0625 0q-0.5625 0 -0.5625 -0.515625q0 -0.5 0.5625 -0.5l1.0625 0l0 -1.828125q0 -0.65625 0.65625 -0.65625q0.640625 0 0.640625 0.65625l0 1.828125l2.015625 0q0.5625 0 0.5625 0.5q0 0.515625 -0.5625 0.515625l-2.015625 0l0 3.953125q0 0.90625 0.375 1.390625q0.390625 0.46875 1.265625 0.46875q0.296875 0 0.5 -0.0625q0.21875 -0.078125 0.375 -0.078125q0.140625 -0.015625 0.234375 0.109375q0.109375 0.109375 0.109375 0.375q0 0.1875 -0.078125 0.359375q-0.078125 0.15625 -0.25 0.21875q-0.1875 0.0625 -0.5 0.109375q-0.3125 0.0625 -0.5625 0.0625zm5.100006 0q-0.71875 0 -1.453125 -0.171875q-0.734375 -0.1875 -1.34375 -0.609375q-0.296875 -0.171875 -0.296875 -0.453125q0.015625 -0.28125 0.21875 -0.4375q0.21875 -0.171875 0.53125 0q0.625 0.375 1.203125 0.53125q0.59375 0.15625 1.171875 0.15625q0.90625 0 1.375 -0.328125q0.46875 -0.34375 0.46875 -0.921875q0 -0.453125 -0.3125 -0.71875q-0.296875 -0.265625 -0.953125 -0.40625l-1.46875 -0.3125q-1.96875 -0.4375 -1.96875 -2.046875q0 -1.0625 0.828125 -1.703125q0.84375 -0.640625 2.203125 -0.640625q0.6875 0 1.328125 0.1875q0.640625 0.1875 1.15625 0.578125q0.265625 0.203125 0.234375 0.46875q-0.03125 0.265625 -0.25 0.421875q-0.21875 0.15625 -0.515625 -0.03125q-0.484375 -0.328125 -0.984375 -0.46875q-0.484375 -0.15625 -0.96875 -0.15625q-0.890625 0 -1.359375 0.359375q-0.46875 0.34375 -0.46875 0.921875q0 0.890625 1.1875 1.140625l1.453125 0.3125q1.03125 0.21875 1.546875 0.71875q0.53125 0.484375 0.53125 1.3125q0 1.0625 -0.84375 1.6875q-0.84375 0.609375 -2.25 0.609375z" fill-rule="nonzero"/><path fill="#00153c" d="m94.0677 531.6096l0 0c0 -9.8116455 20.259415 -17.765564 45.250656 -17.765564c24.991257 0 45.250656 7.9539185 45.250656 17.765564l0 71.06207c0 9.8116455 -20.2594 17.765564 -45.250656 17.765564c-24.991241 0 -45.250656 -7.9539185 -45.250656 -17.765564z" fill-rule="evenodd"/><path fill="#000000" fill-opacity="0.0" d="m184.56902 531.6096l0 0c0 9.8116455 -20.2594 17.765503 -45.250656 17.765503c-24.991241 0 -45.250656 -7.9538574 -45.250656 -17.765503" fill-rule="evenodd"/><path fill="#000000" fill-opacity="0.0" d="m94.0677 531.6096l0 0c0 -9.8116455 20.259415 -17.765564 45.250656 -17.765564c24.991257 0 45.250656 7.9539185 45.250656 17.765564l0 71.06207c0 9.8116455 -20.2594 17.765564 -45.250656 17.765564c-24.991241 0 -45.250656 -7.9539185 -45.250656 -17.765564z" fill-rule="evenodd"/><path stroke="#5a8bff" stroke-width="1.0" stroke-linejoin="round" stroke-linecap="butt" d="m184.56902 531.6096l0 0c0 9.8116455 -20.2594 17.765503 -45.250656 17.765503c-24.991241 0 -45.250656 -7.9538574 -45.250656 -17.765503" fill-rule="evenodd"/><path stroke="#5a8bff" stroke-width="1.0" stroke-linejoin="round" stroke-linecap="butt" d="m94.0677 531.6096l0 0c0 -9.8116455 20.259415 -17.765564 45.250656 -17.765564c24.991257 0 45.250656 7.9539185 45.250656 17.765564l0 71.06207c0 9.8116455 -20.2594 17.765564 -45.250656 17.765564c-24.991241 0 -45.250656 -7.9539185 -45.250656 -17.765564z" fill-rule="evenodd"/><path fill="#ffffff" d="m118.51932 583.0684q-0.765625 0 -0.765625 -0.796875l0 -11.703125q0 -0.78125 0.78125 -0.78125l4.421875 0q2.125 0 3.25 1.0q1.140625 0.984375 1.140625 2.8125q0 1.453125 -0.796875 2.390625q-0.796875 0.921875 -2.25 1.203125q0.859375 0.296875 1.46875 1.453125l1.796875 3.34375q0.203125 0.390625 0.0625 0.734375q-0.125 0.34375 -0.59375 0.34375q-0.3125 0 -0.515625 -0.140625q-0.203125 -0.140625 -0.359375 -0.4375l-2.03125 -3.765625q-0.421875 -0.796875 -0.984375 -1.0625q-0.5625 -0.28125 -1.46875 -0.28125l-2.390625 0l0 4.890625q0 0.796875 -0.765625 0.796875zm0.765625 -6.890625l3.453125 0q3.09375 0 3.09375 -2.578125q0 -2.546875 -3.09375 -2.546875l-3.453125 0l0 5.125zm14.619446 6.9375q-2.140625 0 -3.390625 -1.25q-1.25 -1.265625 -1.25 -3.4375q0 -1.390625 0.5625 -2.46875q0.5625 -1.078125 1.53125 -1.65625q0.984375 -0.59375 2.265625 -0.59375q1.859375 0 2.890625 1.1875q1.046875 1.1875 1.046875 3.25q0 0.578125 -0.65625 0.578125l-6.171875 0q0.078125 1.546875 0.890625 2.359375q0.828125 0.8125 2.28125 0.8125q0.625 0 1.25 -0.15625q0.640625 -0.15625 1.234375 -0.5625q0.421875 -0.28125 0.71875 -0.109375q0.296875 0.15625 0.296875 0.5q0.015625 0.34375 -0.375 0.609375q-0.625 0.453125 -1.46875 0.703125q-0.84375 0.234375 -1.65625 0.234375zm-0.234375 -8.28125q-1.296875 0 -2.046875 0.796875q-0.734375 0.796875 -0.875 2.109375l5.515625 0q-0.0625 -1.375 -0.734375 -2.140625q-0.65625 -0.765625 -1.859375 -0.765625zm9.5345 8.28125q-1.21875 0 -2.125 -0.578125q-0.90625 -0.578125 -1.40625 -1.625q-0.484375 -1.0625 -0.484375 -2.5q0 -1.453125 0.484375 -2.5q0.5 -1.0625 1.40625 -1.625q0.90625 -0.578125 2.125 -0.578125q1.0625 0 1.875 0.46875q0.8125 0.46875 1.203125 1.28125l0 -5.03125q0 -0.765625 0.765625 -0.765625q0.734375 0 0.734375 0.765625l0 11.859375q0 0.78125 -0.734375 0.78125q-0.75 0 -0.75 -0.78125l0 -0.96875q-0.40625 0.84375 -1.21875 1.328125q-0.8125 0.46875 -1.875 0.46875zm0.3125 -1.21875q1.265625 0 2.03125 -0.90625q0.765625 -0.90625 0.765625 -2.578125q0 -1.703125 -0.765625 -2.59375q-0.765625 -0.890625 -2.03125 -0.890625q-1.28125 0 -2.046875 0.890625q-0.75 0.890625 -0.75 2.59375q0 1.671875 0.75 2.578125q0.765625 0.90625 2.046875 0.90625zm7.860977 -10.203125q-1.0 0 -1.0 -0.9375q0 -0.90625 1.0 -0.90625q0.984375 0 0.984375 0.90625q0 0.9375 -0.984375 0.9375zm0 11.34375q-0.75 0 -0.75 -0.828125l0 -7.625q0 -0.796875 0.75 -0.796875q0.75 0 0.75 0.796875l0 7.625q0 0.828125 -0.75 0.828125zm6.640747 0.078125q-0.84375 0 -1.703125 -0.21875q-0.84375 -0.21875 -1.5625 -0.703125q-0.34375 -0.203125 -0.34375 -0.53125q0.015625 -0.328125 0.25 -0.515625q0.25 -0.1875 0.625 0q0.734375 0.453125 1.40625 0.640625q0.6875 0.171875 1.359375 0.171875q1.0625 0 1.59375 -0.390625q0.546875 -0.390625 0.546875 -1.0625q0 -0.53125 -0.359375 -0.828125q-0.34375 -0.3125 -1.109375 -0.484375l-1.703125 -0.375q-2.3125 -0.5 -2.3125 -2.390625q0 -1.234375 0.984375 -1.96875q0.984375 -0.75 2.5625 -0.75q0.796875 0 1.546875 0.21875q0.75 0.203125 1.34375 0.671875q0.3125 0.234375 0.28125 0.546875q-0.03125 0.3125 -0.296875 0.5q-0.25 0.171875 -0.59375 -0.046875q-0.5625 -0.375 -1.140625 -0.546875q-0.578125 -0.1875 -1.140625 -0.1875q-1.046875 0 -1.59375 0.421875q-0.53125 0.40625 -0.53125 1.078125q0 1.03125 1.375 1.328125l1.703125 0.359375q1.1875 0.265625 1.796875 0.84375q0.625 0.5625 0.625 1.53125q0 1.25 -0.984375 1.96875q-0.984375 0.71875 -2.625 0.71875z" fill-rule="nonzero"/><path fill="#ffffff" fill-opacity="0.095" d="m331.24487 221.78633l265.63782 0l0 37.16536l-265.63782 0z" fill-rule="evenodd"/><path stroke="#5a8bff" stroke-width="1.0" stroke-linejoin="round" stroke-linecap="butt" d="m331.24487 221.78633l265.63782 0l0 37.16536l-265.63782 0z" fill-rule="evenodd"/><path fill="#ffffff" d="m440.0546 246.33838q-0.65625 0 -0.65625 -0.6875l0 -10.125q0 -0.6875 0.65625 -0.6875q0.65625 0 0.65625 0.6875l0 10.125q0 0.6875 -0.65625 0.6875zm3.9244995 0q-0.640625 0 -0.640625 -0.671875l0 -6.671875q0 -0.65625 0.625 -0.65625q0.640625 0 0.640625 0.65625l0 0.78125q0.375 -0.734375 1.078125 -1.09375q0.703125 -0.375 1.59375 -0.375q2.765625 0 2.765625 3.078125l0 4.28125q0 0.671875 -0.640625 0.671875q-0.65625 0 -0.65625 -0.671875l0 -4.203125q0 -1.09375 -0.421875 -1.59375q-0.421875 -0.5 -1.359375 -0.5q-1.0625 0 -1.703125 0.671875q-0.625 0.65625 -0.625 1.75l0 3.875q0 0.671875 -0.65625 0.671875zm11.884888 2.921875q-0.84375 0 -1.65625 -0.203125q-0.8125 -0.203125 -1.46875 -0.640625q-0.234375 -0.140625 -0.28125 -0.34375q-0.03125 -0.203125 0.0625 -0.390625q0.09375 -0.171875 0.28125 -0.25q0.1875 -0.078125 0.390625 0.03125q0.703125 0.421875 1.34375 0.578125q0.640625 0.171875 1.265625 0.171875q2.296875 0 2.296875 -2.375l0 -1.375q-0.328125 0.734375 -1.046875 1.171875q-0.703125 0.421875 -1.625 0.421875q-1.0625 0 -1.859375 -0.5q-0.78125 -0.5 -1.203125 -1.359375q-0.421875 -0.875 -0.421875 -2.03125q0 -1.15625 0.421875 -2.015625q0.421875 -0.875 1.203125 -1.359375q0.796875 -0.484375 1.859375 -0.484375q0.921875 0 1.625 0.40625q0.703125 0.390625 1.03125 1.109375l0 -0.828125q0 -0.65625 0.640625 -0.65625q0.640625 0 0.640625 0.65625l0 6.671875q0 1.796875 -0.890625 2.6875q-0.875 0.90625 -2.609375 0.90625zm-0.1875 -4.265625q1.109375 0 1.765625 -0.765625q0.65625 -0.765625 0.65625 -2.0625q0 -1.296875 -0.65625 -2.046875q-0.65625 -0.765625 -1.765625 -0.765625q-1.109375 0 -1.765625 0.765625q-0.65625 0.75 -0.65625 2.046875q0 1.296875 0.65625 2.0625q0.65625 0.765625 1.765625 0.765625zm6.7822876 1.34375q-0.65625 0 -0.65625 -0.671875l0 -6.671875q0 -0.65625 0.625 -0.65625q0.640625 0 0.640625 0.65625l0 0.84375q0.3125 -0.734375 0.984375 -1.125q0.671875 -0.390625 1.609375 -0.421875q0.5 -0.046875 0.53125 0.515625q0.046875 0.5625 -0.5625 0.625l-0.265625 0.03125q-1.09375 0.09375 -1.671875 0.703125q-0.578125 0.59375 -0.578125 1.625l0 3.875q0 0.671875 -0.65625 0.671875zm8.475769 0.03125q-1.84375 0 -2.921875 -1.078125q-1.0625 -1.078125 -1.0625 -2.9375q0 -1.203125 0.484375 -2.109375q0.484375 -0.921875 1.3125 -1.421875q0.84375 -0.515625 1.953125 -0.515625q1.578125 0 2.46875 1.015625q0.90625 1.015625 0.90625 2.796875q0 0.5 -0.5625 0.5l-5.296875 0q0.0625 1.328125 0.765625 2.03125q0.703125 0.6875 1.953125 0.6875q0.53125 0 1.078125 -0.140625q0.546875 -0.140625 1.046875 -0.484375q0.375 -0.25 0.625 -0.09375q0.25 0.140625 0.25 0.4375q0.015625 0.296875 -0.328125 0.515625q-0.53125 0.390625 -1.265625 0.59375q-0.71875 0.203125 -1.40625 0.203125zm-0.203125 -7.09375q-1.109375 0 -1.75 0.6875q-0.640625 0.6875 -0.75 1.796875l4.71875 0q-0.046875 -1.171875 -0.625 -1.828125q-0.5625 -0.65625 -1.59375 -0.65625zm7.840149 7.09375q-0.71875 0 -1.453125 -0.171875q-0.734375 -0.1875 -1.34375 -0.609375q-0.296875 -0.171875 -0.296875 -0.453125q0.015625 -0.28125 0.21875 -0.4375q0.21875 -0.171875 0.53125 0q0.625 0.375 1.203125 0.53125q0.59375 0.15625 1.171875 0.15625q0.90625 0 1.375 -0.328125q0.46875 -0.34375 0.46875 -0.921875q0 -0.453125 -0.3125 -0.71875q-0.296875 -0.265625 -0.953125 -0.40625l-1.46875 -0.3125q-1.96875 -0.4375 -1.96875 -2.046875q0 -1.0625 0.828125 -1.703125q0.84375 -0.640625 2.203125 -0.640625q0.6875 0 1.328125 0.1875q0.640625 0.1875 1.15625 0.578125q0.265625 0.203125 0.234375 0.46875q-0.03125 0.265625 -0.25 0.421875q-0.21875 0.15625 -0.515625 -0.03125q-0.484375 -0.328125 -0.984375 -0.46875q-0.484375 -0.15625 -0.96875 -0.15625q-0.890625 0 -1.359375 0.359375q-0.46875 0.34375 -0.46875 0.921875q0 0.890625 1.1875 1.140625l1.453125 0.3125q1.03125 0.21875 1.546875 0.71875q0.53125 0.484375 0.53125 1.3125q0 1.0625 -0.84375 1.6875q-0.84375 0.609375 -2.25 0.609375zm7.6960144 0q-0.71875 0 -1.453125 -0.171875q-0.734375 -0.1875 -1.34375 -0.609375q-0.296875 -0.171875 -0.296875 -0.453125q0.015625 -0.28125 0.21875 -0.4375q0.21875 -0.171875 0.53125 0q0.625 0.375 1.203125 0.53125q0.59375 0.15625 1.171875 0.15625q0.90625 0 1.375 -0.328125q0.46875 -0.34375 0.46875 -0.921875q0 -0.453125 -0.3125 -0.71875q-0.296875 -0.265625 -0.953125 -0.40625l-1.46875 -0.3125q-1.96875 -0.4375 -1.96875 -2.046875q0 -1.0625 0.828125 -1.703125q0.84375 -0.640625 2.203125 -0.640625q0.6875 0 1.328125 0.1875q0.640625 0.1875 1.15625 0.578125q0.265625 0.203125 0.234375 0.46875q-0.03125 0.265625 -0.25 0.421875q-0.21875 0.15625 -0.515625 -0.03125q-0.484375 -0.328125 -0.984375 -0.46875q-0.484375 -0.15625 -0.96875 -0.15625q-0.890625 0 -1.359375 0.359375q-0.46875 0.34375 -0.46875 0.921875q0 0.890625 1.1875 1.140625l1.453125 0.3125q1.03125 0.21875 1.546875 0.71875q0.53125 0.484375 0.53125 1.3125q0 1.0625 -0.84375 1.6875q-0.84375 0.609375 -2.25 0.609375z" fill-rule="nonzero"/><path fill="#ffffff" fill-opacity="0.1955" d="m160.72766 75.66281l0 0c0 -3.568901 2.8931732 -6.4620743 6.462082 -6.4620743l277.9735 0c1.7138367 0 3.357483 0.6808243 4.5693665 1.8927002c1.2118835 1.2118759 1.8927002 2.8555298 1.8927002 4.569374l0 25.847511c0 3.568901 -2.893158 6.4620743 -6.4620667 6.4620743l-277.9735 0c-3.5689087 0 -6.462082 -2.8931732 -6.462082 -6.4620743z" fill-rule="evenodd"/><path stroke="#5a8bff" stroke-width="1.0" stroke-linejoin="round" stroke-linecap="butt" d="m160.72766 75.66281l0 0c0 -3.568901 2.8931732 -6.4620743 6.462082 -6.4620743l277.9735 0c1.7138367 0 3.357483 0.6808243 4.5693665 1.8927002c1.2118835 1.2118759 1.8927002 2.8555298 1.8927002 4.569374l0 25.847511c0 3.568901 -2.893158 6.4620743 -6.4620667 6.4620743l-277.9735 0c-3.5689087 0 -6.462082 -2.8931732 -6.462082 -6.4620743z" fill-rule="evenodd"/><path fill="#ffffff" d="m266.0469 94.44656q-0.671875 0 -0.671875 -0.6875l0 -9.984375q0 -0.6875 0.65625 -0.6875q0.65625 0 0.65625 0.6875l0 9.515625l5.25 0q0.609375 0 0.609375 0.578125q0 0.578125 -0.609375 0.578125l-5.890625 0zm8.484894 -9.640625q-0.84375 0 -0.84375 -0.8125q0 -0.78125 0.84375 -0.78125q0.84375 0 0.84375 0.78125q0 0.8125 -0.84375 0.8125zm0 9.71875q-0.640625 0 -0.640625 -0.703125l0 -6.546875q0 -0.6875 0.640625 -0.6875q0.65625 0 0.65625 0.6875l0 6.546875q0 0.703125 -0.65625 0.703125zm5.9620056 0.03125q-0.5625 0 -0.828125 -0.625l-2.765625 -6.453125q-0.15625 -0.375 -0.015625 -0.640625q0.140625 -0.28125 0.578125 -0.28125q0.4375 0 0.65625 0.515625l2.40625 5.90625l2.453125 -5.90625q0.109375 -0.28125 0.25 -0.390625q0.140625 -0.125 0.421875 -0.125q0.359375 0 0.484375 0.28125q0.140625 0.265625 0 0.625l-2.8125 6.46875q-0.25 0.625 -0.828125 0.625zm8.737396 0.03125q-1.84375 0 -2.921875 -1.078125q-1.0625 -1.078125 -1.0625 -2.9375q0 -1.203125 0.484375 -2.109375q0.484375 -0.921875 1.3125 -1.421875q0.84375 -0.515625 1.953125 -0.515625q1.578125 0 2.4687195 1.015625q0.90625 1.015625 0.90625 2.796875q0 0.5 -0.5625 0.5l-5.2968445 0q0.0625 1.328125 0.765625 2.03125q0.703125 0.6875 1.953125 0.6875q0.53125 0 1.078125 -0.140625q0.5468445 -0.140625 1.0468445 -0.484375q0.375 -0.25 0.625 -0.09375q0.25 0.140625 0.25 0.4375q0.015625 0.296875 -0.328125 0.515625q-0.53125 0.390625 -1.265625 0.59375q-0.7187195 0.203125 -1.4062195 0.203125zm-0.203125 -7.09375q-1.109375 0 -1.75 0.6875q-0.640625 0.6875 -0.75 1.796875l4.7187195 0q-0.046875 -1.171875 -0.625 -1.828125q-0.5624695 -0.65625 -1.5937195 -0.65625zm6.0432434 7.0625q-0.65625 0 -0.65625 -0.6875l0 -10.140625q0 -0.671875 0.65625 -0.671875q0.65625 0 0.65625 0.671875l0 4.5625l0.03125 0l5.21875 -4.875q0.390625 -0.359375 0.796875 -0.359375q0.4375 0 0.515625 0.3125q0.09375 0.3125 -0.1875 0.578125l-5.078125 4.6875l5.328125 4.9375q0.359375 0.328125 0.21875 0.65625q-0.125 0.328125 -0.5625 0.328125q-0.234375 0 -0.40625 -0.109375q-0.15625 -0.09375 -0.375 -0.296875l-5.46875 -5.015625l-0.03125 0l0 4.734375q0 0.6875 -0.65625 0.6875zm10.004517 -9.75q-0.84375 0 -0.84375 -0.8125q0 -0.78125 0.84375 -0.78125q0.84375 0 0.84375 0.78125q0 0.8125 -0.84375 0.8125zm0 9.71875q-0.640625 0 -0.640625 -0.703125l0 -6.546875q0 -0.6875 0.640625 -0.6875q0.65625 0 0.65625 0.6875l0 6.546875q0 0.703125 -0.65625 0.703125zm6.1963806 0.0625q-1.390625 0 -2.078125 -0.71875q-0.6875 -0.734375 -0.6875 -2.109375l0 -4.078125l-1.0625 0q-0.5625 0 -0.5625 -0.515625q0 -0.5 0.5625 -0.5l1.0625 0l0 -1.828125q0 -0.65625 0.65625 -0.65625q0.640625 0 0.640625 0.65625l0 1.828125l2.015625 0q0.5625 0 0.5625 0.5q0 0.515625 -0.5625 0.515625l-2.015625 0l0 3.953125q0 0.90625 0.375 1.390625q0.390625 0.46875 1.265625 0.46875q0.296875 0 0.5 -0.0625q0.21875 -0.078125 0.375 -0.078125q0.140625 -0.015625 0.234375 0.109375q0.109375 0.109375 0.109375 0.375q0 0.1875 -0.078125 0.359375q-0.078125 0.15625 -0.25 0.21875q-0.1875 0.0625 -0.5 0.109375q-0.3125 0.0625 -0.5625 0.0625zm10.431152 0q-1.15625 0 -2.171875 -0.28125q-1.015625 -0.28125 -1.75 -0.8125q-0.265625 -0.1875 -0.3125 -0.421875q-0.046875 -0.234375 0.046875 -0.4375q0.109375 -0.21875 0.3125 -0.28125q0.21875 -0.078125 0.484375 0.09375q0.734375 0.53125 1.546875 0.75q0.8125 0.21875 1.84375 0.21875q1.4375 0 2.125 -0.53125q0.703125 -0.53125 0.703125 -1.40625q0 -0.71875 -0.515625 -1.125q-0.5 -0.421875 -1.671875 -0.65625l-1.671875 -0.34375q-1.5 -0.3125 -2.25 -1.03125q-0.734375 -0.734375 -0.734375 -1.953125q0 -1.015625 0.515625 -1.765625q0.515625 -0.75 1.4375 -1.15625q0.9375 -0.421875 2.15625 -0.421875q1.0 0 1.875 0.28125q0.875 0.28125 1.578125 0.84375q0.21875 0.171875 0.25 0.40625q0.046875 0.234375 -0.0625 0.421875q-0.109375 0.1875 -0.328125 0.25q-0.203125 0.046875 -0.484375 -0.125q-0.640625 -0.5 -1.34375 -0.703125q-0.6875 -0.203125 -1.5 -0.203125q-1.265625 0 -2.015625 0.578125q-0.75 0.578125 -0.75 1.546875q0 0.765625 0.46875 1.21875q0.46875 0.4375 1.546875 0.65625l1.65625 0.34375q1.609375 0.34375 2.390625 1.03125q0.78125 0.671875 0.78125 1.828125q0 0.953125 -0.515625 1.671875q-0.5 0.71875 -1.4375 1.125q-0.9375 0.390625 -2.203125 0.390625zm6.902527 -0.140625q-0.71875 0 -0.71875 -0.71875l0 -9.84375q0 -0.71875 0.71875 -0.71875l3.09375 0q2.734375 0 4.21875 1.453125q1.484375 1.4375 1.484375 4.1875q0 2.734375 -1.484375 4.1875q-1.484375 1.453125 -4.21875 1.453125l-3.09375 0zm0.59375 -1.125l2.40625 0q4.40625 0 4.40625 -4.515625q0 -4.515625 -4.40625 -4.515625l-2.40625 0l0 9.03125zm11.215759 1.234375q-0.65625 0 -0.65625 -0.6875l0 -10.140625q0 -0.671875 0.65625 -0.671875q0.65625 0 0.65625 0.671875l0 4.5625l0.03125 0l5.21875 -4.875q0.390625 -0.359375 0.796875 -0.359375q0.4375 0 0.515625 0.3125q0.09375 0.3125 -0.1875 0.578125l-5.078125 4.6875l5.328125 4.9375q0.359375 0.328125 0.21875 0.65625q-0.125 0.328125 -0.5625 0.328125q-0.234375 0 -0.40625 -0.109375q-0.15625 -0.09375 -0.375 -0.296875l-5.46875 -5.015625l-0.03125 0l0 4.734375q0 0.6875 -0.65625 0.6875z" fill-rule="nonzero"/><path fill="#000000" fill-opacity="0.0" d="m306.17648 107.9724c0 28.453278 39.472443 42.678207 78.944885 56.906555c39.472443 14.228348 78.944885 28.460098 78.944885 56.92021" fill-rule="evenodd"/><path stroke="#5a8bff" stroke-width="2.0" stroke-linejoin="round" stroke-linecap="butt" d="m306.17648 107.97239c0 28.453285 39.472412 42.678215 78.944855 56.906563c19.736237 7.1141815 39.472443 14.229187 54.274628 23.1232c7.401062 4.446991 13.568634 9.33873 17.885956 14.897491c1.0792847 1.389679 2.0429993 2.8210602 2.8813782 4.297592c0.41921997 0.73828125 0.8070984 1.4878235 1.1624451 2.2490997c0.08886719 0.19033813 0.17565918 0.38137817 0.2604065 0.57318115l0.015258789 0.03552246" fill-rule="evenodd"/><path fill="#5a8bff" stroke="#5a8bff" stroke-width="2.0" stroke-linecap="butt" d="m458.36838 210.73357l5.09729 8.204147l1.3687744 -9.561218z" fill-rule="evenodd"/><path fill="#000000" fill-opacity="0.0" d="m379.6902 138.01035l138.77167 0l0 37.165344l-138.77167 0z" fill-rule="evenodd"/><path fill="#000000" d="m390.5652 161.19972q-0.59375 0 -0.59375 -0.640625l0 -9.28125q0 -0.625 0.59375 -0.625q0.609375 0 0.609375 0.625l0 4.046875l6.1875 0l0 -4.046875q0 -0.625 0.609375 -0.625q0.59375 0 0.59375 0.625l0 9.28125q0 0.640625 -0.59375 0.640625q-0.609375 0 -0.609375 -0.640625l0 -4.1875l-6.1875 0l0 4.1875q0 0.640625 -0.609375 0.640625zm13.684692 0q-0.59375 0 -0.59375 -0.640625l0 -8.765625l-3.296875 0q-0.5625 0 -0.5625 -0.515625q0 -0.515625 0.5625 -0.515625l7.8125 0q0.546875 0 0.546875 0.515625q0 0.515625 -0.546875 0.515625l-3.296875 0l0 8.765625q0 0.640625 -0.625 0.640625zm8.9844055 0q-0.59375 0 -0.59375 -0.640625l0 -8.765625l-3.296875 0q-0.5625 0 -0.5625 -0.515625q0 -0.515625 0.5625 -0.515625l7.8125 0q0.546875 0 0.546875 0.515625q0 0.515625 -0.546875 0.515625l-3.296875 0l0 8.765625q0 0.640625 -0.625 0.640625zm6.2918396 0q-0.59375 0 -0.59375 -0.640625l0 -9.1875q0 -0.609375 0.609375 -0.609375l3.46875 0q1.671875 0 2.5625 0.8125q0.890625 0.796875 0.890625 2.296875q0 1.46875 -0.890625 2.28125q-0.890625 0.8125 -2.5625 0.8125l-2.875 0l0 3.59375q0 0.640625 -0.609375 0.640625zm0.609375 -5.234375l2.734375 0q2.40625 0 2.40625 -2.09375q0 -2.125 -2.40625 -2.125l-2.734375 0l0 4.21875zm11.402435 5.25q-1.046875 0 -1.984375 -0.25q-0.921875 -0.25 -1.59375 -0.75q-0.234375 -0.171875 -0.28125 -0.390625q-0.046875 -0.21875 0.046875 -0.40625q0.09375 -0.1875 0.28125 -0.25q0.203125 -0.078125 0.453125 0.09375q0.65625 0.484375 1.390625 0.6875q0.75 0.203125 1.6875 0.203125q1.328125 0 1.953125 -0.484375q0.640625 -0.5 0.640625 -1.296875q0 -0.65625 -0.46875 -1.03125q-0.453125 -0.390625 -1.53125 -0.609375l-1.53125 -0.296875q-1.375 -0.296875 -2.0625 -0.953125q-0.671875 -0.671875 -0.671875 -1.796875q0 -0.921875 0.46875 -1.609375q0.484375 -0.6875 1.328125 -1.0625q0.859375 -0.390625 1.96875 -0.390625q0.921875 0 1.71875 0.265625q0.796875 0.25 1.453125 0.765625q0.203125 0.15625 0.234375 0.375q0.046875 0.203125 -0.0625 0.390625q-0.109375 0.171875 -0.296875 0.234375q-0.1875 0.046875 -0.453125 -0.125q-0.578125 -0.453125 -1.21875 -0.640625q-0.640625 -0.1875 -1.390625 -0.1875q-1.15625 0 -1.84375 0.53125q-0.6875 0.53125 -0.6875 1.40625q0 0.71875 0.421875 1.125q0.4375 0.40625 1.421875 0.59375l1.53125 0.328125q1.46875 0.3125 2.171875 0.9375q0.71875 0.609375 0.71875 1.6875q0 0.859375 -0.46875 1.53125q-0.453125 0.65625 -1.3125 1.015625q-0.84375 0.359375 -2.03125 0.359375zm5.2901 0.375q-0.09375 0.25 -0.28125 0.328125q-0.171875 0.078125 -0.359375 0.015625q-0.1875 -0.046875 -0.28125 -0.21875q-0.109375 -0.15625 -0.03125 -0.40625l3.484375 -10.8125q0.078125 -0.234375 0.25 -0.3125q0.1875 -0.09375 0.375 -0.03125q0.1875 0.046875 0.296875 0.21875q0.109375 0.171875 0.015625 0.40625l-3.46875 10.8125zm8.5156555 -0.390625q-0.484375 0 -0.6875 -0.5625l-3.25 -9.25q-0.09375 -0.328125 0.046875 -0.53125q0.140625 -0.203125 0.5 -0.203125q0.46875 0 0.640625 0.515625l2.765625 8.15625l2.84375 -8.109375q0.203125 -0.5625 0.65625 -0.5625q0.234375 0 0.375 0.140625q0.140625 0.140625 0.234375 0.421875l2.8125 8.1875l2.84375 -8.234375q0.15625 -0.515625 0.640625 -0.515625q0.296875 0 0.4375 0.203125q0.140625 0.203125 0.03125 0.53125l-3.25 9.25q-0.09375 0.28125 -0.25 0.421875q-0.15625 0.140625 -0.4375 0.140625q-0.265625 0 -0.421875 -0.140625q-0.15625 -0.140625 -0.265625 -0.421875l-2.78125 -8.046875l-2.8125 8.046875q-0.109375 0.28125 -0.265625 0.421875q-0.140625 0.140625 -0.40625 0.140625zm15.990875 0.015625q-1.046875 0 -1.984375 -0.25q-0.921875 -0.25 -1.59375 -0.75q-0.234375 -0.171875 -0.28125 -0.390625q-0.046875 -0.21875 0.046875 -0.40625q0.09375 -0.1875 0.28125 -0.25q0.203125 -0.078125 0.453125 0.09375q0.65625 0.484375 1.390625 0.6875q0.75 0.203125 1.6875 0.203125q1.328125 0 1.953125 -0.484375q0.640625 -0.5 0.640625 -1.296875q0 -0.65625 -0.46875 -1.03125q-0.453125 -0.390625 -1.53125 -0.609375l-1.53125 -0.296875q-1.375 -0.296875 -2.0625 -0.953125q-0.671875 -0.671875 -0.671875 -1.796875q0 -0.921875 0.46875 -1.609375q0.484375 -0.6875 1.328125 -1.0625q0.859375 -0.390625 1.96875 -0.390625q0.921875 0 1.71875 0.265625q0.796875 0.25 1.453125 0.765625q0.203125 0.15625 0.234375 0.375q0.046875 0.203125 -0.0625 0.390625q-0.109375 0.171875 -0.296875 0.234375q-0.1875 0.046875 -0.453125 -0.125q-0.578125 -0.453125 -1.21875 -0.640625q-0.640625 -0.1875 -1.390625 -0.1875q-1.15625 0 -1.84375 0.53125q-0.6875 0.53125 -0.6875 1.40625q0 0.71875 0.421875 1.125q0.4375 0.40625 1.421875 0.59375l1.53125 0.328125q1.46875 0.3125 2.171875 0.9375q0.71875 0.609375 0.71875 1.6875q0 0.859375 -0.46875 1.53125q-0.453125 0.65625 -1.3125 1.015625q-0.84375 0.359375 -2.03125 0.359375zm9.013641 0q-1.046875 0 -1.984375 -0.25q-0.921875 -0.25 -1.59375 -0.75q-0.234375 -0.171875 -0.28125 -0.390625q-0.046875 -0.21875 0.046875 -0.40625q0.09375 -0.1875 0.28125 -0.25q0.203125 -0.078125 0.453125 0.09375q0.65625 0.484375 1.390625 0.6875q0.75 0.203125 1.6875 0.203125q1.328125 0 1.953125 -0.484375q0.640625 -0.5 0.640625 -1.296875q0 -0.65625 -0.46875 -1.03125q-0.453125 -0.390625 -1.53125 -0.609375l-1.53125 -0.296875q-1.375 -0.296875 -2.0625 -0.953125q-0.671875 -0.671875 -0.671875 -1.796875q0 -0.921875 0.46875 -1.609375q0.484375 -0.6875 1.328125 -1.0625q0.859375 -0.390625 1.96875 -0.390625q0.921875 0 1.71875 0.265625q0.796875 0.25 1.453125 0.765625q0.203125 0.15625 0.234375 0.375q0.046875 0.203125 -0.0625 0.390625q-0.109375 0.171875 -0.296875 0.234375q-0.1875 0.046875 -0.453125 -0.125q-0.578125 -0.453125 -1.21875 -0.640625q-0.640625 -0.1875 -1.390625 -0.1875q-1.15625 0 -1.84375 0.53125q-0.6875 0.53125 -0.6875 1.40625q0 0.71875 0.421875 1.125q0.4375 0.40625 1.421875 0.59375l1.53125 0.328125q1.46875 0.3125 2.171875 0.9375q0.71875 0.609375 0.71875 1.6875q0 0.859375 -0.46875 1.53125q-0.453125 0.65625 -1.3125 1.015625q-0.84375 0.359375 -2.03125 0.359375z" fill-rule="nonzero"/><path fill="#000000" fill-opacity="0.0" d="m163.106 138.09648l80.755905 0l0 37.16536l-80.755905 0z" fill-rule="evenodd"/><path fill="#000000" d="m176.69975 161.28586q-0.484375 0 -0.6875 -0.5625l-3.25 -9.25q-0.09375 -0.328125 0.046875 -0.53125q0.140625 -0.203125 0.5 -0.203125q0.46875 0 0.640625 0.515625l2.765625 8.15625l2.84375 -8.109375q0.203125 -0.5625 0.65625 -0.5625q0.234375 0 0.375 0.140625q0.140625 0.140625 0.234375 0.421875l2.8125 8.1875l2.84375 -8.234375q0.15625 -0.515625 0.640625 -0.515625q0.296875 0 0.4375 0.203125q0.140625 0.203125 0.03125 0.53125l-3.25 9.25q-0.09375 0.28125 -0.25 0.421875q-0.15625 0.140625 -0.4375 0.140625q-0.265625 0 -0.421875 -0.140625q-0.15625 -0.140625 -0.265625 -0.421875l-2.78125 -8.046875l-2.8125 8.046875q-0.109375 0.28125 -0.265625 0.421875q-0.140625 0.140625 -0.40625 0.140625zm15.005646 0.015625q-1.6875 0 -2.671875 -0.984375q-0.984375 -0.984375 -0.984375 -2.6875q0 -1.09375 0.4375 -1.9375q0.4375 -0.84375 1.203125 -1.296875q0.78125 -0.46875 1.796875 -0.46875q1.453125 0 2.265625 0.9375q0.828125 0.921875 0.828125 2.546875q0 0.453125 -0.515625 0.453125l-4.859375 0q0.0625 1.21875 0.703125 1.859375q0.65625 0.625 1.796875 0.625q0.484375 0 0.96875 -0.109375q0.5 -0.125 0.96875 -0.453125q0.34375 -0.21875 0.5625 -0.078125q0.234375 0.125 0.234375 0.390625q0.015625 0.265625 -0.296875 0.484375q-0.484375 0.34375 -1.15625 0.53125q-0.65625 0.1875 -1.28125 0.1875zm-0.1875 -6.5q-1.015625 0 -1.609375 0.640625q-0.578125 0.625 -0.6875 1.640625l4.328125 0q-0.046875 -1.078125 -0.578125 -1.671875q-0.515625 -0.609375 -1.453125 -0.609375zm8.375275 6.5q-0.828125 0 -1.484375 -0.359375q-0.640625 -0.375 -0.953125 -1.046875l0 0.765625q0 0.625 -0.578125 0.625q-0.59375 0 -0.59375 -0.625l0 -9.3125q0 -0.609375 0.59375 -0.609375q0.59375 0 0.59375 0.609375l0 3.9375q0.3125 -0.625 0.953125 -0.984375q0.65625 -0.375 1.46875 -0.375q0.953125 0 1.65625 0.453125q0.71875 0.4375 1.109375 1.265625q0.390625 0.828125 0.390625 1.96875q0 1.125 -0.390625 1.953125q-0.390625 0.828125 -1.109375 1.28125q-0.703125 0.453125 -1.65625 0.453125zm-0.25 -0.953125q1.0 0 1.59375 -0.703125q0.609375 -0.71875 0.609375 -2.03125q0 -1.328125 -0.609375 -2.03125q-0.59375 -0.703125 -1.59375 -0.703125q-1.0 0 -1.609375 0.703125q-0.59375 0.703125 -0.59375 2.03125q0 1.3125 0.59375 2.03125q0.609375 0.703125 1.609375 0.703125zm5.950882 0.9375q-0.59375 0 -0.59375 -0.640625l0 -9.1875q0 -0.609375 0.609375 -0.609375l3.46875 0q1.671875 0 2.5625 0.78125q0.890625 0.765625 0.890625 2.203125q0 1.140625 -0.625 1.875q-0.625 0.734375 -1.765625 0.953125q0.671875 0.234375 1.15625 1.140625l1.40625 2.625q0.15625 0.3125 0.046875 0.59375q-0.09375 0.265625 -0.453125 0.265625q-0.25 0 -0.421875 -0.109375q-0.15625 -0.125 -0.265625 -0.359375l-1.609375 -2.953125q-0.328125 -0.625 -0.765625 -0.84375q-0.4375 -0.21875 -1.15625 -0.21875l-1.875 0l0 3.84375q0 0.640625 -0.609375 0.640625zm0.609375 -5.421875l2.703125 0q2.4375 0 2.4375 -2.03125q0 -2.0 -2.4375 -2.0l-2.703125 0l0 4.03125zm11.433609 5.421875q-0.59375 0 -0.59375 -0.640625l0 -8.765625l-3.296875 0q-0.5625 0 -0.5625 -0.515625q0 -0.515625 0.5625 -0.515625l7.8125 0q0.546875 0 0.546875 0.515625q0 0.515625 -0.546875 0.515625l-3.296875 0l0 8.765625q0 0.640625 -0.625 0.640625zm9.5215 0.015625q-1.53125 0 -2.625 -0.640625q-1.078125 -0.640625 -1.65625 -1.828125q-0.578125 -1.1875 -0.578125 -2.828125q0 -1.625 0.578125 -2.8125q0.578125 -1.1875 1.65625 -1.828125q1.09375 -0.65625 2.625 -0.65625q0.90625 0 1.71875 0.265625q0.828125 0.265625 1.421875 0.75q0.25 0.171875 0.28125 0.40625q0.046875 0.234375 -0.078125 0.421875q-0.109375 0.1875 -0.328125 0.234375q-0.203125 0.046875 -0.46875 -0.140625q-1.046875 -0.828125 -2.515625 -0.828125q-1.75 0 -2.671875 1.09375q-0.921875 1.09375 -0.921875 3.09375q0 2.0 0.921875 3.109375q0.921875 1.09375 2.671875 1.09375q1.46875 0 2.546875 -0.84375q0.265625 -0.1875 0.46875 -0.140625q0.21875 0.046875 0.328125 0.234375q0.109375 0.171875 0.078125 0.390625q-0.03125 0.21875 -0.25 0.390625q-0.625 0.53125 -1.453125 0.796875q-0.8125 0.265625 -1.75 0.265625z" fill-rule="nonzero"/><path fill="#ffffff" fill-opacity="0.095" d="m19.460094 221.78633l118.99213 0l0 213.41731l-118.99213 0z" fill-rule="evenodd"/><path stroke="#5a8bff" stroke-width="1.0" stroke-linejoin="round" stroke-linecap="butt" d="m19.460094 221.78633l118.99213 0l0 213.41731l-118.99213 0z" fill-rule="evenodd"/><path fill="#ffffff" d="m61.683743 246.2557q-0.625 0 -0.625 -0.65625l0 -10.171875q0 -0.671875 0.578125 -0.671875q0.234375 0 0.359375 0.09375q0.140625 0.078125 0.296875 0.3125l6.593754 8.78125l0 -8.546875q0 -0.640625 0.625 -0.640625q0.59375 0 0.59375 0.640625l0 10.21875q0 0.640625 -0.53125 0.640625q-0.25 0 -0.390625 -0.09375q-0.140625 -0.09375 -0.296875 -0.296875l-6.593754 -8.828125l0 8.5625q0 0.65625 -0.609375 0.65625zm14.277531 0.03125q-1.140625 0 -1.984375 -0.484375q-0.828125 -0.5 -1.28125 -1.40625q-0.453125 -0.90625 -0.453125 -2.140625q0 -1.234375 0.453125 -2.125q0.453125 -0.90625 1.28125 -1.40625q0.84375 -0.5 1.984375 -0.5q1.109375 0 1.953125 0.5q0.84375 0.5 1.296875 1.40625q0.453125 0.890625 0.453125 2.125q0 1.234375 -0.453125 2.140625q-0.453125 0.90625 -1.296875 1.40625q-0.84375 0.484375 -1.953125 0.484375zm0 -1.03125q1.078125 0 1.734375 -0.78125q0.65625 -0.78125 0.65625 -2.21875q0 -1.453125 -0.65625 -2.21875q-0.65625 -0.765625 -1.734375 -0.765625q-1.109375 0 -1.765625 0.765625q-0.640625 0.765625 -0.640625 2.21875q0 1.4375 0.640625 2.21875q0.65625 0.78125 1.765625 0.78125zm8.614761 1.03125q-1.03125 0 -1.8125 -0.484375q-0.78125 -0.5 -1.203125 -1.40625q-0.421875 -0.90625 -0.421875 -2.140625q0 -1.25 0.421875 -2.140625q0.421875 -0.90625 1.203125 -1.390625q0.78125 -0.5 1.8125 -0.5q0.921875 0 1.609375 0.40625q0.703125 0.390625 1.03125 1.09375l0 -4.3125q0 -0.65625 0.65625 -0.65625q0.640625 0 0.640625 0.65625l0 10.171875q0 0.671875 -0.640625 0.671875q-0.640625 0 -0.640625 -0.671875l0 -0.828125q-0.34375 0.71875 -1.046875 1.125q-0.6875 0.40625 -1.609375 0.40625zm0.28125 -1.03125q1.078125 0 1.734375 -0.78125q0.65625 -0.78125 0.65625 -2.21875q0 -1.453125 -0.65625 -2.21875q-0.65625 -0.765625 -1.734375 -0.765625q-1.109375 0 -1.765625 0.765625q-0.640625 0.765625 -0.640625 2.21875q0 1.4375 0.640625 2.21875q0.65625 0.78125 1.765625 0.78125zm9.593643 1.03125q-1.84375 0 -2.921875 -1.078125q-1.0625 -1.078125 -1.0625 -2.9375q0 -1.203125 0.484375 -2.109375q0.484375 -0.921875 1.3125 -1.421875q0.84375 -0.515625 1.953125 -0.515625q1.578125 0 2.46875 1.015625q0.90625 1.015625 0.90625 2.796875q0 0.5 -0.5625 0.5l-5.296875 0q0.0625 1.328125 0.765625 2.03125q0.703125 0.6875 1.953125 0.6875q0.53125 0 1.078125 -0.140625q0.546875 -0.140625 1.046875 -0.484375q0.375 -0.25 0.625 -0.09375q0.25 0.140625 0.25 0.4375q0.015625 0.296875 -0.328125 0.515625q-0.53125 0.390625 -1.265625 0.59375q-0.71875 0.203125 -1.40625 0.203125zm-0.203125 -7.09375q-1.109375 0 -1.75 0.6875q-0.640625 0.6875 -0.75 1.796875l4.71875 0q-0.046875 -1.171875 -0.625 -1.828125q-0.5625 -0.65625 -1.59375 -0.65625z" fill-rule="nonzero"/><path fill="#485570" d="m25.412851 284.51752l0 0c0 -5.8853455 4.771023 -10.656372 10.656382 -10.656372l83.15968 0c2.8262482 0 5.5367355 1.1227112 7.5351944 3.1211853c1.9984665 1.9984436 3.1211777 4.708954 3.1211777 7.535187l0 42.624237c0 5.885376 -4.771019 10.656403 -10.656372 10.656403l-83.15968 0c-5.885359 0 -10.656382 -4.7710266 -10.656382 -10.656403z" fill-rule="evenodd"/><path fill="#ffffff" d="m55.43952 292.68964q-0.671875 0 -0.671875 -0.6875l0 -9.984375q0 -0.6875 0.65625 -0.6875q0.65625 0 0.65625 0.6875l0 9.515625l5.25 0q0.609375 0 0.609375 0.578125q0 0.578125 -0.609375 0.578125l-5.890625 0zm8.484894 -9.640625q-0.84375 0 -0.84375 -0.8125q0 -0.78125 0.84375 -0.78125q0.84375 0 0.84375 0.78125q0 0.8125 -0.84375 0.8125zm0 9.71875q-0.640625 0 -0.640625 -0.703125l0 -6.546875q0 -0.6875 0.640625 -0.6875q0.65625 0 0.65625 0.6875l0 6.546875q0 0.703125 -0.65625 0.703125zm5.9620056 0.03125q-0.5625 0 -0.828125 -0.625l-2.765625 -6.453125q-0.15625 -0.375 -0.015625 -0.640625q0.140625 -0.28125 0.578125 -0.28125q0.4375 0 0.65625 0.515625l2.40625 5.90625l2.453125 -5.90625q0.109375 -0.28125 0.25 -0.390625q0.140625 -0.125 0.421875 -0.125q0.359375 0 0.484375 0.28125q0.140625 0.265625 0 0.625l-2.8125 6.46875q-0.25 0.625 -0.828125 0.625zm8.737396 0.03125q-1.84375 0 -2.921875 -1.078125q-1.0625 -1.078125 -1.0625 -2.9375q0 -1.203125 0.484375 -2.109375q0.484375 -0.921875 1.3125 -1.421875q0.84375 -0.515625 1.953125 -0.515625q1.578125 0 2.46875 1.015625q0.90625 1.015625 0.90625 2.796875q0 0.5 -0.5625 0.5l-5.296875 0q0.0625 1.328125 0.765625 2.03125q0.703125 0.6875 1.953125 0.6875q0.53125 0 1.078125 -0.140625q0.546875 -0.140625 1.046875 -0.484375q0.375 -0.25 0.625 -0.09375q0.25 0.140625 0.25 0.4375q0.015625 0.296875 -0.328125 0.515625q-0.53125 0.390625 -1.265625 0.59375q-0.71875 0.203125 -1.40625 0.203125zm-0.203125 -7.09375q-1.109375 0 -1.75 0.6875q-0.640625 0.6875 -0.75 1.796875l4.71875 0q-0.046875 -1.171875 -0.625 -1.828125q-0.5625 -0.65625 -1.59375 -0.65625zm6.043274 7.0625q-0.65625 0 -0.65625 -0.6875l0 -10.140625q0 -0.671875 0.65625 -0.671875q0.65625 0 0.65625 0.671875l0 4.5625l0.03125 0l5.21875 -4.875q0.390625 -0.359375 0.796875 -0.359375q0.4375 0 0.515625 0.3125q0.09375 0.3125 -0.1875 0.578125l-5.078125 4.6875l5.328125 4.9375q0.359375 0.328125 0.21875 0.65625q-0.125 0.328125 -0.5625 0.328125q-0.234375 0 -0.40625 -0.109375q-0.15625 -0.09375 -0.375 -0.296875l-5.46875 -5.015625l-0.03125 0l0 4.734375q0 0.6875 -0.65625 0.6875zm10.004517 -9.75q-0.84375 0 -0.84375 -0.8125q0 -0.78125 0.84375 -0.78125q0.84375 0 0.84375 0.78125q0 0.8125 -0.84375 0.8125zm0 9.71875q-0.640625 0 -0.640625 -0.703125l0 -6.546875q0 -0.6875 0.640625 -0.6875q0.65625 0 0.65625 0.6875l0 6.546875q0 0.703125 -0.65625 0.703125zm6.1963806 0.0625q-1.390625 0 -2.078125 -0.71875q-0.6875 -0.734375 -0.6875 -2.109375l0 -4.078125l-1.0625 0q-0.5625 0 -0.5625 -0.515625q0 -0.5 0.5625 -0.5l1.0625 0l0 -1.828125q0 -0.65625 0.65625 -0.65625q0.640625 0 0.640625 0.65625l0 1.828125l2.015625 0q0.5625 0 0.5625 0.5q0 0.515625 -0.5625 0.515625l-2.015625 0l0 3.953125q0 0.90625 0.375 1.390625q0.390625 0.46875 1.265625 0.46875q0.296875 0 0.5 -0.0625q0.21875 -0.078125 0.375 -0.078125q0.140625 -0.015625 0.234375 0.109375q0.109375 0.109375 0.109375 0.375q0 0.1875 -0.078125 0.359375q-0.078125 0.15625 -0.25 0.21875q-0.1875 0.0625 -0.5 0.109375q-0.3125 0.0625 -0.5625 0.0625z" fill-rule="nonzero"/><path fill="#ffffff" d="m59.10077 311.83026q-0.71875 0 -1.453125 -0.171875q-0.734375 -0.1875 -1.34375 -0.609375q-0.296875 -0.171875 -0.296875 -0.453125q0.015625 -0.28125 0.21875 -0.4375q0.21875 -0.171875 0.53125 0q0.625 0.375 1.203125 0.53125q0.59375 0.15625 1.171875 0.15625q0.90625 0 1.375 -0.328125q0.46875 -0.34375 0.46875 -0.921875q0 -0.453125 -0.3125 -0.71875q-0.296875 -0.265625 -0.953125 -0.40625l-1.46875 -0.3125q-1.96875 -0.4375 -1.96875 -2.046875q0 -1.0625 0.828125 -1.703125q0.84375 -0.640625 2.203125 -0.640625q0.6875 0 1.328125 0.1875q0.640625 0.1875 1.15625 0.578125q0.265625 0.203125 0.234375 0.46875q-0.03125 0.265625 -0.25 0.421875q-0.21875 0.15625 -0.515625 -0.03125q-0.484375 -0.328125 -0.984375 -0.46875q-0.484375 -0.15625 -0.96875 -0.15625q-0.890625 0 -1.359375 0.359375q-0.46875 0.34375 -0.46875 0.921875q0 0.890625 1.1875 1.140625l1.453125 0.3125q1.03125 0.21875 1.546875 0.71875q0.53125 0.484375 0.53125 1.3125q0 1.0625 -0.84375 1.6875q-0.84375 0.609375 -2.25 0.609375zm8.571014 0q-1.84375 0 -2.921875 -1.078125q-1.0625 -1.078125 -1.0625 -2.9375q0 -1.203125 0.484375 -2.109375q0.484375 -0.921875 1.3125 -1.421875q0.84375 -0.515625 1.953125 -0.515625q1.578125 0 2.46875 1.015625q0.90625 1.015625 0.90625 2.796875q0 0.5 -0.5625 0.5l-5.296875 0q0.0625 1.328125 0.765625 2.03125q0.703125 0.6875 1.953125 0.6875q0.53125 0 1.078125 -0.140625q0.546875 -0.140625 1.046875 -0.484375q0.375 -0.25 0.625 -0.09375q0.25 0.140625 0.25 0.4375q0.015625 0.296875 -0.328125 0.515625q-0.53125 0.390625 -1.265625 0.59375q-0.71875 0.203125 -1.40625 0.203125zm-0.203125 -7.09375q-1.109375 0 -1.75 0.6875q-0.640625 0.6875 -0.75 1.796875l4.71875 0q-0.046875 -1.171875 -0.625 -1.828125q-0.5625 -0.65625 -1.59375 -0.65625zm5.871399 7.0625q-0.65625 0 -0.65625 -0.671875l0 -6.671875q0 -0.65625 0.625 -0.65625q0.640625 0 0.640625 0.65625l0 0.84375q0.3125 -0.734375 0.984375 -1.125q0.671875 -0.390625 1.609375 -0.421875q0.5 -0.046875 0.53125 0.515625q0.046875 0.5625 -0.5625 0.625l-0.265625 0.03125q-1.09375 0.09375 -1.671875 0.703125q-0.578125 0.59375 -0.578125 1.625l0 3.875q0 0.671875 -0.65625 0.671875zm8.442383 0q-0.5625 0 -0.828125 -0.625l-2.765625 -6.453125q-0.15625 -0.375 -0.015625 -0.640625q0.140625 -0.28125 0.578125 -0.28125q0.4375 0 0.65625 0.515625l2.40625 5.90625l2.453125 -5.90625q0.109375 -0.28125 0.25 -0.390625q0.140625 -0.125 0.421875 -0.125q0.359375 0 0.484375 0.28125q0.140625 0.265625 0 0.625l-2.8125 6.46875q-0.25 0.625 -0.828125 0.625zm8.737396 0.03125q-1.84375 0 -2.921875 -1.078125q-1.0625 -1.078125 -1.0625 -2.9375q0 -1.203125 0.484375 -2.109375q0.484375 -0.921875 1.3125 -1.421875q0.84375 -0.515625 1.953125 -0.515625q1.578125 0 2.46875 1.015625q0.90625 1.015625 0.90625 2.796875q0 0.5 -0.5625 0.5l-5.296875 0q0.0625 1.328125 0.765625 2.03125q0.703125 0.6875 1.953125 0.6875q0.53125 0 1.078125 -0.140625q0.546875 -0.140625 1.046875 -0.484375q0.375 -0.25 0.625 -0.09375q0.25 0.140625 0.25 0.4375q0.015625 0.296875 -0.328125 0.515625q-0.53125 0.390625 -1.265625 0.59375q-0.71875 0.203125 -1.40625 0.203125zm-0.203125 -7.09375q-1.109375 0 -1.75 0.6875q-0.640625 0.6875 -0.75 1.796875l4.71875 0q-0.046875 -1.171875 -0.625 -1.828125q-0.5625 -0.65625 -1.59375 -0.65625zm5.871399 7.0625q-0.65625 0 -0.65625 -0.671875l0 -6.671875q0 -0.65625 0.625 -0.65625q0.640625 0 0.640625 0.65625l0 0.84375q0.3125 -0.734375 0.984375 -1.125q0.671875 -0.390625 1.609375 -0.421875q0.5 -0.046875 0.53125 0.515625q0.046875 0.5625 -0.5625 0.625l-0.265625 0.03125q-1.09375 0.09375 -1.671875 0.703125q-0.578125 0.59375 -0.578125 1.625l0 3.875q0 0.671875 -0.65625 0.671875z" fill-rule="nonzero"/><path fill="#ffffff" d="m65.73242 333.674q-0.640625 0 -0.640625 -0.640625l0 -9.578125q0 -0.65625 0.625 -0.65625q0.65625 0 0.65625 0.65625l0 0.828125q0.328125 -0.703125 1.03125 -1.109375q0.703125 -0.40625 1.625 -0.40625q1.03125 0 1.8125 0.5q0.78125 0.484375 1.203125 1.390625q0.421875 0.890625 0.421875 2.140625q0 1.234375 -0.421875 2.140625q-0.421875 0.90625 -1.203125 1.40625q-0.78125 0.484375 -1.8125 0.484375q-0.90625 0 -1.609375 -0.390625q-0.703125 -0.40625 -1.03125 -1.109375l0 3.703125q0 0.640625 -0.65625 0.640625zm3.015625 -3.875q1.09375 0 1.75 -0.78125q0.65625 -0.78125 0.65625 -2.21875q0 -1.453125 -0.65625 -2.21875q-0.65625 -0.765625 -1.75 -0.765625q-1.078125 0 -1.734375 0.765625q-0.65625 0.765625 -0.65625 2.21875q0 1.4375 0.65625 2.21875q0.65625 0.78125 1.734375 0.78125zm8.906143 1.03125q-1.140625 0 -1.984375 -0.484375q-0.828125 -0.5 -1.28125 -1.40625q-0.453125 -0.90625 -0.453125 -2.140625q0 -1.234375 0.453125 -2.125q0.453125 -0.90625 1.28125 -1.40625q0.84375 -0.5 1.984375 -0.5q1.109375 0 1.953125 0.5q0.84375 0.5 1.296875 1.40625q0.453125 0.890625 0.453125 2.125q0 1.234375 -0.453125 2.140625q-0.453125 0.90625 -1.296875 1.40625q-0.84375 0.484375 -1.953125 0.484375zm0 -1.03125q1.078125 0 1.734375 -0.78125q0.65625 -0.78125 0.65625 -2.21875q0 -1.453125 -0.65625 -2.21875q-0.65625 -0.765625 -1.734375 -0.765625q-1.109375 0 -1.765625 0.765625q-0.640625 0.765625 -0.640625 2.21875q0 1.4375 0.640625 2.21875q0.65625 0.78125 1.765625 0.78125zm8.614761 1.03125q-1.03125 0 -1.8125 -0.484375q-0.78125 -0.5 -1.203125 -1.40625q-0.421875 -0.90625 -0.421875 -2.140625q0 -1.25 0.421875 -2.140625q0.421875 -0.90625 1.203125 -1.390625q0.78125 -0.5 1.8125 -0.5q0.921875 0 1.609375 0.40625q0.703125 0.390625 1.03125 1.09375l0 -4.3125q0 -0.65625 0.65625 -0.65625q0.640625 0 0.640625 0.65625l0 10.171875q0 0.671875 -0.640625 0.671875q-0.640625 0 -0.640625 -0.671875l0 -0.828125q-0.34375 0.71875 -1.046875 1.125q-0.6875 0.40625 -1.609375 0.40625zm0.28125 -1.03125q1.078125 0 1.734375 -0.78125q0.65625 -0.78125 0.65625 -2.21875q0 -1.453125 -0.65625 -2.21875q-0.65625 -0.765625 -1.734375 -0.765625q-1.109375 0 -1.765625 0.765625q-0.640625 0.765625 -0.640625 2.21875q0 1.4375 0.640625 2.21875q0.65625 0.78125 1.765625 0.78125z" fill-rule="nonzero"/><path fill="#000000" fill-opacity="0.0" d="m77.64907 337.79816c0 44.011383 15.41732 66.01883 30.834648 88.022766c15.41732 22.003937 30.83464 44.004364 30.83464 88.00873" fill-rule="evenodd"/><path stroke="#999999" stroke-width="1.0" stroke-linejoin="round" stroke-linecap="butt" d="m77.747665 343.79733l0.001449585 0.04714966c0.02204895 0.65618896 0.047691345 1.307251 0.07686615 1.9533081c0.11668396 2.5841675 0.28982544 5.087799 0.5156708 7.5161743c0.45167542 4.8567505 1.1141357 9.412689 1.9572754 13.710754c1.6862717 8.5961 4.0952225 16.160736 6.9859695 23.037628c5.781502 13.753754 13.490158 24.756622 21.198822 35.758606c7.708664 11.001953 15.41732 22.003021 21.198822 35.75418c2.890747 6.87558 5.299698 14.43866 6.985977 23.033142c0.8431244 4.29718 1.5055847 8.852264 1.9572754 13.708191c0.22583008 2.427948 0.39897156 4.931122 0.5156555 7.514862c0.029174805 0.64590454 0.05480957 1.296875 0.07687378 1.9530029l0.0014190674 0.046142578" fill-rule="evenodd"/><path fill="#999999" stroke="#999999" stroke-width="1.0" stroke-linecap="butt" d="m79.39917 343.7702l-1.7260742 -4.5103455l-1.5769424 4.5646057z" fill-rule="evenodd"/><path fill="#999999" stroke="#999999" stroke-width="1.0" stroke-linecap="butt" d="m137.56824 507.8576l1.7261047 4.510315l1.5769043 -4.5646057z" fill-rule="evenodd"/><path fill="#000000" fill-opacity="0.0" d="m464.06378 326.49237c0 12.499939 -65.6225 24.710663 -116.75012 24.999908c-51.127594 0.2892151 -87.760345 -11.343018 -116.75009 -22.830658c-28.989746 -11.48764 -50.336517 -22.830658 -100.67302 -22.830658" fill-rule="evenodd"/><path stroke="#5a8bff" stroke-width="2.0" stroke-linejoin="round" stroke-linecap="butt" stroke-dasharray="8.0,6.0" d="m464.06378 326.49237c0 12.499939 -65.6225 24.710663 -116.75009 24.999908c-51.127625 0.2892151 -87.760376 -11.343018 -116.75012 -22.830688c-14.494873 -5.743805 -27.07901 -11.451477 -42.331467 -15.723175c-7.626251 -2.1358643 -15.919556 -3.9127197 -25.452362 -5.1556396c-4.766403 -0.62142944 -9.842667 -1.109375 -15.300354 -1.4419861c-1.3644104 -0.0831604 -2.7526855 -0.1565857 -4.1658936 -0.2199707c-0.353302 -0.015838623 -0.7081604 -0.031066895 -1.0646057 -0.045654297l-0.36054993 -0.0140686035" fill-rule="evenodd"/><path fill="#5a8bff" stroke="#5a8bff" stroke-width="2.0" stroke-linecap="butt" d="m141.95169 302.75827l-9.137878 3.1287537l9.011169 3.4769592z" fill-rule="evenodd"/><path fill="#ffffff" fill-opacity="0.095" d="m147.15039 221.78633l118.99213 0l0 213.41731l-118.99213 0z" fill-rule="evenodd"/><path stroke="#5a8bff" stroke-width="1.0" stroke-linejoin="round" stroke-linecap="butt" d="m147.15039 221.78633l118.99213 0l0 213.41731l-118.99213 0z" fill-rule="evenodd"/><path fill="#ffffff" d="m189.37404 246.2557q-0.625 0 -0.625 -0.65625l0 -10.171875q0 -0.671875 0.578125 -0.671875q0.234375 0 0.359375 0.09375q0.140625 0.078125 0.296875 0.3125l6.59375 8.78125l0 -8.546875q0 -0.640625 0.625 -0.640625q0.59375 0 0.59375 0.640625l0 10.21875q0 0.640625 -0.53125 0.640625q-0.25 0 -0.390625 -0.09375q-0.140625 -0.09375 -0.296875 -0.296875l-6.59375 -8.828125l0 8.5625q0 0.65625 -0.609375 0.65625zm14.277527 0.03125q-1.140625 0 -1.984375 -0.484375q-0.828125 -0.5 -1.28125 -1.40625q-0.453125 -0.90625 -0.453125 -2.140625q0 -1.234375 0.453125 -2.125q0.453125 -0.90625 1.28125 -1.40625q0.84375 -0.5 1.984375 -0.5q1.109375 0 1.953125 0.5q0.84375 0.5 1.296875 1.40625q0.453125 0.890625 0.453125 2.125q0 1.234375 -0.453125 2.140625q-0.453125 0.90625 -1.296875 1.40625q-0.84375 0.484375 -1.953125 0.484375zm0 -1.03125q1.078125 0 1.734375 -0.78125q0.65625 -0.78125 0.65625 -2.21875q0 -1.453125 -0.65625 -2.21875q-0.65625 -0.765625 -1.734375 -0.765625q-1.109375 0 -1.765625 0.765625q-0.640625 0.765625 -0.640625 2.21875q0 1.4375 0.640625 2.21875q0.65625 0.78125 1.765625 0.78125zm8.614761 1.03125q-1.03125 0 -1.8125 -0.484375q-0.78125 -0.5 -1.203125 -1.40625q-0.421875 -0.90625 -0.421875 -2.140625q0 -1.25 0.421875 -2.140625q0.421875 -0.90625 1.203125 -1.390625q0.78125 -0.5 1.8125 -0.5q0.921875 0 1.609375 0.40625q0.703125 0.390625 1.03125 1.09375l0 -4.3125q0 -0.65625 0.65625 -0.65625q0.640625 0 0.640625 0.65625l0 10.171875q0 0.671875 -0.640625 0.671875q-0.640625 0 -0.640625 -0.671875l0 -0.828125q-0.34375 0.71875 -1.046875 1.125q-0.6875 0.40625 -1.609375 0.40625zm0.28125 -1.03125q1.078125 0 1.734375 -0.78125q0.65625 -0.78125 0.65625 -2.21875q0 -1.453125 -0.65625 -2.21875q-0.65625 -0.765625 -1.734375 -0.765625q-1.109375 0 -1.765625 0.765625q-0.640625 0.765625 -0.640625 2.21875q0 1.4375 0.640625 2.21875q0.65625 0.78125 1.765625 0.78125zm9.593643 1.03125q-1.84375 0 -2.921875 -1.078125q-1.0625 -1.078125 -1.0625 -2.9375q0 -1.203125 0.484375 -2.109375q0.484375 -0.921875 1.3125 -1.421875q0.84375 -0.515625 1.953125 -0.515625q1.578125 0 2.46875 1.015625q0.90625 1.015625 0.90625 2.796875q0 0.5 -0.5625 0.5l-5.296875 0q0.0625 1.328125 0.765625 2.03125q0.703125 0.6875 1.953125 0.6875q0.53125 0 1.078125 -0.140625q0.546875 -0.140625 1.046875 -0.484375q0.375 -0.25 0.625 -0.09375q0.25 0.140625 0.25 0.4375q0.015625 0.296875 -0.328125 0.515625q-0.53125 0.390625 -1.265625 0.59375q-0.71875 0.203125 -1.40625 0.203125zm-0.203125 -7.09375q-1.109375 0 -1.75 0.6875q-0.640625 0.6875 -0.75 1.796875l4.71875 0q-0.046875 -1.171875 -0.625 -1.828125q-0.5625 -0.65625 -1.59375 -0.65625z" fill-rule="nonzero"/><path fill="#000000" fill-opacity="0.0" d="m206.64644 273.86115c0 -41.472443 24.881897 -62.208664 49.76378 -82.944885c24.881897 -20.736221 49.763794 -41.472443 49.763794 -82.944885" fill-rule="evenodd"/><path stroke="#666666" stroke-width="1.0" stroke-linejoin="round" stroke-linecap="butt" d="m206.82663 267.86383l0.039001465 -0.624115c0.0206604 -0.3067627 0.042785645 -0.6123352 0.066329956 -0.9167175c0.18832397 -2.435089 0.46774292 -4.7942505 0.8322296 -7.0825195c0.72895813 -4.576538 1.798111 -8.869583 3.1588287 -12.919632c2.721466 -8.100082 6.609253 -15.228165 11.274612 -21.708237c9.330704 -12.960129 21.771652 -23.328247 34.212585 -33.69635c24.881897 -20.736221 49.763794 -41.472443 49.763794 -82.944885" fill-rule="evenodd"/><path fill="#666666" stroke="#666666" stroke-width="1.0" stroke-linecap="butt" d="m205.17564 267.81424l1.5147095 4.585663l1.787262 -4.48645z" fill-rule="evenodd"/><path fill="#485570" d="m154.41023 284.51752l0 0c0 -5.8853455 4.7710114 -10.656372 10.656372 -10.656372l83.15968 0c2.8262482 0 5.536743 1.1227112 7.535202 3.1211853c1.9984589 1.9984436 3.12117 4.708954 3.12117 7.535187l0 42.624237c0 5.885376 -4.7710114 10.656403 -10.656372 10.656403l-83.15968 0c-5.8853607 0 -10.656372 -4.7710266 -10.656372 -10.656403z" fill-rule="evenodd"/><path fill="#ffffff" d="m184.4369 292.68964q-0.671875 0 -0.671875 -0.6875l0 -9.984375q0 -0.6875 0.65625 -0.6875q0.65625 0 0.65625 0.6875l0 9.515625l5.25 0q0.609375 0 0.609375 0.578125q0 0.578125 -0.609375 0.578125l-5.890625 0zm8.484894 -9.640625q-0.84375 0 -0.84375 -0.8125q0 -0.78125 0.84375 -0.78125q0.84375 0 0.84375 0.78125q0 0.8125 -0.84375 0.8125zm0 9.71875q-0.640625 0 -0.640625 -0.703125l0 -6.546875q0 -0.6875 0.640625 -0.6875q0.65625 0 0.65625 0.6875l0 6.546875q0 0.703125 -0.65625 0.703125zm5.9620056 0.03125q-0.5625 0 -0.828125 -0.625l-2.765625 -6.453125q-0.15625 -0.375 -0.015625 -0.640625q0.140625 -0.28125 0.578125 -0.28125q0.4375 0 0.65625 0.515625l2.40625 5.90625l2.453125 -5.90625q0.109375 -0.28125 0.25 -0.390625q0.140625 -0.125 0.421875 -0.125q0.359375 0 0.484375 0.28125q0.140625 0.265625 0 0.625l-2.8125 6.46875q-0.25 0.625 -0.828125 0.625zm8.737396 0.03125q-1.84375 0 -2.921875 -1.078125q-1.0625 -1.078125 -1.0625 -2.9375q0 -1.203125 0.484375 -2.109375q0.484375 -0.921875 1.3125 -1.421875q0.84375 -0.515625 1.953125 -0.515625q1.578125 0 2.46875 1.015625q0.90625 1.015625 0.90625 2.796875q0 0.5 -0.5625 0.5l-5.296875 0q0.0625 1.328125 0.765625 2.03125q0.703125 0.6875 1.953125 0.6875q0.53125 0 1.078125 -0.140625q0.546875 -0.140625 1.046875 -0.484375q0.375 -0.25 0.625 -0.09375q0.25 0.140625 0.25 0.4375q0.015625 0.296875 -0.328125 0.515625q-0.53125 0.390625 -1.265625 0.59375q-0.71875 0.203125 -1.40625 0.203125zm-0.203125 -7.09375q-1.109375 0 -1.75 0.6875q-0.640625 0.6875 -0.75 1.796875l4.71875 0q-0.046875 -1.171875 -0.625 -1.828125q-0.5625 -0.65625 -1.59375 -0.65625zm6.043274 7.0625q-0.65625 0 -0.65625 -0.6875l0 -10.140625q0 -0.671875 0.65625 -0.671875q0.65625 0 0.65625 0.671875l0 4.5625l0.03125 0l5.21875 -4.875q0.390625 -0.359375 0.796875 -0.359375q0.4375 0 0.515625 0.3125q0.09375 0.3125 -0.1875 0.578125l-5.078125 4.6875l5.328125 4.9375q0.359375 0.328125 0.21875 0.65625q-0.125 0.328125 -0.5625 0.328125q-0.234375 0 -0.40625 -0.109375q-0.15625 -0.09375 -0.375 -0.296875l-5.46875 -5.015625l-0.03125 0l0 4.734375q0 0.6875 -0.65625 0.6875zm10.004517 -9.75q-0.84375 0 -0.84375 -0.8125q0 -0.78125 0.84375 -0.78125q0.84375 0 0.84375 0.78125q0 0.8125 -0.84375 0.8125zm0 9.71875q-0.640625 0 -0.640625 -0.703125l0 -6.546875q0 -0.6875 0.640625 -0.6875q0.65625 0 0.65625 0.6875l0 6.546875q0 0.703125 -0.65625 0.703125zm6.1963806 0.0625q-1.390625 0 -2.078125 -0.71875q-0.6875 -0.734375 -0.6875 -2.109375l0 -4.078125l-1.0625 0q-0.5625 0 -0.5625 -0.515625q0 -0.5 0.5625 -0.5l1.0625 0l0 -1.828125q0 -0.65625 0.65625 -0.65625q0.640625 0 0.640625 0.65625l0 1.828125l2.015625 0q0.5625 0 0.5625 0.5q0 0.515625 -0.5625 0.515625l-2.015625 0l0 3.953125q0 0.90625 0.375 1.390625q0.390625 0.46875 1.265625 0.46875q0.296875 0 0.5 -0.0625q0.21875 -0.078125 0.375 -0.078125q0.140625 -0.015625 0.234375 0.109375q0.109375 0.109375 0.109375 0.375q0 0.1875 -0.078125 0.359375q-0.078125 0.15625 -0.25 0.21875q-0.1875 0.0625 -0.5 0.109375q-0.3125 0.0625 -0.5625 0.0625z" fill-rule="nonzero"/><path fill="#ffffff" d="m188.09814 311.83026q-0.71875 0 -1.453125 -0.171875q-0.734375 -0.1875 -1.34375 -0.609375q-0.296875 -0.171875 -0.296875 -0.453125q0.015625 -0.28125 0.21875 -0.4375q0.21875 -0.171875 0.53125 0q0.625 0.375 1.203125 0.53125q0.59375 0.15625 1.171875 0.15625q0.90625 0 1.375 -0.328125q0.46875 -0.34375 0.46875 -0.921875q0 -0.453125 -0.3125 -0.71875q-0.296875 -0.265625 -0.953125 -0.40625l-1.46875 -0.3125q-1.96875 -0.4375 -1.96875 -2.046875q0 -1.0625 0.828125 -1.703125q0.84375 -0.640625 2.203125 -0.640625q0.6875 0 1.328125 0.1875q0.640625 0.1875 1.15625 0.578125q0.265625 0.203125 0.234375 0.46875q-0.03125 0.265625 -0.25 0.421875q-0.21875 0.15625 -0.515625 -0.03125q-0.484375 -0.328125 -0.984375 -0.46875q-0.484375 -0.15625 -0.96875 -0.15625q-0.890625 0 -1.359375 0.359375q-0.46875 0.34375 -0.46875 0.921875q0 0.890625 1.1875 1.140625l1.453125 0.3125q1.03125 0.21875 1.546875 0.71875q0.53125 0.484375 0.53125 1.3125q0 1.0625 -0.84375 1.6875q-0.84375 0.609375 -2.25 0.609375zm8.571014 0q-1.84375 0 -2.921875 -1.078125q-1.0625 -1.078125 -1.0625 -2.9375q0 -1.203125 0.484375 -2.109375q0.484375 -0.921875 1.3125 -1.421875q0.84375 -0.515625 1.953125 -0.515625q1.578125 0 2.46875 1.015625q0.90625 1.015625 0.90625 2.796875q0 0.5 -0.5625 0.5l-5.296875 0q0.0625 1.328125 0.765625 2.03125q0.703125 0.6875 1.953125 0.6875q0.53125 0 1.078125 -0.140625q0.546875 -0.140625 1.046875 -0.484375q0.375 -0.25 0.625 -0.09375q0.25 0.140625 0.25 0.4375q0.015625 0.296875 -0.328125 0.515625q-0.53125 0.390625 -1.265625 0.59375q-0.71875 0.203125 -1.40625 0.203125zm-0.203125 -7.09375q-1.109375 0 -1.75 0.6875q-0.640625 0.6875 -0.75 1.796875l4.71875 0q-0.046875 -1.171875 -0.625 -1.828125q-0.5625 -0.65625 -1.59375 -0.65625zm5.871399 7.0625q-0.65625 0 -0.65625 -0.671875l0 -6.671875q0 -0.65625 0.625 -0.65625q0.640625 0 0.640625 0.65625l0 0.84375q0.3125 -0.734375 0.984375 -1.125q0.671875 -0.390625 1.609375 -0.421875q0.5 -0.046875 0.53125 0.515625q0.046875 0.5625 -0.5625 0.625l-0.265625 0.03125q-1.09375 0.09375 -1.671875 0.703125q-0.578125 0.59375 -0.578125 1.625l0 3.875q0 0.671875 -0.65625 0.671875zm8.442383 0q-0.5625 0 -0.828125 -0.625l-2.765625 -6.453125q-0.15625 -0.375 -0.015625 -0.640625q0.140625 -0.28125 0.578125 -0.28125q0.4375 0 0.65625 0.515625l2.40625 5.90625l2.453125 -5.90625q0.109375 -0.28125 0.25 -0.390625q0.140625 -0.125 0.421875 -0.125q0.359375 0 0.484375 0.28125q0.140625 0.265625 0 0.625l-2.8125 6.46875q-0.25 0.625 -0.828125 0.625zm8.737396 0.03125q-1.84375 0 -2.921875 -1.078125q-1.0625 -1.078125 -1.0625 -2.9375q0 -1.203125 0.484375 -2.109375q0.484375 -0.921875 1.3125 -1.421875q0.84375 -0.515625 1.953125 -0.515625q1.578125 0 2.46875 1.015625q0.90625 1.015625 0.90625 2.796875q0 0.5 -0.5625 0.5l-5.296875 0q0.0625 1.328125 0.765625 2.03125q0.703125 0.6875 1.953125 0.6875q0.53125 0 1.078125 -0.140625q0.546875 -0.140625 1.046875 -0.484375q0.375 -0.25 0.625 -0.09375q0.25 0.140625 0.25 0.4375q0.015625 0.296875 -0.328125 0.515625q-0.53125 0.390625 -1.265625 0.59375q-0.71875 0.203125 -1.40625 0.203125zm-0.203125 -7.09375q-1.109375 0 -1.75 0.6875q-0.640625 0.6875 -0.75 1.796875l4.71875 0q-0.046875 -1.171875 -0.625 -1.828125q-0.5625 -0.65625 -1.59375 -0.65625zm5.871399 7.0625q-0.65625 0 -0.65625 -0.671875l0 -6.671875q0 -0.65625 0.625 -0.65625q0.640625 0 0.640625 0.65625l0 0.84375q0.3125 -0.734375 0.984375 -1.125q0.671875 -0.390625 1.609375 -0.421875q0.5 -0.046875 0.53125 0.515625q0.046875 0.5625 -0.5625 0.625l-0.265625 0.03125q-1.09375 0.09375 -1.671875 0.703125q-0.578125 0.59375 -0.578125 1.625l0 3.875q0 0.671875 -0.65625 0.671875z" fill-rule="nonzero"/><path fill="#ffffff" d="m194.7298 333.674q-0.640625 0 -0.640625 -0.640625l0 -9.578125q0 -0.65625 0.625 -0.65625q0.65625 0 0.65625 0.65625l0 0.828125q0.328125 -0.703125 1.03125 -1.109375q0.703125 -0.40625 1.625 -0.40625q1.03125 0 1.8125 0.5q0.78125 0.484375 1.203125 1.390625q0.421875 0.890625 0.421875 2.140625q0 1.234375 -0.421875 2.140625q-0.421875 0.90625 -1.203125 1.40625q-0.78125 0.484375 -1.8125 0.484375q-0.90625 0 -1.609375 -0.390625q-0.703125 -0.40625 -1.03125 -1.109375l0 3.703125q0 0.640625 -0.65625 0.640625zm3.015625 -3.875q1.09375 0 1.75 -0.78125q0.65625 -0.78125 0.65625 -2.21875q0 -1.453125 -0.65625 -2.21875q-0.65625 -0.765625 -1.75 -0.765625q-1.078125 0 -1.734375 0.765625q-0.65625 0.765625 -0.65625 2.21875q0 1.4375 0.65625 2.21875q0.65625 0.78125 1.734375 0.78125zm8.906143 1.03125q-1.140625 0 -1.984375 -0.484375q-0.828125 -0.5 -1.28125 -1.40625q-0.453125 -0.90625 -0.453125 -2.140625q0 -1.234375 0.453125 -2.125q0.453125 -0.90625 1.28125 -1.40625q0.84375 -0.5 1.984375 -0.5q1.109375 0 1.953125 0.5q0.84375 0.5 1.296875 1.40625q0.453125 0.890625 0.453125 2.125q0 1.234375 -0.453125 2.140625q-0.453125 0.90625 -1.296875 1.40625q-0.84375 0.484375 -1.953125 0.484375zm0 -1.03125q1.078125 0 1.734375 -0.78125q0.65625 -0.78125 0.65625 -2.21875q0 -1.453125 -0.65625 -2.21875q-0.65625 -0.765625 -1.734375 -0.765625q-1.109375 0 -1.765625 0.765625q-0.640625 0.765625 -0.640625 2.21875q0 1.4375 0.640625 2.21875q0.65625 0.78125 1.765625 0.78125zm8.614761 1.03125q-1.03125 0 -1.8125 -0.484375q-0.78125 -0.5 -1.203125 -1.40625q-0.421875 -0.90625 -0.421875 -2.140625q0 -1.25 0.421875 -2.140625q0.421875 -0.90625 1.203125 -1.390625q0.78125 -0.5 1.8125 -0.5q0.921875 0 1.609375 0.40625q0.703125 0.390625 1.03125 1.09375l0 -4.3125q0 -0.65625 0.65625 -0.65625q0.640625 0 0.640625 0.65625l0 10.171875q0 0.671875 -0.640625 0.671875q-0.640625 0 -0.640625 -0.671875l0 -0.828125q-0.34375 0.71875 -1.046875 1.125q-0.6875 0.40625 -1.609375 0.40625zm0.28125 -1.03125q1.078125 0 1.734375 -0.78125q0.65625 -0.78125 0.65625 -2.21875q0 -1.453125 -0.65625 -2.21875q-0.65625 -0.765625 -1.734375 -0.765625q-1.109375 0 -1.765625 0.765625q-0.640625 0.765625 -0.640625 2.21875q0 1.4375 0.640625 2.21875q0.65625 0.78125 1.765625 0.78125z" fill-rule="nonzero"/><path fill="#000000" fill-opacity="0.0" d="m464.06378 326.49237c0 12.499939 -46.273285 24.710663 -84.50006 24.999908c-38.226807 0.2892151 -68.407166 -11.343018 -84.50009 -22.830658c-16.092896 -11.48764 -18.098358 -22.830658 -36.196716 -22.830658" fill-rule="evenodd"/><path stroke="#5a8bff" stroke-width="2.0" stroke-linejoin="round" stroke-linecap="butt" stroke-dasharray="8.0,6.0" d="m464.06378 326.49237c0 12.499939 -46.273254 24.710663 -84.50009 24.999908c-38.226776 0.2892151 -68.407135 -11.343018 -84.50003 -22.830688c-8.046478 -5.743805 -12.571075 -11.451477 -17.346313 -15.723175c-1.1938171 -1.0679321 -2.4033203 -2.046112 -3.687439 -2.9126587c-0.6420288 -0.43328857 -1.3027344 -0.83865356 -1.9894409 -1.2134094c-0.3433838 -0.18737793 -0.6932373 -0.36706543 -1.0505371 -0.53878784c-0.08932495 -0.042907715 -0.17910767 -0.08532715 -0.26937866 -0.1272583l-0.072631836 -0.03314209" fill-rule="evenodd"/><path fill="#5a8bff" stroke="#5a8bff" stroke-width="2.0" stroke-linecap="butt" d="m271.27615 304.86996l-9.538788 1.5170593l8.282288 4.9692993z" fill-rule="evenodd"/><path fill="#000000" fill-opacity="0.0" d="m206.64644 337.79816c0 44.011383 -16.83464 66.01883 -33.66928 88.022766c-16.834656 22.003937 -33.669296 44.004364 -33.669296 88.00873" fill-rule="evenodd"/><path stroke="#999999" stroke-width="1.0" stroke-linejoin="round" stroke-linecap="butt" d="m206.5388 343.79718l-0.0015869141 0.047302246c-0.024093628 0.65618896 -0.052078247 1.307251 -0.08395386 1.9533081c-0.12739563 2.5841675 -0.31645203 5.087799 -0.5630493 7.5161743c-0.49320984 4.8567505 -1.216568 9.412689 -2.1372223 13.710754c-1.8412933 8.5961 -4.471695 16.160736 -7.628189 23.037628c-6.3130035 13.753754 -14.730316 24.756622 -23.147644 35.758606c-8.417328 11.001953 -16.83464 22.003021 -23.147644 35.75418c-3.1564941 6.87558 -5.786911 14.43866 -7.628189 23.033142c-0.9206543 4.29718 -1.6440125 8.852264 -2.1372223 13.708191c-0.24659729 2.427948 -0.4356537 4.931122 -0.5630646 7.514862c-0.03186035 0.64590454 -0.05986023 1.296875 -0.08392334 1.9530029l-0.0015716553 0.046295166" fill-rule="evenodd"/><path fill="#999999" stroke="#999999" stroke-width="1.0" stroke-linecap="butt" d="m208.19026 343.8268l-1.5700378 -4.566986l-1.7328949 4.507721z" fill-rule="evenodd"/><path fill="#999999" stroke="#999999" stroke-width="1.0" stroke-linecap="butt" d="m137.76408 507.80096l1.5700226 4.5670166l1.7329102 -4.507721z" fill-rule="evenodd"/><path fill="#000000" fill-opacity="0.0" d="m77.64907 273.86115c0 -41.472443 57.133858 -62.208664 114.26772 -82.944885c57.13385 -20.736221 114.267715 -41.472443 114.267715 -82.944885" fill-rule="evenodd"/><path stroke="#666666" stroke-width="1.0" stroke-linejoin="round" stroke-linecap="butt" d="m78.059555 267.8752l0.024032593 -0.17443848c0.022094727 -0.1539917 0.045013428 -0.30767822 0.0687561 -0.46105957c0.04748535 -0.3067627 0.0982666 -0.6123352 0.15232086 -0.9167175c0.43240356 -2.435089 1.0740433 -4.7942505 1.910965 -7.0825195c1.6738434 -4.576538 4.1288147 -8.869583 7.2533264 -12.919632c6.249016 -8.100082 15.176178 -15.228165 25.888779 -21.708237c21.425194 -12.960129 49.99212 -23.328247 78.55906 -33.69635c57.13385 -20.736221 114.267715 -41.472443 114.267715 -82.944885" fill-rule="evenodd"/><path fill="#666666" stroke="#666666" stroke-width="1.0" stroke-linecap="butt" d="m76.41169 267.7622l1.3373947 4.640442l1.9583282 -4.414459z" fill-rule="evenodd"/><path fill="#ffffff" fill-opacity="0.095" d="m331.24487 289.32703l265.63782 0l0 37.165344l-265.63782 0z" fill-rule="evenodd"/><path stroke="#5a8bff" stroke-width="1.0" stroke-linejoin="round" stroke-linecap="butt" d="m331.24487 289.32703l265.63782 0l0 37.165344l-265.63782 0z" fill-rule="evenodd"/><path fill="#ffffff" d="m442.97458 313.9103q-1.15625 0 -2.171875 -0.28125q-1.015625 -0.28125 -1.75 -0.8125q-0.265625 -0.1875 -0.3125 -0.421875q-0.046875 -0.234375 0.046875 -0.4375q0.109375 -0.21875 0.3125 -0.28125q0.21875 -0.078125 0.484375 0.09375q0.734375 0.53125 1.546875 0.75q0.8125 0.21875 1.84375 0.21875q1.4375 0 2.125 -0.53125q0.703125 -0.53125 0.703125 -1.40625q0 -0.71875 -0.515625 -1.125q-0.5 -0.421875 -1.671875 -0.65625l-1.671875 -0.34375q-1.5 -0.3125 -2.25 -1.03125q-0.734375 -0.734375 -0.734375 -1.953125q0 -1.015625 0.515625 -1.765625q0.515625 -0.75 1.4375 -1.15625q0.9375 -0.421875 2.15625 -0.421875q1.0 0 1.875 0.28125q0.875 0.28125 1.578125 0.84375q0.21875 0.171875 0.25 0.40625q0.046875 0.234375 -0.0625 0.421875q-0.109375 0.1875 -0.328125 0.25q-0.203125 0.046875 -0.484375 -0.125q-0.640625 -0.5 -1.34375 -0.703125q-0.6875 -0.203125 -1.5 -0.203125q-1.265625 0 -2.015625 0.578125q-0.75 0.578125 -0.75 1.546875q0 0.765625 0.46875 1.21875q0.46875 0.4375 1.546875 0.65625l1.65625 0.34375q1.609375 0.34375 2.390625 1.03125q0.78125 0.671875 0.78125 1.828125q0 0.953125 -0.515625 1.671875q-0.5 0.71875 -1.4375 1.125q-0.9375 0.390625 -2.203125 0.390625zm9.511902 0q-1.84375 0 -2.921875 -1.078125q-1.0625 -1.078125 -1.0625 -2.9375q0 -1.203125 0.484375 -2.109375q0.484375 -0.921875 1.3125 -1.421875q0.84375 -0.515625 1.953125 -0.515625q1.578125 0 2.46875 1.015625q0.90625 1.015625 0.90625 2.796875q0 0.5 -0.5625 0.5l-5.296875 0q0.0625 1.328125 0.765625 2.03125q0.703125 0.6875 1.953125 0.6875q0.53125 0 1.078125 -0.140625q0.546875 -0.140625 1.046875 -0.484375q0.375 -0.25 0.625 -0.09375q0.25 0.140625 0.25 0.4375q0.015625 0.296875 -0.328125 0.515625q-0.53125 0.390625 -1.265625 0.59375q-0.71875 0.203125 -1.40625 0.203125zm-0.203125 -7.09375q-1.109375 0 -1.75 0.6875q-0.640625 0.6875 -0.75 1.796875l4.71875 0q-0.046875 -1.171875 -0.625 -1.828125q-0.5625 -0.65625 -1.59375 -0.65625zm5.871399 7.0625q-0.65625 0 -0.65625 -0.671875l0 -6.671875q0 -0.65625 0.625 -0.65625q0.640625 0 0.640625 0.65625l0 0.84375q0.3125 -0.734375 0.984375 -1.125q0.671875 -0.390625 1.609375 -0.421875q0.5 -0.046875 0.53125 0.515625q0.046875 0.5625 -0.5625 0.625l-0.265625 0.03125q-1.09375 0.09375 -1.671875 0.703125q-0.578125 0.59375 -0.578125 1.625l0 3.875q0 0.671875 -0.65625 0.671875zm8.442383 0q-0.5625 0 -0.828125 -0.625l-2.765625 -6.453125q-0.15625 -0.375 -0.015625 -0.640625q0.140625 -0.28125 0.578125 -0.28125q0.4375 0 0.65625 0.515625l2.40625 5.90625l2.453125 -5.90625q0.109375 -0.28125 0.25 -0.390625q0.140625 -0.125 0.421875 -0.125q0.359375 0 0.484375 0.28125q0.140625 0.265625 0 0.625l-2.8125 6.46875q-0.25 0.625 -0.828125 0.625zm5.9900208 -9.75q-0.84375 0 -0.84375 -0.8125q0 -0.78125 0.84375 -0.78125q0.84375 0 0.84375 0.78125q0 0.8125 -0.84375 0.8125zm0 9.71875q-0.640625 0 -0.640625 -0.703125l0 -6.546875q0 -0.6875 0.640625 -0.6875q0.65625 0 0.65625 0.6875l0 6.546875q0 0.703125 -0.65625 0.703125zm6.3682556 0.0625q-1.171875 0 -2.03125 -0.5q-0.84375 -0.5 -1.296875 -1.421875q-0.453125 -0.921875 -0.453125 -2.15625q0 -1.859375 1.0 -2.921875q1.015625 -1.0625 2.78125 -1.0625q0.578125 0 1.203125 0.1875q0.625 0.1875 1.125 0.59375q0.28125 0.203125 0.234375 0.484375q-0.03125 0.28125 -0.265625 0.4375q-0.234375 0.140625 -0.546875 -0.0625q-0.421875 -0.328125 -0.859375 -0.453125q-0.421875 -0.125 -0.8125 -0.125q-1.21875 0 -1.875 0.765625q-0.65625 0.75 -0.65625 2.171875q0 1.390625 0.65625 2.203125q0.65625 0.8125 1.875 0.8125q0.390625 0 0.8125 -0.125q0.4375 -0.140625 0.859375 -0.453125q0.3125 -0.21875 0.53125 -0.0625q0.234375 0.15625 0.25 0.453125q0.03125 0.28125 -0.234375 0.453125q-0.515625 0.421875 -1.125 0.609375q-0.59375 0.171875 -1.171875 0.171875zm7.4511414 0q-1.84375 0 -2.921875 -1.078125q-1.0625 -1.078125 -1.0625 -2.9375q0 -1.203125 0.484375 -2.109375q0.484375 -0.921875 1.3125 -1.421875q0.84375 -0.515625 1.953125 -0.515625q1.578125 0 2.46875 1.015625q0.90625 1.015625 0.90625 2.796875q0 0.5 -0.5625 0.5l-5.296875 0q0.0625 1.328125 0.765625 2.03125q0.703125 0.6875 1.953125 0.6875q0.53125 0 1.078125 -0.140625q0.546875 -0.140625 1.046875 -0.484375q0.375 -0.25 0.625 -0.09375q0.25 0.140625 0.25 0.4375q0.015625 0.296875 -0.328125 0.515625q-0.53125 0.390625 -1.265625 0.59375q-0.71875 0.203125 -1.40625 0.203125zm-0.203125 -7.09375q-1.109375 0 -1.75 0.6875q-0.640625 0.6875 -0.75 1.796875l4.71875 0q-0.046875 -1.171875 -0.625 -1.828125q-0.5625 -0.65625 -1.59375 -0.65625z" fill-rule="nonzero"/><path fill="#000000" fill-opacity="0.0" d="m282.05182 268.87643l41.259827 0l0 51.716553l-41.259827 0z" fill-rule="evenodd"/><path fill="#999999" d="m294.37994 303.61707q-0.90625 0 -1.453125 -0.5625q-0.546875 -0.5625 -0.546875 -1.4375q0 -0.859375 0.546875 -1.40625q0.546875 -0.546875 1.453125 -0.546875q0.9375 0 1.453125 0.546875q0.515625 0.546875 0.515625 1.40625q0 0.875 -0.515625 1.4375q-0.515625 0.5625 -1.453125 0.5625zm6.610718 0q-0.90625 0 -1.453125 -0.5625q-0.546875 -0.5625 -0.546875 -1.4375q0 -0.859375 0.546875 -1.40625q0.546875 -0.546875 1.453125 -0.546875q0.9375 0 1.453125 0.546875q0.515625 0.546875 0.515625 1.40625q0 0.875 -0.515625 1.4375q-0.515625 0.5625 -1.453125 0.5625zm6.6107483 0q-0.90625 0 -1.453125 -0.5625q-0.546875 -0.5625 -0.546875 -1.4375q0 -0.859375 0.546875 -1.40625q0.546875 -0.546875 1.453125 -0.546875q0.9375 0 1.453125 0.546875q0.515625 0.546875 0.515625 1.40625q0 0.875 -0.515625 1.4375q-0.515625 0.5625 -1.453125 0.5625z" fill-rule="nonzero"/><path fill="#000000" fill-opacity="0.0" d="m464.06378 258.9517c0 7.593872 0.01574707 11.392517 0.03149414 15.187775c0.01574707 3.795288 0.03149414 7.587219 0.03149414 15.174438" fill-rule="evenodd"/><path stroke="#5a8bff" stroke-width="2.0" stroke-linejoin="round" stroke-linecap="butt" stroke-dasharray="8.0,6.0" d="m464.06378 258.9517c0 7.5939026 0.01574707 11.392517 0.03149414 15.187775l0.011138916 3.1744385" fill-rule="evenodd"/><path fill="#5a8bff" stroke="#5a8bff" stroke-width="2.0" stroke-linecap="butt" d="m460.80295 277.31952l3.3188477 9.070587l3.288086 -9.081787z" fill-rule="evenodd"/></g></svg>