<svg width="13" height="7" viewBox="0 0 13 7" fill="none" xmlns="http://www.w3.org/2000/svg">
<path d="M6.5 6.81738C6.68457 6.81738 6.85547 6.73535 6.98535 6.59863L11.9619 1.50586C12.085 1.38281 12.1533 1.22559 12.1533 1.04785C12.1533 0.678711 11.873 0.398438 11.5039 0.398438C11.333 0.398438 11.1621 0.466797 11.0391 0.589844L6.5 5.23828L1.9541 0.589844C1.83105 0.466797 1.67383 0.398438 1.48926 0.398438C1.12695 0.398438 0.839844 0.678711 0.839844 1.04785C0.839844 1.22559 0.908203 1.38281 1.03125 1.50586L6.00781 6.59863C6.15137 6.74219 6.30859 6.81738 6.5 6.81738Z" fill="white"/>
</svg>
