<svg version="1.1" viewBox="0.0 0.0 574.7191601049868 221.41207349081364" fill="none" stroke="none" stroke-linecap="square" stroke-miterlimit="10" xmlns:xlink="http://www.w3.org/1999/xlink" xmlns="http://www.w3.org/2000/svg"><clipPath id="p.0"><path d="m0 0l574.7192 0l0 221.41208l-574.7192 0l0 -221.41208z" clip-rule="nonzero"/></clipPath><g clip-path="url(#p.0)"><path fill="#000000" fill-opacity="0.0" d="m0 0l574.7192 0l0 221.41208l-574.7192 0z" fill-rule="evenodd"/><path fill="#000000" d="m0 0l615.46454 0l0 271.71652l-615.46454 0z" fill-rule="evenodd"/><path stroke="#000000" stroke-width="1.0" stroke-linejoin="round" stroke-linecap="butt" d="m0 0l615.46454 0l0 271.71652l-615.46454 0z" fill-rule="evenodd"/><path fill="#00153c" d="m6.6771655 88.107864l0 0c0 -7.033432 5.7017264 -12.735161 12.735163 -12.735161l113.30132 0c3.3775787 0 6.6168213 1.3417358 9.005127 3.7300415c2.3883057 2.3883057 3.7300415 5.627548 3.7300415 9.005119l0 50.939117c0 7.0334473 -5.7017365 12.735168 -12.735168 12.735168l-113.30132 0c-7.033437 0 -12.735163 -5.701721 -12.735163 -12.735168z" fill-rule="evenodd"/><path stroke="#5a8bff" stroke-width="1.0" stroke-linejoin="round" stroke-linecap="butt" d="m6.6771655 88.107864l0 0c0 -7.033432 5.7017264 -12.735161 12.735163 -12.735161l113.30132 0c3.3775787 0 6.6168213 1.3417358 9.005127 3.7300415c2.3883057 2.3883057 3.7300415 5.627548 3.7300415 9.005119l0 50.939117c0 7.0334473 -5.7017365 12.735168 -12.735168 12.735168l-113.30132 0c-7.033437 0 -12.735163 -5.701721 -12.735163 -12.735168z" fill-rule="evenodd"/><path fill="#ffffff" d="m59.891582 119.87368q-1.8125 0 -3.09375 -0.765625q-1.28125 -0.765625 -1.96875 -2.15625q-0.671875 -1.40625 -0.671875 -3.34375q0 -1.9375 0.671875 -3.328125q0.6875 -1.40625 1.96875 -2.171875q1.28125 -0.765625 3.09375 -0.765625q1.0625 0 2.03125 0.3125q0.984375 0.3125 1.6875 0.890625q0.296875 0.203125 0.34375 0.484375q0.046878815 0.265625 -0.09375 0.484375q-0.140625 0.21875 -0.390625 0.28125q-0.25 0.0625 -0.5625 -0.15625q-1.234375 -1.0 -2.984375 -1.0q-2.0625 0 -3.15625 1.3125q-1.09375 1.296875 -1.09375 3.65625q0 2.359375 1.09375 3.671875q1.09375 1.296875 3.15625 1.296875q1.75 0 3.015625 -1.015625q0.3125 -0.203125 0.5625 -0.140625q0.25 0.046875 0.375 0.25q0.14062881 0.203125 0.09375 0.46875q-0.03125 0.265625 -0.28125 0.46875q-0.75 0.625 -1.71875 0.953125q-0.96875 0.3125 -2.078125 0.3125zm8.739887 0q-1.234375 0 -1.90625 -0.75q-0.65625 -0.765625 -0.65625 -2.203125l0 -8.828125q0 -0.71875 0.703125 -0.71875q0.703125 0 0.703125 0.71875l0 8.734375q0 1.84375 1.46875 1.84375q0.15625 0 0.28125 -0.015625q0.125 -0.015625 0.25 -0.015625q0.1875 -0.015625 0.265625 0.09375q0.078125 0.09375 0.078125 0.40625q0 0.59375 -0.59375 0.6875q-0.140625 0.03125 -0.296875 0.03125q-0.15625 0.015625 -0.296875 0.015625zm3.2697144 -10.609375q-0.921875 0 -0.921875 -0.859375q0 -0.859375 0.921875 -0.859375q0.90625 0 0.90625 0.859375q0 0.859375 -0.90625 0.859375zm0 10.546875q-0.703125 0 -0.703125 -0.765625l0 -7.09375q0 -0.75 0.703125 -0.75q0.703125 0 0.703125 0.75l0 7.09375q0 0.765625 -0.703125 0.765625zm7.113846 0.0625q-1.984375 0 -3.15625 -1.171875q-1.15625 -1.171875 -1.15625 -3.171875q0 -1.3125 0.515625 -2.296875q0.53125 -1.0 1.4375 -1.546875q0.90625 -0.546875 2.109375 -0.546875q1.703125 0 2.671875 1.109375q0.984375 1.09375 0.984375 3.015625q0 0.53125 -0.609375 0.53125l-5.734375 0q0.0625 1.4375 0.828125 2.203125q0.765625 0.75 2.109375 0.75q0.578125 0 1.15625 -0.140625q0.59375 -0.15625 1.15625 -0.53125q0.390625 -0.265625 0.65625 -0.109375q0.28125 0.15625 0.28125 0.484375q0.015625 0.3125 -0.359375 0.5625q-0.5625 0.40625 -1.359375 0.640625q-0.78125 0.21875 -1.53125 0.21875zm-0.21875 -7.6875q-1.203125 0 -1.90625 0.75q-0.6875 0.734375 -0.796875 1.953125l5.109375 0q-0.046875 -1.28125 -0.671875 -1.984375q-0.609375 -0.71875 -1.734375 -0.71875zm6.343506 7.65625q-0.703125 0 -0.703125 -0.734375l0 -7.21875q0 -0.71875 0.6875 -0.71875q0.6875 0 0.6875 0.71875l0 0.84375q0.421875 -0.796875 1.171875 -1.1875q0.765625 -0.40625 1.71875 -0.40625q3.0 0 3.0 3.328125l0 4.640625q0 0.734375 -0.6875 0.734375q-0.71875 0 -0.71875 -0.734375l0 -4.546875q0 -1.1875 -0.46875 -1.734375q-0.453125 -0.546875 -1.453125 -0.546875q-1.15625 0 -1.84375 0.71875q-0.6875 0.71875 -0.6875 1.921875l0 4.1875q0 0.734375 -0.703125 0.734375zm12.529816 0.03125q-1.5 0 -2.25 -0.78125q-0.734375 -0.796875 -0.734375 -2.28125l0 -4.421875l-1.171875 0q-0.59375 0 -0.59375 -0.5625q0 -0.53125 0.59375 -0.53125l1.171875 0l0 -2.0q0 -0.703125 0.703125 -0.703125q0.703125 0 0.703125 0.703125l0 2.0l2.171875 0q0.609375 0 0.609375 0.53125q0 0.5625 -0.609375 0.5625l-2.171875 0l0 4.28125q0 0.984375 0.40625 1.5q0.421875 0.5 1.359375 0.5q0.328125 0 0.546875 -0.0625q0.234375 -0.0625 0.40625 -0.0625q0.15625 -0.03125 0.25 0.09375q0.109375 0.125 0.109375 0.421875q0 0.203125 -0.078125 0.375q-0.078125 0.171875 -0.265625 0.25q-0.203125 0.0625 -0.546875 0.125q-0.34375 0.0625 -0.609375 0.0625z" fill-rule="nonzero"/><path fill="#00153c" d="m427.9685 88.107864l0 0c0 -7.033432 5.701721 -12.735161 12.735168 -12.735161l113.30133 0c3.3775635 0 6.6168213 1.3417358 9.005127 3.7300415c2.3883057 2.3883057 3.7300415 5.627548 3.7300415 9.005119l0 50.939117c0 7.0334473 -5.701721 12.735168 -12.735168 12.735168l-113.30133 0c-7.0334473 0 -12.735168 -5.701721 -12.735168 -12.735168z" fill-rule="evenodd"/><path stroke="#5a8bff" stroke-width="1.0" stroke-linejoin="round" stroke-linecap="butt" d="m427.9685 88.107864l0 0c0 -7.033432 5.701721 -12.735161 12.735168 -12.735161l113.30133 0c3.3775635 0 6.6168213 1.3417358 9.005127 3.7300415c2.3883057 2.3883057 3.7300415 5.627548 3.7300415 9.005119l0 50.939117c0 7.0334473 -5.701721 12.735168 -12.735168 12.735168l-113.30133 0c-7.0334473 0 -12.735168 -5.701721 -12.735168 -12.735168z" fill-rule="evenodd"/><path fill="#ffffff" d="m446.81616 119.71743q-0.734375 0 -0.734375 -0.75l0 -10.8125q0 -0.734375 0.71875 -0.734375q0.703125 0 0.703125 0.734375l0 10.3125l5.6875 0q0.65625 0 0.65625 0.625q0 0.625 -0.65625 0.625l-6.375 0zm9.190369 -10.453125q-0.921875 0 -0.921875 -0.859375q0 -0.859375 0.921875 -0.859375q0.90625 0 0.90625 0.859375q0 0.859375 -0.90625 0.859375zm0 10.546875q-0.703125 0 -0.703125 -0.765625l0 -7.09375q0 -0.75 0.703125 -0.75q0.703125 0 0.703125 0.75l0 7.09375q0 0.765625 -0.703125 0.765625zm6.4575806 0.03125q-0.609375 0 -0.90625 -0.671875l-3.0 -7.015625q-0.171875 -0.390625 -0.015625 -0.6875q0.15625 -0.296875 0.625 -0.296875q0.484375 0 0.71875 0.5625l2.609375 6.390625l2.65625 -6.390625q0.125 -0.3125 0.28125 -0.4375q0.15625 -0.125 0.4375 -0.125q0.40625 0 0.546875 0.296875q0.140625 0.296875 -0.015625 0.671875l-3.03125 7.03125q-0.28125 0.671875 -0.90625 0.671875zm9.458862 0.03125q-1.984375 0 -3.15625 -1.171875q-1.15625 -1.171875 -1.15625 -3.171875q0 -1.3125 0.515625 -2.296875q0.53125 -1.0 1.4375 -1.546875q0.90625 -0.546875 2.109375 -0.546875q1.703125 0 2.671875 1.109375q0.984375 1.09375 0.984375 3.015625q0 0.53125 -0.609375 0.53125l-5.734375 0q0.0625 1.4375 0.828125 2.203125q0.765625 0.75 2.109375 0.75q0.578125 0 1.15625 -0.140625q0.59375 -0.15625 1.15625 -0.53125q0.390625 -0.265625 0.65625 -0.109375q0.28125 0.15625 0.28125 0.484375q0.015625 0.3125 -0.359375 0.5625q-0.5625 0.40625 -1.359375 0.640625q-0.78125 0.21875 -1.53125 0.21875zm-0.21875 -7.6875q-1.203125 0 -1.90625 0.75q-0.6875 0.734375 -0.796875 1.953125l5.109375 0q-0.046875 -1.28125 -0.671875 -1.984375q-0.609375 -0.71875 -1.734375 -0.71875zm6.546631 7.65625q-0.71875 0 -0.71875 -0.75l0 -10.984375q0 -0.734375 0.71875 -0.734375q0.703125 0 0.703125 0.734375l0 4.9375l0.046875 0l5.640625 -5.265625q0.421875 -0.40625 0.875 -0.40625q0.46875 0 0.5625 0.34375q0.09375 0.34375 -0.21875 0.640625l-5.5 5.0625l5.78125 5.34375q0.375 0.359375 0.234375 0.71875q-0.140625 0.359375 -0.609375 0.359375q-0.25 0 -0.4375 -0.125q-0.1875 -0.109375 -0.40625 -0.328125l-5.921875 -5.421875l-0.046875 0l0 5.125q0 0.75 -0.703125 0.75zm10.834869 -10.578125q-0.921875 0 -0.921875 -0.859375q0 -0.859375 0.921875 -0.859375q0.90625 0 0.90625 0.859375q0 0.859375 -0.90625 0.859375zm0 10.546875q-0.703125 0 -0.703125 -0.765625l0 -7.09375q0 -0.75 0.703125 -0.75q0.703125 0 0.703125 0.75l0 7.09375q0 0.765625 -0.703125 0.765625zm6.707611 0.0625q-1.5 0 -2.25 -0.78125q-0.734375 -0.796875 -0.734375 -2.28125l0 -4.421875l-1.171875 0q-0.59375 0 -0.59375 -0.5625q0 -0.53125 0.59375 -0.53125l1.171875 0l0 -2.0q0 -0.703125 0.703125 -0.703125q0.703125 0 0.703125 0.703125l0 2.0l2.171875 0q0.609375 0 0.609375 0.53125q0 0.5625 -0.609375 0.5625l-2.171875 0l0 4.28125q0 0.984375 0.40625 1.5q0.421875 0.5 1.359375 0.5q0.328125 0 0.546875 -0.0625q0.234375 -0.0625 0.40625 -0.0625q0.15625 -0.03125 0.25 0.09375q0.109375 0.125 0.109375 0.421875q0 0.203125 -0.078125 0.375q-0.078125 0.171875 -0.265625 0.25q-0.203125 0.0625 -0.546875 0.125q-0.34375 0.0625 -0.609375 0.0625zm9.988556 0q-0.78125 0 -1.578125 -0.203125q-0.78125 -0.203125 -1.453125 -0.640625q-0.3125 -0.203125 -0.3125 -0.5q0.015625 -0.296875 0.234375 -0.46875q0.234375 -0.1875 0.578125 0q0.671875 0.40625 1.296875 0.578125q0.640625 0.15625 1.265625 0.15625q1.0 0 1.5 -0.359375q0.5 -0.359375 0.5 -0.984375q0 -0.484375 -0.328125 -0.765625q-0.328125 -0.296875 -1.046875 -0.453125l-1.578125 -0.34375q-2.140625 -0.46875 -2.140625 -2.21875q0 -1.140625 0.90625 -1.828125q0.90625 -0.703125 2.390625 -0.703125q0.734375 0 1.421875 0.203125q0.703125 0.203125 1.25 0.625q0.296875 0.21875 0.265625 0.515625q-0.03125 0.28125 -0.265625 0.453125q-0.234375 0.15625 -0.5625 -0.046875q-0.515625 -0.34375 -1.0625 -0.5q-0.53125 -0.171875 -1.046875 -0.171875q-0.984375 0 -1.484375 0.390625q-0.5 0.375 -0.5 1.0q0 0.96875 1.28125 1.234375l1.578125 0.328125q1.109375 0.25 1.671875 0.78125q0.578125 0.53125 0.578125 1.421875q0 1.171875 -0.921875 1.84375q-0.90625 0.65625 -2.4375 0.65625zm9.287872 0q-1.984375 0 -3.1562195 -1.171875q-1.15625 -1.171875 -1.15625 -3.171875q0 -1.3125 0.515625 -2.296875q0.53125 -1.0 1.4374695 -1.546875q0.90625 -0.546875 2.109375 -0.546875q1.703125 0 2.671875 1.109375q0.984375 1.09375 0.984375 3.015625q0 0.53125 -0.609375 0.53125l-5.734375 0q0.0625 1.4375 0.828125 2.203125q0.765625 0.75 2.109375 0.75q0.578125 0 1.15625 -0.140625q0.59375 -0.15625 1.15625 -0.53125q0.390625 -0.265625 0.65625 -0.109375q0.28125 0.15625 0.28125 0.484375q0.015625 0.3125 -0.359375 0.5625q-0.5625 0.40625 -1.359375 0.640625q-0.78125 0.21875 -1.53125 0.21875zm-0.21875 -7.6875q-1.203125 0 -1.90625 0.75q-0.6875 0.734375 -0.796875 1.953125l5.109375 0q-0.046875 -1.28125 -0.671875 -1.984375q-0.609375 -0.71875 -1.734375 -0.71875zm6.359131 7.65625q-0.71875 0 -0.71875 -0.734375l0 -7.21875q0 -0.71875 0.6875 -0.71875q0.6875 0 0.6875 0.71875l0 0.921875q0.34375 -0.8125 1.0625 -1.234375q0.734375 -0.421875 1.75 -0.453125q0.546875 -0.046875 0.578125 0.546875q0.0625 0.609375 -0.625 0.6875l-0.265625 0.03125q-1.203125 0.109375 -1.828125 0.765625q-0.625 0.640625 -0.625 1.765625l0 4.1875q0 0.734375 -0.703125 0.734375zm9.145325 0q-0.609375 0 -0.90625 -0.671875l-3.0 -7.015625q-0.171875 -0.390625 -0.015625 -0.6875q0.15625 -0.296875 0.625 -0.296875q0.484375 0 0.71875 0.5625l2.609375 6.390625l2.65625 -6.390625q0.125 -0.3125 0.28125 -0.4375q0.15625 -0.125 0.4375 -0.125q0.40625 0 0.546875 0.296875q0.140625 0.296875 -0.015625 0.671875l-3.03125 7.03125q-0.28125 0.671875 -0.90625 0.671875zm9.458862 0.03125q-1.984375 0 -3.15625 -1.171875q-1.15625 -1.171875 -1.15625 -3.171875q0 -1.3125 0.515625 -2.296875q0.53125 -1.0 1.4375 -1.546875q0.90625 -0.546875 2.109375 -0.546875q1.703125 0 2.671875 1.109375q0.984375 1.09375 0.984375 3.015625q0 0.53125 -0.609375 0.53125l-5.734375 0q0.0625 1.4375 0.828125 2.203125q0.765625 0.75 2.109375 0.75q0.578125 0 1.15625 -0.140625q0.59375 -0.15625 1.15625 -0.53125q0.390625 -0.265625 0.65625 -0.109375q0.28125 0.15625 0.28125 0.484375q0.015625 0.3125 -0.359375 0.5625q-0.5625 0.40625 -1.359375 0.640625q-0.78125 0.21875 -1.53125 0.21875zm-0.21875 -7.6875q-1.203125 0 -1.90625 0.75q-0.6875 0.734375 -0.796875 1.953125l5.109375 0q-0.046875 -1.28125 -0.671875 -1.984375q-0.609375 -0.71875 -1.734375 -0.71875zm6.359131 7.65625q-0.71875 0 -0.71875 -0.734375l0 -7.21875q0 -0.71875 0.6875 -0.71875q0.6875 0 0.6875 0.71875l0 0.921875q0.34375 -0.8125 1.0625 -1.234375q0.734375 -0.421875 1.75 -0.453125q0.546875 -0.046875 0.578125 0.546875q0.0625 0.609375 -0.625 0.6875l-0.265625 0.03125q-1.203125 0.109375 -1.828125 0.765625q-0.625 0.640625 -0.625 1.765625l0 4.1875q0 0.734375 -0.703125 0.734375z" fill-rule="nonzero"/><path fill="#000000" fill-opacity="0.0" d="m427.9685 113.57743c-70.62991 0 -105.944885 0.01574707 -141.25986 0.03149414c-35.31494 0.01574707 -70.62991 0.03149414 -141.25983 0.03149414" fill-rule="evenodd"/><path stroke="#6ee2e2" stroke-width="2.0" stroke-linejoin="round" stroke-linecap="butt" d="m415.9685 113.578125l-34.90268 0.0020065308c-13.794922 0.0017242432 -25.934418 0.0041885376 -36.970367 0.0071411133c-22.071838 0.0059051514 -39.72931 0.0137786865 -57.38681 0.021652222c-17.65747 0.007873535 -35.31494 0.01574707 -57.386795 0.021652222c-11.035934 0.0029525757 -23.175446 0.00541687 -36.970352 0.007133484l-34.90268 0.0020141602" fill-rule="evenodd"/><path fill="#6ee2e2" stroke="#6ee2e2" stroke-width="2.0" stroke-linecap="butt" d="m415.9687 116.881584l9.076019 -3.3039856l-9.0763855 -3.3029404z" fill-rule="evenodd"/><path fill="#6ee2e2" stroke="#6ee2e2" stroke-width="2.0" stroke-linecap="butt" d="m157.44862 110.336266l-9.076004 3.3039856l9.0763855 3.3029404z" fill-rule="evenodd"/><path fill="#000000" fill-opacity="0.0" d="m209.41716 107.88976l172.9449 0l0 57.85827l-172.9449 0z" fill-rule="evenodd"/><path fill="#ffffff" d="m235.96037 132.3904q-1.15625 0 -2.171875 -0.28125q-1.015625 -0.28125 -1.75 -0.8125q-0.265625 -0.1875 -0.3125 -0.421875q-0.046875 -0.234375 0.046875 -0.4375q0.109375 -0.21875 0.3125 -0.28125q0.21875 -0.078125 0.484375 0.09375q0.734375 0.53125 1.546875 0.75q0.8125 0.21875 1.84375 0.21875q1.4375 0 2.125 -0.53125q0.703125 -0.53125 0.703125 -1.40625q0 -0.71875 -0.515625 -1.125q-0.5 -0.42188263 -1.671875 -0.6562576l-1.671875 -0.34375q-1.5 -0.3125 -2.25 -1.03125q-0.734375 -0.734375 -0.734375 -1.953125q0 -1.015625 0.515625 -1.765625q0.515625 -0.75 1.4375 -1.15625q0.9375 -0.421875 2.15625 -0.421875q1.0 0 1.875 0.28125q0.875 0.28125 1.578125 0.84375q0.21875 0.171875 0.25 0.40625q0.046875 0.234375 -0.0625 0.421875q-0.109375 0.1875 -0.328125 0.25q-0.203125 0.046875 -0.484375 -0.125q-0.640625 -0.5 -1.34375 -0.703125q-0.6875 -0.203125 -1.5 -0.203125q-1.265625 0 -2.015625 0.578125q-0.75 0.578125 -0.75 1.546875q0 0.765625 0.46875 1.21875q0.46875 0.4375 1.546875 0.65625l1.65625 0.34375q1.609375 0.34375 2.390625 1.03125q0.78125 0.6718826 0.78125 1.8281326q0 0.953125 -0.515625 1.671875q-0.5 0.71875 -1.4375 1.125q-0.9375 0.390625 -2.203125 0.390625zm6.652527 -9.781258q-0.84375 0 -0.84375 -0.8125q0 -0.78125 0.84375 -0.78125q0.84375 0 0.84375 0.78125q0 0.8125 -0.84375 0.8125zm0 9.718758q-0.640625 0 -0.640625 -0.703125l0 -6.5468826q0 -0.6875 0.640625 -0.6875q0.65625 0 0.65625 0.6875l0 6.5468826q0 0.703125 -0.65625 0.703125zm6.5088806 2.953125q-0.84375 0 -1.65625 -0.203125q-0.8125 -0.203125 -1.46875 -0.640625q-0.234375 -0.140625 -0.28125 -0.34375q-0.03125 -0.203125 0.0625 -0.390625q0.09375 -0.171875 0.28125 -0.25q0.1875 -0.078125 0.390625 0.03125q0.703125 0.421875 1.34375 0.578125q0.640625 0.171875 1.265625 0.171875q2.296875 0 2.296875 -2.375l0 -1.375q-0.328125 0.734375 -1.046875 1.171875q-0.703125 0.421875 -1.625 0.421875q-1.0625 0 -1.859375 -0.5q-0.78125 -0.5 -1.203125 -1.359375q-0.421875 -0.875 -0.421875 -2.03125q0 -1.1562576 0.421875 -2.0156326q0.421875 -0.875 1.203125 -1.359375q0.796875 -0.484375 1.859375 -0.484375q0.921875 0 1.625 0.40625q0.703125 0.390625 1.03125 1.109375l0 -0.828125q0 -0.65625 0.640625 -0.65625q0.640625 0 0.640625 0.65625l0 6.6718826q0 1.796875 -0.890625 2.6875q-0.875 0.90625 -2.609375 0.90625zm-0.1875 -4.265625q1.109375 0 1.765625 -0.765625q0.65625 -0.765625 0.65625 -2.0625q0 -1.2968826 -0.65625 -2.0468826q-0.65625 -0.765625 -1.765625 -0.765625q-1.109375 0 -1.765625 0.765625q-0.65625 0.75 -0.65625 2.0468826q0 1.296875 0.65625 2.0625q0.65625 0.765625 1.765625 0.765625zm6.7666473 1.34375q-0.640625 0 -0.640625 -0.671875l0 -6.6718826q0 -0.65625 0.625 -0.65625q0.640625 0 0.640625 0.65625l0 0.78125q0.375 -0.734375 1.078125 -1.09375q0.703125 -0.375 1.59375 -0.375q2.765625 0 2.765625 3.078125l0 4.2812576q0 0.671875 -0.640625 0.671875q-0.65625 0 -0.65625 -0.671875l0 -4.2031326q0 -1.09375 -0.421875 -1.59375q-0.421875 -0.5 -1.359375 -0.5q-1.0625 0 -1.703125 0.671875q-0.625 0.65625 -0.625 1.75l0 3.8750076q0 0.671875 -0.65625 0.671875zm10.884888 0.03125q-0.796875 0 -1.4375 -0.3125q-0.625 -0.3125 -1.0 -0.84375q-0.359375 -0.546875 -0.359375 -1.21875q0 -0.859375 0.4375 -1.34375q0.453125 -0.5 1.46875 -0.7187576q1.015625 -0.21875 2.765625 -0.21875l0.515625 0l0 -0.5q0 -0.984375 -0.40625 -1.421875q-0.40625 -0.4375 -1.296875 -0.4375q-0.5625 0 -1.140625 0.140625q-0.5625 0.140625 -1.171875 0.46875q-0.265625 0.140625 -0.453125 0.0625q-0.1875 -0.09375 -0.265625 -0.296875q-0.0625 -0.203125 0 -0.421875q0.078125 -0.21875 0.3125 -0.328125q0.6875 -0.34375 1.390625 -0.5q0.703125 -0.171875 1.328125 -0.171875q1.5 0 2.21875 0.734375q0.734375 0.734375 0.734375 2.296875l0 4.3281326q0 0.671875 -0.59375 0.671875q-0.625 0 -0.625 -0.671875l0 -0.78125q-0.296875 0.6875 -0.9375 1.09375q-0.625 0.390625 -1.484375 0.390625zm0.21875 -0.96875q0.953125 0 1.5625 -0.65625q0.609375 -0.671875 0.609375 -1.703125l0 -0.46875l-0.5 0q-1.296875 0 -2.046875 0.125q-0.734375 0.109375 -1.03125 0.40625q-0.296875 0.296875 -0.296875 0.8125q0 0.65625 0.453125 1.078125q0.46875 0.40625 1.25 0.40625zm8.183136 0.96875q-1.140625 0 -1.75 -0.6875q-0.609375 -0.703125 -0.609375 -2.03125l0 -8.156258q0 -0.65625 0.640625 -0.65625q0.65625 0 0.65625 0.65625l0 8.062508q0 1.71875 1.359375 1.71875q0.140625 0 0.25 -0.015625q0.109375 -0.015625 0.234375 -0.015625q0.171875 -0.03125 0.234375 0.078125q0.078125 0.09375 0.078125 0.375q0 0.546875 -0.546875 0.625q-0.125 0.03125 -0.265625 0.03125q-0.140625 0.015625 -0.28125 0.015625zm11.551514 0q-1.65625 0 -2.84375 -0.703125q-1.1875 -0.703125 -1.828125 -2.0q-0.625 -1.296875 -0.625 -3.0781326q0 -1.78125 0.625 -3.078125q0.640625 -1.296875 1.828125 -2.0q1.1875 -0.703125 2.84375 -0.703125q1.0 0 1.890625 0.296875q0.90625 0.28125 1.5625 0.8125q0.265625 0.1875 0.296875 0.453125q0.046875 0.25 -0.078125 0.453125q-0.125 0.1875 -0.359375 0.25q-0.234375 0.046875 -0.515625 -0.15625q-1.140625 -0.90625 -2.765625 -0.90625q-1.890625 0 -2.90625 1.203125q-1.0 1.1875 -1.0 3.375q0 2.1875076 1.0 3.3906326q1.015625 1.1875 2.90625 1.1875q1.625 0 2.796875 -0.921875q0.28125 -0.1875 0.515625 -0.140625q0.234375 0.046875 0.34375 0.234375q0.125 0.1875 0.09375 0.4375q-0.03125 0.234375 -0.265625 0.421875q-0.6875 0.578125 -1.59375 0.875q-0.890625 0.296875 -1.921875 0.296875zm8.395508 0q-1.140625 0 -1.984375 -0.484375q-0.828125 -0.5 -1.28125 -1.40625q-0.453125 -0.90625 -0.453125 -2.140625q0 -1.2343826 0.453125 -2.1250076q0.453125 -0.90625 1.28125 -1.40625q0.84375 -0.5 1.984375 -0.5q1.109375 0 1.953125 0.5q0.84375 0.5 1.296875 1.40625q0.453125 0.890625 0.453125 2.1250076q0 1.234375 -0.453125 2.140625q-0.453125 0.90625 -1.296875 1.40625q-0.84375 0.484375 -1.953125 0.484375zm0 -1.03125q1.078125 0 1.734375 -0.78125q0.65625 -0.78125 0.65625 -2.21875q0 -1.4531326 -0.65625 -2.2187576q-0.65625 -0.765625 -1.734375 -0.765625q-1.109375 0 -1.765625 0.765625q-0.640625 0.765625 -0.640625 2.2187576q0 1.4375 0.640625 2.21875q0.65625 0.78125 1.765625 0.78125zm6.3022766 1.0q-0.640625 0 -0.640625 -0.671875l0 -6.6718826q0 -0.65625 0.625 -0.65625q0.640625 0 0.640625 0.65625l0 0.78125q0.375 -0.734375 1.078125 -1.09375q0.703125 -0.375 1.59375 -0.375q2.765625 0 2.765625 3.078125l0 4.2812576q0 0.671875 -0.640625 0.671875q-0.65625 0 -0.65625 -0.671875l0 -4.2031326q0 -1.09375 -0.421875 -1.59375q-0.421875 -0.5 -1.359375 -0.5q-1.0625 0 -1.703125 0.671875q-0.625 0.65625 -0.625 1.75l0 3.8750076q0 0.671875 -0.65625 0.671875zm9.088013 0q-0.640625 0 -0.640625 -0.671875l0 -6.6718826q0 -0.65625 0.625 -0.65625q0.640625 0 0.640625 0.65625l0 0.78125q0.375 -0.734375 1.078125 -1.09375q0.703125 -0.375 1.59375 -0.375q2.765625 0 2.765625 3.078125l0 4.2812576q0 0.671875 -0.640625 0.671875q-0.65625 0 -0.65625 -0.671875l0 -4.2031326q0 -1.09375 -0.421875 -1.59375q-0.421875 -0.5 -1.359375 -0.5q-1.0625 0 -1.703125 0.671875q-0.625 0.65625 -0.625 1.75l0 3.8750076q0 0.671875 -0.65625 0.671875zm11.947388 0.03125q-1.84375 0 -2.921875 -1.078125q-1.0625 -1.078125 -1.0625 -2.9375q0 -1.2031326 0.484375 -2.1093826q0.484375 -0.921875 1.3125 -1.421875q0.84375 -0.515625 1.953125 -0.515625q1.578125 0 2.46875 1.015625q0.90625 1.015625 0.90625 2.7968826q0 0.5 -0.5625 0.5l-5.296875 0q0.0625 1.328125 0.765625 2.03125q0.703125 0.6875 1.953125 0.6875q0.53125 0 1.078125 -0.140625q0.546875 -0.140625 1.046875 -0.484375q0.375 -0.25 0.625 -0.09375q0.25 0.140625 0.25 0.4375q0.015625 0.296875 -0.328125 0.515625q-0.53125 0.390625 -1.265625 0.59375q-0.71875 0.203125 -1.40625 0.203125zm-0.203125 -7.0937576q-1.109375 0 -1.75 0.6875q-0.640625 0.6875 -0.75 1.796875l4.71875 0q-0.046875 -1.171875 -0.625 -1.828125q-0.5625 -0.65625 -1.59375 -0.65625zm8.512024 7.0937576q-1.171875 0 -2.03125 -0.5q-0.84375 -0.5 -1.296875 -1.421875q-0.453125 -0.921875 -0.453125 -2.15625q0 -1.8593826 1.0 -2.9218826q1.015625 -1.0625 2.78125 -1.0625q0.578125 0 1.203125 0.1875q0.625 0.1875 1.125 0.59375q0.28125 0.203125 0.234375 0.484375q-0.03125 0.28125 -0.265625 0.4375q-0.234375 0.140625 -0.546875 -0.0625q-0.421875 -0.328125 -0.859375 -0.453125q-0.421875 -0.125 -0.8125 -0.125q-1.21875 0 -1.875 0.765625q-0.65625 0.75 -0.65625 2.1718826q0 1.390625 0.65625 2.203125q0.65625 0.8125 1.875 0.8125q0.390625 0 0.8125 -0.125q0.4375 -0.140625 0.859375 -0.453125q0.3125 -0.21875 0.53125 -0.0625q0.234375 0.15625 0.25 0.453125q0.03125 0.28125 -0.234375 0.453125q-0.515625 0.421875 -1.125 0.609375q-0.59375 0.171875 -1.171875 0.171875zm7.236145 0q-1.390625 0 -2.078125 -0.71875q-0.6875 -0.734375 -0.6875 -2.109375l0 -4.0781326l-1.0625 0q-0.5625 0 -0.5625 -0.515625q0 -0.5 0.5625 -0.5l1.0625 0l0 -1.828125q0 -0.65625 0.65625 -0.65625q0.640625 0 0.640625 0.65625l0 1.828125l2.015625 0q0.5625 0 0.5625 0.5q0 0.515625 -0.5625 0.515625l-2.015625 0l0 3.9531326q0 0.90625 0.375 1.390625q0.390625 0.46875 1.265625 0.46875q0.296875 0 0.5 -0.0625q0.21875 -0.078125 0.375 -0.078125q0.140625 -0.015625 0.234375 0.109375q0.109375 0.109375 0.109375 0.375q0 0.1875 -0.078125 0.359375q-0.078125 0.15625 -0.25 0.21875q-0.1875 0.0625 -0.5 0.109375q-0.3125 0.0625 -0.5625 0.0625zm3.2116394 -9.781258q-0.84375 0 -0.84375 -0.8125q0 -0.78125 0.84375 -0.78125q0.84375 0 0.84375 0.78125q0 0.8125 -0.84375 0.8125zm0 9.718758q-0.640625 0 -0.640625 -0.703125l0 -6.5468826q0 -0.6875 0.640625 -0.6875q0.65625 0 0.65625 0.6875l0 6.5468826q0 0.703125 -0.65625 0.703125zm6.3057556 0.0625q-1.140625 0 -1.984375 -0.484375q-0.828125 -0.5 -1.28125 -1.40625q-0.453125 -0.90625 -0.453125 -2.140625q0 -1.2343826 0.453125 -2.1250076q0.453125 -0.90625 1.28125 -1.40625q0.84375 -0.5 1.984375 -0.5q1.109375 0 1.953125 0.5q0.84375 0.5 1.296875 1.40625q0.453125 0.890625 0.453125 2.1250076q0 1.234375 -0.453125 2.140625q-0.453125 0.90625 -1.296875 1.40625q-0.84375 0.484375 -1.953125 0.484375zm0 -1.03125q1.078125 0 1.734375 -0.78125q0.65625 -0.78125 0.65625 -2.21875q0 -1.4531326 -0.65625 -2.2187576q-0.65625 -0.765625 -1.734375 -0.765625q-1.109375 0 -1.765625 0.765625q-0.640625 0.765625 -0.640625 2.2187576q0 1.4375 0.640625 2.21875q0.65625 0.78125 1.765625 0.78125zm6.302246 1.0q-0.640625 0 -0.640625 -0.671875l0 -6.6718826q0 -0.65625 0.625 -0.65625q0.640625 0 0.640625 0.65625l0 0.78125q0.375 -0.734375 1.078125 -1.09375q0.703125 -0.375 1.59375 -0.375q2.765625 0 2.765625 3.078125l0 4.2812576q0 0.671875 -0.640625 0.671875q-0.65625 0 -0.65625 -0.671875l0 -4.2031326q0 -1.09375 -0.421875 -1.59375q-0.421875 -0.5 -1.359375 -0.5q-1.0625 0 -1.703125 0.671875q-0.625 0.65625 -0.625 1.75l0 3.8750076q0 0.671875 -0.65625 0.671875z" fill-rule="nonzero"/><path fill="#ffffff" d="m249.41858 151.86351q-0.546875 0 -0.546875 -0.578125l0 -8.359375q0 -0.546875 0.5625 -0.546875l3.15625 0q1.515625 0 2.328125 0.734375q0.8125 0.71875 0.8125 2.078125q0 1.359375 -0.8125 2.09375q-0.8125 0.734375 -2.328125 0.734375l-2.625 0l0 3.265625q0 0.578125 -0.546875 0.578125zm0.546875 -4.765625l2.5 0q2.1875 0 2.1875 -1.90625q0 -1.90625 -2.1875 -1.90625l-2.5 0l0 3.8125zm7.6158447 4.765625q-0.546875 0 -0.546875 -0.5625l0 -5.5625q0 -0.546875 0.515625 -0.546875q0.53125 0 0.53125 0.546875l0 0.71875q0.265625 -0.625 0.828125 -0.9375q0.5625 -0.328125 1.328125 -0.359375q0.4375 -0.046875 0.453125 0.421875q0.046875 0.46875 -0.46875 0.515625l-0.21875 0.03125q-0.921875 0.078125 -1.40625 0.578125q-0.46875 0.5 -0.46875 1.375l0 3.21875q0 0.5625 -0.546875 0.5625zm6.832062 0.03125q-0.9375 0 -1.640625 -0.40625q-0.6875 -0.421875 -1.078125 -1.171875q-0.375 -0.765625 -0.375 -1.78125q0 -1.03125 0.375 -1.78125q0.390625 -0.75 1.078125 -1.15625q0.703125 -0.421875 1.640625 -0.421875q0.9375 0 1.625 0.421875q0.703125 0.40625 1.078125 1.15625q0.390625 0.75 0.390625 1.78125q0 1.015625 -0.390625 1.78125q-0.375 0.75 -1.078125 1.171875q-0.6875 0.40625 -1.625 0.40625zm0 -0.875q0.90625 0 1.453125 -0.640625q0.546875 -0.65625 0.546875 -1.84375q0 -1.21875 -0.546875 -1.859375q-0.546875 -0.640625 -1.453125 -0.640625q-0.921875 0 -1.46875 0.640625q-0.53125 0.640625 -0.53125 1.859375q0 1.1875 0.53125 1.84375q0.546875 0.640625 1.46875 0.640625zm7.25 0.875q-1.140625 0 -1.71875 -0.609375q-0.578125 -0.609375 -0.578125 -1.75l0 -3.40625l-0.890625 0q-0.46875 0 -0.46875 -0.421875q0 -0.421875 0.46875 -0.421875l0.890625 0l0 -1.53125q0 -0.546875 0.546875 -0.546875q0.546875 0 0.546875 0.546875l0 1.53125l1.671875 0q0.46875 0 0.46875 0.421875q0 0.421875 -0.46875 0.421875l-1.671875 0l0 3.296875q0 0.75 0.3125 1.15625q0.3125 0.390625 1.046875 0.390625q0.25 0 0.421875 -0.046875q0.171875 -0.0625 0.296875 -0.0625q0.125 -0.015625 0.203125 0.078125q0.078125 0.09375 0.078125 0.328125q0 0.15625 -0.0625 0.296875q-0.046875 0.125 -0.203125 0.171875q-0.15625 0.0625 -0.421875 0.109375q-0.25 0.046875 -0.46875 0.046875zm4.691925 0q-0.9375 0 -1.640625 -0.40625q-0.6875 -0.421875 -1.078125 -1.171875q-0.375 -0.765625 -0.375 -1.78125q0 -1.03125 0.375 -1.78125q0.390625 -0.75 1.078125 -1.15625q0.703125 -0.421875 1.640625 -0.421875q0.9375 0 1.625 0.421875q0.703125 0.40625 1.078125 1.15625q0.390625 0.75 0.390625 1.78125q0 1.015625 -0.390625 1.78125q-0.375 0.75 -1.078125 1.171875q-0.6875 0.40625 -1.625 0.40625zm0 -0.875q0.90625 0 1.453125 -0.640625q0.546875 -0.65625 0.546875 -1.84375q0 -1.21875 -0.546875 -1.859375q-0.546875 -0.640625 -1.453125 -0.640625q-0.921875 0 -1.46875 0.640625q-0.53125 0.640625 -0.53125 1.859375q0 1.1875 0.53125 1.84375q0.546875 0.640625 1.46875 0.640625zm7.4729004 0.875q-0.984375 0 -1.6875 -0.421875q-0.703125 -0.421875 -1.09375 -1.1875q-0.375 -0.765625 -0.375 -1.796875q0 -1.546875 0.84375 -2.421875q0.84375 -0.890625 2.3125 -0.890625q0.46875 0 0.984375 0.15625q0.53125 0.140625 0.953125 0.5q0.234375 0.15625 0.1875 0.40625q-0.03125 0.234375 -0.21875 0.359375q-0.1875 0.109375 -0.453125 -0.0625q-0.359375 -0.265625 -0.71875 -0.375q-0.34375 -0.109375 -0.671875 -0.109375q-1.015625 0 -1.5625 0.640625q-0.546875 0.625 -0.546875 1.8125q0 1.15625 0.546875 1.828125q0.546875 0.671875 1.5625 0.671875q0.328125 0 0.671875 -0.09375q0.359375 -0.109375 0.71875 -0.375q0.265625 -0.171875 0.4375 -0.046875q0.1875 0.125 0.203125 0.359375q0.03125 0.234375 -0.1875 0.390625q-0.421875 0.34375 -0.9375 0.5q-0.5 0.15625 -0.96875 0.15625zm5.975067 0q-0.9375 0 -1.640625 -0.40625q-0.6875 -0.421875 -1.078125 -1.171875q-0.375 -0.765625 -0.375 -1.78125q0 -1.03125 0.375 -1.78125q0.390625 -0.75 1.078125 -1.15625q0.703125 -0.421875 1.640625 -0.421875q0.9375 0 1.625 0.421875q0.703125 0.40625 1.078125 1.15625q0.390625 0.75 0.390625 1.78125q0 1.015625 -0.390625 1.78125q-0.375 0.75 -1.078125 1.171875q-0.6875 0.40625 -1.625 0.40625zm0 -0.875q0.90625 0 1.453125 -0.640625q0.546875 -0.65625 0.546875 -1.84375q0 -1.21875 -0.546875 -1.859375q-0.546875 -0.640625 -1.453125 -0.640625q-0.921875 0 -1.46875 0.640625q-0.53125 0.640625 -0.53125 1.859375q0 1.1875 0.53125 1.84375q0.546875 0.640625 1.46875 0.640625zm6.691681 0.875q-0.953125 0 -1.46875 -0.578125q-0.5 -0.59375 -0.5 -1.6875l0 -6.796875q0 -0.546875 0.53125 -0.546875q0.546875 0 0.546875 0.546875l0 6.71875q0 1.421875 1.125 1.421875q0.125 0 0.21875 -0.015625q0.09375 -0.015625 0.1875 -0.015625q0.140625 -0.015625 0.203125 0.0625q0.0625 0.078125 0.0625 0.328125q0 0.453125 -0.453125 0.515625q-0.109375 0.03125 -0.234375 0.03125q-0.109375 0.015625 -0.21875 0.015625zm6.1650085 -0.125q-0.609375 0 -0.609375 -0.59375l0 -8.203125q0 -0.59375 0.609375 -0.59375l3.15625 0q1.453125 0 2.234375 0.640625q0.796875 0.640625 0.796875 1.8125q0 0.765625 -0.40625 1.3125q-0.390625 0.546875 -1.09375 0.796875q0.8125 0.21875 1.265625 0.796875q0.46875 0.5625 0.46875 1.453125q0 1.25 -0.8125 1.921875q-0.8125 0.65625 -2.296875 0.65625l-3.3125 0zm0.453125 -5.203125l2.546875 0q2.109375 0 2.109375 -1.640625q0 -1.671875 -2.109375 -1.671875l-2.546875 0l0 3.3125zm0 4.328125l2.75 0q2.140625 0 2.140625 -1.71875q0 -1.71875 -2.140625 -1.71875l-2.75 0l0 3.4375zm10.103516 1.0q-2.34375 0 -2.34375 -2.578125l0 -3.578125q0 -0.546875 0.53125 -0.546875q0.546875 0 0.546875 0.546875l0 3.5625q0 0.875 0.359375 1.296875q0.359375 0.40625 1.109375 0.40625q0.828125 0 1.34375 -0.546875q0.53125 -0.5625 0.53125 -1.484375l0 -3.234375q0 -0.546875 0.546875 -0.546875q0.53125 0 0.53125 0.546875l0 5.5625q0 0.5625 -0.53125 0.5625q-0.53125 0 -0.53125 -0.5625l0 -0.625q-0.296875 0.59375 -0.859375 0.90625q-0.546875 0.3125 -1.234375 0.3125zm6.055176 -0.03125q-0.53125 0 -0.53125 -0.5625l0 -5.171875l-0.859375 0q-0.453125 0 -0.453125 -0.421875q0 -0.421875 0.453125 -0.421875l0.859375 0l0 -0.21875q0 -2.5 2.4375 -2.703125l0.390625 -0.046875q0.234375 -0.015625 0.34375 0.109375q0.109375 0.125 0.109375 0.296875q0.015625 0.15625 -0.078125 0.296875q-0.09375 0.125 -0.265625 0.140625l-0.3125 0.03125q-0.8125 0.0625 -1.1875 0.5q-0.359375 0.421875 -0.359375 1.234375l0 0.359375l1.4375 0q0.46875 0 0.46875 0.421875q0 0.421875 -0.46875 0.421875l-1.4375 0l0 5.171875q0 0.5625 -0.546875 0.5625zm4.2249146 0q-0.53125 0 -0.53125 -0.5625l0 -5.171875l-0.859375 0q-0.453125 0 -0.453125 -0.421875q0 -0.421875 0.453125 -0.421875l0.859375 0l0 -0.21875q0 -2.5 2.4375 -2.703125l0.390625 -0.046875q0.234375 -0.015625 0.34375 0.109375q0.109375 0.125 0.109375 0.296875q0.015625 0.15625 -0.078125 0.296875q-0.09375 0.125 -0.265625 0.140625l-0.3125 0.03125q-0.8125 0.0625 -1.1875 0.5q-0.359375 0.421875 -0.359375 1.234375l0 0.359375l1.4375 0q0.46875 0 0.46875 0.421875q0 0.421875 -0.46875 0.421875l-1.4375 0l0 5.171875q0 0.5625 -0.546875 0.5625zm6.298462 0.03125q-1.53125 0 -2.4375 -0.890625q-0.890625 -0.90625 -0.890625 -2.453125q0 -1.0 0.390625 -1.765625q0.40625 -0.765625 1.109375 -1.1875q0.703125 -0.421875 1.625 -0.421875q1.3125 0 2.0625 0.84375q0.75 0.84375 0.75 2.328125q0 0.40625 -0.46875 0.40625l-4.40625 0q0.046875 1.109375 0.625 1.6875q0.59375 0.578125 1.640625 0.578125q0.4375 0 0.890625 -0.109375q0.453125 -0.109375 0.875 -0.40625q0.3125 -0.203125 0.515625 -0.078125q0.203125 0.125 0.203125 0.375q0.015625 0.234375 -0.265625 0.421875q-0.4375 0.3125 -1.046875 0.5q-0.609375 0.171875 -1.171875 0.171875zm-0.171875 -5.921875q-0.921875 0 -1.46875 0.578125q-0.53125 0.5625 -0.625 1.5l3.9375 0q-0.03125 -0.984375 -0.515625 -1.53125q-0.46875 -0.546875 -1.328125 -0.546875zm4.8874207 5.890625q-0.546875 0 -0.546875 -0.5625l0 -5.5625q0 -0.546875 0.515625 -0.546875q0.53125 0 0.53125 0.546875l0 0.71875q0.265625 -0.625 0.828125 -0.9375q0.5625 -0.328125 1.328125 -0.359375q0.4375 -0.046875 0.453125 0.421875q0.046875 0.46875 -0.46875 0.515625l-0.21875 0.03125q-0.921875 0.078125 -1.40625 0.578125q-0.46875 0.5 -0.46875 1.375l0 3.21875q0 0.5625 -0.546875 0.5625zm6.3454285 0.03125q-0.609375 0 -1.21875 -0.15625q-0.59375 -0.15625 -1.125 -0.5q-0.234375 -0.15625 -0.234375 -0.375q0.015625 -0.234375 0.1875 -0.359375q0.171875 -0.140625 0.4375 -0.015625q0.515625 0.328125 1.0 0.453125q0.5 0.125 0.96875 0.125q0.765625 0 1.15625 -0.28125q0.390625 -0.28125 0.390625 -0.765625q0 -0.375 -0.265625 -0.59375q-0.25 -0.21875 -0.796875 -0.328125l-1.203125 -0.28125q-1.65625 -0.359375 -1.65625 -1.703125q0 -0.875 0.6875 -1.40625q0.703125 -0.53125 1.84375 -0.53125q0.5625 0 1.09375 0.15625q0.546875 0.140625 0.96875 0.484375q0.234375 0.15625 0.203125 0.390625q-0.03125 0.21875 -0.21875 0.34375q-0.171875 0.125 -0.421875 -0.03125q-0.40625 -0.265625 -0.828125 -0.390625q-0.40625 -0.125 -0.796875 -0.125q-0.75 0 -1.140625 0.296875q-0.375 0.28125 -0.375 0.765625q0 0.75 0.984375 0.953125l1.203125 0.265625q0.859375 0.171875 1.296875 0.578125q0.4375 0.40625 0.4375 1.109375q0 0.890625 -0.703125 1.40625q-0.703125 0.515625 -1.875 0.515625z" fill-rule="nonzero"/><path fill="#000000" fill-opacity="0.0" d="m76.062996 75.3727c0 -12.5 105.32284 -25.007874 210.64566 -25.0c105.322845 0.007873535 210.64569 12.531494 210.64569 25.062988" fill-rule="evenodd"/><path stroke="#5a8bff" stroke-width="2.0" stroke-linejoin="round" stroke-linecap="butt" d="m76.062996 75.3727c0 -12.5 105.32284 -25.007874 210.64566 -25.0c52.661438 0.0039367676 105.322845 3.1368103 144.81891 7.8351364c19.748047 2.349163 36.204712 5.089691 47.724426 8.026146c2.8799133 0.7341156 5.4512634 1.4804764 7.6883545 2.236023l0.51782227 0.17849731" fill-rule="evenodd"/><path fill="#5a8bff" stroke="#5a8bff" stroke-width="2.0" stroke-linecap="butt" d="m485.58972 71.37281l9.353394 2.4091873l-5.616516 -7.857788z" fill-rule="evenodd"/><path fill="#000000" fill-opacity="0.0" d="m169.96857 6.9737535l245.66928 0l0 38.771652l-245.66928 0z" fill-rule="evenodd"/><path fill="#ffffff" d="m202.32191 31.443129q-0.65625 0 -0.65625 -0.6875l0 -10.03125q0 -0.671875 0.671875 -0.671875l3.796875 0q1.828125 0 2.78125 0.890625q0.96875 0.875 0.96875 2.5q0 1.625 -0.96875 2.515625q-0.953125 0.875 -2.78125 0.875l-3.15625 0l0 3.921875q0 0.6875 -0.65625 0.6875zm0.65625 -5.703125l3.0 0q2.609375 0 2.609375 -2.296875q0 -2.296875 -2.609375 -2.296875l-3.0 0l0 4.59375zm11.297653 5.734375q-2.796875 0 -2.796875 -3.078125l0 -4.296875q0 -0.65625 0.640625 -0.65625q0.65625 0 0.65625 0.65625l0 4.28125q0 1.03125 0.421875 1.53125q0.421875 0.5 1.328125 0.5q1.0 0 1.625 -0.65625q0.625 -0.671875 0.625 -1.78125l0 -3.875q0 -0.65625 0.65625 -0.65625q0.640625 0 0.640625 0.65625l0 6.671875q0 0.671875 -0.625 0.671875q-0.640625 0 -0.640625 -0.671875l0 -0.75q-0.375 0.703125 -1.046875 1.078125q-0.65625 0.375 -1.484375 0.375zm10.163513 0q-0.921875 0 -1.625 -0.40625q-0.703125 -0.40625 -1.03125 -1.125l0 0.828125q0 0.671875 -0.640625 0.671875q-0.640625 0 -0.640625 -0.671875l0 -10.171875q0 -0.65625 0.640625 -0.65625q0.65625 0 0.65625 0.65625l0 4.296875q0.328125 -0.6875 1.03125 -1.078125q0.703125 -0.40625 1.609375 -0.40625q1.03125 0 1.8125 0.5q0.78125 0.484375 1.203125 1.390625q0.421875 0.890625 0.421875 2.140625q0 1.234375 -0.421875 2.140625q-0.421875 0.90625 -1.203125 1.40625q-0.78125 0.484375 -1.8125 0.484375zm-0.28125 -1.03125q1.09375 0 1.75 -0.78125q0.65625 -0.78125 0.65625 -2.21875q0 -1.453125 -0.65625 -2.21875q-0.65625 -0.765625 -1.75 -0.765625q-1.078125 0 -1.734375 0.765625q-0.65625 0.765625 -0.65625 2.21875q0 1.4375 0.65625 2.21875q0.65625 0.78125 1.734375 0.78125zm8.031143 1.03125q-1.140625 0 -1.75 -0.6875q-0.609375 -0.703125 -0.609375 -2.03125l0 -8.15625q0 -0.65625 0.640625 -0.65625q0.65625 0 0.65625 0.65625l0 8.0625q0 1.71875 1.359375 1.71875q0.140625 0 0.25 -0.015625q0.109375 -0.015625 0.234375 -0.015625q0.171875 -0.03125 0.234375 0.078125q0.078125 0.09375 0.078125 0.375q0 0.546875 -0.546875 0.625q-0.125 0.03125 -0.265625 0.03125q-0.140625 0.015625 -0.28125 0.015625zm3.0172577 -9.78125q-0.84375 0 -0.84375 -0.8125q0 -0.78125 0.84375 -0.78125q0.84375 0 0.84375 0.78125q0 0.8125 -0.84375 0.8125zm0 9.71875q-0.640625 0 -0.640625 -0.703125l0 -6.546875q0 -0.6875 0.640625 -0.6875q0.65625 0 0.65625 0.6875l0 6.546875q0 0.703125 -0.65625 0.703125zm5.6963806 0.0625q-0.71875 0 -1.453125 -0.171875q-0.734375 -0.1875 -1.34375 -0.609375q-0.296875 -0.171875 -0.296875 -0.453125q0.015625 -0.28125 0.21875 -0.4375q0.21875 -0.171875 0.53125 0q0.625 0.375 1.203125 0.53125q0.59375 0.15625 1.171875 0.15625q0.90625 0 1.375 -0.328125q0.46875 -0.34375 0.46875 -0.921875q0 -0.453125 -0.3125 -0.71875q-0.296875 -0.265625 -0.953125 -0.40625l-1.46875 -0.3125q-1.96875 -0.4375 -1.96875 -2.046875q0 -1.0625 0.828125 -1.703125q0.84375 -0.640625 2.203125 -0.640625q0.6875 0 1.328125 0.1875q0.640625 0.1875 1.15625 0.578125q0.265625 0.203125 0.234375 0.46875q-0.03125 0.265625 -0.25 0.421875q-0.21875 0.15625 -0.515625 -0.03125q-0.484375 -0.328125 -0.984375 -0.46875q-0.484375 -0.15625 -0.96875 -0.15625q-0.890625 0 -1.359375 0.359375q-0.46875 0.34375 -0.46875 0.921875q0 0.890625 1.1875 1.140625l1.453125 0.3125q1.03125 0.21875 1.546875 0.71875q0.53125 0.484375 0.53125 1.3125q0 1.0625 -0.84375 1.6875q-0.84375 0.609375 -2.25 0.609375zm5.7116394 -0.03125q-0.640625 0 -0.640625 -0.671875l0 -10.171875q0 -0.65625 0.640625 -0.65625q0.65625 0 0.65625 0.65625l0 4.234375q0.375 -0.703125 1.0625 -1.0625q0.703125 -0.359375 1.578125 -0.359375q2.765625 0 2.765625 3.078125l0 4.28125q0 0.671875 -0.640625 0.671875q-0.65625 0 -0.65625 -0.671875l0 -4.203125q0 -1.09375 -0.421875 -1.59375q-0.421875 -0.5 -1.359375 -0.5q-1.0625 0 -1.703125 0.671875q-0.625 0.65625 -0.625 1.75l0 3.875q0 0.671875 -0.65625 0.671875zm11.947388 0.03125q-1.84375 0 -2.921875 -1.078125q-1.0625 -1.078125 -1.0625 -2.9375q0 -1.203125 0.484375 -2.109375q0.484375 -0.921875 1.3125 -1.421875q0.84375 -0.515625 1.953125 -0.515625q1.578125 0 2.46875 1.015625q0.90625 1.015625 0.90625 2.796875q0 0.5 -0.5625 0.5l-5.296875 0q0.0625 1.328125 0.765625 2.03125q0.703125 0.6875 1.953125 0.6875q0.53125 0 1.078125 -0.140625q0.546875 -0.140625 1.046875 -0.484375q0.375 -0.25 0.625 -0.09375q0.25 0.140625 0.25 0.4375q0.015625 0.296875 -0.328125 0.515625q-0.53125 0.390625 -1.265625 0.59375q-0.71875 0.203125 -1.40625 0.203125zm-0.203125 -7.09375q-1.109375 0 -1.75 0.6875q-0.640625 0.6875 -0.75 1.796875l4.71875 0q-0.046875 -1.171875 -0.625 -1.828125q-0.5625 -0.65625 -1.59375 -0.65625zm5.871399 7.0625q-0.65625 0 -0.65625 -0.671875l0 -6.671875q0 -0.65625 0.625 -0.65625q0.640625 0 0.640625 0.65625l0 0.84375q0.3125 -0.734375 0.984375 -1.125q0.671875 -0.390625 1.609375 -0.421875q0.5 -0.046875 0.53125 0.515625q0.046875 0.5625 -0.5625 0.625l-0.265625 0.03125q-1.09375 0.09375 -1.671875 0.703125q-0.578125 0.59375 -0.578125 1.625l0 3.875q0 0.671875 -0.65625 0.671875zm10.027893 0q-0.65625 0 -0.65625 -0.6875l0 -10.03125q0 -0.671875 0.671875 -0.671875l3.796875 0q1.828125 0 2.78125 0.890625q0.96875 0.875 0.96875 2.5q0 1.625 -0.96875 2.515625q-0.953125 0.875 -2.78125 0.875l-3.15625 0l0 3.921875q0 0.6875 -0.65625 0.6875zm0.65625 -5.703125l3.0 0q2.609375 0 2.609375 -2.296875q0 -2.296875 -2.609375 -2.296875l-3.0 0l0 4.59375zm11.791626 5.734375q-1.84375 0 -2.921875 -1.078125q-1.0625 -1.078125 -1.0625 -2.9375q0 -1.203125 0.484375 -2.109375q0.484375 -0.921875 1.3125 -1.421875q0.84375 -0.515625 1.953125 -0.515625q1.578125 0 2.46875 1.015625q0.90625 1.015625 0.90625 2.796875q0 0.5 -0.5625 0.5l-5.296875 0q0.0625 1.328125 0.765625 2.03125q0.703125 0.6875 1.953125 0.6875q0.53125 0 1.078125 -0.140625q0.546875 -0.140625 1.046875 -0.484375q0.375 -0.25 0.625 -0.09375q0.25 0.140625 0.25 0.4375q0.015625 0.296875 -0.328125 0.515625q-0.53125 0.390625 -1.265625 0.59375q-0.71875 0.203125 -1.40625 0.203125zm-0.203125 -7.09375q-1.109375 0 -1.75 0.6875q-0.640625 0.6875 -0.75 1.796875l4.71875 0q-0.046875 -1.171875 -0.625 -1.828125q-0.5625 -0.65625 -1.59375 -0.65625zm8.715149 7.09375q-1.84375 0 -2.921875 -1.078125q-1.0625 -1.078125 -1.0625 -2.9375q0 -1.203125 0.484375 -2.109375q0.484375 -0.921875 1.3125 -1.421875q0.84375 -0.515625 1.953125 -0.515625q1.578125 0 2.46875 1.015625q0.90625 1.015625 0.90625 2.796875q0 0.5 -0.5625 0.5l-5.296875 0q0.0625 1.328125 0.765625 2.03125q0.703125 0.6875 1.953125 0.6875q0.53125 0 1.078125 -0.140625q0.546875 -0.140625 1.046875 -0.484375q0.375 -0.25 0.625 -0.09375q0.25 0.140625 0.25 0.4375q0.015625 0.296875 -0.328125 0.515625q-0.53125 0.390625 -1.265625 0.59375q-0.71875 0.203125 -1.40625 0.203125zm-0.203125 -7.09375q-1.109375 0 -1.75 0.6875q-0.640625 0.6875 -0.75 1.796875l4.71875 0q-0.046875 -1.171875 -0.625 -1.828125q-0.5625 -0.65625 -1.59375 -0.65625zm5.871399 7.0625q-0.65625 0 -0.65625 -0.671875l0 -6.671875q0 -0.65625 0.625 -0.65625q0.640625 0 0.640625 0.65625l0 0.84375q0.3125 -0.734375 0.984375 -1.125q0.671875 -0.390625 1.609375 -0.421875q0.5 -0.046875 0.53125 0.515625q0.046875 0.5625 -0.5625 0.625l-0.265625 0.03125q-1.09375 0.09375 -1.671875 0.703125q-0.578125 0.59375 -0.578125 1.625l0 3.875q0 0.671875 -0.65625 0.671875zm10.118652 0.03125q-1.65625 0 -2.84375 -0.703125q-1.1875 -0.703125 -1.828125 -2.0q-0.625 -1.296875 -0.625 -3.078125q0 -1.78125 0.625 -3.078125q0.640625 -1.296875 1.828125 -2.0q1.1875 -0.703125 2.84375 -0.703125q1.0 0 1.890625 0.296875q0.90625 0.28125 1.5625 0.8125q0.265625 0.1875 0.296875 0.453125q0.046875 0.25 -0.078125 0.453125q-0.125 0.1875 -0.359375 0.25q-0.234375 0.046875 -0.515625 -0.15625q-1.140625 -0.90625 -2.765625 -0.90625q-1.890625 0 -2.90625 1.203125q-1.0 1.1875 -1.0 3.375q0 2.1875 1.0 3.390625q1.015625 1.1875 2.90625 1.1875q1.625 0 2.796875 -0.921875q0.28125 -0.1875 0.515625 -0.140625q0.234375 0.046875 0.34375 0.234375q0.125 0.1875 0.09375 0.4375q-0.03125 0.234375 -0.265625 0.421875q-0.6875 0.578125 -1.59375 0.875q-0.890625 0.296875 -1.921875 0.296875zm8.395508 0q-1.140625 0 -1.984375 -0.484375q-0.828125 -0.5 -1.28125 -1.40625q-0.453125 -0.90625 -0.453125 -2.140625q0 -1.234375 0.453125 -2.125q0.453125 -0.90625 1.28125 -1.40625q0.84375 -0.5 1.984375 -0.5q1.109375 0 1.953125 0.5q0.84375 0.5 1.296875 1.40625q0.453125 0.890625 0.453125 2.125q0 1.234375 -0.453125 2.140625q-0.453125 0.90625 -1.296875 1.40625q-0.84375 0.484375 -1.953125 0.484375zm0 -1.03125q1.078125 0 1.734375 -0.78125q0.65625 -0.78125 0.65625 -2.21875q0 -1.453125 -0.65625 -2.21875q-0.65625 -0.765625 -1.734375 -0.765625q-1.109375 0 -1.765625 0.765625q-0.640625 0.765625 -0.640625 2.21875q0 1.4375 0.640625 2.21875q0.65625 0.78125 1.765625 0.78125zm6.3022766 1.0q-0.640625 0 -0.640625 -0.671875l0 -6.671875q0 -0.65625 0.625 -0.65625q0.640625 0 0.640625 0.65625l0 0.78125q0.375 -0.734375 1.078125 -1.09375q0.703125 -0.375 1.59375 -0.375q2.765625 0 2.765625 3.078125l0 4.28125q0 0.671875 -0.640625 0.671875q-0.65625 0 -0.65625 -0.671875l0 -4.203125q0 -1.09375 -0.421875 -1.59375q-0.421875 -0.5 -1.359375 -0.5q-1.0625 0 -1.703125 0.671875q-0.625 0.65625 -0.625 1.75l0 3.875q0 0.671875 -0.65625 0.671875zm9.088013 0q-0.640625 0 -0.640625 -0.671875l0 -6.671875q0 -0.65625 0.625 -0.65625q0.640625 0 0.640625 0.65625l0 0.78125q0.375 -0.734375 1.078125 -1.09375q0.703125 -0.375 1.59375 -0.375q2.765625 0 2.765625 3.078125l0 4.28125q0 0.671875 -0.640625 0.671875q-0.65625 0 -0.65625 -0.671875l0 -4.203125q0 -1.09375 -0.421875 -1.59375q-0.421875 -0.5 -1.359375 -0.5q-1.0625 0 -1.703125 0.671875q-0.625 0.65625 -0.625 1.75l0 3.875q0 0.671875 -0.65625 0.671875zm11.947388 0.03125q-1.84375 0 -2.921875 -1.078125q-1.0625 -1.078125 -1.0625 -2.9375q0 -1.203125 0.484375 -2.109375q0.484375 -0.921875 1.3125 -1.421875q0.84375 -0.515625 1.953125 -0.515625q1.578125 0 2.46875 1.015625q0.90625 1.015625 0.90625 2.796875q0 0.5 -0.5625 0.5l-5.296875 0q0.0625 1.328125 0.765625 2.03125q0.703125 0.6875 1.953125 0.6875q0.53125 0 1.078125 -0.140625q0.546875 -0.140625 1.046875 -0.484375q0.375 -0.25 0.625 -0.09375q0.25 0.140625 0.25 0.4375q0.015625 0.296875 -0.328125 0.515625q-0.53125 0.390625 -1.265625 0.59375q-0.71875 0.203125 -1.40625 0.203125zm-0.203125 -7.09375q-1.109375 0 -1.75 0.6875q-0.640625 0.6875 -0.75 1.796875l4.71875 0q-0.046875 -1.171875 -0.625 -1.828125q-0.5625 -0.65625 -1.59375 -0.65625zm8.512024 7.09375q-1.171875 0 -2.03125 -0.5q-0.84375 -0.5 -1.296875 -1.421875q-0.453125 -0.921875 -0.453125 -2.15625q0 -1.859375 1.0 -2.921875q1.015625 -1.0625 2.78125 -1.0625q0.578125 0 1.203125 0.1875q0.625 0.1875 1.125 0.59375q0.28125 0.203125 0.234375 0.484375q-0.03125 0.28125 -0.265625 0.4375q-0.234375 0.140625 -0.546875 -0.0625q-0.421875 -0.328125 -0.859375 -0.453125q-0.421875 -0.125 -0.8125 -0.125q-1.21875 0 -1.875 0.765625q-0.65625 0.75 -0.65625 2.171875q0 1.390625 0.65625 2.203125q0.65625 0.8125 1.875 0.8125q0.390625 0 0.8125 -0.125q0.4375 -0.140625 0.859375 -0.453125q0.3125 -0.21875 0.53125 -0.0625q0.234375 0.15625 0.25 0.453125q0.03125 0.28125 -0.234375 0.453125q-0.515625 0.421875 -1.125 0.609375q-0.59375 0.171875 -1.171875 0.171875zm7.236145 0q-1.390625 0 -2.078125 -0.71875q-0.6875 -0.734375 -0.6875 -2.109375l0 -4.078125l-1.0625 0q-0.5625 0 -0.5625 -0.515625q0 -0.5 0.5625 -0.5l1.0625 0l0 -1.828125q0 -0.65625 0.65625 -0.65625q0.640625 0 0.640625 0.65625l0 1.828125l2.015625 0q0.5625 0 0.5625 0.5q0 0.515625 -0.5625 0.515625l-2.015625 0l0 3.953125q0 0.90625 0.375 1.390625q0.390625 0.46875 1.265625 0.46875q0.296875 0 0.5 -0.0625q0.21875 -0.078125 0.375 -0.078125q0.140625 -0.015625 0.234375 0.109375q0.109375 0.109375 0.109375 0.375q0 0.1875 -0.078125 0.359375q-0.078125 0.15625 -0.25 0.21875q-0.1875 0.0625 -0.5 0.109375q-0.3125 0.0625 -0.5625 0.0625zm3.211609 -9.78125q-0.84375 0 -0.84375 -0.8125q0 -0.78125 0.84375 -0.78125q0.84375 0 0.84375 0.78125q0 0.8125 -0.84375 0.8125zm0 9.71875q-0.640625 0 -0.640625 -0.703125l0 -6.546875q0 -0.6875 0.640625 -0.6875q0.65625 0 0.65625 0.6875l0 6.546875q0 0.703125 -0.65625 0.703125zm6.3057556 0.0625q-1.140625 0 -1.984375 -0.484375q-0.828125 -0.5 -1.28125 -1.40625q-0.453125 -0.90625 -0.453125 -2.140625q0 -1.234375 0.453125 -2.125q0.453125 -0.90625 1.28125 -1.40625q0.84375 -0.5 1.984375 -0.5q1.109375 0 1.953125 0.5q0.84375 0.5 1.296875 1.40625q0.453125 0.890625 0.453125 2.125q0 1.234375 -0.453125 2.140625q-0.453125 0.90625 -1.296875 1.40625q-0.84375 0.484375 -1.953125 0.484375zm0 -1.03125q1.078125 0 1.734375 -0.78125q0.65625 -0.78125 0.65625 -2.21875q0 -1.453125 -0.65625 -2.21875q-0.65625 -0.765625 -1.734375 -0.765625q-1.109375 0 -1.765625 0.765625q-0.640625 0.765625 -0.640625 2.21875q0 1.4375 0.640625 2.21875q0.65625 0.78125 1.765625 0.78125zm6.3022766 1.0q-0.640625 0 -0.640625 -0.671875l0 -6.671875q0 -0.65625 0.625 -0.65625q0.640625 0 0.640625 0.65625l0 0.78125q0.375 -0.734375 1.078125 -1.09375q0.703125 -0.375 1.59375 -0.375q2.765625 0 2.765625 3.078125l0 4.28125q0 0.671875 -0.640625 0.671875q-0.65625 0 -0.65625 -0.671875l0 -4.203125q0 -1.09375 -0.421875 -1.59375q-0.421875 -0.5 -1.359375 -0.5q-1.0625 0 -1.703125 0.671875q-0.625 0.65625 -0.625 1.75l0 3.875q0 0.671875 -0.65625 0.671875z" fill-rule="nonzero"/><path fill="#000000" fill-opacity="0.0" d="m497.35434 151.78215c0 12.5 -105.322845 24.992126 -210.64569 25.0c-105.322815 0.007873535 -210.64566 -12.468506 -210.64566 -24.937012" fill-rule="evenodd"/><path stroke="#5a8bff" stroke-width="2.0" stroke-linejoin="round" stroke-linecap="butt" d="m497.35434 151.78215c0 12.5 -105.322845 24.992126 -210.64569 25.0c-52.661407 0.0039367676 -105.322815 -3.1131897 -144.81888 -7.789856c-19.74804 -2.3383484 -36.204735 -5.066559 -47.72442 -7.9894867c-2.879921 -0.73072815 -5.4512787 -1.4736328 -7.688362 -2.225647l-0.49964905 -0.1714325" fill-rule="evenodd"/><path fill="#5a8bff" stroke="#5a8bff" stroke-width="2.0" stroke-linecap="butt" d="m87.83846 155.87643l-9.359833 -2.3840637l5.637596 7.842682z" fill-rule="evenodd"/><path fill="#000000" fill-opacity="0.0" d="m150.45355 181.47244l282.55118 0l0 38.771652l-282.55118 0z" fill-rule="evenodd"/><path fill="#ffffff" d="m200.02382 205.97307q-1.15625 0 -2.171875 -0.28125q-1.015625 -0.28125 -1.75 -0.8125q-0.265625 -0.1875 -0.3125 -0.421875q-0.046875 -0.234375 0.046875 -0.4375q0.109375 -0.21875 0.3125 -0.28125q0.21875 -0.078125 0.484375 0.09375q0.734375 0.53125 1.546875 0.75q0.8125 0.21875 1.84375 0.21875q1.4375 0 2.125 -0.53125q0.703125 -0.53125 0.703125 -1.40625q0 -0.71875 -0.515625 -1.125q-0.5 -0.421875 -1.671875 -0.65625l-1.671875 -0.34375q-1.5 -0.3125 -2.25 -1.03125q-0.734375 -0.734375 -0.734375 -1.953125q0 -1.015625 0.515625 -1.765625q0.515625 -0.75 1.4375 -1.15625q0.9375 -0.421875 2.15625 -0.421875q1.0 0 1.875 0.28125q0.875 0.28125 1.578125 0.84375q0.21875 0.171875 0.25 0.40625q0.046875 0.234375 -0.0625 0.421875q-0.109375 0.1875 -0.328125 0.25q-0.203125 0.046875 -0.484375 -0.125q-0.640625 -0.5 -1.34375 -0.703125q-0.6875 -0.203125 -1.5 -0.203125q-1.265625 0 -2.015625 0.578125q-0.75 0.578125 -0.75 1.546875q0 0.765625 0.46875 1.21875q0.46875 0.4375 1.546875 0.65625l1.65625 0.34375q1.609375 0.34375 2.390625 1.03125q0.78125 0.671875 0.78125 1.828125q0 0.953125 -0.515625 1.671875q-0.5 0.71875 -1.4375 1.125q-0.9375 0.390625 -2.203125 0.390625zm8.761902 0q-2.796875 0 -2.796875 -3.078125l0 -4.296875q0 -0.65625 0.640625 -0.65625q0.65625 0 0.65625 0.65625l0 4.28125q0 1.03125 0.421875 1.53125q0.421875 0.5 1.328125 0.5q1.0 0 1.625 -0.65625q0.625 -0.671875 0.625 -1.78125l0 -3.875q0 -0.65625 0.65625 -0.65625q0.640625 0 0.640625 0.65625l0 6.671875q0 0.671875 -0.625 0.671875q-0.640625 0 -0.640625 -0.671875l0 -0.75q-0.375 0.703125 -1.046875 1.078125q-0.65625 0.375 -1.484375 0.375zm10.163513 0q-0.921875 0 -1.625 -0.40625q-0.703125 -0.40625 -1.03125 -1.125l0 0.828125q0 0.671875 -0.640625 0.671875q-0.640625 0 -0.640625 -0.671875l0 -10.171875q0 -0.65625 0.640625 -0.65625q0.65625 0 0.65625 0.65625l0 4.296875q0.328125 -0.6875 1.03125 -1.078125q0.703125 -0.40625 1.609375 -0.40625q1.03125 0 1.8125 0.5q0.78125 0.484375 1.203125 1.390625q0.421875 0.890625 0.421875 2.140625q0 1.234375 -0.421875 2.140625q-0.421875 0.90625 -1.203125 1.40625q-0.78125 0.484375 -1.8125 0.484375zm-0.28125 -1.03125q1.09375 0 1.75 -0.78125q0.65625 -0.78125 0.65625 -2.21875q0 -1.453125 -0.65625 -2.21875q-0.65625 -0.765625 -1.75 -0.765625q-1.078125 0 -1.734375 0.765625q-0.65625 0.765625 -0.65625 2.21875q0 1.4375 0.65625 2.21875q0.65625 0.78125 1.734375 0.78125zm8.296768 1.03125q-0.71875 0 -1.453125 -0.171875q-0.734375 -0.1875 -1.34375 -0.609375q-0.296875 -0.171875 -0.296875 -0.453125q0.015625 -0.28125 0.21875 -0.4375q0.21875 -0.171875 0.53125 0q0.625 0.375 1.203125 0.53125q0.59375 0.15625 1.171875 0.15625q0.90625 0 1.375 -0.328125q0.46875 -0.34375 0.46875 -0.921875q0 -0.453125 -0.3125 -0.71875q-0.296875 -0.265625 -0.953125 -0.40625l-1.46875 -0.3125q-1.96875 -0.4375 -1.96875 -2.046875q0 -1.0625 0.828125 -1.703125q0.84375 -0.640625 2.203125 -0.640625q0.6875 0 1.328125 0.1875q0.640625 0.1875 1.15625 0.578125q0.265625 0.203125 0.234375 0.46875q-0.03125 0.265625 -0.25 0.421875q-0.21875 0.15625 -0.515625 -0.03125q-0.484375 -0.328125 -0.984375 -0.46875q-0.484375 -0.15625 -0.96875 -0.15625q-0.890625 0 -1.359375 0.359375q-0.46875 0.34375 -0.46875 0.921875q0 0.890625 1.1875 1.140625l1.453125 0.3125q1.03125 0.21875 1.546875 0.71875q0.53125 0.484375 0.53125 1.3125q0 1.0625 -0.84375 1.6875q-0.84375 0.609375 -2.25 0.609375zm8.367889 0q-1.171875 0 -2.03125 -0.5q-0.84375 -0.5 -1.296875 -1.421875q-0.453125 -0.921875 -0.453125 -2.15625q0 -1.859375 1.0 -2.921875q1.015625 -1.0625 2.78125 -1.0625q0.578125 0 1.203125 0.1875q0.625 0.1875 1.125 0.59375q0.28125 0.203125 0.234375 0.484375q-0.03125 0.28125 -0.265625 0.4375q-0.234375 0.140625 -0.546875 -0.0625q-0.421875 -0.328125 -0.859375 -0.453125q-0.421875 -0.125 -0.8125 -0.125q-1.21875 0 -1.875 0.765625q-0.65625 0.75 -0.65625 2.171875q0 1.390625 0.65625 2.203125q0.65625 0.8125 1.875 0.8125q0.390625 0 0.8125 -0.125q0.4375 -0.140625 0.859375 -0.453125q0.3125 -0.21875 0.53125 -0.0625q0.234375 0.15625 0.25 0.453125q0.03125 0.28125 -0.234375 0.453125q-0.515625 0.421875 -1.125 0.609375q-0.59375 0.171875 -1.171875 0.171875zm4.767395 -0.03125q-0.65625 0 -0.65625 -0.671875l0 -6.671875q0 -0.65625 0.625 -0.65625q0.640625 0 0.640625 0.65625l0 0.84375q0.3125 -0.734375 0.984375 -1.125q0.671875 -0.390625 1.609375 -0.421875q0.5 -0.046875 0.53125 0.515625q0.046875 0.5625 -0.5625 0.625l-0.265625 0.03125q-1.09375 0.09375 -1.671875 0.703125q-0.578125 0.59375 -0.578125 1.625l0 3.875q0 0.671875 -0.65625 0.671875zm5.712387 -9.75q-0.84375 0 -0.84375 -0.8125q0 -0.78125 0.84375 -0.78125q0.84375 0 0.84375 0.78125q0 0.8125 -0.84375 0.8125zm0 9.71875q-0.640625 0 -0.640625 -0.703125l0 -6.546875q0 -0.6875 0.640625 -0.6875q0.65625 0 0.65625 0.6875l0 6.546875q0 0.703125 -0.65625 0.703125zm7.0088806 0.0625q-0.921875 0 -1.625 -0.40625q-0.703125 -0.40625 -1.03125 -1.125l0 0.828125q0 0.671875 -0.640625 0.671875q-0.640625 0 -0.640625 -0.671875l0 -10.171875q0 -0.65625 0.640625 -0.65625q0.65625 0 0.65625 0.65625l0 4.296875q0.328125 -0.6875 1.03125 -1.078125q0.703125 -0.40625 1.609375 -0.40625q1.03125 0 1.8125 0.5q0.78125 0.484375 1.203125 1.390625q0.42189026 0.890625 0.42189026 2.140625q0 1.234375 -0.42189026 2.140625q-0.421875 0.90625 -1.203125 1.40625q-0.78125 0.484375 -1.8125 0.484375zm-0.28125 -1.03125q1.09375 0 1.75 -0.78125q0.65625 -0.78125 0.65625 -2.21875q0 -1.453125 -0.65625 -2.21875q-0.65625 -0.765625 -1.75 -0.765625q-1.078125 0 -1.734375 0.765625q-0.65625 0.765625 -0.65625 2.21875q0 1.4375 0.65625 2.21875q0.65625 0.78125 1.734375 0.78125zm9.171768 1.03125q-1.84375 0 -2.921875 -1.078125q-1.0625 -1.078125 -1.0625 -2.9375q0 -1.203125 0.484375 -2.109375q0.484375 -0.921875 1.3125 -1.421875q0.84375 -0.515625 1.953125 -0.515625q1.578125 0 2.46875 1.015625q0.90625 1.015625 0.90625 2.796875q0 0.5 -0.5625 0.5l-5.296875 0q0.0625 1.328125 0.765625 2.03125q0.703125 0.6875 1.953125 0.6875q0.53125 0 1.078125 -0.140625q0.546875 -0.140625 1.046875 -0.484375q0.375 -0.25 0.625 -0.09375q0.25 0.140625 0.25 0.4375q0.015625 0.296875 -0.328125 0.515625q-0.53125 0.390625 -1.265625 0.59375q-0.71875 0.203125 -1.40625 0.203125zm-0.203125 -7.09375q-1.109375 0 -1.75 0.6875q-0.640625 0.6875 -0.75 1.796875l4.71875 0q-0.046875 -1.171875 -0.625 -1.828125q-0.5625 -0.65625 -1.59375 -0.65625zm5.871399 7.0625q-0.65625 0 -0.65625 -0.671875l0 -6.671875q0 -0.65625 0.625 -0.65625q0.640625 0 0.640625 0.65625l0 0.84375q0.3125 -0.734375 0.984375 -1.125q0.671875 -0.390625 1.609375 -0.421875q0.5 -0.046875 0.53125 0.515625q0.046875 0.5625 -0.5625 0.625l-0.265625 0.03125q-1.09375 0.09375 -1.671875 0.703125q-0.578125 0.59375 -0.578125 1.625l0 3.875q0 0.671875 -0.65625 0.671875zm10.027893 0q-0.65625 0 -0.65625 -0.6875l0 -10.03125q0 -0.671875 0.671875 -0.671875l3.796875 0q1.828125 0 2.78125 0.890625q0.96875 0.875 0.96875 2.5q0 1.625 -0.96875 2.515625q-0.953125 0.875 -2.78125 0.875l-3.15625 0l0 3.921875q0 0.6875 -0.65625 0.6875zm0.65625 -5.703125l3.0 0q2.609375 0 2.609375 -2.296875q0 -2.296875 -2.609375 -2.296875l-3.0 0l0 4.59375zm11.7916565 5.734375q-1.84375 0 -2.921875 -1.078125q-1.0625 -1.078125 -1.0625 -2.9375q0 -1.203125 0.484375 -2.109375q0.484375 -0.921875 1.3125 -1.421875q0.84375 -0.515625 1.953125 -0.515625q1.578125 0 2.46875 1.015625q0.90625 1.015625 0.90625 2.796875q0 0.5 -0.5625 0.5l-5.296875 0q0.0625 1.328125 0.765625 2.03125q0.703125 0.6875 1.953125 0.6875q0.53125 0 1.078125 -0.140625q0.546875 -0.140625 1.046875 -0.484375q0.375 -0.25 0.625 -0.09375q0.25 0.140625 0.25 0.4375q0.015625 0.296875 -0.328125 0.515625q-0.53125 0.390625 -1.265625 0.59375q-0.71875 0.203125 -1.40625 0.203125zm-0.203125 -7.09375q-1.109375 0 -1.75 0.6875q-0.640625 0.6875 -0.75 1.796875l4.71875 0q-0.046875 -1.171875 -0.625 -1.828125q-0.5625 -0.65625 -1.59375 -0.65625zm8.715149 7.09375q-1.84375 0 -2.921875 -1.078125q-1.0625 -1.078125 -1.0625 -2.9375q0 -1.203125 0.484375 -2.109375q0.484375 -0.921875 1.3125 -1.421875q0.84375 -0.515625 1.953125 -0.515625q1.578125 0 2.46875 1.015625q0.90625 1.015625 0.90625 2.796875q0 0.5 -0.5625 0.5l-5.296875 0q0.0625 1.328125 0.765625 2.03125q0.703125 0.6875 1.953125 0.6875q0.53125 0 1.078125 -0.140625q0.546875 -0.140625 1.046875 -0.484375q0.375 -0.25 0.625 -0.09375q0.25 0.140625 0.25 0.4375q0.015625 0.296875 -0.328125 0.515625q-0.53125 0.390625 -1.265625 0.59375q-0.71875 0.203125 -1.40625 0.203125zm-0.203125 -7.09375q-1.109375 0 -1.75 0.6875q-0.640625 0.6875 -0.75 1.796875l4.71875 0q-0.046875 -1.171875 -0.625 -1.828125q-0.5625 -0.65625 -1.59375 -0.65625zm5.871399 7.0625q-0.65625 0 -0.65625 -0.671875l0 -6.671875q0 -0.65625 0.625 -0.65625q0.640625 0 0.640625 0.65625l0 0.84375q0.3125 -0.734375 0.984375 -1.125q0.671875 -0.390625 1.609375 -0.421875q0.5 -0.046875 0.53125 0.515625q0.046875 0.5625 -0.5625 0.625l-0.265625 0.03125q-1.09375 0.09375 -1.671875 0.703125q-0.578125 0.59375 -0.578125 1.625l0 3.875q0 0.671875 -0.65625 0.671875zm10.118622 0.03125q-1.65625 0 -2.84375 -0.703125q-1.1875 -0.703125 -1.828125 -2.0q-0.625 -1.296875 -0.625 -3.078125q0 -1.78125 0.625 -3.078125q0.640625 -1.296875 1.828125 -2.0q1.1875 -0.703125 2.84375 -0.703125q1.0 0 1.890625 0.296875q0.90625 0.28125 1.5625 0.8125q0.265625 0.1875 0.296875 0.453125q0.046875 0.25 -0.078125 0.453125q-0.125 0.1875 -0.359375 0.25q-0.234375 0.046875 -0.515625 -0.15625q-1.140625 -0.90625 -2.765625 -0.90625q-1.890625 0 -2.90625 1.203125q-1.0 1.1875 -1.0 3.375q0 2.1875 1.0 3.390625q1.015625 1.1875 2.90625 1.1875q1.625 0 2.796875 -0.921875q0.28125 -0.1875 0.515625 -0.140625q0.234375 0.046875 0.34375 0.234375q0.125 0.1875 0.09375 0.4375q-0.03125 0.234375 -0.265625 0.421875q-0.6875 0.578125 -1.59375 0.875q-0.890625 0.296875 -1.921875 0.296875zm8.395538 0q-1.140625 0 -1.984375 -0.484375q-0.828125 -0.5 -1.28125 -1.40625q-0.453125 -0.90625 -0.453125 -2.140625q0 -1.234375 0.453125 -2.125q0.453125 -0.90625 1.28125 -1.40625q0.84375 -0.5 1.984375 -0.5q1.109375 0 1.953125 0.5q0.84375 0.5 1.296875 1.40625q0.453125 0.890625 0.453125 2.125q0 1.234375 -0.453125 2.140625q-0.453125 0.90625 -1.296875 1.40625q-0.84375 0.484375 -1.953125 0.484375zm0 -1.03125q1.078125 0 1.734375 -0.78125q0.65625 -0.78125 0.65625 -2.21875q0 -1.453125 -0.65625 -2.21875q-0.65625 -0.765625 -1.734375 -0.765625q-1.109375 0 -1.765625 0.765625q-0.640625 0.765625 -0.640625 2.21875q0 1.4375 0.640625 2.21875q0.65625 0.78125 1.765625 0.78125zm6.302246 1.0q-0.640625 0 -0.640625 -0.671875l0 -6.671875q0 -0.65625 0.625 -0.65625q0.640625 0 0.640625 0.65625l0 0.78125q0.375 -0.734375 1.078125 -1.09375q0.703125 -0.375 1.59375 -0.375q2.765625 0 2.765625 3.078125l0 4.28125q0 0.671875 -0.640625 0.671875q-0.65625 0 -0.65625 -0.671875l0 -4.203125q0 -1.09375 -0.421875 -1.59375q-0.421875 -0.5 -1.359375 -0.5q-1.0625 0 -1.703125 0.671875q-0.625 0.65625 -0.625 1.75l0 3.875q0 0.671875 -0.65625 0.671875zm9.088013 0q-0.640625 0 -0.640625 -0.671875l0 -6.671875q0 -0.65625 0.625 -0.65625q0.640625 0 0.640625 0.65625l0 0.78125q0.375 -0.734375 1.078125 -1.09375q0.703125 -0.375 1.59375 -0.375q2.765625 0 2.765625 3.078125l0 4.28125q0 0.671875 -0.640625 0.671875q-0.65625 0 -0.65625 -0.671875l0 -4.203125q0 -1.09375 -0.421875 -1.59375q-0.421875 -0.5 -1.359375 -0.5q-1.0625 0 -1.703125 0.671875q-0.625 0.65625 -0.625 1.75l0 3.875q0 0.671875 -0.65625 0.671875zm11.947388 0.03125q-1.84375 0 -2.921875 -1.078125q-1.0625 -1.078125 -1.0625 -2.9375q0 -1.203125 0.484375 -2.109375q0.484375 -0.921875 1.3125 -1.421875q0.84375 -0.515625 1.953125 -0.515625q1.578125 0 2.46875 1.015625q0.90625 1.015625 0.90625 2.796875q0 0.5 -0.5625 0.5l-5.296875 0q0.0625 1.328125 0.765625 2.03125q0.703125 0.6875 1.953125 0.6875q0.53125 0 1.078125 -0.140625q0.546875 -0.140625 1.046875 -0.484375q0.375 -0.25 0.625 -0.09375q0.25 0.140625 0.25 0.4375q0.015625 0.296875 -0.328125 0.515625q-0.53125 0.390625 -1.265625 0.59375q-0.71875 0.203125 -1.40625 0.203125zm-0.203125 -7.09375q-1.109375 0 -1.75 0.6875q-0.640625 0.6875 -0.75 1.796875l4.71875 0q-0.046875 -1.171875 -0.625 -1.828125q-0.5625 -0.65625 -1.59375 -0.65625zm8.512024 7.09375q-1.171875 0 -2.03125 -0.5q-0.84375 -0.5 -1.296875 -1.421875q-0.453125 -0.921875 -0.453125 -2.15625q0 -1.859375 1.0 -2.921875q1.015625 -1.0625 2.78125 -1.0625q0.578125 0 1.203125 0.1875q0.625 0.1875 1.125 0.59375q0.28125 0.203125 0.234375 0.484375q-0.03125 0.28125 -0.265625 0.4375q-0.234375 0.140625 -0.546875 -0.0625q-0.421875 -0.328125 -0.859375 -0.453125q-0.421875 -0.125 -0.8125 -0.125q-1.21875 0 -1.875 0.765625q-0.65625 0.75 -0.65625 2.171875q0 1.390625 0.65625 2.203125q0.65625 0.8125 1.875 0.8125q0.390625 0 0.8125 -0.125q0.4375 -0.140625 0.859375 -0.453125q0.3125 -0.21875 0.53125 -0.0625q0.234375 0.15625 0.25 0.453125q0.03125 0.28125 -0.234375 0.453125q-0.515625 0.421875 -1.125 0.609375q-0.59375 0.171875 -1.171875 0.171875zm7.236145 0q-1.390625 0 -2.078125 -0.71875q-0.6875 -0.734375 -0.6875 -2.109375l0 -4.078125l-1.0625 0q-0.5625 0 -0.5625 -0.515625q0 -0.5 0.5625 -0.5l1.0625 0l0 -1.828125q0 -0.65625 0.65625 -0.65625q0.640625 0 0.640625 0.65625l0 1.828125l2.015625 0q0.5625 0 0.5625 0.5q0 0.515625 -0.5625 0.515625l-2.015625 0l0 3.953125q0 0.90625 0.375 1.390625q0.390625 0.46875 1.265625 0.46875q0.296875 0 0.5 -0.0625q0.21875 -0.078125 0.375 -0.078125q0.140625 -0.015625 0.234375 0.109375q0.109375 0.109375 0.109375 0.375q0 0.1875 -0.078125 0.359375q-0.078125 0.15625 -0.25 0.21875q-0.1875 0.0625 -0.5 0.109375q-0.3125 0.0625 -0.5625 0.0625zm3.2116394 -9.78125q-0.84375 0 -0.84375 -0.8125q0 -0.78125 0.84375 -0.78125q0.84375 0 0.84375 0.78125q0 0.8125 -0.84375 0.8125zm0 9.71875q-0.640625 0 -0.640625 -0.703125l0 -6.546875q0 -0.6875 0.640625 -0.6875q0.65625 0 0.65625 0.6875l0 6.546875q0 0.703125 -0.65625 0.703125zm6.3057556 0.0625q-1.140625 0 -1.984375 -0.484375q-0.828125 -0.5 -1.28125 -1.40625q-0.453125 -0.90625 -0.453125 -2.140625q0 -1.234375 0.453125 -2.125q0.453125 -0.90625 1.28125 -1.40625q0.84375 -0.5 1.984375 -0.5q1.109375 0 1.953125 0.5q0.84375 0.5 1.296875 1.40625q0.453125 0.890625 0.453125 2.125q0 1.234375 -0.453125 2.140625q-0.453125 0.90625 -1.296875 1.40625q-0.84375 0.484375 -1.953125 0.484375zm0 -1.03125q1.078125 0 1.734375 -0.78125q0.65625 -0.78125 0.65625 -2.21875q0 -1.453125 -0.65625 -2.21875q-0.65625 -0.765625 -1.734375 -0.765625q-1.109375 0 -1.765625 0.765625q-0.640625 0.765625 -0.640625 2.21875q0 1.4375 0.640625 2.21875q0.65625 0.78125 1.765625 0.78125zm6.302246 1.0q-0.640625 0 -0.640625 -0.671875l0 -6.671875q0 -0.65625 0.625 -0.65625q0.640625 0 0.640625 0.65625l0 0.78125q0.375 -0.734375 1.078125 -1.09375q0.703125 -0.375 1.59375 -0.375q2.765625 0 2.765625 3.078125l0 4.28125q0 0.671875 -0.640625 0.671875q-0.65625 0 -0.65625 -0.671875l0 -4.203125q0 -1.09375 -0.421875 -1.59375q-0.421875 -0.5 -1.359375 -0.5q-1.0625 0 -1.703125 0.671875q-0.625 0.65625 -0.625 1.75l0 3.875q0 0.671875 -0.65625 0.671875z" fill-rule="nonzero"/></g></svg>